<?xml version="1.0" encoding="utf-8"?>
<!DOCTYPE svg PUBLIC "-//W3C//DTD SVG 1.1//EN" "http://www.w3.org/Graphics/SVG/1.1/DTD/svg11.dtd">
<svg xmlns="http://www.w3.org/2000/svg" xmlns:xlink="http://www.w3.org/1999/xlink" version="1.1" baseProfile="full" width="1440" height="1000" viewBox="0 0 1440.00 1000.00" enable-background="new 0 0 1440.00 1000.00" xml:space="preserve">
	<image x="0" y="0" width="20" height="20" opacity="0.104997" transform="matrix(1.00,0.00,0.00,1.00,770.00,477.00)" xlink:href="120_files/image90.png"/>
	<image x="0" y="0" width="20" height="20" opacity="0.104997" transform="matrix(1.00,0.00,0.00,1.00,129.92,477.00)" xlink:href="120_files/image91.png"/>
	<image x="0" y="0" width="20" height="20" opacity="0.104997" transform="matrix(1.00,0.00,0.00,1.00,689.72,477.00)" xlink:href="120_files/image92.png"/>
	<image x="0" y="0" width="20" height="20" transform="matrix(1.00,0.00,0.00,1.00,969.72,477.00)" xlink:href="120_files/image93.png"/>
	<image x="0" y="0" width="20" height="20" opacity="0.4" transform="matrix(1.00,0.00,0.00,1.00,1249.72,477.00)" xlink:href="120_files/image94.png"/>
	<image x="0" y="0" width="20" height="20" opacity="0.104997" transform="matrix(1.00,0.00,0.00,1.00,409.92,477.00)" xlink:href="120_files/image95.png"/>
	<image x="0" y="0" width="20" height="20" opacity="0.104997" transform="matrix(1.00,0.00,0.00,1.00,208.20,477.00)" xlink:href="120_files/image96.png"/>
	<image x="0" y="0" width="20" height="20" opacity="0.4" transform="matrix(1.00,0.00,0.00,1.00,1050.00,477.00)" xlink:href="120_files/image97.png"/>
	<image x="0" y="0" width="20" height="20" opacity="0.4" transform="matrix(1.00,0.00,0.00,1.00,1330.00,477.00)" xlink:href="120_files/image98.png"/>
	<image x="0" y="0" width="20" height="20" opacity="0.104997" transform="matrix(1.00,0.00,0.00,1.00,489.20,477.00)" xlink:href="120_files/image99.png"/>
	<image x="0" y="0" width="20" height="20" opacity="0.104997" transform="matrix(1.00,0.00,0.00,1.00,52.42,500.00)" xlink:href="120_files/image100.png"/>
	<image x="0" y="0" width="20" height="20" opacity="0.104997" transform="matrix(1.00,0.00,0.00,1.00,373.00,500.00)" xlink:href="120_files/image101.png"/>
	<image x="0" y="0" width="20" height="20" opacity="0.104997" transform="matrix(1.00,0.00,0.00,1.00,130.42,500.00)" xlink:href="120_files/image102.png"/>
	<image x="0" y="0" width="20" height="20" opacity="0.104997" transform="matrix(1.00,0.00,0.00,1.00,412.00,500.00)" xlink:href="120_files/image103.png"/>
	<image x="0" y="0" width="20" height="20" opacity="0.104997" transform="matrix(1.00,0.00,0.00,1.00,612.00,500.00)" xlink:href="120_files/image104.png"/>
	<image x="0" y="0" width="20" height="20" opacity="0.104997" transform="matrix(1.00,0.00,0.00,1.00,891.00,500.00)" xlink:href="120_files/image105.png"/>
	<image x="0" y="0" width="20" height="20" opacity="0.104997" transform="matrix(1.00,0.00,0.00,1.00,690.00,500.00)" xlink:href="120_files/image106.png"/>
	<image x="0" y="0" width="20" height="20" opacity="0.104997" transform="matrix(1.00,0.00,0.00,1.00,970.00,500.00)" xlink:href="120_files/image107.png"/>
	<image x="0" y="0" width="20" height="20" opacity="0.4" transform="matrix(1.00,0.00,0.00,1.00,1250.00,500.00)" xlink:href="120_files/image108.png"/>
	<image x="0" y="0" width="20" height="20" transform="matrix(1.00,0.00,0.00,1.00,1170.00,500.00)" xlink:href="120_files/image109.png"/>
	<line fill="none" stroke-width="3" stroke-linejoin="round" stroke="#000000" stroke-opacity="0.105882" x1="152" y1="487.851" x2="367.541" y2="512.459"/>
	<line fill="none" stroke-width="3" stroke-linejoin="round" stroke="#000000" stroke-opacity="0.105882" x1="228.041" y1="489.459" x2="410.041" y2="509.959"/>
	<line fill="none" stroke-width="3" stroke-linejoin="round" stroke="#000000" stroke-opacity="0.105882" x1="432" y1="487.667" x2="605.791" y2="512.209"/>
	<line fill="none" stroke-width="3" stroke-linejoin="round" stroke="#000000" stroke-opacity="0.105882" x1="511.793" y1="487.92" x2="684.458" y2="511.875"/>
	<line fill="none" stroke-width="3" stroke-linejoin="round" stroke="#000000" stroke-opacity="0.105882" x1="712.126" y1="488" x2="885.958" y2="512.542"/>
	<line fill="none" stroke-width="3" stroke-linejoin="round" stroke="#000000" stroke-opacity="0.101961" x1="792.458" y1="487.542" x2="966.665" y2="510.136"/>
	<line fill="none" stroke-width="3" stroke-linejoin="round" stroke="#000000" stroke-opacity="1" x1="992.126" y1="488" x2="1165.96" y2="511.542"/>
	<line fill="none" stroke-width="3" stroke-linejoin="round" stroke="#000000" stroke-opacity="0.301961" x1="1072.13" y1="488" x2="1245.96" y2="511.542"/>
	<image x="0" y="0" width="60" height="60" transform="matrix(0.67,0.00,0.00,0.67,360.00,40.00)" xlink:href="120_files/image110.png"/>
	<image x="0" y="0" width="60" height="60" transform="matrix(0.67,0.00,0.00,0.67,360.00,540.00)" xlink:href="120_files/image111.png"/>
	<image x="0" y="0" width="60" height="60" transform="matrix(0.67,0.00,0.00,0.67,480.00,40.00)" xlink:href="120_files/image112.png"/>
	<image x="0" y="0" width="60" height="60" transform="matrix(0.67,0.00,0.00,0.67,480.00,540.00)" xlink:href="120_files/image113.png"/>
	<image x="0" y="0" width="60" height="60" transform="matrix(0.67,0.00,0.00,0.67,920.00,40.00)" xlink:href="120_files/image114.png"/>
	<image x="0" y="0" width="60" height="60" transform="matrix(0.67,0.00,0.00,0.67,920.00,540.00)" xlink:href="120_files/image115.png"/>
	<image x="0" y="0" width="60" height="60" transform="matrix(0.67,0.00,0.00,0.67,680.00,40.00)" xlink:href="120_files/image116.png"/>
	<image x="0" y="0" width="60" height="60" transform="matrix(0.67,0.00,0.00,0.67,680.00,540.00)" xlink:href="120_files/image117.png"/>
	<image x="0" y="0" width="60" height="60" transform="matrix(0.67,0.00,0.00,0.67,1120.00,40.00)" xlink:href="120_files/image118.png"/>
	<image x="0" y="0" width="60" height="60" transform="matrix(0.67,0.00,0.00,0.67,1120.00,540.00)" xlink:href="120_files/image119.png"/>
	<image x="0" y="0" width="60" height="60" transform="matrix(0.67,0.00,0.00,0.67,760.00,40.00)" xlink:href="120_files/image120.png"/>
	<image x="0" y="0" width="60" height="60" transform="matrix(0.67,0.00,0.00,0.67,760.00,540.00)" xlink:href="120_files/image121.png"/>
	<image x="0" y="0" width="60" height="60" transform="matrix(0.67,0.00,0.00,0.67,1200.00,40.00)" xlink:href="120_files/image122.png"/>
	<image x="0" y="0" width="60" height="60" transform="matrix(0.67,0.00,0.00,0.67,1200.00,540.00)" xlink:href="120_files/image123.png"/>
	<image x="0" y="0" width="60" height="60" transform="matrix(0.67,0.00,0.00,0.67,1360.00,40.00)" xlink:href="120_files/image124.png"/>
	<image x="0" y="0" width="60" height="60" transform="matrix(0.67,0.00,0.00,0.67,1360.00,540.00)" xlink:href="120_files/image125.png"/>
	<image x="0" y="0" width="60" height="60" transform="matrix(0.67,0.00,0.00,0.67,800.00,40.00)" xlink:href="120_files/image126.png"/>
	<image x="0" y="0" width="60" height="60" transform="matrix(0.67,0.00,0.00,0.67,800.00,540.00)" xlink:href="120_files/image127.png"/>
	<image x="0" y="0" width="60" height="60" transform="matrix(0.67,0.00,0.00,0.67,1240.00,40.00)" xlink:href="120_files/image128.png"/>
	<image x="0" y="0" width="60" height="60" transform="matrix(0.67,0.00,0.00,0.67,1240.00,540.00)" xlink:href="120_files/image129.png"/>
	<image x="0" y="0" width="60" height="60" transform="matrix(0.67,0.00,0.00,0.67,1400.00,40.00)" xlink:href="120_files/image130.png"/>
	<image x="0" y="0" width="60" height="60" transform="matrix(0.67,0.00,0.00,0.67,1400.00,540.00)" xlink:href="120_files/image131.png"/>
	<image x="0" y="0" width="60" height="60" transform="matrix(0.67,0.00,0.00,0.67,840.00,40.00)" xlink:href="120_files/image132.png"/>
	<image x="0" y="0" width="60" height="60" transform="matrix(0.67,0.00,0.00,0.67,840.00,540.00)" xlink:href="120_files/image133.png"/>
	<image x="0" y="0" width="60" height="60" transform="matrix(0.67,0.00,0.00,0.67,400.00,40.00)" xlink:href="120_files/image134.png"/>
	<image x="0" y="0" width="60" height="60" transform="matrix(0.67,0.00,0.00,0.67,400.00,540.00)" xlink:href="120_files/image135.png"/>
	<image x="0" y="0" width="60" height="60" transform="matrix(0.67,0.00,0.00,0.67,520.00,40.00)" xlink:href="120_files/image136.png"/>
	<image x="0" y="0" width="60" height="60" transform="matrix(0.67,0.00,0.00,0.67,520.00,540.00)" xlink:href="120_files/image137.png"/>
	<image x="0" y="0" width="60" height="60" transform="matrix(0.67,0.00,0.00,0.67,960.00,40.00)" xlink:href="120_files/image138.png"/>
	<image x="0" y="0" width="60" height="60" transform="matrix(0.67,0.00,0.00,0.67,960.00,540.00)" xlink:href="120_files/image139.png"/>
	<image x="0" y="0" width="60" height="60" transform="matrix(0.67,0.00,0.00,0.67,560.00,40.00)" xlink:href="120_files/image140.png"/>
	<image x="0" y="0" width="60" height="60" transform="matrix(0.67,0.00,0.00,0.67,560.00,540.00)" xlink:href="120_files/image141.png"/>
	<image x="0" y="0" width="60" height="60" transform="matrix(0.67,0.00,0.00,0.67,1000.00,40.00)" xlink:href="120_files/image142.png"/>
	<image x="0" y="0" width="60" height="60" transform="matrix(0.67,0.00,0.00,0.67,1000.00,540.00)" xlink:href="120_files/image143.png"/>
	<image x="0" y="0" width="60" height="60" transform="matrix(0.67,0.00,0.00,0.67,440.00,40.00)" xlink:href="120_files/image144.png"/>
	<image x="0" y="0" width="60" height="60" transform="matrix(0.67,0.00,0.00,0.67,440.00,540.00)" xlink:href="120_files/image145.png"/>
	<image x="0" y="0" width="60" height="60" transform="matrix(0.67,0.00,0.00,0.67,880.00,40.00)" xlink:href="120_files/image146.png"/>
	<image x="0" y="0" width="60" height="60" transform="matrix(0.67,0.00,0.00,0.67,880.00,540.00)" xlink:href="120_files/image147.png"/>
	<image x="0" y="0" width="60" height="60" transform="matrix(0.67,0.00,0.00,0.67,1280.00,40.00)" xlink:href="120_files/image148.png"/>
	<image x="0" y="0" width="60" height="60" transform="matrix(0.67,0.00,0.00,0.67,1280.00,540.00)" xlink:href="120_files/image149.png"/>
	<image x="0" y="0" width="60" height="60" transform="matrix(0.67,0.00,0.00,0.67,240.00,40.00)" xlink:href="120_files/image150.png"/>
	<image x="0" y="0" width="60" height="60" transform="matrix(0.67,0.00,0.00,0.67,240.00,540.00)" xlink:href="120_files/image151.png"/>
	<image x="0" y="0" width="60" height="60" transform="matrix(0.67,0.00,0.00,0.67,280.00,40.00)" xlink:href="120_files/image152.png"/>
	<image x="0" y="0" width="60" height="60" transform="matrix(0.67,0.00,0.00,0.67,280.00,540.00)" xlink:href="120_files/image153.png"/>
	<image x="0" y="0" width="60" height="60" transform="matrix(0.67,0.00,0.00,0.67,320.00,40.00)" xlink:href="120_files/image154.png"/>
	<image x="0" y="0" width="60" height="60" transform="matrix(0.67,0.00,0.00,0.67,320.00,540.00)" xlink:href="120_files/image155.png"/>
	<image x="0" y="0" width="60" height="60" transform="matrix(0.67,0.00,0.00,0.67,200.00,40.00)" xlink:href="120_files/image156.png"/>
	<image x="0" y="0" width="60" height="60" transform="matrix(0.67,0.00,0.00,0.67,200.00,540.00)" xlink:href="120_files/image157.png"/>
	<image x="0" y="0" width="60" height="60" transform="matrix(0.67,0.00,0.00,0.67,160.00,40.00)" xlink:href="120_files/image158.png"/>
	<image x="0" y="0" width="60" height="60" transform="matrix(0.67,0.00,0.00,0.67,160.00,540.00)" xlink:href="120_files/image159.png"/>
	<image x="0" y="0" width="60" height="60" transform="matrix(0.67,0.00,0.00,0.67,40.00,40.00)" xlink:href="120_files/image160.png"/>
	<image x="0" y="0" width="60" height="60" transform="matrix(0.67,0.00,0.00,0.67,40.00,540.00)" xlink:href="120_files/image161.png"/>
	<image x="0" y="0" width="60" height="60" transform="matrix(0.67,0.00,0.00,0.67,80.00,40.00)" xlink:href="120_files/image162.png"/>
	<image x="0" y="0" width="60" height="60" transform="matrix(0.67,0.00,0.00,0.67,80.00,540.00)" xlink:href="120_files/image163.png"/>
	<image x="0" y="0" width="60" height="60" transform="matrix(0.67,0.00,0.00,0.67,600.00,40.00)" xlink:href="120_files/image164.png"/>
	<image x="0" y="0" width="60" height="60" transform="matrix(0.67,0.00,0.00,0.67,600.00,540.00)" xlink:href="120_files/image165.png"/>
	<image x="0" y="0" width="60" height="60" transform="matrix(0.67,0.00,0.00,0.67,1040.00,40.00)" xlink:href="120_files/image166.png"/>
	<image x="0" y="0" width="60" height="60" transform="matrix(0.67,0.00,0.00,0.67,1040.00,540.00)" xlink:href="120_files/image167.png"/>
	<image x="0" y="0" width="60" height="60" transform="matrix(0.67,0.00,0.00,0.67,120.00,40.00)" xlink:href="120_files/image168.png"/>
	<image x="0" y="0" width="60" height="60" transform="matrix(0.67,0.00,0.00,0.67,120.00,540.00)" xlink:href="120_files/image169.png"/>
	<image x="0" y="0" width="60" height="60" transform="matrix(0.67,0.00,0.00,0.67,640.00,40.00)" xlink:href="120_files/image170.png"/>
	<image x="0" y="0" width="60" height="60" transform="matrix(0.67,0.00,0.00,0.67,640.00,540.00)" xlink:href="120_files/image171.png"/>
	<image x="0" y="0" width="60" height="60" transform="matrix(0.67,0.00,0.00,0.67,1080.00,40.00)" xlink:href="120_files/image172.png"/>
	<image x="0" y="0" width="60" height="60" transform="matrix(0.67,0.00,0.00,0.67,1080.00,540.00)" xlink:href="120_files/image173.png"/>
	<image x="0" y="0" width="60" height="60" transform="matrix(0.67,0.00,0.00,0.67,720.00,40.00)" xlink:href="120_files/image174.png"/>
	<image x="0" y="0" width="60" height="60" transform="matrix(0.67,0.00,0.00,0.67,720.00,540.00)" xlink:href="120_files/image175.png"/>
	<image x="0" y="0" width="60" height="60" transform="matrix(0.67,0.00,0.00,0.67,1160.00,40.00)" xlink:href="120_files/image176.png"/>
	<image x="0" y="0" width="60" height="60" transform="matrix(0.67,0.00,0.00,0.67,1160.00,540.00)" xlink:href="120_files/image177.png"/>
	<image x="0" y="0" width="60" height="60" transform="matrix(0.67,0.00,0.00,0.67,1320.00,40.00)" xlink:href="120_files/image178.png"/>
	<image x="0" y="0" width="60" height="60" transform="matrix(0.67,0.00,0.00,0.67,1320.00,540.00)" xlink:href="120_files/image179.png"/>
	<line fill="none" stroke-width="3" stroke-linejoin="round" stroke="#000000" stroke-opacity="1" x1="-0.000434875" y1="500" x2="1440" y2="500"/>
	<line fill="none" stroke-width="2" stroke-linejoin="round" stroke="#000000" stroke-opacity="1" x1="39.9995" y1="120" x2="39.9995" y2="500"/>
	<line fill="none" stroke-width="2" stroke-linejoin="round" stroke="#000000" stroke-opacity="1" x1="39.9997" y1="619.998" x2="39.9997" y2="1000"/>
	<line fill="none" stroke-width="0.200002" stroke-linejoin="round" stroke="#000000" stroke-opacity="1" x1="400" y1="20.0011" x2="400" y2="1000"/>
	<line fill="none" stroke-width="0.200002" stroke-linejoin="round" stroke="#000000" stroke-opacity="1" x1="760" y1="20.0013" x2="760" y2="1000"/>
	<line fill="none" stroke-width="0.200002" stroke-linejoin="round" stroke="#000000" stroke-opacity="1" x1="1120" y1="20.0013" x2="1120" y2="1000"/>
	<line fill="none" stroke-width="0.200002" stroke-linejoin="round" stroke="#000000" stroke-opacity="1" x1="79.9995" y1="20.0011" x2="79.9995" y2="1000"/>
	<line fill="none" stroke-width="0.200002" stroke-linejoin="round" stroke="#000000" stroke-opacity="1" x1="440" y1="20.0011" x2="440" y2="1000"/>
	<line fill="none" stroke-width="0.200002" stroke-linejoin="round" stroke="#000000" stroke-opacity="1" x1="799.999" y1="20.0013" x2="799.999" y2="1000"/>
	<line fill="none" stroke-width="2" stroke-linejoin="round" stroke="#000000" stroke-opacity="1" x1="1160" y1="0.000834147" x2="1160" y2="1000"/>
	<line fill="none" stroke-width="0.200002" stroke-linejoin="round" stroke="#000000" stroke-opacity="1" x1="119.999" y1="20.0011" x2="119.999" y2="1000"/>
	<line fill="none" stroke-width="0.200002" stroke-linejoin="round" stroke="#000000" stroke-opacity="1" x1="479.999" y1="20.0011" x2="479.999" y2="1000"/>
	<line fill="none" stroke-width="0.200002" stroke-linejoin="round" stroke="#000000" stroke-opacity="1" x1="839.999" y1="20.0013" x2="839.999" y2="1000"/>
	<line fill="none" stroke-width="0.200002" stroke-linejoin="round" stroke="#000000" stroke-opacity="1" x1="1200" y1="20.001" x2="1200" y2="1000"/>
	<line fill="none" stroke-width="0.200002" stroke-linejoin="round" stroke="#000000" stroke-opacity="1" x1="159.999" y1="20.0011" x2="159.999" y2="1000"/>
	<line fill="none" stroke-width="0.200002" stroke-linejoin="round" stroke="#000000" stroke-opacity="1" x1="519.999" y1="20.0011" x2="519.999" y2="1000"/>
	<line fill="none" stroke-width="2" stroke-linejoin="round" stroke="#000000" stroke-opacity="1" x1="879.999" y1="0.000834147" x2="879.999" y2="1000"/>
	<line fill="none" stroke-width="0.200002" stroke-linejoin="round" stroke="#000000" stroke-opacity="1" x1="1240" y1="20.001" x2="1240" y2="1000"/>
	<line fill="none" stroke-width="0.200002" stroke-linejoin="round" stroke="#000000" stroke-opacity="1" x1="199.999" y1="20.0011" x2="199.999" y2="1000"/>
	<line fill="none" stroke-width="0.200002" stroke-linejoin="round" stroke="#000000" stroke-opacity="1" x1="559.999" y1="20.0011" x2="559.999" y2="1000"/>
	<line fill="none" stroke-width="0.200002" stroke-linejoin="round" stroke="#000000" stroke-opacity="1" x1="919.999" y1="20.0013" x2="919.999" y2="1000"/>
	<line fill="none" stroke-width="0.200002" stroke-linejoin="round" stroke="#000000" stroke-opacity="1" x1="1280" y1="20.001" x2="1280" y2="1000"/>
	<line fill="none" stroke-width="0.200002" stroke-linejoin="round" stroke="#000000" stroke-opacity="1" x1="239.999" y1="20.0011" x2="239.999" y2="1000"/>
	<line fill="none" stroke-width="2" stroke-linejoin="round" stroke="#000000" stroke-opacity="1" x1="599.999" y1="0.000895182" x2="599.999" y2="1000"/>
	<line fill="none" stroke-width="0.200002" stroke-linejoin="round" stroke="#000000" stroke-opacity="1" x1="959.999" y1="20.0013" x2="959.999" y2="1000"/>
	<line fill="none" stroke-width="0.200002" stroke-linejoin="round" stroke="#000000" stroke-opacity="1" x1="1320" y1="20.001" x2="1320" y2="1000"/>
	<line fill="none" stroke-width="0.200002" stroke-linejoin="round" stroke="#000000" stroke-opacity="1" x1="279.999" y1="20.0011" x2="279.999" y2="1000"/>
	<line fill="none" stroke-width="0.200002" stroke-linejoin="round" stroke="#000000" stroke-opacity="1" x1="639.999" y1="20.0014" x2="639.999" y2="1000"/>
	<line fill="none" stroke-width="0.200002" stroke-linejoin="round" stroke="#000000" stroke-opacity="1" x1="999.999" y1="20.0013" x2="999.999" y2="1000"/>
	<line fill="none" stroke-width="0.200002" stroke-linejoin="round" stroke="#000000" stroke-opacity="1" x1="1360" y1="20.001" x2="1360" y2="1000"/>
	<line fill="none" stroke-width="2" stroke-linejoin="round" stroke="#000000" stroke-opacity="1" x1="319.999" y1="0.000895182" x2="319.999" y2="1000"/>
	<line fill="none" stroke-width="0.200002" stroke-linejoin="round" stroke="#000000" stroke-opacity="1" x1="679.999" y1="20.0014" x2="679.999" y2="1000"/>
	<line fill="none" stroke-width="0.200002" stroke-linejoin="round" stroke="#000000" stroke-opacity="1" x1="1040" y1="20.0013" x2="1040" y2="1000"/>
	<line fill="none" stroke-width="0.200002" stroke-linejoin="round" stroke="#000000" stroke-opacity="1" x1="1400" y1="20.001" x2="1400" y2="1000"/>
	<line fill="none" stroke-width="0.200002" stroke-linejoin="round" stroke="#000000" stroke-opacity="1" x1="359.999" y1="20.0011" x2="359.999" y2="1000"/>
	<line fill="none" stroke-width="0.200002" stroke-linejoin="round" stroke="#000000" stroke-opacity="1" x1="720" y1="20.0014" x2="720" y2="1000"/>
	<line fill="none" stroke-width="0.200002" stroke-linejoin="round" stroke="#000000" stroke-opacity="1" x1="1080" y1="20.0014" x2="1080" y2="1000"/>
	<text transform="matrix(1.0000000000000000 0.0000000000000000 0.0000000000000000 1.0000000000000000 49.00 40.00)" xml:space="preserve">
		<tspan style=" font-family:Segoe UI; font-size:12.000000pt;" letter-spacing="0.00em" fill="#000000" fill-opacity="1" stroke-width="0.2" stroke-linejoin="round">Mo</tspan>
	</text>
	<text transform="matrix(1.0000000000000000 0.0000000000000000 0.0000000000000000 1.0000000000000000 329.00 40.00)" xml:space="preserve">
		<tspan style=" font-family:Segoe UI; font-size:12.000000pt;" letter-spacing="0.00em" fill="#000000" fill-opacity="1" stroke-width="0.2" stroke-linejoin="round">Mo</tspan>
	</text>
	<text transform="matrix(1.0000000000000000 0.0000000000000000 0.0000000000000000 1.0000000000000000 609.00 40.00)" xml:space="preserve">
		<tspan style=" font-family:Segoe UI; font-size:12.000000pt;" letter-spacing="0.00em" fill="#000000" fill-opacity="1" stroke-width="0.2" stroke-linejoin="round">Mo</tspan>
	</text>
	<text transform="matrix(1.0000000000000000 0.0000000000000000 0.0000000000000000 1.0000000000000000 889.00 40.00)" xml:space="preserve">
		<tspan style=" font-family:Segoe UI; font-size:12.000000pt;" letter-spacing="0.00em" fill="#000000" fill-opacity="1" stroke-width="0.2" stroke-linejoin="round">Mo</tspan>
	</text>
	<text transform="matrix(1.0000000000000000 0.0000000000000000 0.0000000000000000 1.0000000000000000 1169.00 40.00)" xml:space="preserve">
		<tspan style=" font-family:Segoe UI; font-size:12.000000pt;" letter-spacing="0.00em" fill="#000000" fill-opacity="1" stroke-width="0.2" stroke-linejoin="round">Mo</tspan>
	</text>
	<text transform="matrix(1.0000000000000000 0.0000000000000000 0.0000000000000000 1.0000000000000000 93.00 40.00)" xml:space="preserve">
		<tspan style=" font-family:Segoe UI; font-size:12.000000pt;" letter-spacing="0.00em" fill="#000000" fill-opacity="1" stroke-width="0.2" stroke-linejoin="round">Di</tspan>
	</text>
	<text transform="matrix(1.0000000000000000 0.0000000000000000 0.0000000000000000 1.0000000000000000 373.00 40.00)" xml:space="preserve">
		<tspan style=" font-family:Segoe UI; font-size:12.000000pt;" letter-spacing="0.00em" fill="#000000" fill-opacity="1" stroke-width="0.2" stroke-linejoin="round">Di</tspan>
	</text>
	<text transform="matrix(1.0000000000000000 0.0000000000000000 0.0000000000000000 1.0000000000000000 653.00 40.00)" xml:space="preserve">
		<tspan style=" font-family:Segoe UI; font-size:12.000000pt;" letter-spacing="0.00em" fill="#000000" fill-opacity="1" stroke-width="0.2" stroke-linejoin="round">Di</tspan>
	</text>
	<text transform="matrix(1.0000000000000000 0.0000000000000000 0.0000000000000000 1.0000000000000000 933.00 40.00)" xml:space="preserve">
		<tspan style=" font-family:Segoe UI; font-size:12.000000pt;" letter-spacing="0.00em" fill="#000000" fill-opacity="1" stroke-width="0.2" stroke-linejoin="round">Di</tspan>
	</text>
	<text transform="matrix(1.0000000000000000 0.0000000000000000 0.0000000000000000 1.0000000000000000 1213.00 40.00)" xml:space="preserve">
		<tspan style=" font-family:Segoe UI; font-size:12.000000pt;" letter-spacing="0.00em" fill="#000000" fill-opacity="1" stroke-width="0.2" stroke-linejoin="round">Di</tspan>
	</text>
	<text transform="matrix(1.0000000000000000 0.0000000000000000 0.0000000000000000 1.0000000000000000 132.00 40.00)" xml:space="preserve">
		<tspan style=" font-family:Segoe UI; font-size:12.000000pt;" letter-spacing="0.00em" fill="#000000" fill-opacity="1" stroke-width="0.2" stroke-linejoin="round">Mi</tspan>
	</text>
	<text transform="matrix(1.0000000000000000 0.0000000000000000 0.0000000000000000 1.0000000000000000 412.00 40.00)" xml:space="preserve">
		<tspan style=" font-family:Segoe UI; font-size:12.000000pt;" letter-spacing="0.00em" fill="#000000" fill-opacity="1" stroke-width="0.2" stroke-linejoin="round">Mi</tspan>
	</text>
	<text transform="matrix(1.0000000000000000 0.0000000000000000 0.0000000000000000 1.0000000000000000 692.00 40.00)" xml:space="preserve">
		<tspan style=" font-family:Segoe UI; font-size:12.000000pt;" letter-spacing="0.00em" fill="#000000" fill-opacity="1" stroke-width="0.2" stroke-linejoin="round">Mi</tspan>
	</text>
	<text transform="matrix(1.0000000000000000 0.0000000000000000 0.0000000000000000 1.0000000000000000 972.00 40.00)" xml:space="preserve">
		<tspan style=" font-family:Segoe UI; font-size:12.000000pt;" letter-spacing="0.00em" fill="#000000" fill-opacity="1" stroke-width="0.2" stroke-linejoin="round">Mi</tspan>
	</text>
	<text transform="matrix(1.0000000000000000 0.0000000000000000 0.0000000000000000 1.0000000000000000 1252.00 40.00)" xml:space="preserve">
		<tspan style=" font-family:Segoe UI; font-size:12.000000pt;" letter-spacing="0.00em" fill="#000000" fill-opacity="1" stroke-width="0.2" stroke-linejoin="round">Mi</tspan>
	</text>
	<text transform="matrix(1.0000000000000000 0.0000000000000000 0.0000000000000000 1.0000000000000000 170.00 40.00)" xml:space="preserve">
		<tspan style=" font-family:Segoe UI; font-size:12.000000pt;" letter-spacing="0.00em" fill="#000000" fill-opacity="1" stroke-width="0.2" stroke-linejoin="round">Do</tspan>
	</text>
	<text transform="matrix(1.0000000000000000 0.0000000000000000 0.0000000000000000 1.0000000000000000 450.00 40.00)" xml:space="preserve">
		<tspan style=" font-family:Segoe UI; font-size:12.000000pt;" letter-spacing="0.00em" fill="#000000" fill-opacity="1" stroke-width="0.2" stroke-linejoin="round">Do</tspan>
	</text>
	<text transform="matrix(1.0000000000000000 0.0000000000000000 0.0000000000000000 1.0000000000000000 730.00 40.00)" xml:space="preserve">
		<tspan style=" font-family:Segoe UI; font-size:12.000000pt;" letter-spacing="0.00em" fill="#000000" fill-opacity="1" stroke-width="0.2" stroke-linejoin="round">Do</tspan>
	</text>
	<text transform="matrix(1.0000000000000000 0.0000000000000000 0.0000000000000000 1.0000000000000000 1010.00 40.00)" xml:space="preserve">
		<tspan style=" font-family:Segoe UI; font-size:12.000000pt;" letter-spacing="0.00em" fill="#000000" fill-opacity="1" stroke-width="0.2" stroke-linejoin="round">Do</tspan>
	</text>
	<text transform="matrix(1.0000000000000000 0.0000000000000000 0.0000000000000000 1.0000000000000000 1290.00 40.00)" xml:space="preserve">
		<tspan style=" font-family:Segoe UI; font-size:12.000000pt;" letter-spacing="0.00em" fill="#000000" fill-opacity="1" stroke-width="0.2" stroke-linejoin="round">Do</tspan>
	</text>
	<text transform="matrix(1.0000000000000000 0.0000000000000000 0.0000000000000000 1.0000000000000000 214.00 40.00)" xml:space="preserve">
		<tspan style=" font-family:Segoe UI; font-size:12.000000pt;" letter-spacing="0.00em" fill="#000000" fill-opacity="1" stroke-width="0.2" stroke-linejoin="round">Fr</tspan>
	</text>
	<text transform="matrix(1.0000000000000000 0.0000000000000000 0.0000000000000000 1.0000000000000000 494.00 40.00)" xml:space="preserve">
		<tspan style=" font-family:Segoe UI; font-size:12.000000pt;" letter-spacing="0.00em" fill="#000000" fill-opacity="1" stroke-width="0.2" stroke-linejoin="round">Fr</tspan>
	</text>
	<text transform="matrix(1.0000000000000000 0.0000000000000000 0.0000000000000000 1.0000000000000000 774.00 40.00)" xml:space="preserve">
		<tspan style=" font-family:Segoe UI; font-size:12.000000pt;" letter-spacing="0.00em" fill="#000000" fill-opacity="1" stroke-width="0.2" stroke-linejoin="round">Fr</tspan>
	</text>
	<text transform="matrix(1.0000000000000000 0.0000000000000000 0.0000000000000000 1.0000000000000000 1054.00 40.00)" xml:space="preserve">
		<tspan style=" font-family:Segoe UI; font-size:12.000000pt;" letter-spacing="0.00em" fill="#000000" fill-opacity="1" stroke-width="0.2" stroke-linejoin="round">Fr</tspan>
	</text>
	<text transform="matrix(1.0000000000000000 0.0000000000000000 0.0000000000000000 1.0000000000000000 1334.00 40.00)" xml:space="preserve">
		<tspan style=" font-family:Segoe UI; font-size:12.000000pt;" letter-spacing="0.00em" fill="#000000" fill-opacity="1" stroke-width="0.2" stroke-linejoin="round">Fr</tspan>
	</text>
	<text transform="matrix(1.0000000000000000 0.0000000000000000 0.0000000000000000 1.0000000000000000 252.00 40.00)" xml:space="preserve">
		<tspan style=" font-family:Segoe UI; font-size:12.000000pt;" letter-spacing="0.00em" fill="#000000" fill-opacity="1" stroke-width="0.2" stroke-linejoin="round">Sa</tspan>
	</text>
	<text transform="matrix(1.0000000000000000 0.0000000000000000 0.0000000000000000 1.0000000000000000 532.00 40.00)" xml:space="preserve">
		<tspan style=" font-family:Segoe UI; font-size:12.000000pt;" letter-spacing="0.00em" fill="#000000" fill-opacity="1" stroke-width="0.2" stroke-linejoin="round">Sa</tspan>
	</text>
	<text transform="matrix(1.0000000000000000 0.0000000000000000 0.0000000000000000 1.0000000000000000 812.00 40.00)" xml:space="preserve">
		<tspan style=" font-family:Segoe UI; font-size:12.000000pt;" letter-spacing="0.00em" fill="#000000" fill-opacity="1" stroke-width="0.2" stroke-linejoin="round">Sa</tspan>
	</text>
	<text transform="matrix(1.0000000000000000 0.0000000000000000 0.0000000000000000 1.0000000000000000 1092.00 40.00)" xml:space="preserve">
		<tspan style=" font-family:Segoe UI; font-size:12.000000pt;" letter-spacing="0.00em" fill="#000000" fill-opacity="1" stroke-width="0.2" stroke-linejoin="round">Sa</tspan>
	</text>
	<text transform="matrix(1.0000000000000000 0.0000000000000000 0.0000000000000000 1.0000000000000000 1372.00 40.00)" xml:space="preserve">
		<tspan style=" font-family:Segoe UI; font-size:12.000000pt;" letter-spacing="0.00em" fill="#000000" fill-opacity="1" stroke-width="0.2" stroke-linejoin="round">Sa</tspan>
	</text>
	<text transform="matrix(1.0000000000000000 0.0000000000000000 0.0000000000000000 1.0000000000000000 291.00 40.00)" xml:space="preserve">
		<tspan style=" font-family:Segoe UI; font-size:12.000000pt;" letter-spacing="0.00em" fill="#000000" fill-opacity="1" stroke-width="0.2" stroke-linejoin="round">So</tspan>
	</text>
	<text transform="matrix(1.0000000000000000 0.0000000000000000 0.0000000000000000 1.0000000000000000 571.00 40.00)" xml:space="preserve">
		<tspan style=" font-family:Segoe UI; font-size:12.000000pt;" letter-spacing="0.00em" fill="#000000" fill-opacity="1" stroke-width="0.2" stroke-linejoin="round">So</tspan>
	</text>
	<text transform="matrix(1.0000000000000000 0.0000000000000000 0.0000000000000000 1.0000000000000000 851.00 40.00)" xml:space="preserve">
		<tspan style=" font-family:Segoe UI; font-size:12.000000pt;" letter-spacing="0.00em" fill="#000000" fill-opacity="1" stroke-width="0.2" stroke-linejoin="round">So</tspan>
	</text>
	<text transform="matrix(1.0000000000000000 0.0000000000000000 0.0000000000000000 1.0000000000000000 1131.00 40.00)" xml:space="preserve">
		<tspan style=" font-family:Segoe UI; font-size:12.000000pt;" letter-spacing="0.00em" fill="#000000" fill-opacity="1" stroke-width="0.2" stroke-linejoin="round">So</tspan>
	</text>
	<text transform="matrix(1.0000000000000000 0.0000000000000000 0.0000000000000000 1.0000000000000000 1411.00 40.00)" xml:space="preserve">
		<tspan style=" font-family:Segoe UI; font-size:12.000000pt;" letter-spacing="0.00em" fill="#000000" fill-opacity="1" stroke-width="0.2" stroke-linejoin="round">So</tspan>
	</text>
	<text transform="matrix(1.0000000000000000 0.0000000000000000 0.0000000000000000 1.0000000000000000 159.00 20.00)" xml:space="preserve">
		<tspan style=" font-family:Segoe UI Semibold; font-size:12.000000pt;font-weight:Bold;" letter-spacing="0.00em" fill="#000000" fill-opacity="1" stroke-width="0.2" stroke-linejoin="round">KW23</tspan>
	</text>
	<text transform="matrix(1.0000000000000000 0.0000000000000000 0.0000000000000000 1.0000000000000000 159.00 540.00)" xml:space="preserve">
		<tspan style=" font-family:Segoe UI Semibold; font-size:12.000000pt;font-weight:Bold;" letter-spacing="0.00em" fill="#000000" fill-opacity="1" stroke-width="0.2" stroke-linejoin="round">KW23</tspan>
	</text>
	<text transform="matrix(1.0000000000000000 0.0000000000000000 0.0000000000000000 1.0000000000000000 999.00 20.00)" xml:space="preserve">
		<tspan style=" font-family:Segoe UI Semibold; font-size:12.000000pt;font-weight:Bold;" letter-spacing="0.00em" fill="#000000" fill-opacity="1" stroke-width="0.2" stroke-linejoin="round">KW26</tspan>
	</text>
	<text transform="matrix(1.0000000000000000 0.0000000000000000 0.0000000000000000 1.0000000000000000 999.00 540.00)" xml:space="preserve">
		<tspan style=" font-family:Segoe UI Semibold; font-size:12.000000pt;font-weight:Bold;" letter-spacing="0.00em" fill="#000000" fill-opacity="1" stroke-width="0.2" stroke-linejoin="round">KW26</tspan>
	</text>
	<text transform="matrix(1.0000000000000000 0.0000000000000000 0.0000000000000000 1.0000000000000000 719.00 20.00)" xml:space="preserve">
		<tspan style=" font-family:Segoe UI Semibold; font-size:12.000000pt;font-weight:Bold;" letter-spacing="0.00em" fill="#000000" fill-opacity="1" stroke-width="0.2" stroke-linejoin="round">KW25</tspan>
	</text>
	<text transform="matrix(1.0000000000000000 0.0000000000000000 0.0000000000000000 1.0000000000000000 719.00 540.00)" xml:space="preserve">
		<tspan style=" font-family:Segoe UI Semibold; font-size:12.000000pt;font-weight:Bold;" letter-spacing="0.00em" fill="#000000" fill-opacity="1" stroke-width="0.2" stroke-linejoin="round">KW25</tspan>
	</text>
	<text transform="matrix(1.0000000000000000 0.0000000000000000 0.0000000000000000 1.0000000000000000 439.00 20.00)" xml:space="preserve">
		<tspan style=" font-family:Segoe UI Semibold; font-size:12.000000pt;font-weight:Bold;" letter-spacing="0.00em" fill="#000000" fill-opacity="1" stroke-width="0.2" stroke-linejoin="round">KW24</tspan>
	</text>
	<text transform="matrix(1.0000000000000000 0.0000000000000000 0.0000000000000000 1.0000000000000000 439.00 540.00)" xml:space="preserve">
		<tspan style=" font-family:Segoe UI Semibold; font-size:12.000000pt;font-weight:Bold;" letter-spacing="0.00em" fill="#000000" fill-opacity="1" stroke-width="0.2" stroke-linejoin="round">KW24</tspan>
	</text>
	<text transform="matrix(1.0000000000000000 0.0000000000000000 0.0000000000000000 1.0000000000000000 1279.00 20.00)" xml:space="preserve">
		<tspan style=" font-family:Segoe UI Semibold; font-size:12.000000pt;font-weight:Bold;" letter-spacing="0.00em" fill="#000000" fill-opacity="1" stroke-width="0.2" stroke-linejoin="round">KW27</tspan>
	</text>
	<text transform="matrix(1.0000000000000000 0.0000000000000000 0.0000000000000000 1.0000000000000000 1279.00 540.00)" xml:space="preserve">
		<tspan style=" font-family:Segoe UI Semibold; font-size:12.000000pt;font-weight:Bold;" letter-spacing="0.00em" fill="#000000" fill-opacity="1" stroke-width="0.2" stroke-linejoin="round">KW27</tspan>
	</text>
	<text transform="matrix(1.0000000000000000 0.0000000000000000 0.0000000000000000 1.0000000000000000 22.00 500.00)" xml:space="preserve">
		<tspan style=" font-family:Segoe UI; font-size:12.000000pt;" letter-spacing="0.00em" fill="#000000" fill-opacity="1" stroke-width="0.2" stroke-linejoin="round">0</tspan>
	</text>
	<text transform="matrix(1.0000000000000000 0.0000000000000000 0.0000000000000000 1.0000000000000000 22.00 1000.00)" xml:space="preserve">
		<tspan style=" font-family:Segoe UI; font-size:12.000000pt;" letter-spacing="0.00em" fill="#000000" fill-opacity="1" stroke-width="0.2" stroke-linejoin="round">0</tspan>
	</text>
	<text transform="matrix(1.0000000000000000 0.0000000000000000 0.0000000000000000 1.0000000000000000 14.00 440.00)" xml:space="preserve">
		<tspan style=" font-family:Segoe UI; font-size:12.000000pt;" letter-spacing="0.00em" fill="#000000" fill-opacity="1" stroke-width="0.2" stroke-linejoin="round">60</tspan>
	</text>
	<text transform="matrix(1.0000000000000000 0.0000000000000000 0.0000000000000000 1.0000000000000000 14.00 940.00)" xml:space="preserve">
		<tspan style=" font-family:Segoe UI; font-size:12.000000pt;" letter-spacing="0.00em" fill="#000000" fill-opacity="1" stroke-width="0.2" stroke-linejoin="round">60</tspan>
	</text>
	<text transform="matrix(1.0000000000000000 0.0000000000000000 0.0000000000000000 1.0000000000000000 5.00 340.00)" xml:space="preserve">
		<tspan style=" font-family:Segoe UI; font-size:12.000000pt;" letter-spacing="0.00em" fill="#000000" fill-opacity="1" stroke-width="0.2" stroke-linejoin="round">160</tspan>
	</text>
	<text transform="matrix(1.0000000000000000 0.0000000000000000 0.0000000000000000 1.0000000000000000 5.00 840.00)" xml:space="preserve">
		<tspan style=" font-family:Segoe UI; font-size:12.000000pt;" letter-spacing="0.00em" fill="#000000" fill-opacity="1" stroke-width="0.2" stroke-linejoin="round">160</tspan>
	</text>
	<text transform="matrix(1.0000000000000000 0.0000000000000000 0.0000000000000000 1.0000000000000000 5.00 180.00)" xml:space="preserve">
		<tspan style=" font-family:Segoe UI; font-size:12.000000pt;" letter-spacing="0.00em" fill="#000000" fill-opacity="1" stroke-width="0.2" stroke-linejoin="round">320</tspan>
	</text>
	<text transform="matrix(1.0000000000000000 0.0000000000000000 0.0000000000000000 1.0000000000000000 5.00 680.00)" xml:space="preserve">
		<tspan style=" font-family:Segoe UI; font-size:12.000000pt;" letter-spacing="0.00em" fill="#000000" fill-opacity="1" stroke-width="0.2" stroke-linejoin="round">320</tspan>
	</text>
	<text transform="matrix(1.0000000000000000 0.0000000000000000 0.0000000000000000 1.0000000000000000 1405.00 180.00)" xml:space="preserve">
		<tspan style=" font-family:Segoe UI; font-size:12.000000pt;" letter-spacing="0.00em" fill="#000000" fill-opacity="1" stroke-width="0.2" stroke-linejoin="round">320</tspan>
	</text>
	<text transform="matrix(1.0000000000000000 0.0000000000000000 0.0000000000000000 1.0000000000000000 1405.00 680.00)" xml:space="preserve">
		<tspan style=" font-family:Segoe UI; font-size:12.000000pt;" letter-spacing="0.00em" fill="#000000" fill-opacity="1" stroke-width="0.2" stroke-linejoin="round">320</tspan>
	</text>
	<text transform="matrix(1.0000000000000000 0.0000000000000000 0.0000000000000000 1.0000000000000000 1405.00 340.00)" xml:space="preserve">
		<tspan style=" font-family:Segoe UI; font-size:12.000000pt;" letter-spacing="0.00em" fill="#000000" fill-opacity="1" stroke-width="0.2" stroke-linejoin="round">160</tspan>
	</text>
	<text transform="matrix(1.0000000000000000 0.0000000000000000 0.0000000000000000 1.0000000000000000 1405.00 840.00)" xml:space="preserve">
		<tspan style=" font-family:Segoe UI; font-size:12.000000pt;" letter-spacing="0.00em" fill="#000000" fill-opacity="1" stroke-width="0.2" stroke-linejoin="round">160</tspan>
	</text>
	<text transform="matrix(1.0000000000000000 0.0000000000000000 0.0000000000000000 1.0000000000000000 1414.00 440.00)" xml:space="preserve">
		<tspan style=" font-family:Segoe UI; font-size:12.000000pt;" letter-spacing="0.00em" fill="#000000" fill-opacity="1" stroke-width="0.2" stroke-linejoin="round">60</tspan>
	</text>
	<text transform="matrix(1.0000000000000000 0.0000000000000000 0.0000000000000000 1.0000000000000000 1414.00 940.00)" xml:space="preserve">
		<tspan style=" font-family:Segoe UI; font-size:12.000000pt;" letter-spacing="0.00em" fill="#000000" fill-opacity="1" stroke-width="0.2" stroke-linejoin="round">60</tspan>
	</text>
	<text transform="matrix(1.0000000000000000 0.0000000000000000 0.0000000000000000 1.0000000000000000 1422.00 500.00)" xml:space="preserve">
		<tspan style=" font-family:Segoe UI; font-size:12.000000pt;" letter-spacing="0.00em" fill="#000000" fill-opacity="1" stroke-width="0.2" stroke-linejoin="round">0</tspan>
	</text>
	<text transform="matrix(1.0000000000000000 0.0000000000000000 0.0000000000000000 1.0000000000000000 1422.00 1000.00)" xml:space="preserve">
		<tspan style=" font-family:Segoe UI; font-size:12.000000pt;" letter-spacing="0.00em" fill="#000000" fill-opacity="1" stroke-width="0.2" stroke-linejoin="round">0</tspan>
	</text>
	<path fill="none" stroke-linejoin="round" stroke="#FF0000" stroke-opacity="1" d="M 1440,500L -0.000284831,500L 1440,500 Z "/>
	<line fill="none" stroke-linejoin="round" stroke="#FF0000" stroke-opacity="1" x1="-0.000284831" y1="180" x2="1440" y2="180"/>
	<line fill="none" stroke-linejoin="round" stroke="#FF0000" stroke-opacity="1" x1="-0.000325521" y1="680" x2="1440" y2="680"/>
	<line fill="none" stroke-width="0.5" stroke-linejoin="round" stroke="#FF7D00" stroke-opacity="1" x1="-0.000284831" y1="440" x2="1440" y2="440"/>
	<line fill="none" stroke-width="0.5" stroke-linejoin="round" stroke="#FF7D00" stroke-opacity="1" x1="-0.000325521" y1="940" x2="1440" y2="940"/>
	<line fill="none" stroke-width="0.5" stroke-linejoin="round" stroke="#0096FF" stroke-opacity="1" x1="-0.000284831" y1="340" x2="1440" y2="340"/>
	<line fill="none" stroke-width="0.5" stroke-linejoin="round" stroke="#0096FF" stroke-opacity="1" x1="-0.000325521" y1="840" x2="1440" y2="840"/>
	<path fill="#0096FF" fill-opacity="0.298039" stroke-width="0.2" stroke-linejoin="round" d="M 959.998,20.0014L 999.998,20.0014L 1000,500L 960,500L 959.998,20.0014 Z "/>
	<text transform="matrix(1.0000000000000000 0.0000000000000000 0.0000000000000000 1.0000000000000000 10.00 110.00)" xml:space="preserve">
		<tspan style=" font-family:Segoe UI Semibold; font-size:22.000000pt;font-weight:Bold;" letter-spacing="0.00em" fill="#000000" fill-opacity="1" stroke-width="0.2" stroke-linejoin="round">2014</tspan>
	</text>
	<text transform="matrix(1.0000000000000000 0.0000000000000000 0.0000000000000000 1.0000000000000000 11.00 610.00)" xml:space="preserve">
		<tspan style=" font-family:Segoe UI Semibold; font-size:22.000000pt;font-weight:Bold;" letter-spacing="0.00em" fill="#000000" fill-opacity="1" stroke-width="0.2" stroke-linejoin="round">2013</tspan>
	</text>
	<rect x="320" y="20.0002" fill="#00C800" fill-opacity="0.262745" stroke-width="0.2" stroke-linejoin="round" width="40" height="480"/>
	<rect x="280" y="20.0002" fill="#00C800" fill-opacity="0.262745" stroke-width="0.2" stroke-linejoin="round" width="40" height="480"/>
	<text transform="matrix(0.0000000000000000 -1.0000000000000000 1.0000000000000000 0.0000000000000000 345.00 194.00)" xml:space="preserve">
		<tspan style=" font-family:Segoe UI; font-size:12.000000pt;" letter-spacing="0.00em" fill="#000000" fill-opacity="1" stroke-width="0.2" stroke-linejoin="round">Pfingstmontag</tspan>
	</text>
	<text transform="matrix(0.0000000000000000 -1.0000000000000000 1.0000000000000000 0.0000000000000000 985.00 132.00)" xml:space="preserve">
		<tspan style=" font-family:Segoe UI; font-size:12.000000pt;" letter-spacing="0.00em" fill="#000000" fill-opacity="1" stroke-width="0.2" stroke-linejoin="round">Heute</tspan>
	</text>
	<text transform="matrix(0.0000000000000000 -1.0000000000000000 1.0000000000000000 0.0000000000000000 305.00 194.00)" xml:space="preserve">
		<tspan style=" font-family:Segoe UI; font-size:12.000000pt;" letter-spacing="0.00em" fill="#000000" fill-opacity="1" stroke-width="0.2" stroke-linejoin="round">Pfingstsonntag</tspan>
	</text>
	<rect x="1400" y="20.0002" fill="#00C800" fill-opacity="0.262745" stroke-width="0.2" stroke-linejoin="round" width="40" height="480"/>
	<rect x="1080" y="520" fill="#00C800" fill-opacity="0.262745" stroke-width="0.2" stroke-linejoin="round" width="40" height="480"/>
	<rect x="720" y="20.0002" fill="#00C800" fill-opacity="0.262745" stroke-width="0.2" stroke-linejoin="round" width="40" height="480"/>
	<text transform="matrix(0.0000000000000000 -1.0000000000000000 1.0000000000000000 0.0000000000000000 1425.00 192.00)" xml:space="preserve">
		<tspan style=" font-family:Segoe UI; font-size:12.000000pt;" letter-spacing="0.00em" fill="#000000" fill-opacity="1" stroke-width="0.2" stroke-linejoin="round">Peter und Paul</tspan>
	</text>
	<text transform="matrix(0.0000000000000000 -1.0000000000000000 1.0000000000000000 0.0000000000000000 1105.00 692.00)" xml:space="preserve">
		<tspan style=" font-family:Segoe UI; font-size:12.000000pt;" letter-spacing="0.00em" fill="#000000" fill-opacity="1" stroke-width="0.2" stroke-linejoin="round">Peter und Paul</tspan>
	</text>
	<text transform="matrix(0.0000000000000000 -1.0000000000000000 1.0000000000000000 0.0000000000000000 745.00 185.00)" xml:space="preserve">
		<tspan style=" font-family:Segoe UI; font-size:12.000000pt;" letter-spacing="0.00em" fill="#000000" fill-opacity="1" stroke-width="0.2" stroke-linejoin="round">Fronleichnam</tspan>
	</text>
	<line fill="none" stroke-width="2" stroke-linejoin="round" stroke="#000000" stroke-opacity="1" x1="920" y1="141" x2="960" y2="185"/>
	<line fill="none" stroke-width="5" stroke-linejoin="round" stroke="#000000" stroke-opacity="1" x1="882" y1="230" x2="882" y2="110"/>
	<line fill="none" stroke-width="2" stroke-linejoin="round" stroke="#000000" stroke-opacity="1" x1="879.999" y1="110.001" x2="920" y2="141"/>
	<line fill="none" stroke-width="2" stroke-linejoin="round" stroke="#000000" stroke-opacity="1" x1="839.999" y1="164.001" x2="880" y2="230"/>
	<line fill="none" stroke-width="2" stroke-linejoin="round" stroke="#000000" stroke-opacity="1" x1="800" y1="164" x2="840" y2="164"/>
	<line fill="none" stroke-width="2" stroke-linejoin="round" stroke="#000000" stroke-opacity="1" x1="759.999" y1="109.001" x2="800" y2="164"/>
	<line fill="none" stroke-width="2" stroke-linejoin="round" stroke="#000000" stroke-opacity="1" x1="719.999" y1="83.0006" x2="760" y2="109"/>
	<line fill="none" stroke-width="2" stroke-linejoin="round" stroke="#000000" stroke-opacity="1" x1="679.999" y1="83.0013" x2="720" y2="83.0002"/>
	<line fill="none" stroke-width="5" stroke-linejoin="round" stroke="#000000" stroke-opacity="1" x1="682" y1="83.0002" x2="682" y2="203"/>
	<line fill="none" stroke-width="5" stroke-linejoin="round" stroke="#000000" stroke-opacity="1" x1="602" y1="115" x2="602" y2="235"/>
	<line fill="none" stroke-width="2" stroke-linejoin="round" stroke="#000000" stroke-opacity="1" x1="640" y1="152" x2="679.999" y2="203.001"/>
	<line fill="none" stroke-width="2" stroke-linejoin="round" stroke="#000000" stroke-opacity="1" x1="600" y1="114" x2="640" y2="152"/>
	<line fill="none" stroke-width="2" stroke-linejoin="round" stroke="#000000" stroke-opacity="1" x1="560" y1="195" x2="600" y2="235"/>
	<line fill="none" stroke-width="2" stroke-linejoin="round" stroke="#000000" stroke-opacity="1" x1="480" y1="156" x2="520" y2="195"/>
	<line fill="none" stroke-width="2" stroke-linejoin="round" stroke="#000000" stroke-opacity="1" x1="400" y1="80.0003" x2="440" y2="119"/>
	<line fill="none" stroke-width="2" stroke-linejoin="round" stroke="#000000" stroke-opacity="1" x1="439.999" y1="119.001" x2="480" y2="156"/>
	<line fill="none" stroke-width="5" stroke-linejoin="round" stroke="#000000" stroke-opacity="1" x1="402" y1="80" x2="402" y2="200"/>
	<line fill="none" stroke-width="5" stroke-linejoin="round" stroke="#000000" stroke-opacity="1" x1="362" y1="166" x2="362" y2="286"/>
	<line fill="none" stroke-width="2" stroke-linejoin="round" stroke="#000000" stroke-opacity="1" x1="360" y1="166" x2="400" y2="200"/>
	<line fill="none" stroke-width="2" stroke-linejoin="round" stroke="#000000" stroke-opacity="1" x1="320" y1="252" x2="360" y2="286"/>
	<line fill="none" stroke-width="2" stroke-linejoin="round" stroke="#000000" stroke-opacity="1" x1="520" y1="195.2" x2="560" y2="195.2"/>
	<line fill="none" stroke-width="2" stroke-linejoin="round" stroke="#000000" stroke-opacity="1" x1="240" y1="252" x2="320" y2="252"/>
	<line fill="none" stroke-width="2" stroke-linejoin="round" stroke="#000000" stroke-opacity="1" x1="200" y1="175.001" x2="240" y2="252"/>
	<line fill="none" stroke-width="2" stroke-linejoin="round" stroke="#000000" stroke-opacity="1" x1="160" y1="143" x2="200" y2="175"/>
	<line fill="none" stroke-width="2" stroke-linejoin="round" stroke="#000000" stroke-opacity="1" x1="120" y1="111" x2="160" y2="143"/>
	<line fill="none" stroke-width="5" stroke-linejoin="round" stroke="#000000" stroke-opacity="1" x1="122" y1="111" x2="122" y2="291"/>
	<line fill="none" stroke-width="2" stroke-linejoin="round" stroke="#000000" stroke-opacity="1" x1="79.9997" y1="263" x2="120" y2="291"/>
	<line fill="none" stroke-width="2" stroke-linejoin="round" stroke="#000000" stroke-opacity="1" x1="39.9997" y1="220" x2="79.9997" y2="263"/>
	<line fill="none" stroke-width="5" stroke-linejoin="round" stroke="#000000" stroke-opacity="1" x1="41.9997" y1="221" x2="41.9997" y2="341"/>
	<line fill="none" stroke-width="2" stroke-linejoin="round" stroke="#000000" stroke-opacity="1" x1="1400" y1="763" x2="1440" y2="809"/>
	<line fill="none" stroke-width="2" stroke-linejoin="round" stroke="#000000" stroke-opacity="1" x1="1360" y1="763" x2="1400" y2="763"/>
	<line fill="none" stroke-width="2" stroke-linejoin="round" stroke="#000000" stroke-opacity="1" x1="1320" y1="702" x2="1360" y2="763"/>
	<line fill="none" stroke-width="2" stroke-linejoin="round" stroke="#000000" stroke-opacity="1" x1="1280" y1="655" x2="1320" y2="702"/>
	<line fill="none" stroke-width="2" stroke-linejoin="round" stroke="#000000" stroke-opacity="1" x1="1240" y1="626" x2="1280" y2="655"/>
	<line fill="none" stroke-width="5" stroke-linejoin="round" stroke="#000000" stroke-opacity="1" x1="1242" y1="626" x2="1242" y2="746"/>
	<line fill="none" stroke-width="2" stroke-linejoin="round" stroke="#000000" stroke-opacity="1" x1="1200" y1="721" x2="1240" y2="746"/>
	<line fill="none" stroke-width="2" stroke-linejoin="round" stroke="#000000" stroke-opacity="1" x1="1160" y1="681" x2="1200" y2="721"/>
	<line fill="none" stroke-width="5" stroke-linejoin="round" stroke="#000000" stroke-opacity="1" x1="1162" y1="681" x2="1162" y2="801"/>
	<line fill="none" stroke-width="2" stroke-linejoin="round" stroke="#000000" stroke-opacity="1" x1="1120" y1="755" x2="1160" y2="801"/>
	<line fill="none" stroke-width="2" stroke-linejoin="round" stroke="#000000" stroke-opacity="1" x1="1080" y1="755" x2="1120" y2="755"/>
	<line fill="none" stroke-width="2" stroke-linejoin="round" stroke="#000000" stroke-opacity="1" x1="1040" y1="693" x2="1080" y2="755"/>
	<line fill="none" stroke-width="2" stroke-linejoin="round" stroke="#000000" stroke-opacity="1" x1="1000" y1="652" x2="1040" y2="693"/>
	<line fill="none" stroke-width="2" stroke-linejoin="round" stroke="#000000" stroke-opacity="1" x1="960" y1="630" x2="1000" y2="652"/>
	<line fill="none" stroke-width="5" stroke-linejoin="round" stroke="#000000" stroke-opacity="1" x1="960" y1="810" x2="960" y2="630"/>
	<line fill="none" stroke-width="2" stroke-linejoin="round" stroke="#000000" stroke-opacity="1" x1="920" y1="778" x2="960" y2="810"/>
	<line fill="none" stroke-width="2" stroke-linejoin="round" stroke="#000000" stroke-opacity="1" x1="880" y1="730" x2="920" y2="778"/>
	<line fill="none" stroke-width="5" stroke-linejoin="round" stroke="#000000" stroke-opacity="1" x1="882" y1="730" x2="882" y2="850"/>
	<line fill="none" stroke-width="2" stroke-linejoin="round" stroke="#000000" stroke-opacity="1" x1="840" y1="796" x2="880" y2="850"/>
	<line fill="none" stroke-width="2" stroke-linejoin="round" stroke="#000000" stroke-opacity="1" x1="800" y1="796" x2="840" y2="796"/>
	<line fill="none" stroke-width="2" stroke-linejoin="round" stroke="#000000" stroke-opacity="1" x1="760" y1="737" x2="800" y2="796"/>
	<line fill="none" stroke-width="2" stroke-linejoin="round" stroke="#000000" stroke-opacity="1" x1="720" y1="686" x2="760" y2="737"/>
	<line fill="none" stroke-width="2" stroke-linejoin="round" stroke="#000000" stroke-opacity="1" x1="680" y1="648" x2="720" y2="686"/>
	<line fill="none" stroke-width="5" stroke-linejoin="round" stroke="#000000" stroke-opacity="1" x1="682" y1="648" x2="682" y2="768"/>
	<line fill="none" stroke-width="2" stroke-linejoin="round" stroke="#000000" stroke-opacity="1" x1="640" y1="725" x2="680" y2="768"/>
	<line fill="none" stroke-width="5" stroke-linejoin="round" stroke="#000000" stroke-opacity="1" x1="640" y1="725" x2="640" y2="845"/>
	<line fill="none" stroke-width="2" stroke-linejoin="round" stroke="#000000" stroke-opacity="1" x1="600" y1="792" x2="640" y2="845"/>
	<line fill="none" stroke-width="2" stroke-linejoin="round" stroke="#000000" stroke-opacity="1" x1="560.137" y1="790.165" x2="600.137" y2="792.165"/>
	<line fill="none" stroke-width="2" stroke-linejoin="round" stroke="#000000" stroke-opacity="1" x1="520.137" y1="790.165" x2="560.137" y2="790.165"/>
	<line fill="none" stroke-width="2" stroke-linejoin="round" stroke="#000000" stroke-opacity="1" x1="480.137" y1="710.165" x2="520.137" y2="790.165"/>
	<line fill="none" stroke-width="2" stroke-linejoin="round" stroke="#000000" stroke-opacity="1" x1="440.137" y1="656.165" x2="480.137" y2="710.165"/>
	<line fill="none" stroke-width="2" stroke-linejoin="round" stroke="#000000" stroke-opacity="1" x1="400.137" y1="629.165" x2="440.137" y2="656.165"/>
	<line fill="none" stroke-width="5" stroke-linejoin="round" stroke="#000000" stroke-opacity="1" x1="400.137" y1="629.165" x2="400.137" y2="809.165"/>
	<line fill="none" stroke-width="2" stroke-linejoin="round" stroke="#000000" stroke-opacity="1" x1="360.137" y1="780.165" x2="400.137" y2="809.165"/>
	<line fill="none" stroke-width="2" stroke-linejoin="round" stroke="#000000" stroke-opacity="1" x1="320.137" y1="730.165" x2="360.137" y2="780.165"/>
	<line fill="none" stroke-width="5" stroke-linejoin="round" stroke="#000000" stroke-opacity="1" x1="322.137" y1="730.165" x2="322.137" y2="850.165"/>
	<line fill="none" stroke-width="2" stroke-linejoin="round" stroke="#000000" stroke-opacity="1" x1="280.137" y1="806.165" x2="320.137" y2="850.165"/>
	<line fill="none" stroke-width="2" stroke-linejoin="round" stroke="#000000" stroke-opacity="1" x1="240.137" y1="806.165" x2="280.137" y2="806.165"/>
	<line fill="none" stroke-width="2" stroke-linejoin="round" stroke="#000000" stroke-opacity="1" x1="200.137" y1="728.165" x2="240.137" y2="806.165"/>
	<line fill="none" stroke-width="2" stroke-linejoin="round" stroke="#000000" stroke-opacity="1" x1="160.137" y1="681.165" x2="200.137" y2="728.165"/>
	<line fill="none" stroke-width="2" stroke-linejoin="round" stroke="#000000" stroke-opacity="1" x1="120.137" y1="681.165" x2="160.137" y2="681.165"/>
	<line fill="none" stroke-width="5" stroke-linejoin="round" stroke="#000000" stroke-opacity="1" x1="120.137" y1="861.165" x2="120.137" y2="681.165"/>
	<line fill="none" stroke-width="2" stroke-linejoin="round" stroke="#000000" stroke-opacity="1" x1="80.1367" y1="795.165" x2="120.137" y2="861.165"/>
	<line fill="none" stroke-width="2" stroke-linejoin="round" stroke="#000000" stroke-opacity="1" x1="40.1367" y1="753.165" x2="80.1367" y2="795.165"/>
	<line fill="none" stroke-width="5" stroke-linejoin="round" stroke="#000000" stroke-opacity="1" x1="42.1367" y1="753.165" x2="42.1367" y2="873.165"/>
	<path fill="#5A0FC8" fill-opacity="1" stroke-linejoin="round" d="M 1207.92,250.22L 1211.5,254.166L 1210.02,255.512L 1206.44,251.566L 1207.92,250.22 Z M 1215.09,258.113L 1218.68,262.059L 1217.2,263.404L 1213.61,259.458L 1215.09,258.113 Z M 1222.27,266.005L 1225.85,269.952L 1224.37,271.297L 1220.79,267.351L 1222.27,266.005 Z M 1229.44,273.898L 1233.03,277.844L 1231.55,279.19L 1227.96,275.243L 1229.44,273.898 Z M 1236.62,281.791L 1240.2,285.737L 1238.72,287.082L 1235.14,283.136L 1236.62,281.791 Z M 1200.74,242.327L 1204.33,246.274L 1202.85,247.619L 1199.26,243.673L 1200.74,242.327 Z "/>
	<path fill="#5A0FC8" fill-opacity="1" stroke-linejoin="round" d="M 1169.04,217.744L 1173.26,221.011L 1172.03,222.592L 1167.82,219.325L 1169.04,217.744 Z M 1177.47,224.278L 1181.69,227.545L 1180.47,229.126L 1176.25,225.859L 1177.47,224.278 Z M 1185.91,230.812L 1190.12,234.079L 1188.9,235.66L 1184.68,232.393L 1185.91,230.812 Z M 1194.34,237.346L 1198.55,240.613L 1197.33,242.194L 1193.11,238.927L 1194.34,237.346 Z M 1160.61,211.21L 1164.83,214.477L 1163.6,216.058L 1159.39,212.791L 1160.61,211.21 Z "/>
	<path fill="#5A0FC8" fill-opacity="1" stroke-linejoin="round" d="M 1126.38,154.604L 1129.15,159.166L 1127.44,160.202L 1124.67,155.641L 1126.38,154.604 Z M 1131.91,163.727L 1134.68,168.288L 1132.97,169.324L 1130.2,164.763L 1131.91,163.727 Z M 1137.44,172.849L 1140.21,177.41L 1138.49,178.446L 1135.73,173.885L 1137.44,172.849 Z M 1142.97,181.971L 1145.73,186.532L 1144.02,187.568L 1141.26,183.007L 1142.97,181.971 Z M 1148.5,191.093L 1151.26,195.654L 1149.55,196.69L 1146.79,192.129L 1148.5,191.093 Z M 1154.03,200.215L 1156.79,204.776L 1155.08,205.812L 1152.32,201.251L 1154.03,200.215 Z M 1159.56,209.337L 1160.86,211.482L 1159.15,212.519L 1157.84,210.373L 1159.56,209.337 Z M 1120.85,145.482L 1123.62,150.043L 1121.91,151.08L 1119.14,146.519L 1120.85,145.482 Z "/>
	<path fill="#5A0FC8" fill-opacity="1" stroke-linejoin="round" d="M 1090.67,145L 1096,145L 1096,147L 1090.67,147L 1090.67,145 Z M 1101.33,145L 1106.67,145L 1106.67,147L 1101.33,147L 1101.33,145 Z M 1112,145L 1117.33,145L 1117.33,147L 1112,147L 1112,145 Z M 1080,145L 1085.33,145L 1085.33,147L 1080,147L 1080,145 Z "/>
	<path fill="#5A0FC8" fill-opacity="1" stroke-linejoin="round" d="M 1047.08,99.039L 1050.22,103.352L 1048.6,104.529L 1045.46,100.215L 1047.08,99.039 Z M 1053.36,107.665L 1056.49,111.979L 1054.88,113.155L 1051.74,108.842L 1053.36,107.665 Z M 1059.63,116.292L 1062.77,120.605L 1061.15,121.782L 1058.01,117.468L 1059.63,116.292 Z M 1065.9,124.918L 1069.04,129.232L 1067.42,130.408L 1064.29,126.095L 1065.9,124.918 Z M 1072.18,133.545L 1075.31,137.858L 1073.7,139.034L 1070.56,134.721L 1072.18,133.545 Z M 1078.45,142.171L 1080.81,145.412L 1079.19,146.588L 1076.83,143.348L 1078.45,142.171 Z M 1040.81,90.4125L 1043.95,94.7257L 1042.33,95.9022L 1039.19,91.589L 1040.81,90.4125 Z "/>
	<path fill="#5A0FC8" fill-opacity="1" stroke-linejoin="round" d="M 1009.49,69.9753L 1013.96,72.8818L 1012.87,74.5588L 1008.4,71.6522L 1009.49,69.9753 Z M 1018.43,75.7884L 1022.9,78.695L 1021.81,80.3719L 1017.34,77.4653L 1018.43,75.7884 Z M 1027.38,81.6015L 1031.85,84.508L 1030.76,86.185L 1026.29,83.2784L 1027.38,81.6015 Z M 1036.32,87.4146L 1040.55,90.1618L 1039.46,91.8387L 1035.23,89.0915L 1036.32,87.4146 Z M 1000.54,64.1622L 1005.02,67.0688L 1003.93,68.7457L 999.455,65.8391L 1000.54,64.1622 Z "/>
	<path fill="#5A0FC8" fill-opacity="1" stroke-linejoin="round" d="M 970.666,184.001L 976,184.001L 976,186.001L 970.666,186.001L 970.666,184.001 Z M 981.333,184.001L 986.666,184.001L 986.666,186.001L 981.333,186.001L 981.333,184.001 Z M 992,184L 997.333,184L 997.333,186L 992,186L 992,184 Z M 960,184.001L 965.333,184.001L 965.333,186.001L 960,186.001L 960,184.001 Z "/>
	<path fill="#5A0FC8" fill-opacity="0.203922" stroke-linejoin="round" d="M 1408.25,395.835L 1412.02,399.607L 1410.61,401.021L 1406.84,397.25L 1408.25,395.835 Z M 1415.79,403.378L 1419.56,407.149L 1418.15,408.563L 1414.38,404.792L 1415.79,403.378 Z M 1423.34,410.92L 1427.11,414.691L 1425.69,416.106L 1421.92,412.334L 1423.34,410.92 Z M 1430.88,418.463L 1434.65,422.234L 1433.24,423.648L 1429.46,419.877L 1430.88,418.463 Z M 1438.42,426.005L 1440.71,428.293L 1439.29,429.707L 1437.01,427.419L 1438.42,426.005 Z M 1400.71,388.293L 1404.48,392.064L 1403.07,393.478L 1399.29,389.707L 1400.71,388.293 Z "/>
	<path fill="#5A0FC8" fill-opacity="0.203922" stroke-linejoin="round" d="M 1328.34,356.731L 1332.15,360.454L 1330.76,361.886L 1326.94,358.163L 1328.34,356.731 Z M 1335.97,364.177L 1339.79,367.9L 1338.4,369.332L 1334.58,365.609L 1335.97,364.177 Z M 1343.61,371.623L 1347.43,375.346L 1346.03,376.778L 1342.21,373.055L 1343.61,371.623 Z M 1351.25,379.07L 1355.07,382.793L 1353.67,384.225L 1349.85,380.502L 1351.25,379.07 Z M 1358.89,386.516L 1360.7,388.284L 1359.3,389.716L 1357.49,387.948L 1358.89,386.516 Z M 1320.7,349.284L 1324.52,353.007L 1323.12,354.439L 1319.3,350.716L 1320.7,349.284 Z "/>
	<path fill="#5A0FC8" fill-opacity="0.203922" stroke-linejoin="round" d="M 1248.34,280.731L 1252.16,284.454L 1250.76,285.886L 1246.94,282.163L 1248.34,280.731 Z M 1255.97,288.177L 1259.79,291.9L 1258.4,293.332L 1254.58,289.609L 1255.97,288.177 Z M 1263.61,295.623L 1267.43,299.347L 1266.03,300.778L 1262.21,297.055L 1263.61,295.623 Z M 1271.25,303.07L 1275.07,306.793L 1273.67,308.225L 1269.85,304.502L 1271.25,303.07 Z M 1278.89,310.516L 1280.7,312.284L 1279.3,313.716L 1277.49,311.948L 1278.89,310.516 Z M 1240.7,273.284L 1244.52,277.007L 1243.12,278.439L 1239.3,274.716L 1240.7,273.284 Z "/>
	<path fill="#5A0FC8" fill-opacity="0.203922" stroke-linejoin="round" d="M 1288.51,319.509L 1292.43,323.131L 1291.07,324.599L 1287.15,320.978L 1288.51,319.509 Z M 1296.34,326.752L 1300.26,330.374L 1298.9,331.842L 1294.98,328.221L 1296.34,326.752 Z M 1304.17,333.996L 1308.09,337.617L 1306.73,339.085L 1302.81,335.464L 1304.17,333.996 Z M 1312,341.239L 1315.92,344.86L 1314.56,346.328L 1310.64,342.707L 1312,341.239 Z M 1319.83,348.482L 1320.68,349.266L 1319.32,350.734L 1318.47,349.95L 1319.83,348.482 Z M 1280.68,312.266L 1284.59,315.888L 1283.24,317.356L 1279.32,313.735L 1280.68,312.266 Z "/>
	<path fill="#5A0FC8" fill-opacity="0.203922" stroke-linejoin="round" d="M 1208.78,246.146L 1212.84,249.6L 1211.54,251.124L 1207.48,247.67L 1208.78,246.146 Z M 1216.9,253.055L 1220.97,256.509L 1219.67,258.033L 1215.61,254.578L 1216.9,253.055 Z M 1225.03,259.963L 1229.09,263.417L 1227.8,264.941L 1223.74,261.487L 1225.03,259.963 Z M 1233.16,266.871L 1237.22,270.325L 1235.93,271.849L 1231.86,268.395L 1233.16,266.871 Z M 1200.65,239.238L 1204.71,242.692L 1203.42,244.216L 1199.35,240.762L 1200.65,239.238 Z "/>
	<path fill="#5A0FC8" fill-opacity="0.203922" stroke-linejoin="round" d="M 1168.78,212.146L 1172.84,215.601L 1171.54,217.124L 1167.48,213.67L 1168.78,212.146 Z M 1176.9,219.055L 1180.97,222.509L 1179.67,224.033L 1175.61,220.579L 1176.9,219.055 Z M 1185.03,225.963L 1189.09,229.417L 1187.8,230.941L 1183.74,227.487L 1185.03,225.963 Z M 1193.16,232.871L 1197.22,236.325L 1195.93,237.849L 1191.86,234.395L 1193.16,232.871 Z M 1160.65,205.238L 1164.71,208.692L 1163.42,210.216L 1159.35,206.762L 1160.65,205.238 Z "/>
	<path fill="#5A0FC8" fill-opacity="0.203922" stroke-linejoin="round" d="M 1370.67,388.2L 1376,388.2L 1376,390.2L 1370.67,390.2L 1370.67,388.2 Z M 1381.33,388.2L 1386.67,388.2L 1386.67,390.2L 1381.33,390.2L 1381.33,388.2 Z M 1392,388.2L 1397.33,388.2L 1397.33,390.2L 1392,390.2L 1392,388.2 Z M 1360,388.2L 1365.33,388.2L 1365.33,390.2L 1360,390.2L 1360,388.2 Z "/>
	<path fill="#5A0FC8" fill-opacity="0.203922" stroke-linejoin="round" d="M 1090.67,205L 1096,205L 1096,207L 1090.67,207L 1090.67,205 Z M 1101.33,205L 1106.67,205L 1106.67,207L 1101.33,207L 1101.33,205 Z M 1112,205L 1117.33,205L 1117.33,207L 1112,207L 1112,205 Z M 1122.67,205L 1128,205L 1128,207L 1122.67,207L 1122.67,205 Z M 1133.33,205L 1138.67,205L 1138.67,207L 1133.33,207L 1133.33,205 Z M 1144,205L 1149.33,205L 1149.33,207L 1144,207L 1144,205 Z M 1154.67,205L 1160,205L 1160,207L 1154.67,207L 1154.67,205 Z M 1080,205L 1085.33,205L 1085.33,207L 1080,207L 1080,205 Z "/>
	<path fill="#5A0FC8" fill-opacity="0.203922" stroke-linejoin="round" d="M 1045.81,138.005L 1048.26,142.738L 1046.49,143.66L 1044.03,138.927L 1045.81,138.005 Z M 1050.72,147.471L 1053.18,152.204L 1051.41,153.126L 1048.95,148.393L 1050.72,147.471 Z M 1055.64,156.936L 1058.1,161.669L 1056.32,162.591L 1053.87,157.858L 1055.64,156.936 Z M 1060.56,166.402L 1063.02,171.135L 1061.24,172.057L 1058.78,167.324L 1060.56,166.402 Z M 1065.47,175.868L 1067.93,180.601L 1066.16,181.523L 1063.7,176.79L 1065.47,175.868 Z M 1070.39,185.333L 1072.85,190.066L 1071.08,190.988L 1068.62,186.255L 1070.39,185.333 Z M 1075.31,194.799L 1077.77,199.532L 1075.99,200.454L 1073.53,195.721L 1075.31,194.799 Z M 1080.23,204.265L 1080.89,205.539L 1079.11,206.461L 1078.45,205.187L 1080.23,204.265 Z M 1040.89,128.539L 1043.35,133.272L 1041.57,134.194L 1039.11,129.462L 1040.89,128.539 Z "/>
	<path fill="#5A0FC8" fill-opacity="0.203922" stroke-linejoin="round" d="M 1008.95,102.883L 1013.12,106.215L 1011.87,107.776L 1007.71,104.445L 1008.95,102.883 Z M 1017.28,109.546L 1021.45,112.878L 1020.2,114.44L 1016.03,111.108L 1017.28,109.546 Z M 1025.61,116.21L 1029.78,119.541L 1028.53,121.103L 1024.36,117.771L 1025.61,116.21 Z M 1033.94,122.873L 1038.11,126.205L 1036.86,127.766L 1032.69,124.435L 1033.94,122.873 Z M 1000.63,96.2195L 1004.79,99.5512L 1003.54,101.113L 999.376,97.7812L 1000.63,96.2195 Z "/>
	<path fill="#5A0FC8" fill-opacity="0.203922" stroke-linejoin="round" d="M 968.955,190.883L 973.12,194.214L 971.87,195.776L 967.705,192.445L 968.955,190.883 Z M 977.284,197.546L 981.449,200.878L 980.199,202.44L 976.035,199.108L 977.284,197.546 Z M 985.613,204.21L 989.778,207.541L 988.529,209.103L 984.364,205.771L 985.613,204.21 Z M 993.943,210.873L 998.107,214.205L 996.858,215.766L 992.693,212.435L 993.943,210.873 Z M 960.625,184.219L 964.79,187.551L 963.541,189.113L 959.376,185.781L 960.625,184.219 Z "/>
	<path fill="#5A0FC8" fill-opacity="0.501961" stroke-linejoin="round" d="M 1207.37,265.776L 1210.66,269.973L 1209.09,271.207L 1205.8,267.01L 1207.37,265.776 Z M 1213.95,274.17L 1217.24,278.366L 1215.67,279.6L 1212.38,275.404L 1213.95,274.17 Z M 1220.54,282.563L 1223.83,286.759L 1222.25,287.993L 1218.96,283.797L 1220.54,282.563 Z M 1227.12,290.956L 1230.41,295.152L 1228.84,296.387L 1225.54,292.19L 1227.12,290.956 Z M 1233.7,299.349L 1236.99,303.546L 1235.42,304.78L 1232.13,300.583L 1233.7,299.349 Z M 1240.28,307.742L 1240.79,308.384L 1239.21,309.618L 1238.71,308.976L 1240.28,307.742 Z M 1200.79,257.383L 1204.08,261.58L 1202.5,262.814L 1199.21,258.617L 1200.79,257.383 Z "/>
	<path fill="#5A0FC8" fill-opacity="0.501961" stroke-linejoin="round" d="M 1168.42,226.622L 1172.29,230.295L 1170.91,231.745L 1167.04,228.072L 1168.42,226.622 Z M 1176.16,233.968L 1180.02,237.642L 1178.64,239.092L 1174.78,235.418L 1176.16,233.968 Z M 1183.89,241.315L 1187.76,244.988L 1186.38,246.438L 1182.51,242.765L 1183.89,241.315 Z M 1191.62,248.662L 1195.49,252.335L 1194.11,253.785L 1190.24,250.112L 1191.62,248.662 Z M 1199.36,256.008L 1200.69,257.275L 1199.31,258.725L 1197.98,257.458L 1199.36,256.008 Z M 1160.69,219.275L 1164.56,222.948L 1163.18,224.399L 1159.31,220.725L 1160.69,219.275 Z "/>
	<path fill="#5A0FC8" fill-opacity="0.501961" stroke-linejoin="round" d="M 1128.25,186.835L 1132.02,190.606L 1130.61,192.021L 1126.84,188.249L 1128.25,186.835 Z M 1135.79,194.378L 1139.56,198.149L 1138.15,199.563L 1134.38,195.792L 1135.79,194.378 Z M 1143.33,201.92L 1147.11,205.691L 1145.69,207.106L 1141.92,203.334L 1143.33,201.92 Z M 1150.88,209.463L 1154.65,213.234L 1153.23,214.648L 1149.46,210.877L 1150.88,209.463 Z M 1158.42,217.005L 1160.71,219.293L 1159.29,220.707L 1157.01,218.419L 1158.42,217.005 Z M 1120.71,179.293L 1124.48,183.064L 1123.06,184.478L 1119.29,180.707L 1120.71,179.293 Z "/>
	<path fill="#5A0FC8" fill-opacity="0.501961" stroke-linejoin="round" d="M 1048.34,147.73L 1052.15,151.454L 1050.76,152.886L 1046.94,149.162L 1048.34,147.73 Z M 1055.97,155.177L 1059.79,158.9L 1058.4,160.332L 1054.58,156.609L 1055.97,155.177 Z M 1063.61,162.623L 1067.43,166.346L 1066.03,167.778L 1062.21,164.055L 1063.61,162.623 Z M 1071.25,170.07L 1075.07,173.793L 1073.67,175.225L 1069.85,171.502L 1071.25,170.07 Z M 1078.89,177.516L 1080.7,179.284L 1079.3,180.716L 1077.49,178.948L 1078.89,177.516 Z M 1040.7,140.284L 1044.52,144.007L 1043.12,145.439L 1039.3,141.716L 1040.7,140.284 Z "/>
	<path fill="#5A0FC8" fill-opacity="0.501961" stroke-linejoin="round" d="M 968.336,191.731L 972.154,195.454L 970.758,196.886L 966.94,193.163L 968.336,191.731 Z M 975.973,199.177L 979.792,202.9L 978.396,204.332L 974.577,200.609L 975.973,199.177 Z M 983.611,206.623L 987.429,210.347L 986.033,211.778L 982.214,208.055L 983.611,206.623 Z M 991.248,214.07L 995.067,217.793L 993.67,219.225L 989.852,215.502L 991.248,214.07 Z M 998.885,221.516L 1000.7,223.284L 999.302,224.716L 997.489,222.948L 998.885,221.516 Z M 960.698,184.284L 964.517,188.007L 963.121,189.439L 959.302,185.716L 960.698,184.284 Z "/>
	<path fill="#5A0FC8" fill-opacity="0.501961" stroke-linejoin="round" d="M 1008.51,110.509L 1012.42,114.131L 1011.07,115.599L 1007.15,111.978L 1008.51,110.509 Z M 1016.34,117.752L 1020.26,121.374L 1018.9,122.842L 1014.98,119.221L 1016.34,117.752 Z M 1024.17,124.995L 1028.09,128.617L 1026.73,130.085L 1022.81,126.464L 1024.17,124.995 Z M 1032,132.238L 1035.92,135.86L 1034.56,137.328L 1030.64,133.707L 1032,132.238 Z M 1039.83,139.481L 1040.68,140.266L 1039.32,141.734L 1038.47,140.95L 1039.83,139.481 Z M 1000.68,103.266L 1004.59,106.888L 1003.24,108.356L 999.321,104.735L 1000.68,103.266 Z "/>
	<path fill="#5A0FC8" fill-opacity="0.501961" stroke-linejoin="round" d="M 1090.67,179.2L 1096,179.2L 1096,181.2L 1090.67,181.2L 1090.67,179.2 Z M 1101.33,179.2L 1106.67,179.2L 1106.67,181.2L 1101.33,181.2L 1101.33,179.2 Z M 1112,179.2L 1117.33,179.2L 1117.33,181.2L 1112,181.2L 1112,179.2 Z M 1080,179.2L 1085.33,179.2L 1085.33,181.2L 1080,181.2L 1080,179.2 Z "/>
	<path fill="#5A0FC8" fill-opacity="0.501961" stroke-linejoin="round" d="M 1406.38,398.604L 1409.15,403.165L 1407.44,404.202L 1404.67,399.641L 1406.38,398.604 Z M 1411.91,407.727L 1414.68,412.288L 1412.97,413.324L 1410.2,408.763L 1411.91,407.727 Z M 1417.44,416.849L 1420.21,421.41L 1418.49,422.446L 1415.73,417.885L 1417.44,416.849 Z M 1422.97,425.971L 1425.73,430.532L 1424.02,431.568L 1421.26,427.007L 1422.97,425.971 Z M 1428.5,435.093L 1431.26,439.654L 1429.55,440.69L 1426.79,436.129L 1428.5,435.093 Z M 1434.03,444.215L 1436.79,448.776L 1435.08,449.812L 1432.32,445.251L 1434.03,444.215 Z M 1439.56,453.337L 1440.86,455.482L 1439.15,456.519L 1437.84,454.374L 1439.56,453.337 Z M 1400.85,389.482L 1403.62,394.043L 1401.91,395.08L 1399.14,390.519L 1400.85,389.482 Z "/>
	<path fill="#5A0FC8" fill-opacity="0.501961" stroke-linejoin="round" d="M 1370.67,389L 1376,389L 1376,391L 1370.67,391L 1370.67,389 Z M 1381.33,389L 1386.67,389L 1386.67,391L 1381.33,391L 1381.33,389 Z M 1392,389L 1397.33,389L 1397.33,391L 1392,391L 1392,389 Z M 1360,389L 1365.33,389L 1365.33,391L 1360,391L 1360,389 Z "/>
	<path fill="#5A0FC8" fill-opacity="0.501961" stroke-linejoin="round" d="M 1327.08,343.039L 1330.22,347.352L 1328.6,348.529L 1325.46,344.215L 1327.08,343.039 Z M 1333.36,351.665L 1336.49,355.979L 1334.88,357.155L 1331.74,352.842L 1333.36,351.665 Z M 1339.63,360.292L 1342.77,364.605L 1341.15,365.781L 1338.01,361.468L 1339.63,360.292 Z M 1345.9,368.918L 1349.04,373.232L 1347.42,374.408L 1344.29,370.095L 1345.9,368.918 Z M 1352.18,377.545L 1355.32,381.858L 1353.7,383.034L 1350.56,378.721L 1352.18,377.545 Z M 1358.45,386.171L 1360.81,389.412L 1359.19,390.588L 1356.83,387.348L 1358.45,386.171 Z M 1320.81,334.413L 1323.95,338.726L 1322.33,339.902L 1319.19,335.589L 1320.81,334.413 Z "/>
	<path fill="#5A0FC8" fill-opacity="0.501961" stroke-linejoin="round" d="M 1289.49,313.975L 1293.96,316.882L 1292.87,318.559L 1288.4,315.652L 1289.49,313.975 Z M 1298.43,319.788L 1302.9,322.695L 1301.81,324.372L 1297.34,321.465L 1298.43,319.788 Z M 1307.38,325.602L 1311.85,328.508L 1310.76,330.185L 1306.29,327.278L 1307.38,325.602 Z M 1316.32,331.415L 1320.55,334.162L 1319.46,335.839L 1315.23,333.092L 1316.32,331.415 Z M 1280.54,308.162L 1285.02,311.069L 1283.93,312.746L 1279.45,309.839L 1280.54,308.162 Z "/>
	<path fill="#5A0FC8" fill-opacity="0.501961" stroke-linejoin="round" d="M 1250.67,308.001L 1256,308.001L 1256,310.001L 1250.67,310.001L 1250.67,308.001 Z M 1261.33,308.001L 1266.67,308.001L 1266.67,310.001L 1261.33,310.001L 1261.33,308.001 Z M 1272,308L 1277.33,308L 1277.33,310L 1272,310L 1272,308 Z M 1240,308.001L 1245.33,308.001L 1245.33,310.001L 1240,310.001L 1240,308.001 Z "/>
	<path fill="#5A0FC8" fill-opacity="1" stroke-linejoin="round" d="M 997.5,174.5L 997.5,169.167L 1002.5,169.167L 1002.5,174.5L 997.5,174.5 Z M 997.5,163.833L 997.5,158.5L 1002.5,158.5L 1002.5,163.833L 997.5,163.833 Z M 997.5,153.167L 997.5,147.833L 1002.5,147.833L 1002.5,153.167L 997.5,153.167 Z M 997.5,142.5L 997.5,137.167L 1002.5,137.167L 1002.5,142.5L 997.5,142.5 Z M 997.5,131.833L 997.5,126.5L 1002.5,126.5L 1002.5,131.833L 997.5,131.833 Z M 997.5,121.167L 997.5,115.833L 1002.5,115.833L 1002.5,121.167L 997.5,121.167 Z M 997.5,110.5L 997.5,105.167L 1002.5,105.167L 1002.5,110.5L 997.5,110.5 Z M 997.5,99.8332L 997.5,94.4999L 1002.5,94.4999L 1002.5,99.8332L 997.5,99.8332 Z M 997.5,89.1666L 997.5,83.8332L 1002.5,83.8332L 1002.5,89.1666L 997.5,89.1666 Z M 997.5,78.4999L 997.5,73.1666L 1002.5,73.1666L 1002.5,78.4999L 997.5,78.4999 Z M 997.5,67.8332L 997.5,65.1667L 1002.5,65.1667L 1002.5,67.8332L 997.5,67.8332 Z M 997.5,185.167L 997.5,179.833L 1002.5,179.833L 1002.5,185.167L 997.5,185.167 Z "/>
	<path fill="#5A0FC8" fill-opacity="0.501961" stroke-linejoin="round" d="M 997.5,213.333L 997.5,208L 1002.5,208L 1002.5,213.333L 997.5,213.333 Z M 997.5,202.667L 997.5,197.333L 1002.5,197.333L 1002.5,202.667L 997.5,202.667 Z M 997.5,192L 997.5,186.667L 1002.5,186.667L 1002.5,192L 997.5,192 Z M 997.5,224L 997.5,218.667L 1002.5,218.667L 1002.5,224L 997.5,224 Z "/>
	<rect x="986.958" y="128.875" fill="#FFFFFF" fill-opacity="1" stroke-width="0.2" stroke-linejoin="round" width="19.6594" height="16.5"/>
	<text transform="matrix(1.0000000000000000 0.0000000000000000 0.0000000000000000 1.0000000000000000 989.00 142.00)" xml:space="preserve">
		<tspan style=" font-family:Segoe UI Semibold; font-size:12.000000pt;font-weight:Bold;" letter-spacing="0.00em" fill="#000000" fill-opacity="1" stroke-width="0.2" stroke-linejoin="round">120</tspan>
	</text>
	<rect x="876.583" y="162" fill="#FFFFFF" fill-opacity="1" stroke-width="0.2" stroke-linejoin="round" width="11.9169" height="16.5"/>
	<rect x="677" y="133" fill="#FFFFFF" fill-opacity="1" stroke-width="0.2" stroke-linejoin="round" width="11.9167" height="16.5"/>
	<rect x="397" y="132" fill="#FFFFFF" fill-opacity="1" stroke-width="0.2" stroke-linejoin="round" width="11.9168" height="16.5"/>
	<rect x="349.333" y="219.5" fill="#FFFFFF" fill-opacity="1" stroke-width="0.2" stroke-linejoin="round" width="27.2495" height="16.5"/>
	<rect x="28.7503" y="800" fill="#FFFFFF" fill-opacity="1" stroke-width="0.2" stroke-linejoin="round" width="27.2494" height="16.5"/>
	<rect x="308" y="780" fill="#FFFFFF" fill-opacity="1" stroke-width="0.2" stroke-linejoin="round" width="27.2494" height="16.5"/>
	<rect x="627.75" y="780" fill="#FFFFFF" fill-opacity="1" stroke-width="0.2" stroke-linejoin="round" width="27.2495" height="16.5"/>
	<rect x="669.75" y="703.5" fill="#FFFFFF" fill-opacity="1" stroke-width="0.2" stroke-linejoin="round" width="27.2495" height="16.5"/>
	<rect x="869.75" y="780" fill="#FFFFFF" fill-opacity="1" stroke-width="0.2" stroke-linejoin="round" width="27.2495" height="16.5"/>
	<rect x="1150" y="723.5" fill="#FFFFFF" fill-opacity="1" stroke-width="0.2" stroke-linejoin="round" width="27.2495" height="16.5"/>
	<rect x="1232.75" y="683.5" fill="#FFFFFF" fill-opacity="1" stroke-width="0.2" stroke-linejoin="round" width="27.2494" height="16.5"/>
	<rect x="109.333" y="200" fill="#FFFFFF" fill-opacity="1" stroke-width="0.2" stroke-linejoin="round" width="27.2494" height="16.5"/>
	<rect x="387" y="703.5" fill="#FFFFFF" fill-opacity="1" stroke-width="0.2" stroke-linejoin="round" width="27.2495" height="16.5"/>
	<rect x="947" y="720" fill="#FFFFFF" fill-opacity="1" stroke-width="0.2" stroke-linejoin="round" width="27.2494" height="16.5"/>
	<rect x="107.75" y="760" fill="#FFFFFF" fill-opacity="1" stroke-width="0.2" stroke-linejoin="round" width="27.2494" height="16.5"/>
	<rect x="588.667" y="168.667" fill="#FFFFFF" fill-opacity="1" stroke-width="0.2" stroke-linejoin="round" width="25.2495" height="16.5"/>
	<text transform="matrix(1.0000000000000000 0.0000000000000000 0.0000000000000000 1.0000000000000000 870.00 175.00)" xml:space="preserve">
		<tspan style=" font-family:Segoe UI Semibold; font-size:12.000000pt;font-weight:Bold;" letter-spacing="0.00em" fill="#000000" fill-opacity="1" stroke-width="0.2" stroke-linejoin="round">120</tspan>
	</text>
	<text transform="matrix(1.0000000000000000 0.0000000000000000 0.0000000000000000 1.0000000000000000 670.00 146.00)" xml:space="preserve">
		<tspan style=" font-family:Segoe UI Semibold; font-size:12.000000pt;font-weight:Bold;" letter-spacing="0.00em" fill="#000000" fill-opacity="1" stroke-width="0.2" stroke-linejoin="round">120</tspan>
	</text>
	<text transform="matrix(1.0000000000000000 0.0000000000000000 0.0000000000000000 1.0000000000000000 390.00 145.00)" xml:space="preserve">
		<tspan style=" font-family:Segoe UI Semibold; font-size:12.000000pt;font-weight:Bold;" letter-spacing="0.00em" fill="#000000" fill-opacity="1" stroke-width="0.2" stroke-linejoin="round">120</tspan>
	</text>
	<text transform="matrix(1.0000000000000000 0.0000000000000000 0.0000000000000000 1.0000000000000000 350.00 233.00)" xml:space="preserve">
		<tspan style=" font-family:Segoe UI Semibold; font-size:12.000000pt;font-weight:Bold;" letter-spacing="0.00em" fill="#000000" fill-opacity="1" stroke-width="0.2" stroke-linejoin="round">120</tspan>
	</text>
	<text transform="matrix(1.0000000000000000 0.0000000000000000 0.0000000000000000 1.0000000000000000 30.00 813.00)" xml:space="preserve">
		<tspan style=" font-family:Segoe UI Semibold; font-size:12.000000pt;font-weight:Bold;" letter-spacing="0.00em" fill="#000000" fill-opacity="1" stroke-width="0.2" stroke-linejoin="round">120</tspan>
	</text>
	<text transform="matrix(1.0000000000000000 0.0000000000000000 0.0000000000000000 1.0000000000000000 309.00 793.00)" xml:space="preserve">
		<tspan style=" font-family:Segoe UI Semibold; font-size:12.000000pt;font-weight:Bold;" letter-spacing="0.00em" fill="#000000" fill-opacity="1" stroke-width="0.2" stroke-linejoin="round">120</tspan>
	</text>
	<text transform="matrix(1.0000000000000000 0.0000000000000000 0.0000000000000000 1.0000000000000000 629.00 793.00)" xml:space="preserve">
		<tspan style=" font-family:Segoe UI Semibold; font-size:12.000000pt;font-weight:Bold;" letter-spacing="0.00em" fill="#000000" fill-opacity="1" stroke-width="0.2" stroke-linejoin="round">120</tspan>
	</text>
	<text transform="matrix(1.0000000000000000 0.0000000000000000 0.0000000000000000 1.0000000000000000 671.00 717.00)" xml:space="preserve">
		<tspan style=" font-family:Segoe UI Semibold; font-size:12.000000pt;font-weight:Bold;" letter-spacing="0.00em" fill="#000000" fill-opacity="1" stroke-width="0.2" stroke-linejoin="round">120</tspan>
	</text>
	<text transform="matrix(1.0000000000000000 0.0000000000000000 0.0000000000000000 1.0000000000000000 871.00 793.00)" xml:space="preserve">
		<tspan style=" font-family:Segoe UI Semibold; font-size:12.000000pt;font-weight:Bold;" letter-spacing="0.00em" fill="#000000" fill-opacity="1" stroke-width="0.2" stroke-linejoin="round">120</tspan>
	</text>
	<text transform="matrix(1.0000000000000000 0.0000000000000000 0.0000000000000000 1.0000000000000000 1151.00 737.00)" xml:space="preserve">
		<tspan style=" font-family:Segoe UI Semibold; font-size:12.000000pt;font-weight:Bold;" letter-spacing="0.00em" fill="#000000" fill-opacity="1" stroke-width="0.2" stroke-linejoin="round">120</tspan>
	</text>
	<text transform="matrix(1.0000000000000000 0.0000000000000000 0.0000000000000000 1.0000000000000000 1234.00 697.00)" xml:space="preserve">
		<tspan style=" font-family:Segoe UI Semibold; font-size:12.000000pt;font-weight:Bold;" letter-spacing="0.00em" fill="#000000" fill-opacity="1" stroke-width="0.2" stroke-linejoin="round">120</tspan>
	</text>
	<text transform="matrix(1.0000000000000000 0.0000000000000000 0.0000000000000000 1.0000000000000000 110.00 213.00)" xml:space="preserve">
		<tspan style=" font-family:Segoe UI Semibold; font-size:12.000000pt;font-weight:Bold;" letter-spacing="0.00em" fill="#000000" fill-opacity="1" stroke-width="0.2" stroke-linejoin="round">180</tspan>
	</text>
	<text transform="matrix(1.0000000000000000 0.0000000000000000 0.0000000000000000 1.0000000000000000 388.00 717.00)" xml:space="preserve">
		<tspan style=" font-family:Segoe UI Semibold; font-size:12.000000pt;font-weight:Bold;" letter-spacing="0.00em" fill="#000000" fill-opacity="1" stroke-width="0.2" stroke-linejoin="round">180</tspan>
	</text>
	<text transform="matrix(1.0000000000000000 0.0000000000000000 0.0000000000000000 1.0000000000000000 948.00 733.00)" xml:space="preserve">
		<tspan style=" font-family:Segoe UI Semibold; font-size:12.000000pt;font-weight:Bold;" letter-spacing="0.00em" fill="#000000" fill-opacity="1" stroke-width="0.2" stroke-linejoin="round">180</tspan>
	</text>
	<text transform="matrix(1.0000000000000000 0.0000000000000000 0.0000000000000000 1.0000000000000000 109.00 773.00)" xml:space="preserve">
		<tspan style=" font-family:Segoe UI Semibold; font-size:12.000000pt;font-weight:Bold;" letter-spacing="0.00em" fill="#000000" fill-opacity="1" stroke-width="0.2" stroke-linejoin="round">180</tspan>
	</text>
	<text transform="matrix(1.0000000000000000 0.0000000000000000 0.0000000000000000 1.0000000000000000 589.00 182.00)" xml:space="preserve">
		<tspan style=" font-family:Segoe UI Semibold; font-size:12.000000pt;font-weight:Bold;" letter-spacing="0.00em" fill="#000000" fill-opacity="1" stroke-width="0.2" stroke-linejoin="round">120</tspan>
	</text>
</svg>
