<svg xmlns="http://www.w3.org/2000/svg" viewBox="0 0 280.00 380.00" enable-background="new 0 0 280.00 380.00"><g stroke-linejoin="round"><g stroke-width=".2"><path d="m176.28 141.54c1.869-1.711 3.705-3.458 5.518-5.228 6.562-6.637 12.281-14.261 16.66-22.504 7.546-14.203 12.568-29.768 16.302-45.41 1.581-6.624 3.02-13.29 4.157-20 .375-2.211.724-4.431.896-6.667.092-1.19.184-2.387.112-3.578-.058-.974-.194-2.033-.761-2.826-.448-.625-1.499-1.134-2.175-.769-.994.536-1.186 1.958-1.472 3.05-.241.917-.682 1.792-1.233 2.563-5.245 7.35-6.906 16.708-9.669 25.305-4.31 13.411-9.03 26.836-15.758 39.21-4.344 7.992-9.772 15.548-16.289 21.894-8.521 7.988-18.01 15.04-28.09 20.942-20.723 12.13-43.842 20.435-67.24 25.845-11.863 2.743-23.837 5.02-35.853 6.985-3.401.556-6.804 1.092-10.204 1.65-1.928.315-3.92.433-5.756 1.099-1.331.483-2.836 1.206-3.448 2.483-.484 1.01-.255 2.355.254 3.354.684 1.342 1.818 2.455 3.02 3.36 3.43 2.578 8.268 3.391 12.533 2.931 12.631-1.364 25.21-3.388 37.611-6.166 23.933-5.364 47.567-13.62 69.01-25.521 11.287-6.264 22.13-13.528 31.869-22"/><path d="m214.36 45.15c1.856 2.617 3.725 5.227 5.698 7.758 5.215 6.272 10.851 12.199 16.691 17.894 2.01 1.957 4.02 3.916 6.21 5.67 1.482 1.188 3.113 2.545 5 2.724 1.282.121 3.134-.596 3.389-1.859.121-.601-.729-1.021-.882-1.615-.208-.808.061-1.675-.051-2.501-.171-1.254-.762-2.441-1.426-3.518-2.342-3.799-5.174-7.275-7.875-10.828-3.475-4.57-6.964-9.128-10.439-13.697-2.835-3.949-5.352-8.125-7.749-12.353-1.021-1.732-2.828-2.852-4.834-2.995-2.01-.143-3.955.709-5.211 2.279-3.077 3.579-6.181 7.305-10.123 9.901-10.223 6.92-20.657 13.898-29.1 22.899-.929.99-1.847 1.996-2.659 3.084-1.127 1.51-2.812 3.419-2.205 5.202.589 1.733 2.316 2.964 3.921 3.844 1.974 1.082 4.316 2 6.543 1.672 1.565-.234 2.652-1.748 3.829-2.807 2.231-2.01 4.46-4.02 6.762-5.95 6.886-5.769 14.06-11.188 21.309-16.5 4.743-3.579 8.619-8.219 12.409-12.795l-12.423-.886c1.06 1.8 2.115 3.603 3.218 5.376"/></g><path d="m59.6 268.78c.437-1.732 1.05-3.656 1.838-5.77.789-2.114 1.698-4.321 2.727-6.62 1.029-2.299 2.164-4.633 3.404-7 1.24-2.37 2.527-4.674 3.86-6.914 1.333-2.24 2.699-4.356 4.099-6.348 1.399-1.992 2.784-3.773 4.154-5.343.392-.437.883-.974 1.472-1.611.589-.636 1.25-1.295 1.983-1.977.733-.681 1.498-1.357 2.294-2.027.796-.67 1.599-1.273 2.41-1.81.811-.537 1.599-.97 2.366-1.3.766-.329 1.472-.494 2.116-.494.881 0 1.686.148 2.416.444.729.296 1.355.718 1.877 1.266.522.548.927 1.206 1.216 1.972.289.766.433 1.605.433 2.516 0 .385-.03.772-.089 1.161-.059.388-.133.786-.222 1.194l-3.854 19.1c.348-.518.837-1.225 1.466-2.121.629-.896 1.34-1.894 2.133-2.994.792-1.099 1.62-2.243 2.483-3.432.862-1.188 1.708-2.338 2.538-3.449.829-1.11 1.594-2.123 2.293-3.038.7-.914 1.272-1.656 1.717-2.227l.622-.777c.422-.526.936-1.139 1.543-1.838.608-.7 1.278-1.435 2.01-2.205.733-.77 1.509-1.529 2.327-2.277.818-.748 1.646-1.416 2.482-2 .837-.589 1.661-1.07 2.472-1.444.811-.374 1.586-.561 2.327-.561.555 0 1.018.126 1.388.378.37.251.672.586.906 1 .233.418.396.911.488 1.477.093.567.139 1.157.139 1.772 0 .955-.081 1.921-.244 2.899-.163.977-.348 1.862-.556 2.654-.118.637-.276 1.548-.472 2.733-.196 1.185-.427 2.544-.694 4.076-.267 1.533-.55 3.192-.85 4.976-.3 1.785-.605 3.597-.916 5.438-.311 1.84-.624 3.656-.939 5.448-.314 1.792-.605 3.467-.872 5.03-.266 1.559-.509 2.951-.727 4.176-.219 1.226-.398 2.179-.539 2.86-.066.319-.176.752-.327 1.3-.152.548-.373 1.083-.661 1.605-.289.522-.67.976-1.144 1.361-.474.385-1.059.577-1.755.577-.371 0-.722-.118-1.056-.355-.333-.237-.633-.537-.899-.9-.267-.363-.476-.753-.628-1.172-.152-.418-.239-.798-.261-1.138l7.22-33.534c.067-.318.124-.601.172-.849.048-.248.072-.487.072-.717 0-.251-.029-.479-.089-.683-.059-.203-.111-.394-.155-.572-.067-.207-.137-.389-.211-.544-1.037.763-2.151 1.735-3.343 2.916-1.193 1.181-2.4 2.497-3.621 3.948-1.222 1.452-2.446 2.994-3.671 4.627-1.226 1.632-2.39 3.271-3.494 4.915-.859 1.281-1.786 2.63-2.782 4.048-.996 1.418-1.996 2.842-2.999 4.271-1 1.429-1.979 2.858-2.927 4.287-.948 1.43-1.807 2.796-2.577 4.099-.37.63-.752 1.439-1.144 2.427-.393.989-.826 1.957-1.3 2.905-.474.948-.983 1.758-1.527 2.432-.544.674-1.164 1.01-1.86 1.01-.533 0-.979-.078-1.338-.233-.359-.156-.642-.359-.85-.611-.207-.252-.357-.548-.45-.889-.093-.34-.139-.707-.139-1.099 0-.511.052-1.019.156-1.522.104-.504.215-.985.333-1.444.489-1.94.998-3.865 1.527-5.776.53-1.91 1.079-3.867 1.649-5.87.57-2 1.155-4.075 1.755-6.215.6-2.14 1.211-4.421 1.833-6.842.163-.681.35-1.446.561-2.294.211-.848.409-1.705.594-2.571.185-.866.335-1.707.45-2.521.115-.815.172-1.541.172-2.177 0-.571-.046-1.026-.139-1.367-.093-.34-.268-.511-.528-.511-.852 0-1.751.304-2.699.911-.948.607-1.909 1.407-2.882 2.399-.974.993-1.936 2.129-2.888 3.41-.952 1.281-1.855 2.599-2.71 3.955-.855 1.355-1.655 2.695-2.399 4.02-.744 1.326-1.383 2.518-1.916 3.577-.118.222-.287.526-.505.911-.218.385-.507.925-.866 1.622-.359.696-.8 1.584-1.322 2.665-.522 1.081-1.137 2.45-1.844 4.105-.707 1.655-1.524 3.63-2.449 5.925-.926 2.296-1.97 4.988-3.132 8.07-.207.534-.572.965-1.094 1.294-.522.33-1.061.495-1.616.495-1.2 0-2.083-.319-2.649-.956-.566-.636-.85-1.421-.85-2.354 0-.408.059-.863.178-1.367"/><path d="m126.96 258.41c0-1.14.259-2.108.778-2.904.518-.796 1.207-1.328 2.066-1.594.251-.489.636-1.152 1.155-1.989.518-.836 1.162-1.745 1.932-2.726.771-.982 1.646-1.968 2.627-2.961.982-.992 2.066-1.895 3.255-2.71 1.188-.814 2.466-1.479 3.832-1.994 1.366-.514 2.816-.772 4.348-.772 1.311 0 2.453.165 3.427.495.974.329 1.777.788 2.41 1.377.634.589 1.107 1.289 1.422 2.099.315.811.472 1.687.472 2.627 0 .8-.1 1.563-.3 2.288-.311 1.319-.888 2.472-1.732 3.46-.845.989-1.839 1.853-2.983 2.594-1.144.74-2.386 1.359-3.726 1.855-1.341.496-2.683.909-4.03 1.238-1.344.33-2.638.582-3.882.756-1.244.174-2.321.309-3.232.405-.2.311-.372.702-.517 1.172-.144.47-.216.927-.216 1.372 0 .999.524 1.773 1.572 2.321 1.047.548 2.497.822 4.348.822 1.074 0 2.101-.089 3.082-.266.982-.178 1.911-.406 2.788-.684.878-.277 1.704-.579 2.477-.905.774-.326 1.483-.648 2.127-.966.822-.407 1.604-.75 2.344-1.028.741-.277 1.396-.416 1.966-.416.57 0 .935.141 1.094.422.159.281.239.578.239.889 0 .185-.006.361-.017.527-.011.167-.027.309-.05.428-.118.585-.351 1.17-.699 1.755-.348.585-.785 1.088-1.311 1.51-2.407 1.844-4.876 3.16-7.409 3.949-2.532.789-5.231 1.183-8.097 1.183-.555 0-1.209-.033-1.961-.1-.751-.067-1.53-.198-2.338-.394-.807-.197-1.605-.48-2.393-.85-.789-.37-1.489-.861-2.1-1.472-.61-.611-1.107-1.364-1.488-2.26-.381-.896-.572-1.977-.572-3.243 0-1.03.148-2.178.444-3.444-.296-.052-.562-.231-.799-.538-.237-.308-.356-.75-.356-1.328m21.26-9.208c.044-.096.066-.183.066-.261 0-.078 0-.161 0-.25 0-.511-.218-.894-.655-1.149-.437-.256-.963-.384-1.577-.384-.955 0-1.898.217-2.827.65-.929.433-1.805.976-2.627 1.627-.822.652-1.549 1.35-2.183 2.094-.633.744-1.123 1.42-1.471 2.027 1.57-.111 3.01-.294 4.326-.55 1.314-.255 2.457-.577 3.427-.966.97-.389 1.755-.824 2.354-1.305.6-.481.989-.992 1.167-1.533Z"/><path d="m186.97 243.6c-.807 0-1.673.191-2.599.572-.925.381-1.884.894-2.876 1.538-.993.645-1.998 1.376-3.02 2.194-1.018.818-2.02 1.664-3 2.538-.503.437-.985.833-1.444 1.189-.459.355-.918.625-1.377.81-.318.534-.655 1.232-1.01 2.094-.355.863-.705 1.807-1.049 2.833-.345 1.025-.671 2.073-.978 3.143-.307 1.07-.564 2.068-.772 2.993-.118.482-.211.952-.278 1.411-.066.459-.146.948-.238 1.466-.093.519-.204 1.078-.334 1.678-.129.599-.286 1.269-.472 2.01-.118.437-.303.787-.555 1.05-.252.262-.516.464-.794.605-.278.141-.544.228-.8.261-.255.033-.453.05-.594.05-.881 0-1.6-.213-2.155-.639-.555-.425-.833-1.253-.833-2.482 0-.333.011-.683.033-1.05.023-.366.093-.772.211-1.216.511-2.251 1-4.275 1.478-6.07.474-1.796.953-3.462 1.438-4.999.485-1.536.976-2.986 1.472-4.348.496-1.363 1-2.735 1.527-4.116.522-1.381 1.066-2.812 1.633-4.293.566-1.481 1.175-3.117 1.827-4.909.141-.407.505-.746 1.094-1.016.589-.271 1.22-.406 1.894-.406.874 0 1.594.208 2.16.622.567.415.85 1.01.85 1.789 0 .074-.022.207-.067.399-.044.193-.114.4-.211.622l-1.521 3.799c.962-.777 1.964-1.553 3-2.327 1.041-.774 2.112-1.472 3.216-2.094 1.103-.622 2.21-1.127 3.321-1.516 1.111-.389 2.207-.583 3.288-.583 2.221 0 3.956.615 5.203 1.844 1.248 1.229 1.872 3.132 1.872 5.709 0 1.481-.248 3.164-.744 5.05-.496 1.885-1.12 3.907-1.872 6.06-.751 2.159-1.562 4.425-2.432 6.798-.87 2.373-1.676 4.789-2.416 7.247-.207.667-.422 1.228-.644 1.683-.222.456-.484.82-.783 1.094-.3.274-.652.471-1.056.589-.403.118-.894.178-1.471.178-.904 0-1.529-.171-1.877-.511-.349-.341-.523-.889-.523-1.644 0-.652.099-1.455.295-2.41.196-.956.474-2 .833-3.138.359-1.137.776-2.351 1.249-3.644.474-1.292.989-2.608 1.544-3.948.445-1.081.88-2.162 1.305-3.244.426-1.081.808-2.127 1.145-3.137.336-1.01.609-1.976.816-2.894.207-.918.311-1.762.311-2.532 0-.733-.156-1.376-.467-1.928-.311-.551-.896-.827-1.755-.827"/><path d="m207.41 241.36c.089-.37.22-.685.394-.944.174-.259.361-.47.561-.633.2-.163.382-.278.545-.344.163-.067.288-.1.377-.1.252 0 .552.028.9.083.348.056.685.106 1.01.15.37.074.729.144 1.077.211.6.022 1.033.261 1.3.716.266.456.4.998.4 1.628 0 .503-.071.97-.211 1.399-.785 2.836-1.502 5.306-2.15 7.409-.648 2.103-1.197 3.891-1.649 5.365-.452 1.473-.8 2.677-1.044 3.61-.245.933-.367 1.636-.367 2.11 0 .481.065 1.016.195 1.605.129.589.322 1.139.577 1.65.256.51.58.936.972 1.277.393.341.87.511 1.433.511.97 0 1.955-.295 2.954-.883 1-.589 1.954-1.309 2.861-2.161.907-.851 1.727-1.76 2.46-2.726.733-.967 1.333-1.824 1.799-2.572l.9-1.533c.563-.955 1.081-2.051 1.555-3.287.474-1.237.892-2.479 1.255-3.727.363-1.248.672-2.421.928-3.521.255-1.1.453-1.979.594-2.638l.9-4.532c.185-.859.47-1.453.855-1.783.385-.329 1.029-.494 1.933-.494.585 0 1.108.063 1.571.189.463.126.857.346 1.183.661.326.315.569.738.728 1.272.159.533.239 1.218.239 2.055 0 .977-.156 2.173-.467 3.587-.311 1.415-.652 2.836-1.022 4.265-.207.837-.422 1.726-.644 2.666-.222.941-.418 1.881-.589 2.821-.17.941-.309 1.837-.416 2.688-.108.852-.161 1.615-.161 2.289 0 1.155.04 2.312.122 3.471.081 1.159.122 2.382.122 3.671 0 .585-.017 1.105-.05 1.56-.033.456-.083.794-.15 1.017-.274.888-.624 1.547-1.05 1.977-.425.429-1.153.644-2.182.644-.711 0-1.274-.072-1.688-.217-.415-.144-.739-.338-.972-.583-.234-.244-.385-.516-.456-.816-.07-.3-.12-.606-.15-.917l-.4-6.309.056.1c-.77.963-1.607 2.037-2.51 3.222-.904 1.184-1.903 2.29-2.999 3.315-1.096 1.026-2.288 1.887-3.577 2.583-1.288.696-2.688 1.044-4.199 1.044-.303 0-.694-.074-1.171-.222-.478-.149-.972-.337-1.483-.567-.511-.229-.998-.487-1.461-.772-.463-.285-.835-.553-1.116-.805-1.281-1.163-2.188-2.473-2.721-3.932-.534-1.459-.8-2.944-.8-4.454 0-.844.068-1.689.205-2.533.137-.844.298-1.658.483-2.443.186-.785.389-1.526.611-2.222.223-.696.4-1.318.534-1.866.444-1.71.838-3.216 1.182-4.515.345-1.3.65-2.44.917-3.421.266-.981.492-1.82.677-2.516.186-.696.348-1.307.489-1.833"/><g stroke-width=".2"><path fill="#e0e0e0" d="m178.02 304.04h26.01c6.075 0 11 4.925 11 11v26.01c0 6.075-4.925 11-11 11h-26.01c-6.075 0-11-4.925-11-11v-26.01c0-6.075 4.925-11 11-11"/><path d="m190.71 344.05h-1.707v-10.02c0-.793.048-1.762.143-2.907h-.043c-.169.674-.32 1.156-.453 1.447l-5.164 11.477h-.863l-5.153-11.394c-.149-.333-.3-.843-.454-1.53h-.043c.055.598.083 1.574.083 2.927v9.997h-1.706v-14.934h2.33l4.646 10.414c.358.797.59 1.394.697 1.789h.063c.302-.819.546-1.431.73-1.833l4.74-10.37h2.154v14.934"/><path fill="#e0e0e0" d="m75.01 304.04h58.01c6.075 0 11 4.925 11 11v26.01c0 6.075-4.925 11-11 11h-58.01c-6.075 0-11-4.925-11-11v-26.01c0-6.075 4.925-11 11-11"/></g><path d="m84.64 343.4c-1.1.575-2.469.863-4.107.863-2.113 0-3.806-.681-5.078-2.042-1.272-1.361-1.908-3.147-1.908-5.358 0-2.378.716-4.299 2.147-5.764 1.431-1.464 3.246-2.196 5.443-2.196 1.409 0 2.577.161 3.503.483v1.864c-1.053-.569-2.217-.854-3.49-.854-1.689 0-3.058.577-4.108 1.732-1.05 1.154-1.575 2.697-1.575 4.628 0 1.834.491 3.294 1.472 4.382.981 1.088 2.269 1.632 3.865 1.632 1.478 0 2.757-.356 3.837-1.067v1.697"/><path d="m92.53 343.9c-.411.238-.952.357-1.623.357-1.904 0-2.857-1.036-2.857-3.107v-6.28h-1.92v-1.493h1.92v-2.64l1.707-.56v3.2h2.773v1.493h-2.773v5.93c0 .707.126 1.211.377 1.512.251.301.667.452 1.247.452.444 0 .828-.143 1.15-.427v1.563"/><path d="m100.21 335.09c-.297-.285-.726-.427-1.286-.427-.727 0-1.334.348-1.822 1.043-.488.696-.732 1.643-.732 2.844v5.5h-1.707v-10.667h1.707v2.09h.04c.242-.725.613-1.29 1.112-1.695.499-.406 1.056-.608 1.672-.608.442 0 .781.048 1.016.146v1.774"/><path d="m102.13 328.26h1.707v15.787h-1.707z"/><path d="m156.69 329.49v4.544h-3.067v-4.544h-4.56v-3.056h4.56v-4.56h3.067v4.56h4.533v3.056h-4.533"/></g></svg>