<?xml version="1.0" encoding="utf-8"?>
<!DOCTYPE svg PUBLIC "-//W3C//DTD SVG 1.1//EN" "http://www.w3.org/Graphics/SVG/1.1/DTD/svg11.dtd">
<svg xmlns="http://www.w3.org/2000/svg" xmlns:xlink="http://www.w3.org/1999/xlink" version="1.1" baseProfile="full" width="14" height="14" viewBox="0 0 14.00 14.00" enable-background="new 0 0 14.00 14.00" xml:space="preserve">
	<path fill="#000000" fill-opacity="1" stroke-linejoin="round" d="M 1.34571,3.14187C 1.00238,4.68229 1.505,7.15546 2.37309,9.18504C 3.24118,11.2146 4.47472,12.8006 5.63579,13.374C 6.79685,13.9474 7.88543,13.5081 8.97401,13.0689L 7.48958,9.72499L 6.22392,10.5531C 5.45306,9.79791 4.6822,9.04268 4.2551,8.07129C 3.828,7.0999 3.74466,5.91236 3.66133,4.72482L 5.30201,4.34981L 4.06759,0.386131C 2.87832,0.993793 1.68904,1.60145 1.34571,3.14187 Z "/>
	<path fill="#000000" fill-opacity="1" stroke-linejoin="round" d="M 12.9069,7.77099C 12.9069,8.98086 12.658,10.1326 12.2086,11.1778L 10.9916,10.5714C 11.3514,9.70942 11.55,8.76341 11.55,7.77099C 11.55,5.07156 10.08,2.71546 7.89681,1.45959L 8.56397,0.277815C 11.1589,1.76667 12.9069,4.5647 12.9069,7.77099 Z "/>
	<path fill="#000000" fill-opacity="1" stroke-linejoin="round" d="M 10.2084,7.78482C 10.2084,8.56649 10.0592,9.31328 9.78756,9.99827L 8.43109,9.32239C 8.60513,8.84308 8.70004,8.32582 8.70004,7.78639C 8.70004,6.14998 7.82661,4.71758 6.52051,3.92994L 7.26293,2.61486C 9.02641,3.66175 10.2084,5.58525 10.2084,7.78482 Z "/>
</svg>
