<?xml version="1.0" encoding="utf-8"?>
<!DOCTYPE svg PUBLIC "-//W3C//DTD SVG 1.1//EN" "http://www.w3.org/Graphics/SVG/1.1/DTD/svg11.dtd">
<svg xmlns="http://www.w3.org/2000/svg" xmlns:xlink="http://www.w3.org/1999/xlink" version="1.1" baseProfile="full" width="256" height="256" viewBox="0 0 256.00 256.00" enable-background="new 0 0 256.00 256.00" xml:space="preserve">
	<path fill="#E6003C" fill-opacity="1" stroke-width="0.2" stroke-linejoin="round" d="M 39.987,-30.3409L 256.086,0.029892L 215.786,286.783L -0.313534,256.412L 39.987,-30.3409 Z "/>
	<g>
		<path fill="#FFFFFF" fill-opacity="1" stroke-width="0.2" stroke-linejoin="round" d="M 187.556,201.177C 188.085,202.423 188.35,203.689 188.35,204.973C 188.35,206.749 187.877,208.407 186.933,209.946C 185.989,211.485 184.666,212.661 182.966,213.473L 174.976,217.214C 171.86,218.63 168.738,219.66 165.612,220.302C 162.486,220.944 159.327,221.265 156.135,221.265C 150.997,221.265 145.921,220.41 140.906,218.701C 135.891,216.992 131.093,214.545 126.512,211.363C 121.932,208.18 117.634,204.331 113.621,199.817C 109.607,195.302 106.013,190.268 102.84,184.715C 100.819,181.636 98.6936,178.123 96.4647,174.175C 94.5758,170.813 92.4178,166.785 89.9905,162.091C 87.5633,157.397 85.1125,152.189 82.638,146.465C 80.1069,140.742 78.1,135.741 76.6172,131.463C 75.1344,127.184 73.9869,123.628 73.1747,120.795C 72.2303,117.49 71.5786,114.656 71.2197,112.295C 69.9164,107.913 68.9578,103.554 68.3439,99.2193C 67.73,94.8843 67.423,90.5918 67.423,86.3418C 67.423,80.7885 67.9803,75.4429 69.0947,70.3052C 70.2092,65.1674 71.9186,60.3885 74.223,55.9685C 76.5275,51.5485 79.4505,47.596 82.9922,44.111C 86.5339,40.626 90.7225,37.7879 95.558,35.5968L 103.435,31.9702C 104.681,31.4413 105.928,31.1768 107.175,31.1768C 108.931,31.1768 110.565,31.6632 112.076,32.636C 113.587,33.6088 114.721,34.9546 115.476,36.6735L 130.635,71.0985C 131.164,72.3452 131.428,73.5918 131.428,74.8385C 131.428,76.6707 130.956,78.366 130.011,79.9243C 129.067,81.4827 127.735,82.649 126.016,83.4235L 110.433,90.5918C 108.374,91.5363 106.797,92.9246 105.701,94.7568C 104.606,96.5891 104.058,98.5629 104.058,100.678C 104.058,102.284 104.36,103.795 104.965,105.212L 130.55,163.635C 131.551,165.883 132.934,167.536 134.701,168.594C 136.467,169.651 138.389,170.18 140.466,170.18C 141.883,170.18 143.328,169.859 144.801,169.217L 160.385,162.048C 161.612,161.52 162.85,161.255 164.096,161.255C 165.815,161.255 167.44,161.742 168.97,162.714C 170.5,163.687 171.652,165.023 172.426,166.724L 187.556,201.177 Z "/>
	</g>
</svg>
