<?xml version="1.0" encoding="UTF-8" standalone="no"?>
<!-- Created with Inkscape (http://www.inkscape.org/) -->

<svg
   xmlns:dc="http://purl.org/dc/elements/1.1/"
   xmlns:cc="http://creativecommons.org/ns#"
   xmlns:rdf="http://www.w3.org/1999/02/22-rdf-syntax-ns#"
   xmlns:svg="http://www.w3.org/2000/svg"
   xmlns="http://www.w3.org/2000/svg"
   version="1.1"
   width="44"
   height="20"
   viewBox="0 0 44 20"
   id="svg3101"
   xml:space="preserve"><metadata
   id="metadata3215"><rdf:RDF><cc:Work
       rdf:about=""><dc:format>image/svg+xml</dc:format><dc:type
         rdf:resource="http://purl.org/dc/dcmitype/StillImage" /><dc:title></dc:title></cc:Work></rdf:RDF></metadata><defs
   id="defs3213" />
<g
   transform="matrix(0.38745669,0,0,0.38745669,-167.46883,-290.32148)"
   id="CMYK">
	<path
   d="m 463.771,779.649 c 0,0 1.93,0.541 5.977,-3.887 1.087,-1.188 3.372,-4.524 6.228,-5.421 1.161,-0.365 3.267,-0.871 4.961,-1.113 0.894,-0.128 3.387,-0.587 4.934,-1.266 1.548,-0.677 2.327,-1.304 2.559,-1.943 0,0 -0.704,0.422 -1.867,0.703 -1.164,0.282 -2.773,0.672 -5.702,0.908 -2.671,0.216 -3.803,0.196 -5.524,0.625 -1.795,0.449 -3.682,1.125 -5.697,3.935 -0.774,1.078 -2.025,3.284 -3.328,4.89 -0.883,1.087 -1.445,1.867 -2.046,2.25 l -0.495,0.319 z"
   id="path3104" />
	<path
   d="m 481.987,771.223 c 0,0 1.613,0.89 6.678,-1.552 2.366,-1.142 8.861,-5.918 8.861,-5.918 0,0 6.932,-5.063 11.224,-7.116 4.099,-1.959 6.726,-3.132 11.935,-3.568 5.209,-0.436 7.118,1.007 8.798,2.07 0.619,0.391 1.273,0.862 1.97,1.748 0.812,1.036 0.485,-1.541 -0.434,-2.886 -1.113,-1.629 -1.966,-2.535 -4.234,-3.63 -2.542,-1.224 -6.366,-0.914 -6.783,-0.873 -0.415,0.043 -4.588,0.501 -9.358,2.658 -4.772,2.157 -7.778,4.46 -9.69,5.954 -1.91,1.495 -6.147,4.896 -7.327,5.86 -1.162,0.949 -3.359,2.896 -5.663,4.371 -2.303,1.475 -3.152,1.883 -5.396,2.697 -0.231,0.086 -0.581,0.185 -0.581,0.185"
   id="path3106" />
	<path
   d="m 524.844,757.934 c 0,0 0.839,0.905 3.798,0.471 2.366,-0.347 3.498,-1.024 6.292,-0.798 3.256,0.266 4.887,2.829 5.49,3.874 0.418,0.724 2.089,3.814 1.621,7.792 -0.039,0.335 -0.06,0.637 -0.06,0.637 0,0 -0.117,0.375 0.493,0.314 0.712,-0.069 1.313,-0.859 1.427,-1.28 0.119,-0.436 0.336,-1.11 0.113,-1.966 -0.108,-0.417 -0.264,-0.668 -0.208,-0.704 0.086,-0.045 0.568,0.275 0.804,0.575 0.522,0.662 1.189,2.366 1.031,4.045 -0.102,1.078 -0.687,2.332 -1.729,3.09 -1.043,0.756 -1.417,0.578 -2.113,0.756 -0.696,0.181 -0.819,0.225 -0.957,0.6 -0.154,0.419 -0.244,0.468 -0.359,0.676 -0.112,0.207 -0.491,0.793 -0.531,1.029 -0.04,0.236 0.02,1.166 -0.424,2.379 -0.441,1.213 -2.093,5.021 -3.137,6.588 -1.043,1.566 -1.82,2.516 -2.674,3.133 -0.855,0.617 -1.361,1.014 -4.082,0.886 -2.721,-0.127 -2.984,-1.065 -5.696,0.522 -1.106,0.648 -1.853,1.762 -4.461,2.342 -0.854,0.189 -2.311,0.062 -2.533,-0.097 0,0 0.123,-0.023 0.476,-0.109 0.355,-0.087 1.883,-0.744 2.706,-1.487 0.822,-0.743 1.645,-1.288 2.646,-2.415 1.002,-1.128 2.102,-1.864 4.403,-1.454 2.301,0.408 2.502,0.451 3.065,0.451 0.564,0 2.27,0.104 3.389,-1.863 1.219,-2.146 1.808,-3.066 2.552,-5.022 0.744,-1.955 0.952,-3.096 1.036,-4.318 0.083,-1.225 -0.146,-1.947 0.889,-3.318 1.036,-1.37 1.226,-3.609 1.121,-5.314 -0.104,-1.703 -0.544,-4.04 -2.366,-5.743 -1.819,-1.705 -3.413,-2.123 -5.597,-2.039 -2.185,0.083 -3.563,0.311 -5.251,-0.431 -0.856,-0.376 -1.412,-1.016 -1.516,-1.726 -0.104,-0.713 0.342,-0.076 0.342,-0.076"
   id="path3108" />
	<path
   d="m 524.448,763.046 c 0,0 -4.012,3.427 -1.122,5.71 0.77,0.606 2.186,0.96 1.476,3.172 -0.711,2.212 -2.889,1.896 -3.278,1.736 -0.386,-0.161 -3.106,-1.523 -2.892,-5.286 0.211,-3.69 3.922,-5.205 4.689,-5.348 0.77,-0.141 1.127,0.016 1.127,0.016"
   id="path3110" />
	<path
   d="m 527.183,773.324 c 0,0 2.292,1.251 2.685,1.418 0.399,0.171 0.705,0.35 0.603,0.994 -0.09,0.572 -0.254,1.691 -1.384,2.43 -1.131,0.74 -2.157,-0.104 -2.396,-0.273 -0.238,-0.169 -1.191,-1.305 -0.681,-2.887 0.392,-1.218 1.173,-1.682 1.173,-1.682"
   id="path3112" />
	<path
   d="m 513.856,800.449 c -0.196,-0.048 1.17,-0.292 2.217,-1.1 1.038,-0.803 2.032,-1.913 3.25,-3.346 1.218,-1.433 3.184,-2.093 3.869,-2.342 0.311,-0.113 1.646,-0.499 2.841,-0.214 0,0 -1.552,0.536 -3.032,1.783 -1.369,1.154 -2.537,2.829 -4.229,3.952 -1.695,1.124 -3.893,1.514 -4.916,1.267"
   id="path3114" />
	<g
   id="g3116">
		<path
   d="m 435.844,783.475 h 7.559 c 1.757,0 4.805,0.682 4.805,3.901 0,2.293 -1.78,3.999 -4.462,4.316 v 0.048 c 1.95,0.293 3.292,1.415 3.292,3.292 0,3.609 -3.098,5.316 -6.999,5.365 l -7.754,0.098 3.559,-17.02 z m 1.609,13.801 h 1.22 c 2.292,0 3.828,-0.633 3.828,-2.292 0,-1.487 -1.073,-1.706 -3.121,-1.706 h -1.098 l -0.829,3.998 z m 1.487,-7.071 h 1.707 c 1.902,0 3.024,-0.756 3.024,-1.927 0,-1.365 -1.122,-1.584 -2.829,-1.584 h -1.17 l -0.732,3.511 z"
   id="path3118"
   style="fill:#e30040" />
		<polygon
   points="456.863,783.474 453.328,800.496 448.743,800.496 452.279,783.474 "
   id="polygon3120"
   style="fill:#e30040" />
		<path
   d="m 470.52,787.328 c -0.878,-0.414 -2.073,-0.78 -3.755,-0.78 -1.805,0 -3.269,0.269 -3.269,1.634 0,2.414 6.608,1.512 6.608,6.682 0,4.707 -4.364,5.926 -8.314,5.926 -1.757,0 -3.78,-0.415 -5.268,-0.878 l 1.073,-3.463 c 0.902,0.585 2.707,0.976 4.194,0.976 1.413,0 3.633,-0.269 3.633,-2.023 0,-2.732 -6.608,-1.707 -6.608,-6.512 0,-4.39 3.854,-5.707 7.584,-5.707 2.097,0 4.072,0.221 5.218,0.757 l -1.096,3.388 z"
   id="path3122"
   style="fill:#e30040" />
		<path
   d="m 480.104,800.789 c -5.536,0 -7.561,-3.438 -7.561,-6.926 0,-6.462 3.39,-10.681 9.95,-10.681 5.535,0 7.559,3.438 7.559,6.95 0,6.438 -3.39,10.657 -9.948,10.657 m 2.096,-14.242 c -3.512,0 -4.976,4.071 -4.976,6.95 0,2.146 0.806,3.926 3.171,3.926 3.512,0 4.975,-4.072 4.975,-6.925 0,-2.146 -0.805,-3.951 -3.17,-3.951"
   id="path3124"
   style="fill:#e30040" />
		<polygon
   points="510.024,783.474 506.415,800.496 500.757,800.496 497.197,788.717 497.148,788.717 494.783,800.496 490.491,800.496 494.124,783.474 499.807,783.474 503.294,795.278 503.342,795.278 505.732,783.474 "
   id="polygon3126"
   style="fill:#e30040" />
	</g>
	<path
   d="m 449.95,775.351 c 0,0 -0.084,0.38 1.646,1.926 1.998,1.785 4.095,2.255 5.967,2.256 1.809,10e-4 4.368,-0.963 5.995,-2.7 1.627,-1.738 1.615,-2.394 1.615,-2.394 0,0 -1.541,1.171 -2.41,1.646 -1.373,0.748 -3.382,1.682 -5.2,1.687 -2.337,0.005 -3.942,-0.405 -5.396,-1.072 -1.52,-0.696 -2.217,-1.349 -2.217,-1.349"
   id="path3128" />
</g>
<g
   transform="translate(0,-821.89001)"
   id="Pantone"
   style="display:none">
	<path
   d="m 463.771,779.649 c 0,0 1.93,0.541 5.977,-3.887 1.087,-1.188 3.372,-4.524 6.228,-5.421 1.161,-0.365 3.267,-0.871 4.961,-1.113 0.894,-0.128 3.387,-0.587 4.934,-1.266 1.548,-0.677 2.327,-1.304 2.559,-1.943 0,0 -0.704,0.422 -1.867,0.703 -1.164,0.282 -2.773,0.672 -5.702,0.908 -2.671,0.216 -3.803,0.196 -5.524,0.625 -1.795,0.449 -3.682,1.125 -5.697,3.935 -0.774,1.078 -2.025,3.284 -3.328,4.89 -0.883,1.087 -1.445,1.867 -2.046,2.25 l -0.495,0.319 z"
   id="path3131"
   style="display:inline" />
	<path
   d="m 481.987,771.223 c 0,0 1.613,0.89 6.678,-1.552 2.366,-1.142 8.861,-5.918 8.861,-5.918 0,0 6.932,-5.063 11.224,-7.116 4.099,-1.959 6.726,-3.132 11.935,-3.568 5.209,-0.436 7.118,1.007 8.798,2.07 0.619,0.391 1.273,0.862 1.97,1.748 0.812,1.036 0.485,-1.541 -0.434,-2.886 -1.113,-1.629 -1.966,-2.535 -4.234,-3.63 -2.542,-1.224 -6.366,-0.914 -6.783,-0.873 -0.415,0.043 -4.588,0.501 -9.358,2.658 -4.772,2.157 -7.778,4.46 -9.69,5.954 -1.91,1.495 -6.147,4.896 -7.327,5.86 -1.162,0.949 -3.359,2.896 -5.663,4.371 -2.303,1.475 -3.152,1.883 -5.396,2.697 -0.231,0.086 -0.581,0.185 -0.581,0.185"
   id="path3133"
   style="display:inline" />
	<path
   d="m 524.844,757.934 c 0,0 0.839,0.905 3.798,0.471 2.366,-0.347 3.498,-1.024 6.292,-0.798 3.256,0.266 4.887,2.829 5.49,3.874 0.418,0.724 2.089,3.814 1.621,7.792 -0.039,0.335 -0.06,0.637 -0.06,0.637 0,0 -0.117,0.375 0.493,0.314 0.712,-0.069 1.313,-0.859 1.427,-1.28 0.119,-0.436 0.336,-1.11 0.113,-1.966 -0.108,-0.417 -0.264,-0.668 -0.208,-0.704 0.086,-0.045 0.568,0.275 0.804,0.575 0.522,0.662 1.189,2.366 1.031,4.045 -0.102,1.078 -0.687,2.332 -1.729,3.09 -1.043,0.756 -1.417,0.578 -2.113,0.756 -0.696,0.181 -0.819,0.225 -0.957,0.6 -0.154,0.419 -0.244,0.468 -0.359,0.676 -0.112,0.207 -0.491,0.793 -0.531,1.029 -0.04,0.236 0.02,1.166 -0.424,2.379 -0.441,1.213 -2.093,5.021 -3.137,6.588 -1.043,1.566 -1.82,2.516 -2.674,3.133 -0.855,0.617 -1.361,1.014 -4.082,0.886 -2.721,-0.127 -2.984,-1.065 -5.696,0.522 -1.106,0.648 -1.853,1.762 -4.461,2.342 -0.854,0.189 -2.311,0.062 -2.533,-0.097 0,0 0.123,-0.023 0.476,-0.109 0.355,-0.087 1.883,-0.744 2.706,-1.487 0.822,-0.743 1.645,-1.288 2.646,-2.415 1.002,-1.128 2.102,-1.864 4.403,-1.454 2.301,0.408 2.502,0.451 3.065,0.451 0.564,0 2.27,0.104 3.389,-1.863 1.219,-2.146 1.808,-3.066 2.552,-5.022 0.744,-1.955 0.952,-3.096 1.036,-4.318 0.083,-1.225 -0.146,-1.947 0.889,-3.318 1.036,-1.37 1.226,-3.609 1.121,-5.314 -0.104,-1.703 -0.544,-4.04 -2.366,-5.743 -1.819,-1.705 -3.413,-2.123 -5.597,-2.039 -2.185,0.083 -3.563,0.311 -5.251,-0.431 -0.856,-0.376 -1.412,-1.016 -1.516,-1.726 -0.104,-0.713 0.342,-0.076 0.342,-0.076"
   id="path3135"
   style="display:inline" />
	<path
   d="m 524.448,763.046 c 0,0 -4.012,3.427 -1.122,5.71 0.77,0.606 2.186,0.96 1.476,3.172 -0.711,2.212 -2.889,1.896 -3.278,1.736 -0.386,-0.161 -3.106,-1.523 -2.892,-5.286 0.211,-3.69 3.922,-5.205 4.689,-5.348 0.77,-0.141 1.127,0.016 1.127,0.016"
   id="path3137"
   style="display:inline" />
	<path
   d="m 527.183,773.324 c 0,0 2.292,1.251 2.685,1.418 0.399,0.171 0.705,0.35 0.603,0.994 -0.09,0.572 -0.254,1.691 -1.384,2.43 -1.131,0.74 -2.157,-0.104 -2.396,-0.273 -0.238,-0.169 -1.191,-1.305 -0.681,-2.887 0.392,-1.218 1.173,-1.682 1.173,-1.682"
   id="path3139"
   style="display:inline" />
	<path
   d="m 513.856,800.449 c -0.196,-0.048 1.17,-0.292 2.217,-1.1 1.038,-0.803 2.032,-1.913 3.25,-3.346 1.218,-1.433 3.184,-2.093 3.869,-2.342 0.311,-0.113 1.646,-0.499 2.841,-0.214 0,0 -1.552,0.536 -3.032,1.783 -1.369,1.154 -2.537,2.829 -4.229,3.952 -1.695,1.124 -3.893,1.514 -4.916,1.267"
   id="path3141"
   style="display:inline" />
	<g
   id="g3143"
   style="display:inline">
		<path
   d="m 435.844,783.475 h 7.559 c 1.757,0 4.805,0.682 4.805,3.901 0,2.293 -1.78,3.999 -4.462,4.316 v 0.048 c 1.95,0.293 3.292,1.415 3.292,3.292 0,3.609 -3.098,5.316 -6.999,5.365 l -7.754,0.098 3.559,-17.02 z m 1.609,13.801 h 1.22 c 2.292,0 3.828,-0.633 3.828,-2.292 0,-1.487 -1.073,-1.706 -3.121,-1.706 h -1.098 l -0.829,3.998 z m 1.487,-7.071 h 1.707 c 1.902,0 3.024,-0.756 3.024,-1.927 0,-1.365 -1.122,-1.584 -2.829,-1.584 h -1.17 l -0.732,3.511 z"
   id="path3145"
   style="fill:#dc002e" />
		<polygon
   points="448.743,800.496 452.279,783.474 456.863,783.474 453.328,800.496 "
   id="polygon3147"
   style="fill:#dc002e" />
		<path
   d="m 470.52,787.328 c -0.878,-0.414 -2.073,-0.78 -3.755,-0.78 -1.805,0 -3.269,0.269 -3.269,1.634 0,2.414 6.608,1.512 6.608,6.682 0,4.707 -4.364,5.926 -8.314,5.926 -1.757,0 -3.78,-0.415 -5.268,-0.878 l 1.073,-3.463 c 0.902,0.585 2.707,0.976 4.194,0.976 1.413,0 3.633,-0.269 3.633,-2.023 0,-2.732 -6.608,-1.707 -6.608,-6.512 0,-4.39 3.854,-5.707 7.584,-5.707 2.097,0 4.072,0.221 5.218,0.757 l -1.096,3.388 z"
   id="path3149"
   style="fill:#dc002e" />
		<path
   d="m 480.104,800.789 c -5.536,0 -7.561,-3.438 -7.561,-6.926 0,-6.462 3.39,-10.681 9.95,-10.681 5.535,0 7.559,3.438 7.559,6.95 0,6.438 -3.39,10.657 -9.948,10.657 m 2.096,-14.242 c -3.512,0 -4.976,4.071 -4.976,6.95 0,2.146 0.806,3.926 3.171,3.926 3.512,0 4.975,-4.072 4.975,-6.925 0,-2.146 -0.805,-3.951 -3.17,-3.951"
   id="path3151"
   style="fill:#dc002e" />
		<polygon
   points="500.757,800.496 497.197,788.717 497.148,788.717 494.783,800.496 490.491,800.496 494.124,783.474 499.807,783.474 503.294,795.278 503.342,795.278 505.732,783.474 510.024,783.474 506.415,800.496 "
   id="polygon3153"
   style="fill:#dc002e" />
	</g>
	<path
   d="m 449.95,775.351 c 0,0 -0.084,0.38 1.646,1.926 1.998,1.785 4.095,2.255 5.967,2.256 1.809,10e-4 4.368,-0.963 5.995,-2.7 1.627,-1.738 1.615,-2.394 1.615,-2.394 0,0 -1.541,1.171 -2.41,1.646 -1.373,0.748 -3.382,1.682 -5.2,1.687 -2.337,0.005 -3.942,-0.405 -5.396,-1.072 -1.52,-0.696 -2.217,-1.349 -2.217,-1.349"
   id="path3155"
   style="display:inline" />
</g>
<g
   transform="translate(0,-821.89001)"
   id="CKYK_Negativ"
   style="display:none">
	<path
   d="m 463.771,779.649 c 0,0 1.93,0.541 5.977,-3.887 1.087,-1.188 3.372,-4.524 6.228,-5.421 1.161,-0.365 3.267,-0.871 4.961,-1.113 0.894,-0.128 3.387,-0.587 4.934,-1.266 1.548,-0.677 2.327,-1.304 2.559,-1.943 0,0 -0.704,0.422 -1.867,0.703 -1.164,0.282 -2.773,0.672 -5.702,0.908 -2.671,0.216 -3.803,0.196 -5.524,0.625 -1.795,0.449 -3.682,1.125 -5.697,3.935 -0.774,1.078 -2.025,3.284 -3.328,4.89 -0.883,1.087 -1.445,1.867 -2.046,2.25 l -0.495,0.319 z"
   id="path3158"
   style="fill:#ffffff;display:inline" />
	<path
   d="m 481.987,771.223 c 0,0 1.613,0.89 6.678,-1.552 2.366,-1.142 8.861,-5.918 8.861,-5.918 0,0 6.932,-5.063 11.224,-7.116 4.099,-1.959 6.726,-3.132 11.935,-3.568 5.209,-0.436 7.118,1.007 8.798,2.07 0.619,0.391 1.273,0.862 1.97,1.748 0.812,1.036 0.485,-1.541 -0.434,-2.886 -1.113,-1.629 -1.966,-2.535 -4.234,-3.63 -2.542,-1.224 -6.366,-0.914 -6.783,-0.873 -0.415,0.043 -4.588,0.501 -9.358,2.658 -4.772,2.157 -7.778,4.46 -9.69,5.954 -1.91,1.495 -6.147,4.896 -7.327,5.86 -1.162,0.949 -3.359,2.896 -5.663,4.371 -2.303,1.475 -3.152,1.883 -5.396,2.697 -0.231,0.086 -0.581,0.185 -0.581,0.185"
   id="path3160"
   style="fill:#ffffff;display:inline" />
	<path
   d="m 524.844,757.934 c 0,0 0.839,0.905 3.798,0.471 2.366,-0.347 3.498,-1.024 6.292,-0.798 3.256,0.266 4.887,2.829 5.49,3.874 0.418,0.724 2.089,3.814 1.621,7.792 -0.039,0.335 -0.06,0.637 -0.06,0.637 0,0 -0.117,0.375 0.493,0.314 0.712,-0.069 1.313,-0.859 1.427,-1.28 0.119,-0.436 0.336,-1.11 0.113,-1.966 -0.108,-0.417 -0.264,-0.668 -0.208,-0.704 0.086,-0.045 0.568,0.275 0.804,0.575 0.522,0.662 1.189,2.366 1.031,4.045 -0.102,1.078 -0.687,2.332 -1.729,3.09 -1.043,0.756 -1.417,0.578 -2.113,0.756 -0.696,0.181 -0.819,0.225 -0.957,0.6 -0.154,0.419 -0.244,0.468 -0.359,0.676 -0.112,0.207 -0.491,0.793 -0.531,1.029 -0.04,0.236 0.02,1.166 -0.424,2.379 -0.441,1.213 -2.093,5.021 -3.137,6.588 -1.043,1.566 -1.82,2.516 -2.674,3.133 -0.855,0.617 -1.361,1.014 -4.082,0.886 -2.721,-0.127 -2.984,-1.065 -5.696,0.522 -1.106,0.648 -1.853,1.762 -4.461,2.342 -0.854,0.189 -2.311,0.062 -2.533,-0.097 0,0 0.123,-0.023 0.476,-0.109 0.355,-0.087 1.883,-0.744 2.706,-1.487 0.822,-0.743 1.645,-1.288 2.646,-2.415 1.002,-1.128 2.102,-1.864 4.403,-1.454 2.301,0.408 2.502,0.451 3.065,0.451 0.564,0 2.27,0.104 3.389,-1.863 1.219,-2.146 1.808,-3.066 2.552,-5.022 0.744,-1.955 0.952,-3.096 1.036,-4.318 0.083,-1.225 -0.146,-1.947 0.889,-3.318 1.036,-1.37 1.226,-3.609 1.121,-5.314 -0.104,-1.703 -0.544,-4.04 -2.366,-5.743 -1.819,-1.705 -3.413,-2.123 -5.597,-2.039 -2.185,0.083 -3.563,0.311 -5.251,-0.431 -0.856,-0.376 -1.412,-1.016 -1.516,-1.726 -0.104,-0.713 0.342,-0.076 0.342,-0.076"
   id="path3162"
   style="fill:#ffffff;display:inline" />
	<path
   d="m 524.448,763.046 c 0,0 -4.012,3.427 -1.122,5.71 0.77,0.606 2.186,0.96 1.476,3.172 -0.711,2.212 -2.889,1.896 -3.278,1.736 -0.386,-0.161 -3.106,-1.523 -2.892,-5.286 0.211,-3.69 3.922,-5.205 4.689,-5.348 0.77,-0.141 1.127,0.016 1.127,0.016"
   id="path3164"
   style="fill:#ffffff;display:inline" />
	<path
   d="m 527.183,773.324 c 0,0 2.292,1.251 2.685,1.418 0.399,0.171 0.705,0.35 0.603,0.994 -0.09,0.572 -0.254,1.691 -1.384,2.43 -1.131,0.74 -2.157,-0.104 -2.396,-0.273 -0.238,-0.169 -1.191,-1.305 -0.681,-2.887 0.392,-1.218 1.173,-1.682 1.173,-1.682"
   id="path3166"
   style="fill:#ffffff;display:inline" />
	<path
   d="m 513.856,800.449 c -0.196,-0.048 1.17,-0.292 2.217,-1.1 1.038,-0.803 2.032,-1.913 3.25,-3.346 1.218,-1.433 3.184,-2.093 3.869,-2.342 0.311,-0.113 1.646,-0.499 2.841,-0.214 0,0 -1.552,0.536 -3.032,1.783 -1.369,1.154 -2.537,2.829 -4.229,3.952 -1.695,1.124 -3.893,1.514 -4.916,1.267"
   id="path3168"
   style="fill:#ffffff;display:inline" />
	<g
   id="g3170"
   style="display:inline">
		<path
   d="m 435.844,783.475 h 7.559 c 1.757,0 4.805,0.682 4.805,3.901 0,2.293 -1.78,3.999 -4.462,4.316 v 0.048 c 1.95,0.293 3.292,1.415 3.292,3.292 0,3.609 -3.098,5.316 -6.999,5.365 l -7.754,0.098 3.559,-17.02 z m 1.609,13.801 h 1.22 c 2.292,0 3.828,-0.633 3.828,-2.292 0,-1.487 -1.073,-1.706 -3.121,-1.706 h -1.098 l -0.829,3.998 z m 1.487,-7.071 h 1.707 c 1.902,0 3.024,-0.756 3.024,-1.927 0,-1.365 -1.122,-1.584 -2.829,-1.584 h -1.17 l -0.732,3.511 z"
   id="path3172"
   style="fill:#e30040" />
		<polygon
   points="448.743,800.496 452.279,783.474 456.863,783.474 453.328,800.496 "
   id="polygon3174"
   style="fill:#e30040" />
		<path
   d="m 470.52,787.328 c -0.878,-0.414 -2.073,-0.78 -3.755,-0.78 -1.805,0 -3.269,0.269 -3.269,1.634 0,2.414 6.608,1.512 6.608,6.682 0,4.707 -4.364,5.926 -8.314,5.926 -1.757,0 -3.78,-0.415 -5.268,-0.878 l 1.073,-3.463 c 0.902,0.585 2.707,0.976 4.194,0.976 1.413,0 3.633,-0.269 3.633,-2.023 0,-2.732 -6.608,-1.707 -6.608,-6.512 0,-4.39 3.854,-5.707 7.584,-5.707 2.097,0 4.072,0.221 5.218,0.757 l -1.096,3.388 z"
   id="path3176"
   style="fill:#e30040" />
		<path
   d="m 480.104,800.789 c -5.536,0 -7.561,-3.438 -7.561,-6.926 0,-6.462 3.39,-10.681 9.95,-10.681 5.535,0 7.559,3.438 7.559,6.95 0,6.438 -3.39,10.657 -9.948,10.657 m 2.096,-14.242 c -3.512,0 -4.976,4.071 -4.976,6.95 0,2.146 0.806,3.926 3.171,3.926 3.512,0 4.975,-4.072 4.975,-6.925 0,-2.146 -0.805,-3.951 -3.17,-3.951"
   id="path3178"
   style="fill:#e30040" />
		<polygon
   points="500.757,800.496 497.197,788.717 497.148,788.717 494.783,800.496 490.491,800.496 494.124,783.474 499.807,783.474 503.294,795.278 503.342,795.278 505.732,783.474 510.024,783.474 506.415,800.496 "
   id="polygon3180"
   style="fill:#e30040" />
	</g>
	<path
   d="m 449.95,775.351 c 0,0 -0.084,0.38 1.646,1.926 1.998,1.785 4.095,2.255 5.967,2.256 1.809,10e-4 4.368,-0.963 5.995,-2.7 1.627,-1.738 1.615,-2.394 1.615,-2.394 0,0 -1.541,1.171 -2.41,1.646 -1.373,0.748 -3.382,1.682 -5.2,1.687 -2.337,0.005 -3.942,-0.405 -5.396,-1.072 -1.52,-0.696 -2.217,-1.349 -2.217,-1.349"
   id="path3182"
   style="fill:#ffffff;display:inline" />
</g>
<g
   transform="translate(0,-821.89001)"
   id="Pantone_Negativ"
   style="display:none">
	<path
   d="m 463.771,779.649 c 0,0 1.93,0.541 5.977,-3.887 1.087,-1.188 3.372,-4.524 6.228,-5.421 1.161,-0.365 3.267,-0.871 4.961,-1.113 0.894,-0.128 3.387,-0.587 4.934,-1.266 1.548,-0.677 2.327,-1.304 2.559,-1.943 0,0 -0.704,0.422 -1.867,0.703 -1.164,0.282 -2.773,0.672 -5.702,0.908 -2.671,0.216 -3.803,0.196 -5.524,0.625 -1.795,0.449 -3.682,1.125 -5.697,3.935 -0.774,1.078 -2.025,3.284 -3.328,4.89 -0.883,1.087 -1.445,1.867 -2.046,2.25 l -0.495,0.319 z"
   id="path3185"
   style="fill:#ffffff;display:inline" />
	<path
   d="m 481.987,771.223 c 0,0 1.613,0.89 6.678,-1.552 2.366,-1.142 8.861,-5.918 8.861,-5.918 0,0 6.932,-5.063 11.224,-7.116 4.099,-1.959 6.726,-3.132 11.935,-3.568 5.209,-0.436 7.118,1.007 8.798,2.07 0.619,0.391 1.273,0.862 1.97,1.748 0.812,1.036 0.485,-1.541 -0.434,-2.886 -1.113,-1.629 -1.966,-2.535 -4.234,-3.63 -2.542,-1.224 -6.366,-0.914 -6.783,-0.873 -0.415,0.043 -4.588,0.501 -9.358,2.658 -4.772,2.157 -7.778,4.46 -9.69,5.954 -1.91,1.495 -6.147,4.896 -7.327,5.86 -1.162,0.949 -3.359,2.896 -5.663,4.371 -2.303,1.475 -3.152,1.883 -5.396,2.697 -0.231,0.086 -0.581,0.185 -0.581,0.185"
   id="path3187"
   style="fill:#ffffff;display:inline" />
	<path
   d="m 524.844,757.934 c 0,0 0.839,0.905 3.798,0.471 2.366,-0.347 3.498,-1.024 6.292,-0.798 3.256,0.266 4.887,2.829 5.49,3.874 0.418,0.724 2.089,3.814 1.621,7.792 -0.039,0.335 -0.06,0.637 -0.06,0.637 0,0 -0.117,0.375 0.493,0.314 0.712,-0.069 1.313,-0.859 1.427,-1.28 0.119,-0.436 0.336,-1.11 0.113,-1.966 -0.108,-0.417 -0.264,-0.668 -0.208,-0.704 0.086,-0.045 0.568,0.275 0.804,0.575 0.522,0.662 1.189,2.366 1.031,4.045 -0.102,1.078 -0.687,2.332 -1.729,3.09 -1.043,0.756 -1.417,0.578 -2.113,0.756 -0.696,0.181 -0.819,0.225 -0.957,0.6 -0.154,0.419 -0.244,0.468 -0.359,0.676 -0.112,0.207 -0.491,0.793 -0.531,1.029 -0.04,0.236 0.02,1.166 -0.424,2.379 -0.441,1.213 -2.093,5.021 -3.137,6.588 -1.043,1.566 -1.82,2.516 -2.674,3.133 -0.855,0.617 -1.361,1.014 -4.082,0.886 -2.721,-0.127 -2.984,-1.065 -5.696,0.522 -1.106,0.648 -1.853,1.762 -4.461,2.342 -0.854,0.189 -2.311,0.062 -2.533,-0.097 0,0 0.123,-0.023 0.476,-0.109 0.355,-0.087 1.883,-0.744 2.706,-1.487 0.822,-0.743 1.645,-1.288 2.646,-2.415 1.002,-1.128 2.102,-1.864 4.403,-1.454 2.301,0.408 2.502,0.451 3.065,0.451 0.564,0 2.27,0.104 3.389,-1.863 1.219,-2.146 1.808,-3.066 2.552,-5.022 0.744,-1.955 0.952,-3.096 1.036,-4.318 0.083,-1.225 -0.146,-1.947 0.889,-3.318 1.036,-1.37 1.226,-3.609 1.121,-5.314 -0.104,-1.703 -0.544,-4.04 -2.366,-5.743 -1.819,-1.705 -3.413,-2.123 -5.597,-2.039 -2.185,0.083 -3.563,0.311 -5.251,-0.431 -0.856,-0.376 -1.412,-1.016 -1.516,-1.726 -0.104,-0.713 0.342,-0.076 0.342,-0.076"
   id="path3189"
   style="fill:#ffffff;display:inline" />
	<path
   d="m 524.448,763.046 c 0,0 -4.012,3.427 -1.122,5.71 0.77,0.606 2.186,0.96 1.476,3.172 -0.711,2.212 -2.889,1.896 -3.278,1.736 -0.386,-0.161 -3.106,-1.523 -2.892,-5.286 0.211,-3.69 3.922,-5.205 4.689,-5.348 0.77,-0.141 1.127,0.016 1.127,0.016"
   id="path3191"
   style="fill:#ffffff;display:inline" />
	<path
   d="m 527.183,773.324 c 0,0 2.292,1.251 2.685,1.418 0.399,0.171 0.705,0.35 0.603,0.994 -0.09,0.572 -0.254,1.691 -1.384,2.43 -1.131,0.74 -2.157,-0.104 -2.396,-0.273 -0.238,-0.169 -1.191,-1.305 -0.681,-2.887 0.392,-1.218 1.173,-1.682 1.173,-1.682"
   id="path3193"
   style="fill:#ffffff;display:inline" />
	<path
   d="m 513.856,800.449 c -0.196,-0.048 1.17,-0.292 2.217,-1.1 1.038,-0.803 2.032,-1.913 3.25,-3.346 1.218,-1.433 3.184,-2.093 3.869,-2.342 0.311,-0.113 1.646,-0.499 2.841,-0.214 0,0 -1.552,0.536 -3.032,1.783 -1.369,1.154 -2.537,2.829 -4.229,3.952 -1.695,1.124 -3.893,1.514 -4.916,1.267"
   id="path3195"
   style="fill:#ffffff;display:inline" />
	<g
   id="g3197"
   style="display:inline">
		<path
   d="m 435.844,783.475 h 7.559 c 1.757,0 4.805,0.682 4.805,3.901 0,2.293 -1.78,3.999 -4.462,4.316 v 0.048 c 1.95,0.293 3.292,1.415 3.292,3.292 0,3.609 -3.098,5.316 -6.999,5.365 l -7.754,0.098 3.559,-17.02 z m 1.609,13.801 h 1.22 c 2.292,0 3.828,-0.633 3.828,-2.292 0,-1.487 -1.073,-1.706 -3.121,-1.706 h -1.098 l -0.829,3.998 z m 1.487,-7.071 h 1.707 c 1.902,0 3.024,-0.756 3.024,-1.927 0,-1.365 -1.122,-1.584 -2.829,-1.584 h -1.17 l -0.732,3.511 z"
   id="path3199"
   style="fill:#dc002e" />
		<polygon
   points="448.743,800.496 452.279,783.474 456.863,783.474 453.328,800.496 "
   id="polygon3201"
   style="fill:#dc002e" />
		<path
   d="m 470.52,787.328 c -0.878,-0.414 -2.073,-0.78 -3.755,-0.78 -1.805,0 -3.269,0.269 -3.269,1.634 0,2.414 6.608,1.512 6.608,6.682 0,4.707 -4.364,5.926 -8.314,5.926 -1.757,0 -3.78,-0.415 -5.268,-0.878 l 1.073,-3.463 c 0.902,0.585 2.707,0.976 4.194,0.976 1.413,0 3.633,-0.269 3.633,-2.023 0,-2.732 -6.608,-1.707 -6.608,-6.512 0,-4.39 3.854,-5.707 7.584,-5.707 2.097,0 4.072,0.221 5.218,0.757 l -1.096,3.388 z"
   id="path3203"
   style="fill:#dc002e" />
		<path
   d="m 480.104,800.789 c -5.536,0 -7.561,-3.438 -7.561,-6.926 0,-6.462 3.39,-10.681 9.95,-10.681 5.535,0 7.559,3.438 7.559,6.95 0,6.438 -3.39,10.657 -9.948,10.657 m 2.096,-14.242 c -3.512,0 -4.976,4.071 -4.976,6.95 0,2.146 0.806,3.926 3.171,3.926 3.512,0 4.975,-4.072 4.975,-6.925 0,-2.146 -0.805,-3.951 -3.17,-3.951"
   id="path3205"
   style="fill:#dc002e" />
		<polygon
   points="500.757,800.496 497.197,788.717 497.148,788.717 494.783,800.496 490.491,800.496 494.124,783.474 499.807,783.474 503.294,795.278 503.342,795.278 505.732,783.474 510.024,783.474 506.415,800.496 "
   id="polygon3207"
   style="fill:#dc002e" />
	</g>
	<path
   d="m 449.95,775.351 c 0,0 -0.084,0.38 1.646,1.926 1.998,1.785 4.095,2.255 5.967,2.256 1.809,10e-4 4.368,-0.963 5.995,-2.7 1.627,-1.738 1.615,-2.394 1.615,-2.394 0,0 -1.541,1.171 -2.41,1.646 -1.373,0.748 -3.382,1.682 -5.2,1.687 -2.337,0.005 -3.942,-0.405 -5.396,-1.072 -1.52,-0.696 -2.217,-1.349 -2.217,-1.349"
   id="path3209"
   style="fill:#ffffff;display:inline" />
</g>
</svg>