<?xml version="1.0" encoding="utf-8"?>
<!DOCTYPE svg PUBLIC "-//W3C//DTD SVG 1.1//EN" "http://www.w3.org/Graphics/SVG/1.1/DTD/svg11.dtd">
<svg xmlns="http://www.w3.org/2000/svg" xmlns:xlink="http://www.w3.org/1999/xlink" version="1.1" baseProfile="full" width="19" height="19" viewBox="0 0 19.00 19.00" enable-background="new 0 0 19.00 19.00" xml:space="preserve">
	<path fill="#A68759" fill-opacity="1" stroke-width="0.2" stroke-linejoin="round" d="M 0.999991,4L 11,4L 11,0.999998L 19,5.5L 11,10L 11,7L 0.999991,7C 0.447707,7 -8.60956e-006,6.55228 -8.60956e-006,6L -8.60956e-006,5C -8.60956e-006,4.44771 0.447707,4 0.999991,4 Z "/>
	<path fill="#A68759" fill-opacity="1" stroke-width="0.2" stroke-linejoin="round" d="M 18,12C 18.5523,12 19,12.4477 19,13L 19,14C 19,14.5523 18.5523,15 18,15L 7.99999,15L 7.99999,18L -6.78168e-006,13.5L 7.99999,9L 7.99999,12L 18,12 Z "/>
</svg>
