<?xml version="1.0" encoding="utf-8"?>
<!DOCTYPE svg PUBLIC "-//W3C//DTD SVG 1.1//EN" "http://www.w3.org/Graphics/SVG/1.1/DTD/svg11.dtd">
<svg xmlns="http://www.w3.org/2000/svg" xmlns:xlink="http://www.w3.org/1999/xlink" version="1.1" baseProfile="full" width="19" height="19" viewBox="0 0 19.00 19.00" enable-background="new 0 0 19.00 19.00" xml:space="preserve">
	<path fill="#000000" fill-opacity="1" stroke-width="0.2" stroke-linejoin="round" d="M 17.9509,-1.27157e-006C 18.0802,-1.27157e-006 18.2077,0.0392176 18.3335,0.117667C 18.4593,0.196112 18.5712,0.295323 18.6693,0.415299C 18.7674,0.535275 18.847,0.665057 18.9082,0.804644C 18.9694,0.94423 18.9999,1.07978 18.9999,1.21129L 18.9999,17.941C 18.9999,18.0702 18.9457,18.2 18.8372,18.3303C 18.7288,18.4607 18.5972,18.5743 18.4426,18.6712C 18.2879,18.7681 18.124,18.8471 17.9509,18.9083C 17.7778,18.9694 17.6255,19 17.4939,19L 2.049,19C 1.91975,19 1.79223,18.9694 1.66644,18.9083C 1.54065,18.8471 1.42871,18.7681 1.33062,18.6712C 1.23253,18.5743 1.1529,18.4607 1.09174,18.3303C 1.03057,18.2 0.99999,18.0702 0.99999,17.941L 0.99999,1.21129C 0.99999,1.07978 1.03057,0.94423 1.09174,0.804644C 1.1529,0.665057 1.23253,0.535275 1.33062,0.415299C 1.42871,0.295323 1.54065,0.196112 1.66644,0.117667C 1.79223,0.0392176 1.91975,-1.27157e-006 2.049,-1.27157e-006L 17.9509,-1.27157e-006 Z M 17.9509,4.22915L 2.049,4.22915L 2.049,17.941L 17.9509,17.941L 17.9509,4.22915 Z "/>
	<g>
		<path fill="#000000" fill-opacity="1" stroke-width="0.2" stroke-linejoin="round" d="M 8.26818,11.1782C 8.75863,10.9973 9.14177,10.7441 9.41762,10.4188C 9.69347,10.0934 9.83375,9.70154 9.83847,9.24314C 9.81855,8.48816 9.54233,7.91367 9.0098,7.51968C 8.47726,7.12568 7.80791,6.92742 7.00173,6.92488C 6.4942,6.92127 5.97583,6.96849 5.44664,7.06655C 4.91744,7.16462 4.3824,7.33518 3.84154,7.57825L 4.36157,8.86497C 4.78715,8.68937 5.18273,8.56181 5.54831,8.48231C 5.91389,8.4028 6.29613,8.36369 6.69505,8.36497C 7.21535,8.37818 7.58482,8.49201 7.80345,8.70646C 8.02207,8.92092 8.12819,9.15674 8.1218,9.41393C 8.13541,9.72195 8.02485,10.0025 7.79011,10.2556C 7.55538,10.5088 7.11479,10.643 6.46836,10.6582L 5.3483,10.6582L 5.3483,12.0983L 6.54837,12.0983C 7.7751,12.096 8.38846,12.5215 8.38847,13.3747C 8.4018,13.6543 8.29179,13.9338 8.05845,14.2133C 7.8251,14.4929 7.3884,14.6434 6.74837,14.6649C 5.9172,14.6762 5.07271,14.4906 4.21488,14.1081L 3.69485,15.4383C 4.22238,15.6872 4.74074,15.8594 5.24994,15.955C 5.75914,16.0505 6.29417,16.0961 6.85504,16.0916C 7.8985,16.0887 8.69962,15.8645 9.2584,15.4189C 9.81719,14.9733 10.0994,14.3236 10.1051,13.4698C 10.1068,12.9431 9.96149,12.4749 9.66923,12.0653C 9.37698,11.6558 8.92783,11.369 8.32179,11.2049L 8.26818,11.1782 Z "/>
		<path fill="#000000" fill-opacity="1" stroke-width="0.2" stroke-linejoin="round" d="M 13.1885,8.9411L 13.1885,15.9699L 14.9051,15.9699L 14.9051,6.91992L 13.6507,6.91992C 13.3097,7.19256 12.8905,7.45287 12.3929,7.70085C 11.8952,7.94882 11.3782,8.17287 10.8417,8.37298L 11.2817,9.79988L 13.1885,8.9411 Z "/>
	</g>
</svg>
