<?xml version="1.0" encoding="utf-8"?>
<!DOCTYPE svg PUBLIC "-//W3C//DTD SVG 1.1//EN" "http://www.w3.org/Graphics/SVG/1.1/DTD/svg11.dtd">
<svg xmlns="http://www.w3.org/2000/svg" xmlns:xlink="http://www.w3.org/1999/xlink" version="1.1" baseProfile="full" width="256" height="256" viewBox="0 0 256.00 256.00" enable-background="new 0 0 256.00 256.00" xml:space="preserve">
	<path fill="#E6003C" fill-opacity="1" stroke-width="0.2" stroke-linejoin="round" d="M 39.9869,-30.3408L 256.086,0.0298971L 215.786,286.783L -0.313558,256.412L 39.9869,-30.3408 Z "/>
	<path fill="#FFFFFF" fill-opacity="1" stroke-width="0.2" stroke-linejoin="round" d="M 67.4697,208.596C 67.4697,204.138 69.1363,195.804 72.178,186.888C 75.2197,177.971 79.6363,168.471 84.928,159.263C 90.2197,150.054 96.3863,141.138 102.72,133.013C 109.053,124.888 115.553,117.554 121.261,111.138C 126.97,104.721 131.886,99.221 136.803,93.721C 142.386,87.3877 147.97,81.0544 151.095,78.1377C 154.22,75.2211 154.886,75.7211 152.824,79.478C 150.761,83.2349 145.97,90.2488 139.852,97.6447C 133.734,105.04 126.289,112.818 118.206,123.568C 110.122,134.318 101.4,148.04 95.4002,158.846C 89.4002,169.652 86.1224,177.54 84.1016,185.034C 82.0808,192.527 81.3169,199.624 80.2266,204.006C 79.1363,208.388 77.7197,210.054 76.0947,211.304C 74.4697,212.554 72.6363,213.388 70.8863,213.513C 69.1363,213.638 67.4697,213.054 67.4697,208.596 Z "/>
	<path fill="#FFFFFF" fill-opacity="1" stroke-width="0.2" stroke-linejoin="round" d="M 87.803,202.971C 87.0226,202.844 86.2909,202.505 85.553,202.221L 84.553,201.721L 83.9259,201.536C 84.9876,197.459 86.2041,192.185 87.928,186.485C 89.677,180.701 91.9482,174.479 95.523,166.907C 101.526,165.976 107.528,165.142 113.531,165.217C 120.253,165.3 126.975,166.522 133.698,167.745C 126.92,164.967 120.142,162.189 113.941,161.106C 108.449,160.146 103.409,160.516 98.4216,161.037C 98.624,160.644 98.8298,160.247 99.0391,159.846C 102.063,154.056 105.808,147.506 109.873,141.054C 117.599,139.648 125.311,138.29 132.803,137.742C 140.775,137.159 148.497,137.492 156.22,137.825C 148.775,136.159 141.331,134.492 134.109,133.881C 127.421,133.315 120.924,133.654 114.441,134.06C 116.658,130.789 118.923,127.631 121.178,124.707C 126.079,118.353 130.935,113.108 135.396,108.333C 142.326,107.112 149.287,105.93 156.629,105.228C 164.622,104.464 173.067,104.27 181.511,104.075C 173.511,103.325 165.511,102.575 158.47,102.436C 151.786,102.304 145.965,102.723 140.189,103.17L 143.65,99.2627C 149.942,91.8877 154.497,84.6377 156.4,80.0544C 158.303,75.4711 157.553,73.5544 156.303,72.5127C 155.053,71.4711 153.303,71.3044 149.615,74.5058C 145.928,77.7072 140.303,84.2766 135.032,90.3113C 129.761,96.346 124.845,101.846 119.928,107.346L 118.336,109.087C 117.124,104.662 115.851,100.201 113.942,95.353C 111.831,89.9919 108.942,84.1586 106.053,78.3252C 108.442,84.8252 110.831,91.3252 112.275,97.2974C 113.631,102.903 114.155,108.044 114.627,113.157C 109.827,118.45 105.031,123.865 100.254,129.728L 95.5315,135.693C 93.8072,131.965 91.9945,128.292 89.2197,125.214C 86.1641,121.825 81.9419,119.159 77.7197,116.492C 80.9419,120.103 84.1641,123.714 86.7474,127.909C 88.9932,131.555 90.7561,135.642 92.4559,139.787C 88.6738,144.94 85.0628,150.326 81.8585,155.846C 76.4974,165.082 72.2752,174.693 69.4349,183.714C 68.7962,185.743 68.2273,187.742 67.7227,189.676C 66.6492,188.323 65.7883,186.839 65.303,185.221C 64.5704,182.779 66.5215,180.255 66.803,177.721C 67.3041,173.211 66.9307,168.352 65.053,164.221C 64.802,163.669 64.7603,163.041 64.553,162.471C 64.4256,162.121 64.2955,161.754 64.053,161.471C 61.6447,158.661 58.3558,156.084 57.553,152.471C 57.0284,150.111 57.536,147.624 57.803,145.221C 58.5529,138.472 66.3298,134.1 67.803,127.471C 69.2172,121.107 66.137,113.67 69.303,107.971C 73.2043,100.949 80.9823,96.2429 83.803,88.721C 84.5269,86.7907 84.5374,84.6351 85.303,82.721C 86.4531,79.8457 87.7953,77.051 89.053,74.221C 89.7341,72.6885 90.1986,70.9831 91.303,69.721C 92.28,68.6044 93.826,68.0876 94.803,66.971C 95.9005,65.7167 97.2425,64.5562 98.803,63.971C 100.563,63.3109 102.479,63.177 104.303,62.721C 108.41,61.6942 113.213,62.7148 116.803,60.471C 121.571,57.4908 124.469,51.4992 129.803,49.721C 132.732,48.7446 136.007,49.7134 139.053,50.221C 143.741,51.0024 148.692,51.8738 153.303,50.721C 155.044,50.2857 156.94,49.8892 158.303,48.721C 159.518,47.6793 160.621,46.4369 162.053,45.721C 163.477,45.009 165.211,45.221 166.803,45.221C 168.888,45.221 171.03,44.9653 173.053,45.471C 176.775,46.4016 178.746,51.4951 182.553,51.971C 184.824,52.2548 187.132,51.4446 189.303,50.721C 190.647,50.273 192.136,50.721 193.553,50.721C 194.972,50.721 196.6,50.2189 197.803,50.971C 200.105,52.4097 200.003,56.0232 200.303,58.721C 200.502,60.509 201.354,62.1831 201.553,63.971C 201.673,65.0477 201.21,66.1933 201.553,67.221C 201.685,67.6163 201.987,67.9499 202.303,68.221C 202.586,68.4636 203.02,68.4785 203.303,68.721C 205.113,70.2721 207.731,70.9879 209.053,72.971C 210.223,74.7265 208.997,77.3339 208.053,79.221C 206.275,82.7769 202.695,85.4131 201.553,89.221C 200.522,92.657 201.053,96.3838 201.053,99.971C 201.053,101.916 201.334,104.257 200.053,105.721C 197.606,108.518 194.431,110.593 191.803,113.221C 190.177,114.847 187.987,116.12 187.053,118.221C 186.069,120.435 186.965,123.121 187.553,125.471C 188.139,127.816 188.027,130.351 187.553,132.721C 186.958,135.696 183.873,137.544 182.053,139.971C 180.309,142.297 179.666,145.302 178.053,147.721C 174.554,152.969 176.763,160.87 173.053,165.971C 172.218,167.119 171.438,168.37 170.303,169.221C 168.321,170.708 165.623,170.851 163.303,171.721C 161.524,172.388 159.233,171.97 157.803,173.221C 156.02,174.781 153.783,175.871 152.303,177.721C 150.857,179.529 150.225,181.893 148.803,183.721C 148.514,184.093 148.171,184.427 147.803,184.721C 147.334,185.096 146.768,185.34 146.303,185.721C 144.549,187.157 143.026,189.276 140.803,189.721C 136.472,190.587 131.97,189.721 127.553,189.721C 125.967,189.721 124.288,189.414 122.803,189.971C 117.767,191.859 116.323,198.648 112.303,202.221C 111.276,203.134 109.667,203.051 108.303,203.221C 106.234,203.48 104.138,203.471 102.053,203.471C 97.3001,203.471 92.4945,203.732 87.803,202.971 Z "/>
</svg>
