<?xml version="1.0" encoding="utf-8"?>
<!DOCTYPE svg PUBLIC "-//W3C//DTD SVG 1.1//EN" "http://www.w3.org/Graphics/SVG/1.1/DTD/svg11.dtd">
<svg xmlns="http://www.w3.org/2000/svg" xmlns:xlink="http://www.w3.org/1999/xlink" version="1.1" baseProfile="full" width="24" height="24" viewBox="0 0 24.00 24.00" enable-background="new 0 0 24.00 24.00" xml:space="preserve">
	<g>
		<path fill="#A68759" fill-opacity="1" stroke-width="0.2" stroke-linejoin="round" d="M 22.0725,3.36C 22.275,3.36 22.4562,3.38937 22.6162,3.44812C 22.7762,3.50687 22.915,3.58562 23.0325,3.68437C 23.15,3.78312 23.2381,3.89312 23.2969,4.01437C 23.3556,4.13562 23.385,4.26 23.385,4.3875L 23.385,19.3538C 23.385,19.7388 23.2656,20.0494 23.0269,20.2856C 22.7881,20.5219 22.47,20.64 22.0725,20.64L 1.55249,20.64C 1.41999,20.64 1.29124,20.6087 1.16624,20.5462C 1.04124,20.4837 0.931861,20.395 0.838111,20.28C 0.744361,20.165 0.666236,20.0294 0.603736,19.8731C 0.541236,19.7169 0.509986,19.5438 0.509986,19.3538L 0.509986,4.3875C 0.509986,4.26 0.541236,4.13562 0.603736,4.01437C 0.666236,3.89312 0.744361,3.78312 0.838111,3.68437C 0.931861,3.58562 1.04124,3.50687 1.16624,3.44812C 1.29124,3.38937 1.41999,3.36 1.55249,3.36L 22.0725,3.36 Z M 3.02999,5.76L 11.8875,12.72L 20.7487,5.76L 3.02999,5.76 Z M 21.1012,18.24L 21.1012,8.2575L 12.675,14.61C 12.5325,14.7425 12.4012,14.8206 12.2812,14.8444C 12.1612,14.8681 12.03,14.88 11.8875,14.88C 11.755,14.88 11.6225,14.8681 11.49,14.8444C 11.3575,14.8206 11.2212,14.7425 11.0812,14.61L 2.79374,8.2575L 2.79374,18.24L 21.1012,18.24 Z "/>
	</g>
</svg>
