<?xml version="1.0" encoding="utf-8"?>
<!DOCTYPE svg PUBLIC "-//W3C//DTD SVG 1.1//EN" "http://www.w3.org/Graphics/SVG/1.1/DTD/svg11.dtd">
<svg xmlns="http://www.w3.org/2000/svg" xmlns:xlink="http://www.w3.org/1999/xlink" version="1.1" baseProfile="full" width="19" height="19" viewBox="0 0 19.00 19.00" enable-background="new 0 0 19.00 19.00" xml:space="preserve">
	<path fill="#A68759" fill-opacity="1" stroke-width="0.2" stroke-linejoin="round" d="M 17.9098,2.05501C 18.078,2.05501 18.2286,2.07941 18.3615,2.12821C 18.4944,2.17701 18.6096,2.24242 18.7072,2.32444C 18.8048,2.40646 18.878,2.49783 18.9268,2.59854C 18.9756,2.69925 19,2.80255 19,2.90845L 19,15.9394C 19,16.2592 18.9008,16.5172 18.7025,16.7134C 18.5042,16.9097 18.24,17.0078 17.9098,17.0078L 0.865902,17.0078C 0.755847,17.0078 0.648908,16.9818 0.545083,16.9299C 0.441258,16.878 0.350411,16.8043 0.272542,16.7088C 0.194673,16.6133 0.129782,16.5006 0.0778697,16.3708C 0.0259572,16.241 9.16838e-007,16.0972 9.16838e-007,15.9394L 9.16838e-007,2.90845C 9.16838e-007,2.80255 0.0259572,2.69925 0.0778697,2.59854C 0.129782,2.49783 0.194673,2.40646 0.272542,2.32444C 0.350411,2.24242 0.441258,2.17701 0.545083,2.12821C 0.648908,2.07941 0.755847,2.05501 0.865902,2.05501L 17.9098,2.05501 Z M 2.09311,4.04845L 9.45016,9.82943L 16.8103,4.04845L 2.09311,4.04845 Z M 17.1031,15.0143L 17.1031,6.12288L 10.1043,11.3993C 9.9859,11.5093 9.87688,11.5742 9.77721,11.5939C 9.67754,11.6137 9.56852,11.6235 9.45016,11.6235C 9.34011,11.6235 9.23005,11.6137 9.12,11.5939C 9.00994,11.5742 8.89677,11.5093 8.78049,11.3993L 1.89689,6.12288L 1.89689,15.0143L 17.1031,15.0143 Z "/>
</svg>
