<?xml version="1.0" encoding="utf-8"?>
<!DOCTYPE svg PUBLIC "-//W3C//DTD SVG 1.1//EN" "http://www.w3.org/Graphics/SVG/1.1/DTD/svg11.dtd">
<svg xmlns="http://www.w3.org/2000/svg" xmlns:xlink="http://www.w3.org/1999/xlink" version="1.1" baseProfile="full" width="24" height="24" viewBox="0 0 24.00 24.00" enable-background="new 0 0 24.00 24.00" xml:space="preserve">
	<g>
		<path fill="#A68759" fill-opacity="1" stroke-width="0.2" stroke-linejoin="round" d="M 21.1837,1.62C 21.3487,1.62 21.5012,1.64938 21.6412,1.70813C 21.7812,1.76688 21.9062,1.84875 22.0162,1.95375C 22.1262,2.05875 22.2125,2.18188 22.275,2.32313C 22.3375,2.46438 22.3687,2.61625 22.3687,2.77875L 22.3687,21.1313C 22.3687,21.2962 22.3375,21.4506 22.275,21.5944C 22.2125,21.7381 22.1262,21.8631 22.0162,21.9694C 21.9062,22.0756 21.7812,22.1575 21.6412,22.215C 21.5012,22.2725 21.3487,22.3013 21.1837,22.3013L 17.7862,22.3013L 17.7862,16.02C 17.7862,15.85 17.7256,15.7063 17.6044,15.5888C 17.4831,15.4713 17.345,15.4125 17.19,15.4125L 6.88874,15.4125C 6.71624,15.4125 6.57124,15.4713 6.45374,15.5888C 6.33624,15.7063 6.27749,15.85 6.27749,16.02L 6.27749,22.3013L 2.90249,22.3013C 2.73999,22.3013 2.58812,22.2725 2.44687,22.215C 2.30562,22.1575 2.18249,22.0756 2.07749,21.9694C 1.97249,21.8631 1.89062,21.7381 1.83187,21.5944C 1.77312,21.4506 1.74374,21.2962 1.74374,21.1313L 1.74374,2.77875C 1.74374,2.45125 1.85499,2.17625 2.07749,1.95375C 2.29999,1.73125 2.57499,1.62 2.90249,1.62L 21.1837,1.62 Z M 18.9337,4.515C 18.9337,4.35 18.875,4.21063 18.7575,4.09688C 18.64,3.98313 18.4962,3.92625 18.3262,3.92625L 5.73749,3.92625C 5.56749,3.92625 5.42562,3.98313 5.31187,4.09688C 5.19812,4.21063 5.14124,4.35 5.14124,4.515L 5.14124,9.07125C 5.14124,9.23625 5.19812,9.37563 5.31187,9.48938C 5.42562,9.60313 5.56749,9.66 5.73749,9.66L 18.3262,9.66C 18.4962,9.66 18.64,9.60313 18.7575,9.48938C 18.875,9.37563 18.9337,9.23625 18.9337,9.07125L 18.9337,4.515 Z M 12.0337,22.3013L 8.58749,22.3013L 8.58749,18.8588L 12.0337,18.8588L 12.0337,22.3013 Z "/>
	</g>
</svg>
