<?xml version="1.0" encoding="utf-8"?>
<!DOCTYPE svg PUBLIC "-//W3C//DTD SVG 1.1//EN" "http://www.w3.org/Graphics/SVG/1.1/DTD/svg11.dtd">
<svg xmlns="http://www.w3.org/2000/svg" xmlns:xlink="http://www.w3.org/1999/xlink" version="1.1" baseProfile="full" width="19" height="19" viewBox="0 0 19.00 19.00" enable-background="new 0 0 19.00 19.00" xml:space="preserve">
	<path fill="#A68759" fill-opacity="1" stroke-width="0.2" stroke-linejoin="round" d="M 17.9084,-1.90735e-006C 18.0604,-1.90735e-006 18.2008,0.0270596 18.3298,0.0811806C 18.4588,0.135302 18.5739,0.210726 18.6753,0.307453C 18.7766,0.404181 18.8561,0.517603 18.9136,0.647726C 18.9712,0.777845 19,0.917757 19,1.06745L 19,17.974C 19,18.126 18.9712,18.2682 18.9136,18.4006C 18.8561,18.5331 18.7766,18.6482 18.6753,18.7461C 18.5739,18.844 18.4588,18.9194 18.3298,18.9724C 18.2008,19.0253 18.0604,19.0518 17.9084,19.0518L 14.9785,19.0518L 14.9785,12.5655C 14.9785,12.4088 14.9227,12.2764 14.811,12.1682C 14.6993,12.0599 14.5721,12.0058 14.4293,12.0058L 4.53963,12.0058C 4.38072,12.0058 4.24715,12.0599 4.1389,12.1682C 4.03066,12.2764 3.97654,12.4088 3.97654,12.5655L 3.97654,19.0518L 1.06745,19.0518C 0.91775,19.0518 0.777842,19.0253 0.647721,18.9724C 0.517599,18.9194 0.404175,18.844 0.307448,18.7461C 0.21072,18.6482 0.135296,18.5331 0.0811743,18.4006C 0.0270528,18.2682 -7.62182e-006,18.126 -7.62182e-006,17.974L -7.62182e-006,1.06745C -7.62182e-006,0.765757 0.102477,0.512423 0.307448,0.307453C 0.512417,0.102484 0.765751,-1.90735e-006 1.06745,-1.90735e-006L 17.9084,-1.90735e-006 Z M 16.0356,2.56691C 16.0356,2.41491 15.9815,2.28651 15.8733,2.18173C 15.765,2.07694 15.6326,2.02455 15.476,2.02455L 3.57908,2.02455C 3.42248,2.02455 3.29178,2.07694 3.18699,2.18173C 3.08221,2.28651 3.02981,2.41491 3.02981,2.56691L 3.02981,7.46418C 3.02981,7.61618 3.08221,7.74458 3.18699,7.84936C 3.29178,7.95415 3.42248,8.00655 3.57908,8.00655L 15.476,8.00655C 15.6326,8.00655 15.765,7.95415 15.8733,7.84936C 15.9815,7.74458 16.0356,7.61618 16.0356,7.46418L 16.0356,2.56691 Z M 9.94791,19.0518L 6.11457,19.0518L 6.11457,15.0937L 9.94791,15.0937L 9.94791,19.0518 Z "/>
</svg>
