<?xml version="1.0" encoding="utf-8"?>
<!DOCTYPE svg PUBLIC "-//W3C//DTD SVG 1.1//EN" "http://www.w3.org/Graphics/SVG/1.1/DTD/svg11.dtd">
<svg xmlns="http://www.w3.org/2000/svg" xmlns:xlink="http://www.w3.org/1999/xlink" version="1.1" baseProfile="full" width="19" height="19" viewBox="0 0 19.00 19.00" enable-background="new 0 0 19.00 19.00" xml:space="preserve">
	<path fill="#000000" fill-opacity="1" stroke-width="1.00014" stroke-linejoin="round" d="M 17.951,-1.27157e-006C 18.0802,-1.27157e-006 18.2077,0.0392214 18.3335,0.117669C 18.4593,0.196112 18.5713,0.295323 18.6694,0.415299C 18.7675,0.535275 18.8471,0.665057 18.9082,0.804644C 18.9694,0.94423 19,1.07978 19,1.21129L 19,17.941C 19,18.0702 18.9458,18.2 18.8373,18.3303C 18.7288,18.4607 18.5972,18.5743 18.4426,18.6712C 18.2879,18.7681 18.1241,18.8471 17.951,18.9083C 17.7779,18.9694 17.6255,19 17.494,19L 2.04901,19C 1.91975,19 1.79223,18.9694 1.66644,18.9083C 1.54065,18.8471 1.42871,18.7681 1.33062,18.6712C 1.23253,18.5743 1.1529,18.4607 1.09174,18.3303C 1.03057,18.2 0.99999,18.0702 0.99999,17.941L 0.99999,1.21129C 0.99999,1.07978 1.03057,0.944234 1.09174,0.804646C 1.1529,0.665059 1.23253,0.535279 1.33062,0.415303C 1.42871,0.295327 1.54065,0.196114 1.66644,0.117671C 1.79223,0.0392234 1.91975,6.35783e-007 2.04901,6.35783e-007L 17.951,-1.27157e-006 Z M 17.951,4.22914L 2.04901,4.22914L 2.04901,17.941L 17.951,17.941L 17.951,4.22914 Z M 2.99802,6.04686L 5.01004,6.04686L 5.01004,16.9924L 2.99802,16.9924L 2.99802,6.04686 Z M 6.0144,6.04686L 8.01658,6.04686L 8.01658,16.9924L 6.0144,16.9924L 6.0144,6.04686 Z M 9.01109,6.04686L 11.01,6.04686L 11.01,16.9924L 9.01109,16.9924L 9.01109,6.04686 Z M 12.0144,6.04686L 14.0165,6.04686L 14.0165,16.9924L 12.0144,16.9924L 12.0144,6.04686 Z M 15.011,6.04686L 17.0198,6.04686L 17.0198,16.9924L 15.011,16.9924L 15.011,6.04686 Z "/>
</svg>
