<?xml version="1.0" encoding="utf-8"?>
<!DOCTYPE svg PUBLIC "-//W3C//DTD SVG 1.1//EN" "http://www.w3.org/Graphics/SVG/1.1/DTD/svg11.dtd">
<svg xmlns="http://www.w3.org/2000/svg" xmlns:xlink="http://www.w3.org/1999/xlink" version="1.1" baseProfile="full" width="256" height="256" viewBox="0 0 256.00 256.00" enable-background="new 0 0 256.00 256.00" xml:space="preserve">
	<path fill="#E6003C" fill-opacity="1" stroke-width="0.2" stroke-linejoin="round" d="M 35.678,6.61214e-005L 256.086,0.0299123L 220.053,256L -0.313558,256.412L 35.678,6.61214e-005 Z "/>
	<path fill="#FFFFFF" fill-opacity="1" stroke-width="0.2" stroke-linejoin="round" d="M 170.567,56.1118L 170.567,56.1118C 175.792,60.1888 176.723,67.7296 172.646,72.9546L 133.274,123.411C 129.197,128.636 121.656,129.566 116.431,125.489L 116.431,125.489C 111.207,121.412 110.276,113.872 114.353,108.647L 153.724,58.1902C 157.801,52.9653 165.342,52.0347 170.567,56.1118 Z "/>
	<path fill="#FFFFFF" fill-opacity="1" stroke-width="0.2" stroke-linejoin="round" d="M 200,111.662L 200,176C 200,191.464 191.464,200 176,200L 71.9999,200C 56.5359,200 47.9999,191.464 47.9999,176L 47.9999,111.662L 104,111.662L 104,116C 104,127.046 112.954,136 124,136C 127.361,136 130.529,135.171 133.31,133.706C 135.838,132.414 138.132,130.563 139.994,128.177L 152.881,111.662L 200,111.662 Z M 75.9999,128C 71.5816,128 67.9999,131.582 67.9999,136L 67.9999,176C 67.9999,180.418 71.5816,184 75.9999,184C 80.4182,184 83.9999,180.418 83.9999,176L 83.9999,136C 83.9999,131.582 80.4182,128 75.9999,128 Z M 108,144C 103.582,144 99.9998,147.582 99.9998,152L 99.9998,176C 99.9998,180.418 103.582,184 108,184C 112.418,184 116,180.418 116,176L 116,152C 116,147.582 112.418,144 108,144 Z M 140,144C 135.582,144 132,147.582 132,152L 132,176C 132,180.418 135.582,184 140,184C 144.418,184 148,180.418 148,176L 148,152C 148,147.582 144.418,144 140,144 Z M 172,128C 167.582,128 164,131.582 164,136L 164,176C 164,180.418 167.582,184 172,184C 176.418,184 180,180.418 180,176L 180,136C 180,131.582 176.418,128 172,128 Z "/>
</svg>
