<?xml version="1.0" encoding="utf-8"?>
<!DOCTYPE svg PUBLIC "-//W3C//DTD SVG 1.1//EN" "http://www.w3.org/Graphics/SVG/1.1/DTD/svg11.dtd">
<svg xmlns="http://www.w3.org/2000/svg" xmlns:xlink="http://www.w3.org/1999/xlink" version="1.1" baseProfile="full" width="1313.78" height="1362.33" viewBox="0 0 1313.78 1362.33" enable-background="new 0 0 1313.78 1362.33" xml:space="preserve">
	<path fill="#F4DCCC" fill-opacity="1" stroke-width="0.2" stroke-linejoin="round" d="M 129.118,1072.85C 129.801,1081.34 137.45,1087.73 142.12,1094.85C 161.426,1124.31 186.646,1149.55 211.129,1174.87C 233.437,1197.93 252.421,1227.76 282.139,1239.87C 288.504,1242.47 296.062,1248.08 302.142,1244.88C 312.879,1239.22 308.233,1221 314.567,1210.65C 329.596,1186.09 344.095,1160.84 354.149,1133.86C 360.182,1117.67 363.281,1100.02 372.404,1085.34C 391.858,1054.04 411.346,1022.77 430.418,991.241C 436.182,981.711 437.563,969.715 444.308,960.851C 476.73,918.242 528.307,893.449 563.178,852.82C 587.407,824.592 587.216,780.29 611.793,752.364C 636.511,724.279 668.849,703.862 695.621,677.728C 715.438,658.383 729.955,633.887 750.653,615.488C 774.106,594.642 796.885,569.03 805.212,538.776C 807.519,530.395 811.88,520.107 807.212,512.773C 792.354,489.428 754.394,468.333 730.202,481.768C 719.065,487.953 713.558,501.132 704.198,509.772C 686.702,525.923 667.048,540.416 653.191,559.779C 634.67,585.66 614.939,614.157 586.182,627.789C 562.286,639.116 526.035,639.786 507.112,621.312C 499.059,613.45 496.494,601.456 490.736,591.786C 482.657,578.219 469.452,568.219 461.164,554.779C 445.159,528.824 442.21,495.967 446.094,465.722C 450.331,432.732 468.565,402.566 484.999,373.648C 501.456,344.689 521.804,317.144 546.79,295.116C 563.39,280.481 570.473,257.622 580.181,237.734C 587.815,222.095 609.299,197.905 595.183,187.727C 568.076,168.183 533.827,215.58 507.171,235.734C 498.78,242.078 493.15,253.152 483.046,256.073C 442.153,267.897 395.996,226.76 356.149,241.735C 305.946,260.602 304.777,336.023 282.917,384.997C 269.501,415.053 238.943,438.268 234.088,470.823C 230.139,497.302 237.85,524.282 241.656,550.782C 253.158,630.85 272.933,710.388 274.128,791.27C 274.48,815.12 276.224,839.169 273.138,862.822C 267.147,908.733 233.191,947.167 204.839,983.772C 186.233,1007.79 161.792,1026.88 143.12,1050.85C 137.777,1057.71 128.42,1064.19 129.118,1072.85 Z "/>
	<path fill="#BDBDBD" fill-opacity="1" stroke-width="0.2" stroke-linejoin="round" d="M 964.061,371.21C 969.637,377.256 960.838,387.34 959.081,395.374C 954.681,415.486 950.185,435.594 946.725,455.889C 941.697,485.389 938.669,515.238 932.724,544.568C 930.056,557.726 936.883,574.457 928.056,584.573C 922.496,590.946 911.163,583.721 902.719,583.24C 893.502,582.714 884.28,581.934 875.049,582.045C 865.805,582.157 856.566,582.885 847.378,583.907C 827.76,586.087 827.008,588.607 807.275,589.13C 792.918,589.511 802.864,590.201 783.272,590.631C 764.721,591.038 786.098,575.091 791.378,567.247C 808.881,541.243 814.61,522.253 803.38,503.738C 794.129,488.486 765.788,484.25 766.538,481.499C 770.497,466.983 776.704,459.101 783.04,445.453C 790.908,428.51 790.539,418.53 800.043,402.447C 804.377,395.113 845.908,396.018 870.715,387.879C 893.949,380.256 918.88,379.296 942.725,373.877C 949.714,372.289 959.202,365.941 964.061,371.21 Z "/>
	<path fill="#0087FF" fill-opacity="0.435294" stroke-width="0.2" stroke-linejoin="round" d="M 859.435,408.99C 852.565,417.461 844.204,478.481 838.694,513.764C 837.527,521.238 835.776,528.586 834.888,536.115C 833.178,550.59 826.053,578.907 838.206,578.136C 905.247,573.881 966.185,560.283 1033.32,560.283C 1055.43,560.283 1077.48,557.573 1099.54,555.93C 1110.47,555.115 1125.36,558.656 1131.72,547.944C 1140.98,532.337 1131.78,509.599 1131.19,490.446C 1130.38,464.749 1140.2,440.035 1142.09,414.421C 1143.42,396.334 1147.22,378.57 1151.26,361.075C 1152.54,355.532 1158.39,346.578 1154.05,344.145C 1133.9,332.851 1110.29,353.646 1088.38,358.2C 1052.22,365.715 1015.63,371.667 980.42,384.074C 951.406,394.298 920.774,396.09 891.077,402.921C 880.587,405.334 863.079,404.497 859.435,408.99 Z "/>
	<path fill="#0078E9" fill-opacity="1" stroke-width="0.2" stroke-linejoin="round" d="M 680.424,385.731C 665.43,391.373 654.431,424.215 668.298,432.238C 671.367,434.013 671.529,425.883 672.548,422.486C 675.474,412.732 676.682,402.365 680.924,393.107C 683.779,386.879 685.616,383.778 680.424,385.731 Z "/>
	<path fill="#0078E9" fill-opacity="1" stroke-width="0.2" stroke-linejoin="round" d="M 692.776,409.148C 688.883,415.634 675.316,426.382 682.8,427.487C 686.84,428.084 687.975,421.128 690.051,417.611C 692.043,414.236 694.792,405.787 692.776,409.148 Z "/>
	<path fill="#0078E9" fill-opacity="1" stroke-width="0.2" stroke-linejoin="round" d="M 639.419,343.6C 624.86,348.637 618.438,370.653 614.217,385.468C 610.122,399.843 620.427,441.92 620.593,426.974C 620.718,415.723 619.26,405.973 620.87,394.693C 623.398,376.983 637.705,360.185 643.722,343.338C 644.218,341.949 640.812,343.118 639.419,343.6 Z "/>
	<path fill="#0078E9" fill-opacity="1" stroke-width="0.2" stroke-linejoin="round" d="M 662.672,364.603C 646.731,366.965 639.594,389.512 636.668,405.359C 634.926,414.795 641.721,431.517 645.169,432.863C 648.12,434.014 646.298,426.321 645.169,423.361C 641.724,414.326 643.481,404.145 646.92,395.108C 649.095,389.391 655.249,382.901 659.046,378.105C 662.352,373.929 667.941,363.823 662.672,364.603 Z "/>
	<path fill="#F4E8C5" fill-opacity="1" stroke-width="0.2" stroke-linejoin="round" d="M 610.081,232.877C 637.55,237.739 665.03,242.78 692.093,249.546C 718.767,256.214 746.302,264.353 772.615,272.328C 782.676,275.378 795.674,280.484 803.531,273.5C 818.66,260.052 817.454,240.824 827.112,217.541C 829.762,211.152 813.783,213.705 806.951,212.627C 754.883,204.405 690.393,181.263 638.596,171.48C 634.332,170.675 596.59,230.489 610.081,232.877 Z "/>
	<path fill="#BDBDBD" fill-opacity="1" stroke-width="0.2" stroke-linejoin="round" d="M 602.617,775.516C 603.237,780.497 619.024,797.232 626.5,791.454C 637.679,782.814 639.262,766.217 644.752,753.199C 649.215,742.617 668.471,717.786 657.504,721.194C 643.622,725.509 600.554,758.944 602.617,775.516 Z "/>
	<path fill="#BDBDBD" fill-opacity="1" stroke-width="0.2" stroke-linejoin="round" d="M 445.827,520.021C 457.562,485.462 476.197,453.645 491.084,420.323C 498.426,403.887 505.767,387.451 513.144,371.03C 515.136,366.595 517.13,362.161 519.128,357.728C 521.061,353.44 522.996,349.152 524.937,344.867C 530.796,331.931 536.582,318.957 542.781,306.18C 543.497,304.704 544.21,303.226 544.986,301.78C 545.259,301.271 545.469,299.968 545.925,300.324C 556.705,308.724 540.754,327.17 537.71,340.494C 530.533,371.915 531.09,404.631 529.016,436.795C 527.771,456.11 526.878,456.778 527.422,460.346C 532.694,494.898 532.665,536.45 557.843,560.693C 573.934,576.186 597.927,585.069 620.264,585.069C 627.348,585.069 634.078,581.266 640.197,577.697C 640.802,577.344 641.489,577.059 642.188,577.029C 642.388,577.02 642.475,577.445 642.354,577.604C 629.103,595.045 610.076,610.018 594.432,619.382C 571.042,633.382 545.499,635.004 519.447,626.98C 483.416,615.881 487.305,589.275 473.441,568.805C 466.74,558.91 460.949,548.405 455.439,537.8C 452.332,531.822 443.661,526.4 445.827,520.021 Z "/>
	<path fill="#BDBDBD" fill-opacity="1" stroke-width="0.2" stroke-linejoin="round" d="M 649.006,741.075C 646.994,744.843 645.006,748.63 642.971,752.381C 640.934,756.137 638.792,759.812 636.792,763.594C 634.757,767.441 632.854,771.383 630.867,775.264C 630.065,776.828 629.204,778.35 628.425,779.93C 627.607,781.59 626.702,783.207 626.076,784.98C 624.832,788.508 624.92,795.338 628.071,796.202C 659.397,804.792 674.059,740.31 685.971,705.013C 687.213,701.334 683.81,693.615 680.648,694.931C 663.352,702.134 654.198,725.434 644.1,743.523"/>
	<path fill="#BDBDBD" fill-opacity="1" stroke-width="0.2" stroke-linejoin="round" d="M 755.66,459.243C 759.321,446.327 765.203,435.709 770.018,424.045C 781.383,396.515 790.206,365.901 802.277,340.727C 812.368,319.684 821.621,294.561 831.281,271.967C 840.815,249.669 852.501,230.021 862.19,208.196C 866.716,198.003 873.709,178.122 875.537,183.955C 877.874,191.411 881.888,198.954 877.121,213.709C 864.616,252.412 843.484,289.548 828.758,325.014C 813.865,360.883 799.184,397.263 784.402,433.401C 778.202,448.559 768.115,481.637 766.538,481.499C 757.912,480.749 751.699,478.881 747.853,479.246"/>
	<path fill="#BDBDBD" fill-opacity="1" stroke-width="0.2" stroke-linejoin="round" d="M 847.579,575.67C 884.535,573.984 921.352,569.043 958.283,566.669C 979.157,565.327 1000.19,565.909 1020.89,562.335C 1035.9,559.744 1051.15,560.038 1066.3,559.668C 1068.91,559.604 1071.51,559.269 1074.1,558.936C 1076.71,558.602 1079.28,557.891 1081.89,557.668C 1084.88,557.412 1087.89,557.557 1090.89,557.501C 1093.89,557.445 1096.89,557.589 1099.89,557.334C 1109.63,556.506 1119.4,555.736 1129.06,553.971C 1131.16,553.586 1133.65,556.187 1134.15,558.757C 1134.89,562.601 1100.88,565.558 1080.68,567.101C 1017.88,571.901 1055.28,570.102 1004.1,571.602C 1002.64,571.645 888.525,577.104 887.078,577.337C 883.596,577.898 880.1,578.343 876.599,578.671C 875.348,578.788 874.086,578.541 872.837,578.671C 867.632,579.209 862.458,580.154 857.252,580.671C 856.181,580.777 831.122,583.668 831.188,582.338C 831.545,575.218 841.833,575.932 847.579,575.67 Z "/>
	<path fill="#BDBDBD" fill-opacity="1" stroke-width="0.2" stroke-linejoin="round" d="M 1160.23,348.818C 1136.03,371.13 1147.34,413.395 1139.67,445.404C 1134.71,466.073 1133.05,487.449 1131.56,508.653C 1131.19,513.953 1130.68,519.242 1130.32,524.543C 1130.16,526.89 1129.91,529.244 1130.01,531.595C 1130.11,533.936 1130.68,536.234 1130.94,538.563C 1131.2,540.899 1131.34,543.291 1130.98,545.614C 1129.04,558.287 1125.39,557.912 1130.16,556.787C 1141.66,554.075 1139.67,534.74 1140.83,522.98C 1144.45,486.301 1148.59,449.619 1154.93,413.313C 1157.58,398.135 1158.32,382.656 1161.16,367.512C 1161.64,364.986 1162.52,362.552 1163.09,360.047C 1165.75,348.419 1161.94,347.238 1160.23,348.818 Z "/>
	<g>
		<path fill="#000000" fill-opacity="0.376471" stroke-width="0.2" stroke-linejoin="round" d="M 512.901,324.425C 510.018,316.633 516.589,311.669 521.652,308.173C 533.559,299.951 545.458,289.997 551.906,277.043C 561.151,258.473 556.562,265.47 557.782,266.167C 570.192,273.259 547.701,294.975 535.904,303.047C 527.265,308.958 516.532,334.243 512.901,324.425 Z "/>
		<path fill="#000000" fill-opacity="0.376471" stroke-width="0.2" stroke-linejoin="round" d="M 449.91,427.324C 450.302,398.797 472.217,378.667 482.991,351.395C 487.561,339.825 495.229,329.408 498.518,311.617C 499.395,306.875 502.718,321.813 502.327,326.589C 499.493,361.229 482.591,378.493 467.691,402.55C 463.884,408.696 460.884,415.18 457.895,421.636C 453.345,431.464 449.667,445.036 449.91,427.324 Z "/>
		<path fill="#000000" fill-opacity="0.376471" stroke-width="0.2" stroke-linejoin="round" d="M 474.608,576.306C 462.761,571.057 432.013,541.27 429.69,530.461C 424.622,506.879 436.884,459.045 440.681,435.533C 441.539,430.226 434.174,410.106 442.252,419.571C 445.784,423.709 446.655,424.645 447.759,427.525C 453.391,442.21 447.413,458.122 445.152,473.078C 441.161,499.489 439.971,518.964 453.272,538.634C 465.107,556.136 475.731,576.803 474.608,576.306 Z "/>
		<path fill="#000000" fill-opacity="0.376471" stroke-width="0.2" stroke-linejoin="round" d="M 544.588,744.862C 554.779,746.224 572.687,732.26 572.759,721.025C 572.781,717.47 540.043,744.254 544.588,744.862 Z "/>
		<path fill="#000000" fill-opacity="0.376471" stroke-width="0.2" stroke-linejoin="round" d="M 560.609,269.126C 564.12,266.952 564.683,260.921 563.294,257.031C 561.047,250.74 554.984,245.659 548.9,242.9C 545.651,241.426 552.337,253.918 555.483,258.375C 557.773,261.618 559.152,270.028 560.609,269.126 Z "/>
		<path fill="#000000" fill-opacity="0.376471" stroke-width="0.2" stroke-linejoin="round" d="M 506.186,329.12C 507.447,334.853 516.354,325.119 510.018,316.633C 507.153,312.794 505.281,307.78 501.184,305.298C 486.913,296.652 493.35,302.732 493.849,303.131C 506.353,313.118 504.021,319.271 506.186,329.12 Z "/>
		<path fill="#000000" fill-opacity="0.376471" stroke-width="0.2" stroke-linejoin="round" d="M 454.802,427.148C 450.974,420.168 445.394,413.585 437.677,411.631C 419.297,406.978 415.84,412.131 423.841,411.798C 432.321,411.445 446.678,416.799 450.927,433.399C 451.483,435.572 454.159,430.047 454.802,427.898"/>
		<path fill="#000000" fill-opacity="0.376471" stroke-width="0.2" stroke-linejoin="round" d="M 396.754,286.114C 405.549,300.935 413.045,331.02 416.797,326.967C 438.26,303.783 388.481,272.172 396.754,286.114 Z "/>
		<path fill="#000000" fill-opacity="0.376471" stroke-width="0.2" stroke-linejoin="round" d="M 407.339,308.284C 399.041,330.603 388.714,345.952 378.539,361.88C 357.112,395.423 328.786,422.87 304.573,454.461C 301.704,458.204 296.555,463.11 295.072,467.588C 294.02,470.763 293.855,469.563 290.571,481.214C 287.349,492.643 305.123,460.065 313.876,452.041C 337.678,430.222 362.599,408.895 381.632,382.812C 393.429,366.645 404.277,349.667 413.303,331.805C 415.841,326.783 409.3,303.01 407.339,308.284 Z "/>
		<path fill="#000000" fill-opacity="0.376471" stroke-width="0.2" stroke-linejoin="round" d="M 311.333,590.081C 309.078,726.494 287.17,660.66 309.083,590.582"/>
		<path fill="#000000" fill-opacity="0.376471" stroke-width="0.2" stroke-linejoin="round" d="M 502.939,634.731C 498.178,652.877 572.198,647.066 559.066,643.776C 551.423,641.861 543.431,641.802 535.627,640.71C 530.954,640.056 526.002,639.231 521.358,638.398C 501.278,634.8 503.816,631.387 502.939,634.731 Z "/>
		<path fill="#000000" fill-opacity="0.376471" stroke-width="0.2" stroke-linejoin="round" d="M 725.173,564.006C 732.115,569.113 738.435,575.064 744.426,581.258C 745.713,582.588 751.331,589.795 752.159,591.451C 752.492,592.117 759.132,585.145 758.409,584.2C 750.601,573.979 738.762,561.733 725.924,562.506"/>
		<path fill="#000000" fill-opacity="0.376471" stroke-width="0.2" stroke-linejoin="round" d="M 709.421,582.508C 715.715,588.225 721.926,594.577 729.741,597.926C 730.317,598.173 741.056,604.882 741.48,604.421C 747.356,598.045 745.493,599.986 745.512,599.967C 746.746,598.717 723.946,580.326 710.421,579.758"/>
		<path fill="#000000" fill-opacity="0.376471" stroke-width="0.2" stroke-linejoin="round" d="M 687.668,610.596C 692.077,622.798 702.277,639.86 713.885,634.064C 714.975,633.52 724.636,625.688 718.385,626.438C 702.026,628.401 683.174,598.158 687.668,610.596 Z "/>
		<path fill="#000000" fill-opacity="0.376471" stroke-width="0.2" stroke-linejoin="round" d="M 468.595,940.226C 444.847,940.123 424.456,988.544 409.266,1006.9C 359.914,1066.55 324.213,1136.88 291.25,1206.93C 285.757,1218.6 280.686,1230.48 274.747,1241.94C 271.552,1248.1 296.289,1247.88 297.416,1247.08C 324.086,1228.07 335.296,1139.6 370.222,1088.43C 397.071,1049.1 422.247,1008.64 448.235,968.734C 462.849,946.291 472.19,940.241 468.595,940.226 Z "/>
		<path fill="#000000" fill-opacity="0.376471" stroke-width="0.2" stroke-linejoin="round" d="M 806.185,511.556C 803.407,520.685 784.874,536.63 779.515,548.144C 778.537,550.246 783.536,552.099 782.265,553.895C 764.942,578.38 745.635,600.493 725.285,622.527C 663.373,689.56 583.735,748.828 551.846,834.325C 545.22,852.089 536.959,866.107 524.272,880.197C 504.784,901.84 476.389,918.118 451.914,933.904C 448.678,935.991 446.262,942.555 449.137,945.116C 456.558,951.726 465.656,934.059 474.05,928.74C 509.778,906.101 549.089,880.023 565.93,841.224C 580.792,806.984 596.767,772.034 621.271,743.877C 648.966,712.053 687.702,691.607 717.951,662.199C 748.161,632.828 767.595,593.988 795.111,562.08C 803.096,552.82 810.766,541.883 812.495,529.778C 813.222,524.689 807.682,506.638 806.185,511.556 Z "/>
	</g>
	<path fill="#BDBDBD" fill-opacity="1" stroke-width="0.2" stroke-linejoin="round" d="M 512.101,329.307C 520.186,319.022 529.94,300.176 542.355,304.304C 547.394,305.979 537.432,313.715 534.938,318.404C 528.555,330.404 522.799,342.752 517.601,355.311C 510.072,373.505 495.421,356.827 496.638,351.129C 498.716,341.404 506.274,330.985 515.851,328.307"/>
	<path fill="#BDBDBD" fill-opacity="1" stroke-width="0.2" stroke-linejoin="round" d="M 466.684,412.402C 477.854,426.763 486.721,429.283 479.099,445.803C 474.351,456.095 459.307,504.32 451.731,495.889C 438.927,481.641 450.021,436.467 466.018,413.736"/>
	<path fill="#000000" fill-opacity="1" stroke-width="0.2" stroke-linejoin="round" d="M 397.805,348.767C 379.666,378.276 360.658,408.952 333.38,430.299C 318.638,441.664 303.738,454.472 295.109,470.965C 293.121,474.764 291.598,478.859 290.716,483.056C 290.361,484.745 290.079,486.463 290.021,488.189C 289.993,489.031 289.943,489.876 289.996,490.717C 290.035,491.339 290.088,491.961 290.163,492.579C 290.266,493.424 290.486,495.111 291.301,494.866C 292.429,494.526 292.12,492.626 292.216,491.452C 292.366,489.634 292.536,487.793 293.054,486.044C 294.577,480.899 297.27,476.129 300.103,471.573C 309.226,456.905 323.159,445.513 337.031,435.22C 349.966,425.479 361.386,413.631 371.484,400.971C 388.365,379.806 401.556,355.942 416.311,333.243C 447.85,286.442 494.017,250.742 538.65,216.203C 550.324,207.055 561.55,196.508 575.326,191.013C 579.352,189.408 583.817,188.402 588.135,188.775C 589.768,188.917 591.379,189.245 592.995,189.514C 593.807,189.649 595.063,189.952 595.446,189.224C 595.93,188.305 594.888,187.122 594.152,186.388C 592.717,184.958 590.89,183.87 588.977,183.201C 583.846,181.405 577.81,182.187 572.687,184.008C 558.013,189.222 546.095,200.347 533.822,209.931C 488.485,244.92 442.09,281.678 410.213,329.255C 406.029,335.728 401.898,342.236 397.805,348.767 Z "/>
	<path fill="#000000" fill-opacity="1" stroke-width="0.2" stroke-linejoin="round" d="M 251.88,696.515C 259.167,754.751 263.562,814.747 253.553,872.578C 249.61,892.859 242.015,912.629 231.958,930.677C 215.943,959.414 194.579,984.96 173.286,1010.04C 161.805,1023.56 150.114,1036.92 139.164,1050.87C 135.352,1055.73 131.594,1060.64 128.069,1065.71C 126.897,1067.4 125.754,1069.11 124.719,1070.89C 124.201,1071.77 123.455,1072.67 123.455,1073.7C 123.455,1073.98 124.065,1073.85 124.278,1073.68C 124.427,1073.56 124.572,1073.43 124.706,1073.29C 125.153,1072.83 125.595,1072.36 126.019,1071.88C 127.681,1069.97 129.203,1067.94 130.756,1065.95C 134.479,1061.16 138.482,1056.6 142.569,1052.12C 155.03,1038.47 167.316,1024.67 179.467,1010.74C 201.406,985.603 223.042,959.599 239.14,930.371C 248.839,912.761 256.052,893.495 260.006,873.784C 267.185,833.724 267.694,792.381 264.826,751.784C 260.704,693.439 250.15,635.713 244.383,577.507C 240.605,539.37 239.615,500.663 243.535,462.541C 245.006,450.992 251.777,440.357 258.999,431.226C 269.469,417.985 281.434,404.953 286.953,389.001C 296.288,358.698 301.847,327.039 314.397,297.92C 319.673,285.679 326.647,273.683 336.225,264.414C 342.086,258.742 349.206,254.209 356.733,251.07C 365.927,247.598 376.14,246.441 385.946,247.09C 400.767,248.071 415.298,251.745 429.835,254.793C 437.913,256.486 446.074,258.004 454.31,258.55C 457.158,258.739 460.035,258.783 462.873,258.481C 464.313,258.327 466.07,258.474 467.094,257.45C 467.539,257.004 466.235,256.446 465.639,256.242C 464.835,255.966 464.007,255.758 463.18,255.561C 460.395,254.898 457.587,254.337 454.797,253.698C 446.469,251.791 438.217,249.571 429.938,247.467C 414.476,243.537 398.732,239.872 382.791,239.225C 373.043,238.829 363.016,240.355 353.877,243.772C 346.142,246.969 338.768,251.427 332.557,257.037C 322.59,266.04 315.07,277.814 309.315,289.949C 294.86,320.427 289.358,354.393 279.481,386.647C 273.369,404.401 258.593,417.858 247.85,433.258C 241.965,441.693 237.199,451.509 235.925,461.714C 232.905,491.763 232.861,522.175 234.877,552.307C 238.107,600.601 246.051,648.465 251.88,696.515 Z "/>
	<path fill="#000000" fill-opacity="1" stroke-width="0.2" stroke-linejoin="round" d="M 391.561,1064.19C 401.969,1047.22 412.903,1030.57 423.827,1013.92C 430.32,1004.03 436.864,994.168 443.304,984.238C 446.999,978.54 450.663,972.82 454.278,967.07C 456.269,963.902 458.215,960.705 460.137,957.495C 461.541,955.15 462.931,952.796 464.256,950.406C 465.378,948.382 466.485,946.345 467.423,944.229C 467.976,942.982 469.361,940.811 468.141,940.199C 467.281,939.769 466.504,941.302 465.977,942.106C 465.124,943.407 464.391,944.798 463.391,945.99C 459.179,951.012 455.3,956.317 451.622,961.742C 442.445,975.274 433.125,988.707 423.872,1002.19C 395.091,1044.11 366.538,1086.7 344.901,1132.72C 338.005,1148.05 331.71,1163.65 325.443,1179.24C 321.301,1189.55 317.086,1199.83 312.633,1210.01C 310.304,1215.33 307.86,1220.6 305.344,1225.84C 303.856,1228.94 302.305,1232 300.733,1235.06C 299.889,1236.7 299.027,1238.33 298.182,1239.96C 297.7,1240.9 297.228,1241.84 296.82,1242.81C 296.237,1244.19 295.186,1247.06 296.668,1247.31C 298.826,1247.68 300.721,1245.46 302.314,1243.96C 304.747,1241.66 306.864,1238.99 308.526,1236.09C 313.133,1228.04 316.963,1219.57 320.741,1211.1C 331.802,1186.32 340.911,1160.7 351.885,1135.88C 363.346,1111.09 377.031,1087.31 391.561,1064.19 Z "/>
	<path fill="#000000" fill-opacity="1" stroke-width="0.2" stroke-linejoin="round" d="M 699.367,506.356C 670.745,535.559 647.902,570.292 617.873,598.048C 606.122,608.909 592.751,618.77 577.808,624.492C 567.524,628.429 556.163,630.094 545.164,629.566C 530.968,628.598 515.855,625.43 504.35,617.058C 494.532,609.913 487.808,598.22 484.435,586.555C 480.342,572.287 472.211,559.384 464.198,546.888C 457.048,535.737 449.621,524.083 446.865,511.125C 442.881,487.252 454.415,462.953 453.118,438.784C 452.795,432.762 451.311,426.37 447.737,421.513C 444.569,417.207 439.568,414.051 434.437,412.55C 431.07,411.565 427.562,410.997 424.059,410.799C 422.429,410.707 420.134,409.967 419.185,411.296C 418.889,411.711 420.039,411.911 420.54,412.009C 421.537,412.203 422.543,412.347 423.545,412.513C 426.449,412.995 429.37,413.489 432.18,414.365C 435.911,415.527 439.719,417.235 442.434,420.044C 445.348,423.06 447.363,427.105 448.237,431.206C 450.346,441.095 448.231,451.542 446.384,461.483C 443.288,478.14 438.934,495.342 441.558,512.08C 447.146,539.699 470.961,560.955 478.551,588.092C 482.22,601.114 489.714,614.138 500.605,622.164C 513.031,631.322 529.36,635.005 544.754,636.133C 556.679,636.766 568.998,634.991 580.18,630.801C 598.331,623.999 614.339,611.514 628.111,597.874C 663.348,562.976 689.86,518.558 730.056,489.508C 736.66,485.094 745.266,483.56 753.204,483.852C 768.012,484.398 783.475,490.112 794.709,499.776C 800.218,504.515 804.958,510.992 806.546,518.083C 808.247,527.543 804.54,537.815 799.622,546.073C 793.019,557.16 784.408,566.923 776.948,577.453C 734.497,638.522 680.541,691.639 623.775,739.691C 611.405,750.312 601.802,764.201 594.1,778.57C 579.579,805.658 570.303,836.199 550.877,860.016C 532.182,881.917 508.487,899.172 485.309,916.259C 476.435,922.8 467.491,929.275 459.052,936.369C 456.211,938.757 453.392,941.188 450.788,943.832C 449.219,945.426 446.931,946.85 446.581,949.059C 446.472,949.748 448.032,949.157 448.665,948.865C 449.57,948.448 450.436,947.949 451.297,947.447C 454.396,945.638 457.399,943.667 460.41,941.715C 468.772,936.293 477.1,930.814 485.324,925.184C 511.035,907.58 536.605,888.699 556.897,865.051C 576.07,841.667 585.759,811.9 599.669,785.049C 607.175,770.559 616.478,756.382 628.848,745.738C 686.096,697.175 740.42,643.414 783.149,581.69C 791.578,569.745 801.549,558.729 808.31,545.766C 812.879,537.007 815.553,526.358 813.785,516.638C 811.83,507.987 806.22,499.972 799.487,494.199C 786.216,482.819 767.581,476.233 750.1,476.541C 741.691,476.688 732.858,478.895 725.869,483.575C 716.433,490.406 707.549,498.063 699.367,506.356 Z "/>
	<path fill="#000000" fill-opacity="1" stroke-width="0.2" stroke-linejoin="round" d="M 498.9,361.149C 504.538,348.344 509.224,333.519 506.308,319.836C 505.416,315.647 503.895,311.478 501.521,307.913C 500.756,306.765 499.935,305.644 498.995,304.634C 498.341,303.932 497.655,303.255 496.908,302.654C 495.983,301.912 493.953,300.89 493.419,301.949C 492.952,302.877 494.504,303.728 494.937,304.673C 495.63,306.187 496.131,307.786 496.849,309.289C 499.162,314.134 500.73,319.515 500.889,324.881C 501.34,340.127 494.369,355.114 487.051,368.496C 478.649,383.858 468.567,398.244 459.669,413.324C 457.136,417.618 454.809,422.038 452.669,426.541C 451.867,428.228 451.065,429.924 450.463,431.693C 450.083,432.809 449.641,434.257 450.312,435.226C 451.394,436.786 454.412,435.553 455.953,434.445C 458.468,432.635 459.68,429.466 461.152,426.741C 465.325,419.016 469.929,411.53 474.525,404.049C 483.134,390.035 492.272,376.202 498.9,361.149 Z "/>
	<path fill="#000000" fill-opacity="1" stroke-width="0.2" stroke-linejoin="round" d="M 561.366,286.678C 566.49,276.47 563.435,262.466 557.658,252.612C 556.601,250.809 555.419,249.069 554.092,247.453C 552.86,245.952 551.568,244.433 549.957,243.348C 549.008,242.707 547.256,241.793 546.58,242.717C 546.2,243.237 546.853,244.013 547.224,244.539C 547.713,245.234 547.764,246.156 548.124,246.925C 549.592,250.056 551.592,252.92 553.021,256.069C 556.951,264.726 559.375,276.613 554.169,284.568C 545.949,295.678 533.374,302.779 522.859,311.747C 519.155,314.906 515.715,318.487 513.028,322.545C 511.693,324.563 509.852,326.682 509.914,329.101C 509.937,330.033 510.999,330.912 511.921,331.051C 513.829,331.338 516.075,330.703 517.453,329.352C 518.91,327.923 519.911,326.09 521.228,324.531C 523.306,322.068 525.666,319.846 528.079,317.71C 538.873,308.154 551.678,300.356 560.141,288.686L 561.062,287.244L 561.366,286.678 Z "/>
	<path fill="#000000" fill-opacity="1" stroke-width="0.2" stroke-linejoin="round" d="M 603.98,192.292C 608.272,183.111 612.288,173.801 616.208,164.456C 618.165,159.79 620.122,155.121 621.899,150.384C 622.844,147.865 623.774,145.339 624.659,142.798C 625.158,141.363 625.631,139.917 626.062,138.46C 626.372,137.413 626.665,136.359 626.893,135.292C 627.201,133.848 627.634,130.943 626.158,130.926C 625.046,130.912 624.984,132.818 624.332,133.719C 622.425,136.359 620.764,139.198 619.413,142.161C 615.786,150.115 612.11,158.047 608.386,165.956C 596.781,190.607 584.172,214.774 572.421,239.357C 569.983,244.458 567.6,249.588 565.304,254.756C 565.135,255.135 564.969,255.515 564.807,255.897C 564.109,257.545 563.409,259.192 562.725,260.846C 562.305,261.861 561.902,262.883 561.497,263.904C 561.297,264.408 561.096,264.912 560.908,265.422C 560.397,266.805 559.879,268.185 559.4,269.58C 559.261,269.984 559.141,270.396 559.056,270.814C 558.838,271.883 559.235,273.595 560.297,273.842C 562.86,274.438 565.687,272.03 567.074,269.794C 569.349,266.126 570.677,261.951 572.459,258.021C 577.229,247.501 582.209,237.076 587.244,226.681C 592.801,215.207 598.582,203.841 603.98,192.292 Z "/>
	<path fill="#000000" fill-opacity="1" stroke-width="0.2" stroke-linejoin="round" d="M 305.309,637.143C 304.355,642.595 303.55,648.073 302.844,653.562C 302.42,656.856 302.035,660.159 301.816,663.472C 301.689,665.383 301.587,667.299 301.609,669.213C 301.632,671.252 301.649,673.328 302.138,675.308C 302.389,676.321 303.088,677.862 304.124,677.729C 304.864,677.634 304.792,676.394 305.091,675.71C 306.026,673.568 306.556,671.245 306.879,668.93C 307.583,663.881 308.503,658.863 309.486,653.861C 312.51,638.468 316.856,623.092 317.011,607.406C 317.083,600.183 316.412,592.726 313.87,585.965C 313.188,584.151 312.625,581.596 310.766,581.05C 308.994,580.53 307.189,582.91 306.55,584.642C 305.958,586.247 306.659,588.09 307.091,589.745C 307.625,591.796 308.041,593.877 308.409,595.964C 309.464,601.947 309.353,608.133 308.836,614.187C 308.178,621.901 306.642,629.517 305.309,637.143 Z "/>
	<path fill="#000000" fill-opacity="1" stroke-width="0.2" stroke-linejoin="round" d="M 409.242,297.347C 407.533,294.318 405.325,291.575 403.01,288.98C 401.914,287.752 400.769,286.557 399.506,285.503C 398.17,284.388 396.801,283.085 395.105,282.699C 394.201,282.492 392.912,282.938 392.547,283.791C 392.408,284.116 392.922,284.413 392.975,284.763C 393.302,286.915 394.915,288.685 396.199,290.443C 398.837,294.055 401.47,297.737 403.365,301.789C 405.668,306.71 407.097,312.056 408.013,317.412C 408.336,319.299 408.612,321.195 408.917,323.086C 409.106,324.258 409.022,325.59 409.707,326.56C 411.015,328.411 415.052,327.356 416.433,325.559C 417.379,324.328 416.658,322.449 416.511,320.904C 415.733,312.723 413.281,304.504 409.242,297.347 Z "/>
	<path fill="#000000" fill-opacity="1" stroke-width="0.2" stroke-linejoin="round" d="M 509.214,364.492C 511.644,364.742 514.398,365.266 516.531,364.074C 517.676,363.435 517.92,361.569 517.618,360.293C 517.434,359.517 516.448,359.157 515.715,358.843C 514.324,358.246 512.859,357.807 511.374,357.514C 508.255,356.9 505.244,355.623 502.073,355.414C 501.174,355.355 500.2,355.458 499.412,355.896C 498.3,356.515 498.789,358.397 498.829,359.669C 498.865,360.835 498.396,362.592 499.439,363.117C 500.531,363.667 501.875,363.335 503.092,363.456C 505.151,363.661 507.155,364.279 509.214,364.492 Z "/>
	<path fill="#000000" fill-opacity="1" stroke-width="0.2" stroke-linejoin="round" d="M 474.335,426.133C 475.495,427.571 476.853,428.838 478.17,430.134C 479.297,431.242 480.485,432.643 482.05,432.86C 482.993,432.991 484.328,432.514 484.615,431.607C 485.718,428.123 482.073,424.682 480.045,421.642C 478.039,418.637 476.601,415.238 474.314,412.44C 473.485,411.425 472.403,409.773 471.139,410.12C 469.666,410.525 468.571,411.839 467.563,412.987C 467.051,413.57 466.234,414.245 466.399,415.004C 466.779,416.745 468.509,417.877 469.549,419.324C 471.169,421.576 472.594,423.973 474.335,426.133 Z "/>
	<path fill="#000000" fill-opacity="1" stroke-width="0.2" stroke-linejoin="round" d="M 447.001,496.671C 447.488,497.071 447.971,497.477 448.484,497.843C 449.631,498.556 450.961,499.068 452.307,499.19C 453.913,499.335 455.579,497.206 455.544,495.593C 455.519,494.422 454.238,493.582 453.284,492.903C 451.363,490.487 450.594,486.962 447.988,485.307C 446.741,484.514 445.002,486.042 443.901,487.029C 443.04,487.803 441.4,488.549 441.655,489.678C 441.91,490.807 443.063,491.516 443.777,492.427C 444.872,493.826 445.937,495.248 447.001,496.671 Z "/>
	<path fill="#000000" fill-opacity="1" stroke-width="0.2" stroke-linejoin="round" d="M 755.613,532.034C 760.708,534.962 765.387,538.744 769.348,543.084C 772.502,546.751 774.867,551.029 777.615,555.011C 778.842,556.788 780.234,558.493 781.892,559.877C 783.587,561.291 786.027,562.334 788.193,561.911C 789.705,561.616 791.702,560.629 791.86,559.096C 791.91,558.611 791.641,557.979 791.189,557.795C 790.412,557.479 789.558,558.545 788.739,558.366C 787.221,558.036 785.93,556.867 784.936,555.674C 780.706,550.6 778.531,544.057 774.47,538.848C 766.463,529.216 754.658,522.528 742.711,518.766C 742.463,518.671 743.02,519.681 743.135,519.442C 743.425,518.837 743.571,518.168 743.886,517.576C 745.032,515.422 746.561,513.482 748.125,511.609C 751.195,507.93 754.489,504.44 757.797,500.973C 759.78,498.895 761.788,496.84 763.712,494.707C 764.578,493.747 765.455,492.796 766.311,491.827C 767.131,490.898 767.932,489.953 768.741,489.014C 768.789,488.957 768.836,488.899 768.881,488.841C 769.904,487.536 771.274,486.316 771.634,484.698C 771.799,483.957 771.377,483.009 770.733,482.608C 768.856,481.441 765.908,481.814 764.122,483.116C 760.748,485.575 758.257,489.06 755.363,492.07C 751.686,495.895 748.026,499.743 744.57,503.769C 740.791,508.172 736.313,512.954 735.654,518.719C 735.321,521.636 737.886,525.075 740.69,525.944C 745.844,527.461 751.051,529.197 755.613,532.034 Z "/>
	<path fill="#000000" fill-opacity="1" stroke-width="0.2" stroke-linejoin="round" d="M 743.491,587.49C 745.479,589.752 747.539,591.958 749.37,594.349C 750.422,595.721 751.461,597.105 752.452,598.522C 753.553,600.094 754.542,601.756 755.789,603.214C 756.534,604.085 758.204,604.861 759.098,604.145C 759.416,603.89 759.051,603.32 759.146,602.924C 759.446,601.662 759.493,600.236 759.006,599.033C 757.83,596.133 756.463,593.292 754.81,590.635C 749.951,582.825 743.809,575.753 737.05,569.513C 734.281,566.956 731.283,564.46 727.812,562.99C 726.245,562.326 723.962,561.025 722.762,562.233C 721.298,563.705 721.428,566.515 722.213,568.437C 722.852,570.001 725.046,570.279 726.452,571.216C 729.175,573.029 731.7,575.145 734.097,577.372C 737.468,580.505 740.452,584.034 743.491,587.49 Z "/>
	<path fill="#000000" fill-opacity="1" stroke-width="0.2" stroke-linejoin="round" d="M 731.849,604.822C 734.746,606.955 737.641,609.15 740.113,611.764C 741.474,613.204 742.713,614.779 743.729,616.479C 744.331,617.486 744.852,618.54 745.387,619.585C 745.632,620.064 745.885,620.56 746.268,620.938C 746.851,621.511 748.326,622.032 748.692,621.302C 751.357,615.981 746.684,608.763 742.458,604.573C 735.482,597.655 727.298,592.072 719.648,585.907C 717.007,583.778 714.407,581.596 711.737,579.504C 710.907,578.853 709.684,578.059 708.731,578.513C 706.854,579.405 705.075,582.149 705.888,584.062C 706.784,586.169 708.991,587.448 710.753,588.909C 713.862,591.486 717.108,593.899 720.383,596.262C 724.252,599.052 728.009,601.993 731.849,604.822 Z "/>
	<path fill="#000000" fill-opacity="1" stroke-width="0.2" stroke-linejoin="round" d="M 708.186,639.761C 711.875,641.613 715.933,642.7 719.964,643.589C 723.739,644.422 727.729,644.637 731.552,644.065C 733.706,643.743 737.303,642.987 737.217,640.811C 737.185,639.986 735.848,639.876 735.105,639.517C 732.831,638.417 730.098,638.838 727.592,638.524C 721.365,637.745 715.203,635.568 709.797,632.382C 703.396,628.61 697.691,623.143 693.913,616.745C 692.644,614.596 691.708,612.237 691.027,609.835C 690.674,608.589 690.711,606.858 689.578,606.228C 687.626,605.142 684.118,606.679 683.383,608.79C 683.009,609.864 683.475,611.074 683.713,612.186C 684.201,614.463 684.969,616.703 686.026,618.778C 690.644,627.842 699.095,635.196 708.186,639.761 Z "/>
	<path fill="#000000" fill-opacity="1" stroke-width="0.2" stroke-linejoin="round" d="M 535.503,652.072C 539.306,651.996 543.1,651.505 546.851,650.874C 549.303,650.462 551.751,650.022 554.189,649.534C 555.37,649.297 556.545,649.024 557.711,648.722C 558.988,648.391 560.344,648.066 561.389,647.261C 562.016,646.777 562.442,645.674 562.059,644.98C 561.839,644.583 561.137,644.878 560.733,644.672C 558.24,643.4 555.163,643.765 552.368,643.928C 545.629,644.321 538.828,645.429 532.127,644.609C 525.501,643.797 519.044,641.4 513.097,638.367C 510.985,637.291 508.932,636.102 506.824,635.016C 505.434,634.3 504.004,632.942 502.473,633.261C 500.305,633.713 499.354,637.475 500.221,639.513C 500.649,640.519 501.846,640.993 502.769,641.58C 504.432,642.635 506.128,643.643 507.869,644.563C 516.309,649.022 525.959,652.263 535.503,652.072 Z "/>
	<path fill="#000000" fill-opacity="1" stroke-width="0.2" stroke-linejoin="round" d="M 562.308,733.016C 564.152,731.451 565.843,729.71 567.491,727.939C 568.624,726.722 569.734,725.481 570.797,724.202C 571.856,722.929 573.115,721.482 573.148,719.827C 573.164,719.069 572.648,718.243 571.987,717.872C 571.717,717.721 571.408,718.144 571.099,718.141C 569.604,718.125 568.198,719.076 567.013,719.988C 564.193,722.159 561.486,724.476 558.678,726.664C 554.797,729.688 550.51,732.165 546.264,734.651C 543.633,736.19 540.576,737.392 538.707,739.8C 537.219,741.716 540.675,746.179 543.042,745.646C 546.003,744.979 548.341,742.675 550.891,741.027C 554.796,738.504 558.763,736.025 562.308,733.016 Z "/>
	<path fill="#000000" fill-opacity="1" stroke-width="0.2" stroke-linejoin="round" d="M 512.504,374.762C 519.033,359.481 525.682,344.232 533.123,329.374C 537.16,321.312 541.296,313.297 545.623,305.387C 548.001,301.039 550.398,296.701 552.815,292.373C 553.779,290.648 554.711,288.904 555.635,287.157C 556.266,285.963 556.898,284.768 557.452,283.536C 557.587,283.236 557.717,282.933 557.84,282.628C 557.943,282.372 558.04,282.113 558.128,281.852C 558.394,281.066 558.64,279.41 557.812,279.385C 556.017,279.33 555.526,282.156 554.324,283.491C 550.77,287.437 547.6,291.747 544.762,296.237C 537.081,308.386 530.008,320.941 523.588,333.801C 504.428,372.18 488.654,412.172 472.392,451.866C 468.073,462.407 463.782,472.961 459.472,483.506C 457.374,488.639 455.286,493.776 453.222,498.923C 452.337,501.132 451.425,503.331 450.598,505.562C 450.359,506.206 450.117,506.849 449.92,507.507C 449.574,508.66 449.181,509.979 449.61,511.103C 449.823,511.661 450.672,511.945 451.254,511.815C 455.916,510.774 458.597,505.263 460.537,500.898C 463.042,495.259 465.472,489.586 467.826,483.883C 474.918,466.698 481.831,449.439 488.738,432.178C 496.434,412.948 504.366,393.81 512.504,374.762 Z "/>
	<path fill="#000000" fill-opacity="1" stroke-width="0.2" stroke-linejoin="round" d="M 830.501,262.358C 816.06,295.998 801.257,329.488 787.441,363.389C 780.143,381.296 773,399.273 766.349,417.43C 762.678,427.451 759.152,437.527 755.843,447.673C 754.313,452.366 752.824,457.072 751.426,461.805C 750.585,464.652 749.764,467.505 749.002,470.375C 748.561,472.035 748.121,473.697 747.745,475.374C 747.536,476.301 747.335,477.23 747.16,478.163C 747.032,478.842 746.915,479.525 746.832,480.211C 746.731,481.042 746.327,482.747 747.164,482.702C 748.208,482.646 748.452,481.016 748.813,480.035C 749.686,477.659 750.26,475.179 751.146,472.808C 753.306,467.022 755.871,461.393 758.069,455.621C 765.101,437.158 771.773,418.554 779.158,400.229C 800.326,347.699 823.712,296.089 846.335,244.169C 850.735,234.471 855.774,225.072 860.745,215.654C 863.341,210.736 865.949,205.823 868.403,200.833C 870.877,195.801 873.424,190.723 874.88,185.307C 875.379,183.451 875.664,181.336 874.972,179.543C 874.415,178.098 872.955,176.871 871.448,176.516C 854.374,172.93 837.3,169.349 820.24,165.7C 793.969,159.945 767.722,154.077 741.419,148.473C 727.458,145.498 713.466,142.656 699.431,140.054C 690.084,138.321 680.717,136.695 671.334,135.168C 666.474,134.377 661.602,133.663 656.729,132.959C 656.025,132.857 655.319,132.764 654.613,132.67C 652.055,132.328 649.497,131.985 646.938,131.651C 644.253,131.301 641.55,131.033 638.844,130.972C 637.685,130.946 636.516,130.944 635.372,131.128C 634.765,131.226 633.791,131.404 633.756,132.017C 633.705,132.935 634.967,133.454 635.77,133.901C 637.09,134.636 638.496,135.213 639.909,135.748C 644.579,137.517 649.425,138.838 654.309,139.884C 668.307,142.884 682.513,144.819 696.576,147.501C 737.422,155.291 777.986,164.502 818.64,173.243C 835.726,176.829 852.828,180.338 869.929,183.857C 869.477,183.751 869.035,183.534 868.688,183.226C 868.461,183.025 868.264,182.785 868.116,182.52C 868.038,182.381 867.975,182.233 867.901,181.972L 867.889,181.908C 867.18,183.766 866.962,185.789 866.235,187.639C 864.271,192.641 861.852,197.456 859.41,202.242C 852.778,215.236 845.652,227.997 839.653,241.295C 836.609,248.319 833.568,255.344 830.501,262.358 Z "/>
	<path fill="#000000" fill-opacity="1" stroke-width="0.2" stroke-linejoin="round" d="M 815.188,349.841C 806.049,373.17 797.018,396.543 788.203,419.996C 784.232,430.561 780.276,441.132 776.488,451.764C 774.931,456.134 773.391,460.512 772.001,464.938C 771.493,466.554 771.004,468.176 770.59,469.818C 770.49,470.216 770.394,470.616 770.307,471.018C 770.234,471.353 770.167,471.689 770.11,472.027C 770.063,472.303 770.023,472.58 769.994,472.858C 769.971,473.079 769.956,473.301 769.955,473.523C 769.953,474.028 770.274,474.95 770.758,474.807C 771.555,474.572 771.841,473.514 772.159,472.747C 772.702,471.439 773.114,470.065 773.812,468.832C 776.232,464.556 778.429,460.143 780.343,455.619C 785.132,444.301 789.632,432.864 794.237,421.471C 809.9,382.725 825.296,343.865 841.693,305.425C 851.881,282.232 864.061,259.958 874.517,236.884C 877.888,229.446 880.984,221.844 883.299,214.012C 885.179,207.649 887.287,200.303 884.774,194.162C 884.236,192.89 883.631,191.615 883.393,190.254C 883.13,188.757 883.307,187.001 882.361,185.811C 880.829,183.884 878.792,182.374 876.726,181.034C 875.328,180.128 873.451,178.466 872.026,179.329C 871.05,179.921 871.72,181.697 872.158,182.75C 873.182,185.215 874.933,187.314 876.43,189.525C 876.525,189.665 876.607,189.815 876.634,189.986C 876.359,189.838 876.312,189.44 876.242,189.136C 876.126,188.63 876.409,188.371 876.16,188.637C 875.44,189.407 875.984,190.756 876.136,191.799C 876.405,193.638 877.132,195.386 877.806,197.118C 878.466,198.849 878.232,200.842 877.959,202.674C 877.472,205.936 876.581,209.132 875.619,212.286C 873.211,220.181 869.922,227.796 866.528,235.32C 856.342,257.901 844.593,279.767 834.793,302.517C 828.203,318.269 821.606,334.019 815.188,349.841 Z "/>
	<path fill="#000000" fill-opacity="1" stroke-width="0.2" stroke-linejoin="round" d="M 630.052,776.071C 627.883,781.214 625.684,786.343 623.511,791.484C 623.176,792.326 624.636,791.424 624.012,791.631C 623.294,791.868 622.575,791.125 621.934,790.725C 620.955,790.115 620.04,789.405 619.136,788.689C 616.285,786.431 613.654,783.868 610.597,781.899C 609.423,781.144 608.184,780.437 606.848,780.033C 606.082,779.802 604.797,779.927 604.538,780.684C 604.256,781.506 605.608,782.062 606.029,782.822C 607.052,784.667 608.461,786.291 609.934,787.8C 613.644,791.601 617.145,796.553 622.294,797.855C 624.901,798.514 628.299,796.703 629.545,794.321C 636.961,779.063 644.113,763.677 651.29,748.305C 654.206,742.06 657.108,735.799 659.646,729.39C 660.06,728.345 660.464,727.295 660.849,726.238C 661.195,725.288 661.532,724.333 661.839,723.369C 662.11,722.515 662.153,721.355 661.546,720.696C 660.202,719.239 657.222,720.014 655.618,721.179C 653.726,722.552 653.104,725.139 652.137,727.268C 649.039,734.086 646.01,740.936 642.948,747.77C 638.709,757.23 634.418,766.668 630.052,776.071 Z "/>
	<path fill="#000000" fill-opacity="1" stroke-width="0.2" stroke-linejoin="round" d="M 673.02,745.889C 676.563,736.708 679.892,727.439 682.935,718.081C 684.049,714.657 685.078,711.202 685.968,707.714C 686.326,706.306 686.661,704.89 686.897,703.457C 687.015,702.736 687.115,702.009 687.15,701.279C 687.2,700.224 686.543,698.165 685.556,698.541C 684.814,698.824 684.895,700.002 684.41,700.631C 682.91,702.575 681.712,704.775 680.815,707.061C 678.812,712.165 676.784,717.261 674.721,722.342C 669.799,734.466 665.09,746.7 659.411,758.489C 656.18,765.196 653.405,772.262 648.928,778.211C 645.886,782.063 643.006,786.582 638.564,788.669C 636.789,789.503 634.91,790.111 633.025,790.649C 631.272,791.149 628.652,791.333 628.126,793.078C 627.539,795.026 630.075,797.228 632.037,797.762C 634.376,798.399 636.912,797.422 639.235,796.729C 645.913,794.739 650.84,788.627 655.092,783.106C 658.112,778.971 660.257,774.249 662.453,769.623C 666.168,761.8 669.644,753.864 673.02,745.889 Z "/>
	<path fill="#000000" fill-opacity="1" stroke-width="0.2" stroke-linejoin="round" d="M 749.477,203.264C 774.19,209.147 799.046,214.443 823.97,219.359C 823.557,219.262 823.163,219.014 822.887,218.693C 822.779,218.567 822.685,218.427 822.612,218.277C 822.572,218.196 822.538,217.504 822.506,217.97C 822.33,220.559 821.235,223.022 820.231,225.415C 817.875,231.027 814.983,236.432 813.057,242.205C 804.597,270.455 793.802,298.045 781.607,324.895C 765.732,359.936 751.164,395.586 737.638,431.6C 733.002,443.946 728.406,456.31 724.04,468.754C 722.529,473.062 721.033,477.376 719.674,481.734C 719.134,483.463 718.605,485.199 718.193,486.963C 717.975,487.897 717.307,489.14 717.971,489.831C 718.254,490.125 718.735,489.429 718.93,489.072C 719.204,488.571 719.472,488.068 719.717,487.553C 720.007,486.943 720.274,486.321 720.537,485.699C 721.784,482.737 722.838,479.698 724.011,476.706C 727.861,466.889 732.498,457.396 736.497,447.638C 743.732,429.982 750.653,412.198 757.952,394.569C 767.284,372.034 777.05,349.673 787.301,327.541C 799.854,300.504 810.939,272.677 819.63,244.163C 820.976,240.202 822.849,236.439 824.6,232.639C 826.639,228.215 828.991,223.704 829.456,218.854C 829.698,216.339 827.781,213.061 825.316,212.506C 788.489,205.107 751.853,196.679 715.502,187.211C 688.811,180.247 661.921,174.071 635.166,167.357C 632.969,166.877 630.521,168.729 629.236,170.575C 627.409,173.2 625.916,176.052 624.49,178.916C 620.947,186.033 617.866,193.374 614.702,200.668C 597.694,239.077 579.708,277.117 564.894,316.424C 553.027,348.13 539.92,379.376 526.22,410.334C 518.553,427.66 510.724,444.915 502.885,462.164C 497.886,473.166 492.895,484.171 487.946,495.195C 485.256,501.187 482.587,507.188 479.928,513.193C 478.283,516.91 476.653,520.635 475.037,524.365C 474.077,526.578 473.112,528.79 472.224,531.034C 471.859,531.957 471.492,532.879 471.137,533.806C 470.831,534.607 470.532,535.41 470.242,536.217C 469.631,537.918 469.037,539.634 468.631,541.396C 468.438,542.235 467.866,543.729 468.69,543.978C 469.932,544.354 470.791,542.403 471.585,541.377C 473.013,539.534 474.29,537.576 475.531,535.603C 478.685,530.589 481.581,525.41 484.339,520.168C 492.891,503.908 500.056,486.955 507.736,470.265C 530.632,420.505 553.145,370.468 572.241,319.129C 586.922,279.931 604.748,241.981 621.597,203.666C 623.573,199.077 625.521,194.476 627.572,189.921C 628.736,187.336 629.921,184.759 631.178,182.218C 631.557,181.453 631.941,180.691 632.335,179.934C 632.691,179.252 633.053,178.573 633.429,177.902C 633.75,177.328 634.079,176.759 634.425,176.2C 634.867,175.485 635.572,174.927 635.898,174.151C 636.004,173.897 635.421,174.439 635.157,174.52C 634.583,174.697 633.943,174.69 633.356,174.563C 660.1,181.205 686.977,187.319 713.649,194.245C 725.57,197.335 737.508,200.362 749.477,203.264 Z "/>
	<path fill="#000000" fill-opacity="1" stroke-width="0.2" stroke-linejoin="round" d="M 719.272,263.603C 733.195,267.321 747.219,270.681 761.317,273.665C 768.003,275.08 774.725,276.332 781.47,277.425C 784.434,277.905 787.41,278.316 790.396,278.63C 791.956,278.793 793.516,278.978 795.083,279.036C 795.492,279.051 795.9,279.07 796.309,279.08C 796.666,279.089 797.023,279.093 797.38,279.091C 797.688,279.09 797.996,279.084 798.304,279.07C 798.566,279.059 798.828,279.042 799.09,279.018C 800.009,278.931 801.723,278.445 801.447,277.564C 801.128,276.542 799.448,276.769 798.4,276.547C 798.067,276.476 797.74,276.376 797.42,276.259C 796.803,276.033 796.2,275.768 795.591,275.518C 791.714,273.926 787.513,273.263 783.419,272.37C 773.185,270.137 763.003,267.66 752.864,265.029C 720.253,256.565 688.142,246.194 655.387,238.309C 645.111,235.835 634.775,233.527 624.327,231.928C 620.588,231.355 616.834,230.872 613.073,230.473C 611.617,230.318 610.155,230.137 608.692,230.177C 607.71,230.204 606.563,230.303 605.859,230.988C 605.263,231.567 605.576,232.79 606.049,233.474C 608.303,236.735 612.912,237.87 616.825,238.508C 621.165,239.215 625.495,239.992 629.81,240.844C 644.031,243.652 658.153,246.98 672.177,250.647C 687.929,254.766 703.542,259.402 719.272,263.603 Z "/>
	<path fill="#000000" fill-opacity="1" stroke-width="0.2" stroke-linejoin="round" d="M 679.993,417.268C 679.299,420.276 679.186,423.525 679.899,426.528C 680.237,427.954 681.963,429.488 683.398,429.19C 684.772,428.906 685.211,426.924 685.521,425.556C 686.049,423.219 686.285,420.783 687.196,418.567C 688.109,416.344 689.387,414.238 690.947,412.411C 691.937,411.252 693.595,410.31 693.744,408.793C 693.869,407.522 692.88,406.337 692.078,405.344C 691.314,404.398 690.252,402.974 689.074,403.275C 687.183,403.757 686.079,405.822 684.888,407.367C 682.64,410.283 680.821,413.681 679.993,417.268 Z "/>
	<path fill="#000000" fill-opacity="1" stroke-width="0.2" stroke-linejoin="round" d="M 662.381,409.971C 661.685,413.257 661.53,416.67 661.701,420.025C 661.86,423.156 662.499,426.359 663.876,429.177C 664.68,430.824 666.319,433.356 668.051,432.756C 668.773,432.505 668.726,431.377 668.956,430.648C 669.542,428.787 668.644,426.756 668.407,424.819C 667.918,420.821 668.2,416.671 669.156,412.758C 670.72,406.355 674.061,400.363 677.97,395.056C 679.227,393.35 680.542,391.686 681.851,390.019C 682.624,389.035 683.707,388.168 684.024,386.958C 684.601,384.761 680.956,382.424 678.703,382.705C 676.902,382.929 675.871,385.008 674.704,386.397C 668.999,393.185 664.218,401.297 662.381,409.971 Z "/>
	<path fill="#000000" fill-opacity="1" stroke-width="0.2" stroke-linejoin="round" d="M 632.537,399.812C 631.482,404.764 631.683,410.058 632.79,414.998C 634.356,420.189 637.014,425.094 640.206,429.477C 640.892,430.419 641.694,431.292 642.597,432.029C 643.377,432.665 644.422,433.275 645.415,433.114C 646.122,432.999 646.856,432.185 646.8,431.471C 646.754,430.878 646.035,430.303 645.44,430.315C 645.098,430.321 644.241,430.934 644.578,430.873C 645.412,430.723 645.557,429.223 645.268,428.426C 644.712,426.892 643.795,425.513 643.111,424.032C 641.555,420.666 640.127,417.198 639.275,413.588C 638.58,409.205 638.552,404.518 639.9,400.289C 642.392,392.472 647.348,385.455 652.808,379.33C 655.933,375.826 659.264,372.509 662.556,369.162C 664.174,367.517 666.619,366.19 667.084,363.931C 667.541,361.712 663.458,359.88 661.26,360.428C 659.834,360.784 658.841,362.108 657.738,363.078C 655.581,364.972 653.567,367.025 651.547,369.064C 643.065,377.623 635.526,388.139 632.537,399.812 Z "/>
	<path fill="#000000" fill-opacity="1" stroke-width="0.2" stroke-linejoin="round" d="M 609.343,389.522C 608.471,395.532 608.615,401.69 609.14,407.74C 609.63,413.394 610.905,419.102 613.289,424.252C 614.121,426.049 615.055,427.821 616.236,429.41C 616.971,430.399 618.277,431.763 619.418,431.295C 620.01,431.052 619.752,429.989 619.559,429.379C 619.274,428.48 619.443,427.492 619.281,426.563C 618.694,423.203 617.429,419.988 616.777,416.639C 614.976,407.394 614.991,397.609 616.883,388.383C 619.211,377.031 623.944,365.822 630.948,356.59C 633.559,353.148 636.514,349.946 639.717,347.047C 641.325,345.592 643.97,344.567 644.291,342.423C 644.653,340.006 640.049,338.408 637.725,339.163C 635.905,339.754 634.567,341.34 633.122,342.596C 630.618,344.772 628.315,347.197 626.23,349.777C 617.183,360.974 611.408,375.276 609.343,389.522 Z "/>
	<path fill="#000000" fill-opacity="1" stroke-width="0.2" stroke-linejoin="round" d="M 1039.39,355.916L 1041.05,355.5C 1076.75,346.626 1112.87,339.879 1148.72,331.748C 1160.49,329.078 1172.23,326.197 1183.84,322.773C 1187.75,321.616 1191.67,320.443 1195.52,319.041C 1196.73,318.6 1197.94,318.131 1199.1,317.562C 1199.76,317.239 1200.85,316.955 1200.85,316.177C 1200.86,315.373 1199.35,315.854 1198.62,316.013C 1197.62,316.229 1196.65,316.535 1195.68,316.82C 1192.71,317.684 1189.63,317.97 1186.6,318.536C 1176.22,320.476 1165.97,323.133 1155.64,325.345C 1137.91,329.137 1120.13,332.556 1102.35,336.03C 1081.41,340.12 1060.55,344.608 1039.78,349.579C 1006.64,357.555 973.278,364.424 939.851,370.844C 923.215,374.04 906.554,377.087 889.913,380.255C 879.771,382.187 869.63,384.126 859.503,386.143C 852.677,387.503 845.859,388.905 839.045,390.329C 834.958,391.183 830.879,392.081 826.8,392.982C 825.134,393.349 823.47,393.723 821.805,394.095C 821.586,394.144 821.367,394.194 821.148,394.245C 817.893,395.002 814.611,395.663 811.417,396.675C 810.477,396.973 809.539,397.298 808.648,397.739C 808.051,398.035 807.034,398.505 807.206,399.187C 807.505,400.37 809.3,400.274 810.434,400.418C 812.443,400.672 814.478,400.678 816.499,400.604C 822.863,400.37 829.147,398.916 835.406,397.653C 852.035,394.299 868.69,391.091 885.346,387.892C 936.826,378.003 988.362,368.235 1039.39,355.916 Z "/>
	<path fill="#000000" fill-opacity="1" stroke-width="0.2" stroke-linejoin="round" d="M 1012.92,581.254C 1034.28,579.712 1055.63,577.98 1076.97,576.139C 1089.69,575.042 1102.4,573.824 1115.11,572.559C 1123.16,571.759 1131.2,570.903 1139.24,569.97C 1143.31,569.498 1147.38,569.008 1151.45,568.49C 1154.42,568.111 1157.39,567.692 1160.35,567.23C 1161.12,567.11 1161.89,566.986 1162.66,566.857C 1163.33,566.744 1164,566.627 1164.67,566.504C 1166.13,566.235 1167.6,565.947 1169.05,565.551C 1169.37,565.463 1169.69,565.367 1170.01,565.261C 1170.26,565.177 1170.51,565.086 1170.76,564.98C 1171.2,564.791 1171.99,564.509 1171.89,563.912C 1171.8,563.357 1171.1,563.386 1170.67,563.351C 1170.38,563.327 1170.09,563.329 1169.8,563.336C 1169.47,563.344 1169.15,563.369 1168.83,563.395C 1167.13,563.534 1165.43,563.819 1163.73,563.784C 1155.79,563.621 1147.85,564.064 1139.93,564.702C 1118.45,566.433 1096.97,568.079 1075.49,569.619C 1005.95,574.605 936.331,577.958 866.711,580.544C 855.802,580.99 844.891,581.481 833.997,582.357C 828.576,582.794 823.161,583.332 817.746,583.878C 813.756,584.281 809.768,584.7 805.779,585.112C 803.938,585.302 802.096,585.495 800.255,585.69C 799.547,585.766 798.84,585.85 798.132,585.924C 795.654,586.184 793.166,586.373 790.708,586.864C 789.776,587.05 788.843,587.268 787.943,587.631C 787.335,587.876 786.311,588.255 786.388,589.085C 786.444,589.689 787.021,590.02 787.441,590.273C 788.285,590.781 789.196,591.087 790.101,591.356C 792.112,591.955 794.168,592.297 796.222,592.527C 802.432,593.224 808.692,592.388 814.91,591.853C 832.217,590.365 849.543,589.189 866.877,588.457C 915.572,586.579 964.261,584.281 1012.92,581.254 Z "/>
	<path fill="#000000" fill-opacity="1" stroke-width="0.2" stroke-linejoin="round" d="M 837.913,504.449C 836.244,515.545 835.012,526.705 833.873,537.868C 833.318,543.309 832.775,548.752 832.384,554.206C 832.163,557.29 831.947,560.374 831.788,563.461C 831.702,565.136 831.643,566.813 831.623,568.489C 831.608,569.693 831.612,570.899 831.674,572.101C 831.755,573.69 832.014,576.964 833.534,576.495C 834.707,576.133 834.158,574.118 834.562,572.958C 835.748,569.556 836.527,566 837.013,562.43C 838.355,552.579 839.664,542.723 841.075,532.881C 845.296,503.43 850.622,474.074 857.894,445.225C 859.389,439.292 860.93,433.37 862.483,427.452C 863.117,425.039 863.763,422.629 864.383,420.213C 864.668,419.101 864.937,417.986 865.22,416.874C 865.38,416.244 865.555,415.618 865.711,414.987C 866.208,412.965 866.861,410.965 867.088,408.896C 867.212,407.753 866.735,405.914 865.593,405.788C 862.784,405.479 860.262,408.667 859.108,411.245C 857.103,415.725 856.218,420.626 854.901,425.353C 851.463,437.69 848.429,450.144 845.762,462.67C 842.812,476.529 840.021,490.436 837.913,504.449 Z "/>
	<path fill="#000000" fill-opacity="1" stroke-width="0.2" stroke-linejoin="round" d="M 1130.1,527.913C 1130.31,533.339 1130.59,538.851 1129.84,544.206C 1129.52,546.457 1129.02,548.856 1127.8,550.603C 1127.05,551.672 1125.84,552.31 1124.69,552.513C 1104.02,555.28 1083.2,556.08 1062.43,557.21C 1011.13,560.171 959.794,562.676 908.587,567.406C 892.007,568.938 875.435,570.695 858.926,573.094C 853.051,573.948 847.177,574.842 841.338,575.994C 839.612,576.335 837.888,576.7 836.183,577.164C 835.151,577.444 833.567,577.28 833.204,578.473C 833.085,578.862 833.818,578.937 834.162,578.94C 834.652,578.945 835.143,578.943 835.632,578.917C 837.017,578.845 838.397,578.657 839.775,578.471C 844.448,577.839 849.135,577.323 853.832,577.049C 865.678,576.358 877.504,575.224 889.331,574.157C 913.301,571.994 937.306,570.356 961.318,569.018C 995.099,567.136 1028.89,565.549 1062.68,563.782C 1083.58,562.758 1104.53,561.996 1125.33,559.287C 1127.47,558.92 1129.68,557.887 1131.27,556.123C 1133.38,553.78 1134.59,550.284 1135.22,546.914C 1137.13,536.668 1135.52,525.916 1135.58,515.416C 1136.41,488.055 1139.15,460.792 1142.32,433.679C 1144.74,413.615 1147.39,393.552 1151.17,373.792C 1152.3,368.916 1153.98,364.242 1155.54,359.538C 1157.22,354.455 1159.59,348.686 1158.26,343.454C 1157.54,340.603 1154.21,338.786 1151.74,339.135C 1122.81,344.393 1094.23,352.137 1065.46,358.566C 1015.62,369.679 965.935,381.839 915.884,391.442C 908.427,392.923 901.014,394.766 893.676,396.943C 889.515,398.177 885.36,399.443 881.201,400.686C 878.897,401.374 876.591,402.059 874.29,402.765C 872.759,403.234 871.226,403.694 869.7,404.187C 867.899,404.768 866.097,405.358 864.327,406.064C 863.641,406.339 862.954,406.627 862.301,407.003C 861.917,407.224 861.23,407.555 861.361,408.042C 861.593,408.9 862.78,408.705 863.528,408.79C 864.974,408.953 866.434,408.892 867.884,408.808C 872.303,408.554 876.701,407.849 881.072,407.032C 893.055,404.791 904.809,400.974 916.787,398.697C 966.961,389.5 1016.71,377.186 1066.59,365.953C 1095.28,359.478 1123.78,351.658 1152.64,346.333C 1153.69,346.18 1153.04,346.286 1152.81,346.082C 1152.29,345.601 1152.58,345.422 1152.48,345.591C 1151.97,346.501 1152.39,347.795 1152.18,348.862C 1151.8,350.745 1151.27,352.58 1150.72,354.398C 1148.92,360.309 1146.74,366.068 1145.34,372.133C 1141.56,392.119 1138.92,412.405 1136.5,432.693C 1133.34,460.067 1130.62,487.591 1129.8,515.209C 1129.78,519.445 1129.95,523.68 1130.1,527.913 Z "/>
	<path fill="#000000" fill-opacity="1" stroke-width="0.2" stroke-linejoin="round" d="M 912.028,445.186C 912.879,443.543 913.728,441.899 914.626,440.281C 915.034,439.546 915.454,438.818 915.868,438.086C 915.907,438.016 915.944,437.945 915.986,437.877C 916.315,437.337 916.643,436.797 916.981,436.262C 917.087,436.094 917.204,435.932 917.318,435.769C 917.376,435.685 917.45,435.612 917.499,435.523C 917.626,435.288 917.049,435.815 916.808,435.931C 916.403,436.127 915.952,436.239 915.504,436.274C 914.36,436.366 913.079,435.888 912.282,435.063C 911.899,434.666 911.595,434.173 911.42,433.65C 911.353,433.453 911.291,432.829 911.305,433.037C 911.663,438.605 909.838,444.099 909.096,449.629C 908.713,453.224 908.697,456.85 908.609,460.465C 908.548,462.145 908.515,463.828 908.57,465.509C 908.604,466.544 908.67,467.579 908.795,468.607C 908.882,469.319 908.994,470.031 909.187,470.722C 909.467,471.723 910.752,473.249 911.618,472.675C 912.36,472.184 911.945,470.91 912.31,470.099C 913.566,467.308 914.247,464.26 914.689,461.232C 915.166,457.754 915.451,454.247 916.076,450.793C 916.779,447.442 917.462,444.088 918.16,440.736C 918.797,437.676 919.94,434.431 919.138,431.41C 918.703,429.769 916.859,428.224 915.162,428.229C 912.446,428.237 910.422,431.259 909.021,433.586C 907.078,436.815 905.239,440.107 903.366,443.377C 902.878,444.177 902.408,444.995 901.822,445.726C 901.727,445.844 901.629,445.959 901.528,446.072C 901.455,446.153 901.379,446.231 901.301,446.306C 900.881,446.709 900.845,446.55 901.251,446.451C 901.445,446.404 901.649,446.392 901.848,446.411C 903.038,446.525 902.651,446.839 902.686,446.709C 902.884,445.977 901.963,445.368 901.71,444.653C 901.078,442.872 900.679,441.014 900.3,439.163C 899.624,435.861 899.685,432.199 897.899,429.341C 896.916,427.768 894.421,426.857 892.666,427.456C 890.857,428.072 889.749,430.217 889.252,432.062C 888.037,437.472 887.196,442.963 886.437,448.455C 885.86,452.863 885.421,457.29 885.079,461.723C 884.866,464.493 884.78,467.271 884.684,470.047C 884.616,471.989 884.184,474.103 884.998,475.867C 885.453,476.854 886.944,477.352 888.006,477.123C 890.011,476.69 891.869,475.072 892.773,473.231C 893.753,471.237 893.574,468.855 893.784,466.643C 894.322,460.983 894.849,455.319 895.549,449.676C 896.241,444.416 896.934,439.147 897.998,433.949C 898.107,433.507 897.443,434.681 897.097,434.979C 896.311,435.654 895.246,436.107 894.21,436.131C 893.237,436.155 892.207,435.831 891.425,435.251C 891.082,434.995 890.776,434.682 890.437,434.207C 890.394,434.139 890.352,434.07 890.24,433.862L 890.201,433.777C 891.246,439.622 892.036,445.845 895.185,450.879C 896.743,453.37 900.229,455.375 903.102,454.757C 906.55,454.015 908.949,450.479 910.756,447.449L 912.028,445.186 Z "/>
	<path fill="#000000" fill-opacity="1" stroke-width="0.2" stroke-linejoin="round" d="M 921.223,459.968C 921.241,462.851 921.215,466.244 923.122,468.406C 923.987,469.387 925.686,469.962 926.899,469.472C 929.876,468.268 929.819,463.616 930.226,460.43C 930.618,457.365 931.85,454.4 931.884,451.31C 931.896,450.252 931.982,448.815 931.097,448.235C 929.839,447.411 928.142,447.575 926.639,447.542C 925.241,447.512 923.641,447.19 922.465,447.945C 921.305,448.691 922.07,450.676 921.963,452.05C 921.756,454.693 921.206,457.317 921.223,459.968 Z "/>
	<path fill="#000000" fill-opacity="1" stroke-width="0.2" stroke-linejoin="round" d="M 929.582,433.087C 931.58,432.621 934.349,429.595 933.053,428.004C 932.542,427.377 931.284,426.716 930.729,427.305C 930.294,427.764 930.523,428.614 930.758,429.201C 931.006,429.817 929.446,429.914 928.783,429.646L 928.783,429.646C 928.768,429.142 929.525,428.961 929.882,428.604C 930.634,427.852 931.429,426.011 930.51,425.475C 928.626,424.375 925.147,427.092 925.18,429.273C 925.201,430.605 926.088,432.021 927.234,432.701C 927.961,433.019 928.797,433.204 929.582,433.087 Z "/>
	<path fill="#000000" fill-opacity="1" stroke-width="0.2" stroke-linejoin="round" d="M 937.477,449.625C 937.435,453.278 937.739,456.932 938.087,460.569C 938.208,461.829 938.348,463.094 938.63,464.329C 939.016,466.016 941.506,468.676 942.757,467.48C 944.314,465.99 944.81,463.596 945.121,461.465C 945.615,458.079 945.822,454.655 946,451.239C 946.394,443.699 948.577,436.253 948.308,428.708C 948.268,427.605 948.416,426.123 947.509,425.495C 946.217,424.599 944.395,424.74 942.832,424.903C 941.674,425.023 940.232,425.08 939.515,425.998C 938.907,426.779 939.165,427.948 939.06,428.931C 938.877,430.626 938.76,432.327 938.613,434.025C 938.163,439.219 937.536,444.411 937.477,449.625 Z "/>
	<path fill="#000000" fill-opacity="1" stroke-width="0.2" stroke-linejoin="round" d="M 951.431,455.423C 952.299,458.977 954.943,462.612 958.352,463.944C 961.595,465.212 966.132,464.518 968.635,462.096C 969.555,461.207 969.772,458.55 968.526,458.259C 966.358,457.753 963.897,458.741 961.859,457.844C 959.981,457.017 958.985,454.46 958.97,452.408C 958.948,449.408 960.725,445.992 963.355,444.55C 965.218,443.53 968.149,444.3 969.42,442.599C 970.532,441.112 970.476,438.868 970.037,437.064C 969.876,436.404 969.595,435.647 969.008,435.303C 968.054,434.743 966.796,435.046 965.693,435.129C 963.065,435.326 960.389,436.215 958.225,437.718C 953.033,441.324 949.932,449.282 951.431,455.423 Z "/>
	<path fill="#000000" fill-opacity="1" stroke-width="0.2" stroke-linejoin="round" d="M 989.204,442.432C 989.584,441.592 990.018,440.776 990.47,439.973C 990.526,439.873 990.578,439.772 990.638,439.675C 990.849,439.335 991.06,438.993 991.285,438.662C 991.447,438.423 991.628,438.197 991.8,437.965C 991.839,437.912 991.876,437.857 991.918,437.806C 992.015,437.684 992.115,437.565 992.218,437.447C 992.31,437.343 992.404,437.24 992.501,437.14C 992.585,437.054 992.672,436.97 992.76,436.888C 992.833,436.82 992.908,436.755 992.984,436.692C 993.711,436.09 993.411,436.402 993.246,436.282C 995.173,436.81 995.83,439.48 996.346,441.41C 997.271,444.873 997.629,448.468 998.03,452.03C 998.279,454.245 998.285,457.881 1000.48,458.252C 1001.28,458.386 1001.5,456.973 1001.86,456.244C 1002.85,454.208 1003.41,451.903 1003.45,449.638C 1003.54,444.86 1003.51,439.797 1001.58,435.424C 1000.48,432.922 998.478,430.555 995.986,429.432C 992.998,428.323 989.041,429.817 986.799,432.083C 982.889,436.037 980.605,441.477 978.869,446.759C 978.609,447.799 978.356,448.842 978.17,449.898C 977.852,451.695 977.548,453.496 977.25,455.297C 977.173,455.763 977.539,454.371 977.846,454.012C 978.082,453.734 978.292,453.403 978.614,453.231C 979.276,452.876 979.982,452.477 980.733,452.462C 981.554,452.447 982.374,452.761 983.098,453.147C 983.56,453.392 983.851,453.877 984.17,454.29C 984.319,454.483 984.392,454.724 984.487,454.948C 984.584,455.18 984.639,455.429 984.673,455.678C 984.683,455.756 984.664,455.843 984.7,455.913C 984.725,455.961 984.706,455.804 984.71,455.75C 985.076,447.338 985.766,438.941 986.54,430.556C 986.842,427.29 987.142,424.021 987.308,420.745C 987.387,419.184 987.856,417.193 986.747,416.092C 985.046,414.401 981.147,416.039 979.819,418.037C 978.112,420.606 978.597,424.093 978.255,427.159C 977.198,436.633 976.695,446.173 976.527,455.705C 976.553,457.219 977.077,459.126 978.414,459.839C 979.243,460.28 980.182,460.639 981.121,460.622C 981.981,460.605 982.789,460.149 983.547,459.742C 985.255,458.823 985.356,456.231 985.638,454.311C 985.901,452.52 986.128,450.719 986.535,448.955C 987.235,446.712 988.133,444.523 989.204,442.432 Z "/>
	<path fill="#000000" fill-opacity="1" stroke-width="0.2" stroke-linejoin="round" d="M 1040.81,414.228C 1040.61,419.019 1040.42,423.81 1040.22,428.601C 1040.09,431.599 1039.97,434.598 1039.87,437.597C 1039.8,439.39 1039.75,441.185 1039.77,442.979C 1039.78,444.695 1039.73,446.492 1040.35,448.093C 1040.68,448.96 1041.82,449.88 1042.7,449.583C 1043.26,449.395 1043.07,448.443 1043.43,447.973C 1044.53,446.51 1045.33,444.753 1045.66,442.951C 1046.28,439.485 1046.83,436.007 1047.35,432.523C 1048.78,422.855 1049.24,413.065 1050.4,403.359C 1050.55,401.675 1050.12,399.555 1048.76,398.556C 1047.42,397.579 1045.07,397.634 1043.79,398.689C 1041.82,400.318 1041.12,403.067 1040.09,405.406C 1038.46,409.077 1037.15,412.967 1034.81,416.226C 1033.12,418.299 1031.02,420.009 1029.08,421.853C 1027.25,423.576 1024.93,424.972 1023.75,427.196C 1022.58,429.389 1026.7,432.184 1029.18,432.288C 1031.47,432.384 1033.23,430.09 1034.99,428.62C 1037.51,426.463 1040.04,424.259 1042.1,421.661C 1044.48,418.26 1045.97,414.305 1047.52,410.455C 1047.76,409.851 1048,409.248 1048.3,408.51C 1048.57,407.845 1048.84,407.18 1049.1,406.516C 1049.38,405.835 1050.43,405.085 1049.99,404.497C 1049.83,404.28 1049.67,404.941 1049.47,405.127C 1048.93,405.635 1048.26,406.038 1047.54,406.219C 1046.28,406.537 1044.75,406.274 1043.7,405.506C 1043.02,405.008 1042.46,404.286 1042.16,403.497C 1042.04,403.19 1041.95,402.867 1041.92,402.539C 1041.89,402.295 1041.91,402.15 1041.87,402.582C 1041.52,406.465 1041.16,410.346 1040.81,414.228 Z "/>
	<path fill="#000000" fill-opacity="1" stroke-width="0.2" stroke-linejoin="round" d="M 1041.91,452.533C 1044.17,452.39 1047,451.915 1048.22,450.003C 1048.8,449.078 1048.36,447.751 1047.98,446.726C 1047.25,444.785 1044.35,444.503 1042.3,444.196C 1040.38,443.909 1038.45,443.343 1036.52,443.514C 1034.44,443.698 1031.22,445.316 1031.58,447.376C 1031.81,448.748 1033.63,449.281 1034.8,450.037C 1035.89,450.744 1036.55,452.27 1037.84,452.493C 1039.18,452.725 1040.56,452.619 1041.91,452.533 Z "/>
	<path fill="#000000" fill-opacity="1" stroke-width="0.2" stroke-linejoin="round" d="M 1056.99,428.869C 1056.43,434.929 1056.08,442.746 1060.66,446.753C 1062.94,448.747 1067.34,448.377 1069.74,446.536C 1070.86,445.683 1072.13,444.526 1072.21,443.125C 1072.25,442.406 1071.85,441.587 1071.26,441.183C 1070.91,440.948 1070.44,441.511 1070.03,441.455C 1069.66,441.404 1069.29,441.288 1068.92,441.259C 1068.6,441.235 1068.29,441.258 1067.98,441.298C 1067.72,441.331 1067.47,441.409 1067.22,441.475C 1067.02,441.527 1066.83,441.597 1066.5,441.681C 1066.38,441.711 1066.26,441.746 1066.14,441.773C 1065.85,441.84 1065.23,442.065 1065.23,441.762C 1065.22,436.725 1064.94,431.627 1065.78,426.661C 1066.93,419.912 1069,413.35 1070.38,406.646C 1070.84,404.463 1071.23,402.26 1071.44,400.041C 1071.6,398.35 1072.15,395.892 1070.71,394.996C 1068.57,393.67 1064.64,393.992 1063.25,396.085C 1062.31,397.493 1062.52,399.388 1062.19,401.047C 1061.59,404.136 1060.95,407.217 1060.32,410.301C 1059.06,416.463 1057.56,422.607 1056.99,428.869 Z "/>
	<path fill="#000000" fill-opacity="1" stroke-width="0.2" stroke-linejoin="round" d="M 997.869,507.011C 997.454,511.324 997.051,515.64 996.788,519.964C 996.682,521.705 996.627,523.449 996.64,525.193C 996.649,526.341 996.673,527.491 996.784,528.634C 996.913,529.951 997.001,531.386 997.732,532.489C 998.167,533.145 999.221,533.634 999.942,533.319C 1000.33,533.15 1000.12,532.465 1000.36,532.118C 1001.92,529.92 1002.07,526.988 1002.51,524.331C 1003.59,517.793 1004.44,511.218 1005.62,504.696C 1006.38,500.444 1007.85,496.194 1007.57,491.882C 1007.46,490.168 1005.98,488.197 1004.29,487.911C 1002.59,487.624 1000.69,488.968 999.777,490.431C 997.635,493.718 995.149,496.769 992.819,499.926C 991.45,501.78 989.08,503.669 989.423,505.948C 989.768,508.237 993.996,509.689 995.919,508.4C 997.405,507.404 998.255,505.689 999.38,504.297C 1001.97,501.096 1004.4,497.756 1006.53,494.234C 1006.69,493.966 1006.11,494.696 1005.86,494.874C 1005.23,495.318 1004.42,495.578 1003.65,495.576C 1002.03,495.569 1000.59,493.929 999.901,492.457C 999.696,492.02 999.865,493.423 999.814,493.903C 999.652,495.44 999.428,496.971 999.21,498.501C 998.805,501.344 998.318,504.175 997.869,507.011 Z "/>
	<path fill="#000000" fill-opacity="1" stroke-width="0.2" stroke-linejoin="round" d="M 1002.22,538.134C 1003.74,537.414 1005.44,536.858 1006.6,535.644C 1007.46,534.743 1007.61,532.936 1006.89,531.92C 1005.1,529.391 1000.69,531.058 997.608,531.404C 995.435,531.998 992.642,532.688 991.735,534.75C 991.222,535.915 992.569,537.176 993.235,538.26C 993.885,539.318 995.018,541.199 996.117,540.621C 997.449,539.92 998.764,539.188 1000.1,538.499C 1000.81,538.371 1001.52,538.255 1002.22,538.134 Z "/>
	<path fill="#000000" fill-opacity="1" stroke-width="0.2" stroke-linejoin="round" d="M 1023.9,537.234C 1026.03,536.218 1027.69,533.747 1027.92,531.396C 1028.04,530.035 1027.47,528.471 1026.44,527.57C 1025.51,526.758 1023.81,526.019 1022.83,526.767C 1021.89,527.486 1022.66,529.25 1023.22,530.293C 1023.34,530.529 1023.11,530.829 1022.96,531.056C 1022.83,531.268 1022.69,531.483 1022.52,531.67C 1022.47,531.72 1022.43,531.768 1022.38,531.815C 1022.33,531.86 1022.28,531.904 1022.23,531.945C 1021.17,532.81 1021.87,532.218 1022.11,532.352C 1021.72,531.901 1021.34,531.433 1021.06,530.906C 1020.98,530.749 1020.9,530.59 1020.83,530.427C 1020.77,530.286 1020.72,530.139 1020.67,529.994C 1020.4,529.186 1020.53,529.374 1020.57,529.371C 1020.86,529.347 1020.4,529.939 1020.18,530.124C 1020.13,530.169 1019.64,530.681 1019.88,530.264C 1020.27,529.584 1021.58,529.7 1021.83,528.961C 1022.33,527.542 1022.87,525.034 1021.48,524.466C 1019.16,523.523 1015.5,525.559 1014.85,527.971C 1014.05,530.962 1016.25,534.382 1018.49,536.525L 1018.49,536.525C 1019.91,537.66 1022.21,537.904 1023.9,537.234 Z "/>
	<path fill="#000000" fill-opacity="1" stroke-width="0.2" stroke-linejoin="round" d="M 1041.03,524.427C 1040.57,522.779 1041.39,520.97 1042.08,519.407C 1043.29,516.697 1044.8,514.131 1046.35,511.601C 1050.51,504.799 1055.59,498.393 1058.37,490.918C 1059.06,488.823 1059.05,486.447 1058.54,484.298C 1058.13,482.543 1055.75,479.617 1054.41,480.817C 1053.79,481.367 1054.77,482.43 1054.89,483.248C 1055.15,485.163 1054.46,487.169 1053.62,488.909L 1053.62,488.909C 1050.68,494.627 1046.59,499.681 1042.82,504.887C 1038.84,510.378 1034.26,516.338 1033.77,523.099C 1033.5,526.765 1036.3,530.876 1039.63,532.443C 1042.92,533.751 1046.88,532.455 1050.2,531.196L 1050.2,531.196C 1052.27,530.334 1054.24,528.865 1055.46,526.978C 1057.09,524.474 1057.64,521.271 1057.62,518.285C 1057.55,509.513 1053.83,500.915 1049.64,493.203L 1049.64,493.203C 1048.57,491.131 1047.04,488.565 1047.94,486.41L 1047.94,486.41C 1049.4,484.563 1053.33,484.704 1053.75,482.386C 1054.1,480.448 1051.75,478.238 1049.79,477.997C 1047.08,477.663 1044.19,479.306 1042.26,481.238C 1038.85,485.266 1040.31,492.37 1042.73,497.062C 1045.68,502.534 1048.31,508.339 1049.53,514.44C 1050.18,517.739 1050.56,523 1047.47,524.319L 1047.47,524.319C 1045.86,524.961 1044.08,526.352 1042.46,525.735L 1042.46,525.735C 1041.89,525.466 1041.19,525.081 1041.03,524.427 Z "/>
	<path fill="#000000" fill-opacity="1" stroke-width="0.2" stroke-linejoin="round" d="M 1092.58,509.072C 1091.64,515.993 1084.38,522.998 1077.39,523.532C 1075.26,523.572 1072.82,522.683 1071.51,520.996C 1070.41,519.576 1069.27,516.868 1067.54,517.355C 1066.75,517.578 1067.13,518.976 1067.16,519.799C 1067.23,521.262 1067.32,522.807 1067.98,524.115C 1069.57,527.275 1073.68,529.047 1077.21,529.36C 1084.79,529.553 1092.81,524.287 1096.84,517.861C 1099.31,513.918 1100.43,508.736 1099.56,504.165C 1097.47,496.301 1086.97,491.074 1078.84,491.253C 1075.43,491.328 1071.76,492.563 1069.29,494.917C 1068.51,495.774 1067.9,496.781 1067.32,497.788C 1067.09,498.186 1066.87,498.587 1066.64,498.985C 1066.52,499.186 1066.41,499.385 1066.29,499.585L 1066.25,499.64C 1067.36,498.316 1069.87,497.863 1071.35,498.75C 1072.1,499.2 1072.68,499.993 1072.97,500.817C 1073.12,501.246 1073.18,501.716 1073.16,502.17C 1073.14,502.476 1073.02,502.877 1073.17,502.321C 1074.46,496.883 1073.26,491.14 1073.6,485.562C 1073.68,484.255 1073.31,482.406 1072.09,481.935C 1070.29,481.239 1067.7,482.474 1066.73,484.148C 1065.74,485.857 1065.9,488.041 1065.92,490.015C 1065.96,493.415 1066.29,496.895 1065.54,500.211C 1065.33,501.055 1065.14,501.961 1065.33,502.811C 1065.63,504.239 1066.96,505.592 1068.37,505.963C 1070.04,506.402 1072.12,505.169 1073.04,503.707C 1073.58,502.848 1074.04,501.936 1074.54,501.055C 1074.67,500.833 1075.1,500.204 1074.93,500.393C 1076.49,498.863 1079.18,498.799 1081.36,499.057C 1085.68,499.573 1091.36,501.702 1092.49,505.91C 1092.69,506.943 1092.71,508.022 1092.58,509.072 Z "/>
	<path fill="#000000" fill-opacity="1" stroke-width="0.2" stroke-linejoin="round" d="M 1084.51,482.179C 1087.26,481.802 1090.05,481.213 1092.52,479.957C 1093.63,479.393 1094.11,477.579 1093.69,476.409C 1092.91,474.284 1089.37,474.677 1087.11,474.751C 1083.68,474.863 1080.2,474.607 1076.82,475.209C 1074.85,475.561 1072.86,476.219 1071.19,477.338C 1070.32,477.917 1069.59,479.394 1070.14,480.279C 1070.79,481.327 1071.7,482.194 1072.59,483.051C 1073.13,483.569 1073.62,484.374 1074.36,484.423C 1075.58,484.504 1076.56,483.296 1077.74,482.991C 1079.94,482.424 1082.26,482.487 1084.51,482.179 Z "/>
	<path fill="#000000" fill-opacity="1" stroke-width="0.2" stroke-linejoin="round" d="M 879.063,533.207C 878.702,535.528 878.621,537.884 878.459,540.227C 878.372,541.487 877.618,543.004 878.376,544.015C 878.663,544.397 879.075,543.327 879.517,543.145C 880.503,542.741 882.344,543.409 882.427,544.472C 882.446,544.71 882.022,544.211 881.851,544.043C 881.549,543.747 881.167,543.505 880.757,543.401C 879.782,543.154 878.513,543.927 878.109,544.848C 877.535,546.154 880.127,548.073 881.445,547.527C 883.013,546.878 883.581,544.799 884.098,543.183C 885.034,540.258 885.571,537.221 886.259,534.228C 887.13,530.443 888.462,526.778 889.482,523.03C 889.993,521.152 891.276,519.096 890.551,517.29C 889.922,515.723 887.679,515.264 886.003,515.056C 885.171,514.953 884.054,514.851 883.529,515.504C 881.985,517.427 882.045,520.211 881.455,522.606C 880.588,526.123 879.619,529.627 879.063,533.207 Z "/>
	<path fill="#000000" fill-opacity="1" stroke-width="0.2" stroke-linejoin="round" d="M 888.099,533.071C 887.817,535.401 887.794,537.756 887.692,540.101C 887.637,541.366 886.889,542.911 887.68,543.9C 887.911,544.188 888.197,543.362 888.512,543.169C 889.038,542.847 889.75,542.728 890.343,542.9C 891.002,543.09 892.229,543.888 891.762,544.391C 891.488,544.685 891.184,543.828 890.859,543.59C 890.184,543.094 888.945,542.721 888.36,543.321C 888.038,543.651 887.879,544.116 887.567,544.456C 886.986,545.087 887.448,546.419 888.104,546.97C 888.886,547.628 890.294,547.704 891.163,547.167C 892.516,546.332 892.936,544.472 893.389,542.947C 894.273,539.979 894.732,536.899 895.325,533.859C 896.043,530.178 897.153,526.582 897.925,522.912C 898.387,520.719 899.069,518.404 898.568,516.22C 898.281,514.967 896.287,514.855 895.007,514.736C 893.777,514.622 892.025,514.369 891.364,515.412C 890.287,517.108 890.546,519.347 890.19,521.325C 889.486,525.239 888.579,529.123 888.099,533.071 Z "/>
	<path fill="#000000" fill-opacity="1" stroke-width="0.2" stroke-linejoin="round" d="M 898.4,528.693C 898.219,530.754 898.307,532.83 898.309,534.898C 898.309,535.886 898.324,536.875 898.421,537.858C 898.574,539.406 900.378,541.942 901.721,541.157C 905.309,539.061 904.946,533.42 905.639,529.323C 906.431,524.643 908.282,520.041 908.1,515.298C 908.077,514.709 908.031,514.111 907.867,513.545C 907.808,513.343 907.63,513.183 907.453,513.069C 906.17,512.241 904.435,512.357 902.912,512.467C 902.12,512.524 901.031,512.495 900.641,513.187C 899.678,514.895 900.059,517.067 899.793,519.01C 899.35,522.241 898.685,525.445 898.4,528.693 Z "/>
	<path fill="#000000" fill-opacity="1" stroke-width="0.2" stroke-linejoin="round" d="M 905.516,529.055C 905.315,531.129 905.313,533.219 905.196,535.3C 905.14,536.293 905.077,537.287 905.093,538.281C 905.118,539.85 906.627,542.618 908.045,541.946C 911.506,540.305 911.909,535.141 912.51,531.357C 913.26,526.631 914.709,522.001 915.047,517.228C 915.152,515.751 915.646,513.617 914.389,512.834C 912.558,511.694 909.806,511.781 907.92,512.826C 907.26,513.191 907.417,514.26 907.33,515.009C 907.194,516.178 907.075,517.349 906.945,518.518C 906.556,522.041 905.86,525.527 905.516,529.055 Z "/>
	<path fill="#000000" fill-opacity="1" stroke-width="0.2" stroke-linejoin="round" d="M 917.103,526.539C 916.906,528.533 916.893,530.541 916.732,532.537C 916.654,533.496 916.555,534.454 916.53,535.415C 916.488,536.972 917.831,539.761 919.281,539.193C 922.597,537.893 923.333,533.093 923.958,529.587C 924.71,525.366 925.772,521.164 925.962,516.879C 926.028,515.377 926.159,513.846 925.88,512.369C 925.766,511.768 925.655,511.157 925.416,510.594C 925.333,510.399 925.135,510.259 924.943,510.168C 922.99,509.25 920.291,509.687 918.509,510.905C 917.911,511.314 918.162,512.325 918.155,513.049C 918.144,514.17 918.108,515.29 918.078,516.41C 917.987,519.801 917.436,523.164 917.103,526.539 Z "/>
	<path fill="#000000" fill-opacity="1" stroke-width="0.2" stroke-linejoin="round" d="M 926.228,524.595C 925.836,526.867 925.761,529.186 925.673,531.49C 925.631,532.584 925.597,533.684 925.687,534.776C 925.767,535.759 925.888,536.883 926.562,537.604C 927.134,538.215 928.282,538.741 928.981,538.279C 932.68,535.835 932.313,530.033 933.407,525.736C 934.652,520.846 937.201,516.272 937.873,511.271C 937.957,510.651 938.046,510.023 937.998,509.4C 937.982,509.184 937.841,508.982 937.688,508.829C 936.608,507.75 934.857,507.54 933.337,507.398C 932.53,507.322 931.437,507.156 930.939,507.795C 929.523,509.612 929.461,512.16 928.853,514.381C 927.925,517.772 926.827,521.131 926.228,524.595 Z "/>
	<path fill="#000000" fill-opacity="1" stroke-width="0.2" stroke-linejoin="round" d="M 936.729,527.597C 936.57,529.514 936.438,531.434 936.331,533.354C 936.432,532.914 936.141,534.238 936.021,534.673C 936.008,534.722 935.992,534.77 935.978,534.818C 935.848,535.282 935.711,535.744 935.589,536.211C 935.227,537.603 934.731,539.097 935.072,540.495C 935.301,541.431 936.169,542.345 937.112,542.543C 938.764,542.89 941.017,540.288 940.422,538.708C 940.259,538.277 939.914,537.916 939.548,537.634C 939.005,537.215 938.171,537.512 937.491,537.597C 937.287,537.623 937.082,537.644 936.883,537.694C 936.315,537.839 936.312,538.283 936.415,537.876C 936.657,536.921 938.621,537.403 939.365,538.047C 939.934,538.54 939.558,539.834 940.253,540.123C 940.815,540.356 940.842,539.057 941.123,538.517C 941.824,537.166 942.659,535.825 942.949,534.331C 944.11,528.721 945.356,523.128 946.629,517.543C 947.151,515.252 947.509,512.917 947.692,510.574C 947.778,509.476 947.999,507.993 947.13,507.317C 945.923,506.38 944.075,506.643 942.566,506.883C 941.736,507.016 940.621,507.156 940.267,507.918C 938.974,510.706 939.343,513.997 938.776,517.018C 938.113,520.548 937.387,524.066 936.729,527.597 Z "/>
	<path fill="#000000" fill-opacity="1" stroke-width="0.2" stroke-linejoin="round" d="M 940.951,524.545C 941.157,526.921 941.691,529.256 942.095,531.606C 942.279,532.676 942.445,533.75 942.671,534.812C 942.901,535.894 943.203,537.184 944.125,537.794C 944.719,538.187 945.669,538.605 946.23,538.166C 948.016,536.769 948.216,533.972 948.373,531.711C 948.619,528.173 948.084,524.615 948.243,521.072C 948.358,518.498 948.766,515.885 949.684,513.478C 950.24,512.02 952.05,510.786 951.716,509.263C 951.376,507.721 950.544,506.156 949.293,505.192C 948.631,504.683 947.687,504.012 946.928,504.361C 944.429,505.511 943.003,508.477 942.161,511.095C 940.783,515.38 940.564,520.06 940.951,524.545 Z "/>
	<path fill="#000000" fill-opacity="1" stroke-width="0.2" stroke-linejoin="round" d="M 950.712,524.936C 950.528,527.176 950.576,529.429 950.528,531.675C 950.505,532.744 950.5,533.815 950.558,534.883C 950.611,535.857 950.71,536.961 951.345,537.701C 951.892,538.337 953.012,538.949 953.728,538.511C 955.127,537.656 955.875,535.905 956.307,534.324C 957.098,531.43 957.48,528.438 957.959,525.476C 958.786,520.358 960.688,515.319 960.528,510.137C 960.509,509.503 960.494,508.859 960.344,508.243C 960.293,508.031 960.121,507.853 959.944,507.726C 958.702,506.838 956.935,506.936 955.412,507.054C 954.603,507.117 953.498,507.138 953.113,507.852C 952.083,509.763 952.436,512.14 952.15,514.292C 951.677,517.841 951.005,521.368 950.712,524.936 Z "/>
	<path fill="#000000" fill-opacity="1" stroke-width="0.2" stroke-linejoin="round" d="M 182.269,544.317C 183.366,562.451 185.443,580.515 187.938,598.477C 189.415,609.114 191.215,619.694 193.107,630.248C 194.19,636.294 195.38,642.317 196.631,648.323C 197.319,651.628 198.028,654.929 198.784,658.216C 199.257,660.272 199.735,662.327 200.251,664.37C 200.848,666.73 201.47,669.087 202.258,671.377C 202.655,672.53 203.098,674.813 204.153,674.424C 204.677,674.23 204.508,673.215 204.43,672.606C 204.249,671.2 203.814,669.844 203.626,668.439C 203.165,665.001 203.044,661.511 202.544,658.079C 200.733,645.663 198.33,633.36 196.448,620.957C 191.525,588.517 187.801,555.667 187.446,522.772C 187.051,486.307 191.068,449.118 201.256,414.453C 204.671,402.835 208.984,391.522 213.866,380.569C 215.299,377.355 216.843,374.204 218.346,371.03C 218.974,369.703 219.619,368.376 220.094,366.973C 220.41,366.043 220.924,364.796 220.378,364.009C 219.787,363.156 218.36,364.172 217.552,364.767C 216.302,365.686 215.194,366.844 214.163,368.053C 210.971,371.796 208.866,376.558 206.747,381.146C 201.125,393.32 196.729,406.222 193.151,419.315C 182.203,459.37 179.745,502.549 182.269,544.317 Z "/>
	<path fill="#000000" fill-opacity="1" stroke-width="0.2" stroke-linejoin="round" d="M 137.534,501.031C 137.298,512.568 137.857,524.156 139.203,535.605C 140.001,542.392 140.956,549.166 142.232,555.869C 142.963,559.709 143.749,563.539 144.679,567.329C 145.19,569.415 145.702,571.501 146.282,573.566C 146.688,575.011 147.102,576.455 147.536,577.891C 147.936,579.217 148.402,580.523 148.923,581.8C 149.12,582.284 149.324,582.77 149.597,583.209C 149.733,583.429 149.971,583.77 150.197,583.668C 150.528,583.519 150.345,582.894 150.275,582.517C 150.212,582.173 150.107,581.839 150.017,581.501C 149.922,581.144 149.806,580.794 149.719,580.434C 149.403,579.136 149.304,577.788 149.077,576.468C 148.058,570.524 146.59,564.675 145.553,558.734C 142.319,540.206 140.493,521.24 140.975,502.398C 141.632,476.768 145.622,451.066 152.279,426.443C 154.527,418.126 157.036,409.887 159.74,401.727C 160.8,398.526 161.866,395.326 162.965,392.14C 163.621,390.239 164.804,388.262 164.451,386.27C 164.372,385.827 163.519,385.983 163.189,386.263C 162.526,386.828 161.983,387.548 161.474,388.275C 159.728,390.772 158.625,393.741 157.56,396.646C 154.53,404.914 151.959,413.376 149.553,421.878C 142.315,447.456 138.08,474.305 137.534,501.031 Z "/>
	<path fill="#000000" fill-opacity="1" stroke-width="0.2" stroke-linejoin="round" d="M 669.164,214.422C 668.401,216.45 667.877,218.562 667.341,220.662C 666.728,223.066 665.955,225.545 666.183,228.016C 666.295,229.229 667.392,230.731 668.611,230.748C 668.895,230.752 668.969,230.279 669.225,230.154C 670.396,229.584 671.153,228.307 671.682,227.117C 672.927,224.315 674.087,221.474 675.261,218.641C 677.076,214.262 679.465,210.142 681.681,205.951C 682.974,203.507 684.376,200.97 684.691,198.224C 684.792,197.342 683.599,196.719 682.786,196.363C 681.259,195.693 678.932,194.695 677.803,195.922C 675.997,197.886 675.445,200.709 674.314,203.125C 672.56,206.874 670.623,210.549 669.164,214.422 Z "/>
	<path fill="#000000" fill-opacity="1" stroke-width="0.2" stroke-linejoin="round" d="M 686.241,205.406C 687.998,205.684 690.001,206.082 691.577,205.255C 692.853,204.585 693.731,202.767 693.444,201.354C 693.038,199.353 690.014,199.054 688.083,198.389C 686.068,197.694 684.186,196.489 682.073,196.204C 681.734,196.159 681.386,196.133 681.046,196.176C 680.722,196.217 680.393,196.294 680.108,196.453C 678.631,197.271 678.947,199.651 678.732,201.325C 678.638,202.054 678.182,203.056 678.744,203.529C 679.56,204.217 680.821,204.023 681.863,204.258C 683.335,204.59 684.751,205.17 686.241,205.406 Z "/>
	<path fill="#000000" fill-opacity="1" stroke-width="0.2" stroke-linejoin="round" d="M 679.44,218.701C 680.428,218.708 681.478,218.185 682.118,217.432C 683.159,216.209 683.203,214.235 682.844,212.67C 682.661,211.875 681.427,211.849 680.668,211.551C 680.119,211.336 679.9,210.378 679.312,210.417C 678.231,210.488 677.713,211.889 677.024,212.725C 676.03,213.931 674.283,215.101 674.463,216.654C 674.548,217.383 675.694,217.467 676.366,217.761C 677.348,218.189 678.368,218.693 679.44,218.701 Z "/>
	<path fill="#000000" fill-opacity="1" stroke-width="0.2" stroke-linejoin="round" d="M 675.95,233.726C 678.136,234.138 680.43,234.48 682.617,234.067C 683.876,233.828 685.303,232.37 685.073,231.109C 684.556,228.27 680.391,227.55 677.644,226.666C 674.975,225.808 672.466,224.365 669.701,223.9C 669.234,223.821 668.76,223.761 668.287,223.774C 667.865,223.785 667.432,223.826 667.035,223.971C 665.84,224.409 666.007,226.336 665.838,227.597C 665.682,228.757 664.951,230.435 665.909,231.106C 667.027,231.888 668.566,231.73 669.888,232.069C 671.917,232.589 673.891,233.337 675.95,233.726 Z "/>
	<path fill="#000000" fill-opacity="1" stroke-width="0.2" stroke-linejoin="round" d="M 690.985,227.077C 690.689,228.19 690.632,229.355 690.517,230.501C 690.373,231.927 690.148,233.544 690.861,234.788C 691.383,235.7 692.736,236.342 693.747,236.056C 696.307,235.332 696.891,231.703 697.914,229.246C 699.077,226.451 701.323,223.993 701.694,220.988C 701.928,219.101 698.968,218.063 697.134,217.559C 696.412,217.361 695.424,216.804 694.899,217.337C 693.929,218.321 693.794,219.868 693.286,221.152C 692.506,223.122 691.529,225.029 690.985,227.077 Z "/>
	<path fill="#000000" fill-opacity="1" stroke-width="0.2" stroke-linejoin="round" d="M 701.567,210.121C 702.371,210.31 703.26,210.285 704.042,210.021C 705.365,209.576 706.895,208.4 706.947,207.005C 706.973,206.308 706.364,205.219 705.678,205.342C 705.114,205.443 704.736,206.012 704.359,206.444C 704.091,206.752 703.57,206.692 703.162,206.698C 702.012,206.717 702.417,206.333 702.713,206.804L 702.713,206.804C 702.921,207.195 704.22,206.502 703.897,206.199C 703.61,205.93 703.411,206.083 703.684,205.957C 704.126,205.754 704.655,205.776 705.083,205.545C 705.832,205.14 706.976,203.961 706.385,203.348C 705.339,202.264 703.222,202.054 701.9,202.778C 700.101,203.763 698.598,206.521 699.408,208.406L 699.408,208.406C 699.842,209.216 700.692,209.841 701.567,210.121 Z "/>
	<path fill="#000000" fill-opacity="1" stroke-width="0.2" stroke-linejoin="round" d="M 715.354,228.379C 715.612,228.206 714.804,228.091 714.529,227.946C 713.941,227.495 713.682,227.417 714.068,227.328C 714.362,227.261 714.25,227.912 714.252,228.214C 714.256,228.725 714.21,229.237 714.131,229.742C 713.913,231.131 713.536,232.495 713.129,233.841C 712.72,235.189 712.235,236.513 711.778,237.845C 711.241,239.412 710.492,241.026 710.621,242.677C 710.683,243.459 711.333,244.377 712.108,244.502C 712.525,244.569 712.703,243.875 713.086,243.694C 714.894,242.84 716.154,241.009 717.138,239.268C 719.105,235.788 721.047,231.945 721.091,227.948C 721.118,225.544 719.786,222.744 717.673,221.596C 715.446,220.593 712.482,221.502 710.457,222.869C 707.4,224.933 704.86,227.717 702.454,230.512C 702.069,230.958 701.69,231.409 701.309,231.858C 701.266,231.909 701.225,231.961 701.183,232.012C 700.647,232.672 700.11,233.332 699.521,234.057C 699.371,234.246 699.223,234.436 699.072,234.625C 699.034,234.671 698.916,234.806 698.957,234.762C 699.537,234.133 700.398,233.136 701.182,233.479C 702.909,234.235 704.383,235.561 705.622,236.983C 705.929,237.336 705.527,237.915 705.446,238.375C 705.369,238.816 704.952,239.338 705.516,238.469C 707.873,234.59 709.448,230.169 710.253,225.701C 710.485,224.416 711.05,222.661 710.08,221.787C 708.525,220.387 705.452,220.497 703.804,221.786C 702.655,222.684 702.681,224.481 702.243,225.871C 701.319,228.808 700.337,231.77 698.816,234.447C 698.284,235.357 697.159,236.662 697.849,237.459C 699.15,238.959 700.704,240.356 702.524,241.149C 703.145,241.42 703.773,240.621 704.37,240.302C 704.511,240.227 704.61,240.091 704.723,239.977C 705.749,238.95 706.479,237.665 707.367,236.517C 709.693,233.511 712.009,230.185 715.354,228.379 Z "/>
	<path fill="#000000" fill-opacity="1" stroke-width="0.2" stroke-linejoin="round" d="M 723.007,231.417C 722.54,233.673 722.29,235.969 721.903,238.24C 721.721,239.305 721.526,240.368 721.396,241.44C 721.277,242.413 721.141,243.505 721.593,244.376C 721.98,245.121 722.94,246 723.728,245.712C 725.659,245.005 726.768,242.787 727.587,240.901C 728.714,238.309 729.364,235.533 730.139,232.815C 731.599,227.693 733.952,222.789 734.8,217.531C 734.93,216.719 735.233,215.67 734.675,215.067C 733.638,213.946 731.892,213.658 730.374,213.49C 729.549,213.399 728.487,213.309 727.922,213.917C 726.417,215.537 726.504,218.109 725.933,220.246C 724.94,223.965 723.786,227.647 723.007,231.417 Z "/>
	<path fill="#000000" fill-opacity="1" stroke-width="0.2" stroke-linejoin="round" d="M 725.242,240.396C 726.094,243.052 728.439,245.092 730.672,246.763C 731.924,247.699 733.763,248.81 735.163,248.115C 736.311,247.544 737.039,245.597 736.415,244.476C 735.573,242.962 734.324,241.714 733.32,240.303C 732.896,239.707 731.999,239.087 732.236,238.395C 732.389,237.951 733.051,237.928 733.471,237.719C 734.366,237.272 735.324,236.962 736.259,236.606C 737.841,236.003 739.584,235.482 740.775,234.279C 741.384,233.663 740.856,232.511 740.584,231.69C 740.077,230.16 739.606,227.74 738,227.604C 736.333,227.462 734.808,228.628 733.275,229.299C 730.666,230.44 727.885,231.855 726.286,234.212C 725.112,235.942 724.604,238.406 725.242,240.396 Z "/>
	<path fill="#000000" fill-opacity="1" stroke-width="0.2" stroke-linejoin="round" d="M 738.167,242.198C 737.674,244.965 738.94,248.854 741.537,249.925C 744.839,251.286 748.719,249.369 752.25,249.901C 752.975,250.011 753.127,251.1 753.384,251.788C 753.79,252.873 755.55,254.582 756.293,253.693C 757.231,252.57 757.942,251.008 757.762,249.556C 757.512,247.536 756.079,245.474 754.265,244.553C 753.134,243.978 751.832,243.752 750.568,243.646C 749.738,243.577 748.902,243.588 748.07,243.606C 747.584,243.616 747.099,243.64 746.613,243.648C 746.353,243.653 746.093,243.641 745.832,243.644C 745.39,243.647 744.581,243.149 744.506,243.585C 744.445,243.936 745.091,244.079 745.16,244.427C 745.2,244.633 745.189,244.008 745.234,243.803C 745.315,243.432 745.444,243.072 745.564,242.712C 746.287,240.903 747.241,239.126 748.565,237.697C 749.088,237.132 749.672,236.606 750.333,236.214C 750.447,236.146 750.566,236.086 750.685,236.027C 751.355,235.691 751.326,235.593 751.299,235.857C 751.284,236 750.93,235.663 750.871,235.795C 750.49,236.644 751.472,237.566 751.606,238.486C 751.888,240.433 751.388,242.614 752.327,244.342C 752.912,245.416 754.659,245.432 755.874,245.288C 757.158,245.136 758.807,244.766 759.368,243.601C 759.94,242.413 759.621,240.97 759.59,239.652C 759.52,236.656 758.939,233.38 757.104,231.01C 755.852,229.394 753.746,228.216 751.706,228.104C 749.353,227.975 746.914,229.105 745.091,230.598C 742.076,233.069 740.044,236.729 738.684,240.382L 738.281,241.713L 738.167,242.198 Z "/>
	<path fill="#000000" fill-opacity="1" stroke-width="0.2" stroke-linejoin="round" d="M 780.757,249.172C 781.793,247.938 782.708,246.607 783.629,245.285C 782.424,246.635 779.488,246.754 778.203,245.48C 777.842,245.122 777.564,244.67 777.381,244.196C 777.343,244.097 777.312,243.996 777.283,243.894C 777.258,243.809 777.239,243.724 777.222,243.638C 777.207,243.566 777.196,243.493 777.186,243.42C 777.179,243.369 777.173,243.318 777.17,243.266C 777.104,242.299 777.171,242.624 777.193,242.626C 777.482,242.658 777.125,243.205 777.06,243.489C 776.896,244.216 776.733,244.943 776.566,245.67C 776.204,247.248 775.802,248.817 775.451,250.398C 775.021,252.332 774.593,254.289 774.524,256.269C 774.482,257.476 774.716,259.413 775.906,259.619C 776.487,259.72 777.026,259.189 777.479,258.812C 779.236,257.353 780.062,255 780.9,252.876C 782.255,249.446 784.783,245.877 784.036,242.266C 783.784,241.052 782.594,239.882 781.372,239.668C 780.191,239.462 778.821,240.151 778.065,241.081C 776.203,243.443 774.223,245.781 771.833,247.607C 770.908,248.313 769.959,249.009 768.916,249.521C 768.443,249.754 766.874,249.968 767.401,249.97C 768.241,249.819 767.768,250.701 767.955,250.38C 768.262,249.853 767.984,249.157 768.065,248.553C 768.22,247.408 768.476,246.278 768.678,245.141C 768.857,244.136 769.068,243.134 769.164,242.118C 769.295,240.724 769.732,239.155 769.078,237.917C 768.685,237.174 767.569,236.906 766.734,236.992C 765.092,237.162 763.022,237.325 762.078,238.678C 761.252,239.862 761.404,241.486 761.094,242.896C 760.372,246.178 759.464,249.792 760.575,252.964C 761.32,255.091 763.439,256.88 765.614,257.47C 771.255,258.617 776.771,253.324 780.757,249.172 Z "/>
	<path fill="#000000" fill-opacity="1" stroke-width="0.2" stroke-linejoin="round" d="M 786.556,246.289C 785.612,250.089 785.026,253.977 784.555,257.864C 784.386,259.264 784.135,260.738 784.523,262.094C 784.772,262.963 785.705,263.76 786.606,263.829C 786.915,263.853 787.002,263.327 787.278,263.186C 788.143,262.746 788.961,262.021 789.334,261.126C 790.035,259.437 790.667,257.719 791.26,255.99C 793.189,250.373 794.485,244.479 797.169,239.181C 797.487,238.553 797.824,237.935 798.195,237.337C 798.331,237.119 798.474,236.907 798.62,236.696C 798.744,236.516 798.931,236.382 799.038,236.192C 799.251,235.817 798.227,236.554 797.795,236.554C 797.43,236.554 797.058,236.466 796.725,236.317C 796.622,236.271 795.406,235.942 796.272,235.954C 797.445,235.97 797.432,238.359 798.577,238.615C 800.697,239.091 803.312,237.507 804.357,235.602C 804.943,234.535 803.795,233.196 803.184,232.143C 801.756,229.678 797.624,227.976 795.116,229.327C 792.508,230.73 791.058,233.801 789.926,236.537C 788.611,239.715 787.385,242.951 786.556,246.289 Z "/>
	<path fill="#000000" fill-opacity="1" stroke-width="0.2" stroke-linejoin="round" d="M 791.859,245.618C 793.664,246.143 796.023,246.721 797.498,245.555C 798.317,244.908 798.818,243.714 798.724,242.674C 798.551,240.776 796.181,239.696 794.474,238.845C 792.95,238.085 791.573,236.972 789.941,236.485C 788.684,236.11 786.659,235.638 786.017,236.782C 785.395,237.891 785.878,239.343 786.092,240.597C 786.284,241.718 786.013,243.052 786.705,243.955C 787.107,244.48 788.024,244.117 788.656,244.31C 789.758,244.648 790.751,245.296 791.859,245.618 Z "/>
	<path fill="#E6003C" fill-opacity="1" stroke-width="0.2" stroke-linejoin="round" d="M 624.454,221.25C 630.931,222.694 642.748,226.208 643.957,225.25C 649.782,220.63 653.469,214.342 657.667,208.206C 659.339,205.763 661.884,203.434 663.501,200.955C 665.271,198.244 672.736,192.71 669.752,191.454C 663.572,188.851 647.8,186.129 646.666,187.036C 637.553,194.324 632.67,204.954 625.454,214.124C 624.573,215.244 623.766,216.425 622.829,217.499C 622.054,218.387 621.162,219.166 620.329,219.999C 619.313,221.015 623.052,220.937 624.454,221.25 Z "/>
	<path fill="none" stroke-width="5.0007" stroke-linejoin="round" stroke="#000000" stroke-opacity="1" d="M 684.395,164.378C 701.437,169.7 724.229,174.378 743.166,178.809C 755.434,181.68 782.407,187.829 784.618,184.582C 787.563,180.256 771.644,177.296 766.433,176.298C 751,173.341 721.887,166.994 710.004,163.656C 698.915,160.542 678.408,154.457 676.381,158.786C 675.368,160.951 683.539,164.111 684.395,164.378 Z "/>
	<path fill="none" stroke-width="4.00056" stroke-linejoin="round" stroke="#000000" stroke-opacity="1" d="M 835.987,281.299C 829.468,295.756 823.265,310.354 816.734,324.805C 813.584,331.774 806.858,343.433 808.733,346.308C 810.703,349.329 815.298,336.434 817.734,331.056C 822.657,320.19 832.449,296.28 837.112,285.3C 839.42,279.864 838.414,275.915 835.987,281.299 Z "/>
</svg>
