<svg xmlns="http://www.w3.org/2000/svg" xmlns:xlink="http://www.w3.org/1999/xlink" version="1.1" baseProfile="full" width="1437.2" height="1362.3" viewBox="0 0 1437.22 1362.33" enable-background="new 0 0 1437.22 1362.33" xml:space="preserve"><style>.style0{stroke-linejoin:	round;stroke-width:	8.00112;fill:	#F4DCCC;}.style1{stroke-linejoin:	round;stroke-width:	8.00112;fill:	#BDBDBD;}.style2{stroke-linejoin:	round;stroke-width:	8.00112;fill:	#0087FF;fill-opacity:	0.435294;}.style3{stroke-linejoin:	round;stroke-width:	8.00112;fill:	#0078E9;}.style4{stroke-linejoin:	round;stroke-width:	8.00112;fill:	#F4E8C5;}.style5{stroke-linejoin:	round;stroke-width:	8.00112;fill:	#000000;fill-opacity:	0.376471;}.style6{stroke-linejoin:	round;stroke-width:	0.2;fill:	#000000;}.style7{stroke-linejoin:	round;stroke-width:	8.00112;fill:	#E6003C;}.style8{stroke-linejoin:	round;stroke:	#000000;stroke-width:	5.0007;fill:	none;}.style9{stroke-linejoin:	round;stroke:	#000000;stroke-width:	4.00056;fill:	none;}</style><path d="M 129.1 1072.85C 129.8 1081.3 137.4 1087.7 142.1 1094.85C 161.4 1124.3 186.6 1149.5 211.1 1174.87C 233.4 1197.9 252.4 1227.8 282.1 1239.87C 288.5 1242.5 296.1 1248.1 302.1 1244.88C 312.9 1239.2 308.2 1221 314.6 1210.65C 329.6 1186.1 344.1 1160.8 354.1 1133.86C 360.2 1117.7 363.3 1100 372.4 1085.34C 391.9 1054 411.3 1022.8 430.4 991.241C 436.2 981.7 437.6 969.7 444.3 960.851C 476.7 918.2 528.3 893.4 563.2 852.82C 587.4 824.6 587.2 780.3 611.8 752.364C 636.5 724.3 668.8 703.9 695.6 677.728C 715.4 658.4 730 633.9 750.7 615.488C 774.1 594.6 796.9 569 805.2 538.776C 807.5 530.4 811.9 520.1 807.2 512.773C 792.4 489.4 754.4 468.3 730.2 481.768C 719.1 488 713.6 501.1 704.2 509.772C 686.7 525.9 667 540.4 653.2 559.779C 634.7 585.7 614.9 614.2 586.2 627.789C 562.3 639.1 526 639.8 507.1 621.312C 499.1 613.5 496.5 601.5 490.7 591.786C 482.7 578.2 469.5 568.2 461.2 554.779C 445.2 528.8 442.2 496 446.1 465.722C 450.3 432.7 468.6 402.6 485 373.648C 501.5 344.7 521.8 317.1 546.8 295.116C 563.4 280.5 570.5 257.6 580.2 237.734C 587.8 222.1 609.3 197.9 595.2 187.727C 568.1 168.2 533.8 215.6 507.2 235.734C 498.8 242.1 493.1 253.2 483 256.073C 442.2 267.9 396 226.8 356.1 241.735C 305.9 260.6 304.8 336 282.9 384.997C 269.5 415.1 238.9 438.3 234.1 470.823C 230.1 497.3 237.8 524.3 241.7 550.782C 253.2 630.9 272.9 710.4 274.1 791.27C 274.5 815.1 276.2 839.2 273.1 862.822C 267.1 908.7 233.2 947.2 204.8 983.772C 186.2 1007.8 161.8 1026.9 143.1 1050.85C 137.8 1057.7 128.4 1064.2 129.1 1072.8 Z " class="style0"/><path d="M 964.1 371.21C 969.6 377.3 960.8 387.3 959.1 395.374C 954.7 415.5 950.2 435.6 946.7 455.889C 941.7 485.4 938.7 515.2 932.7 544.568C 930.1 557.7 936.9 574.5 928.1 584.573C 922.5 590.9 911.2 583.7 902.7 583.24C 893.5 582.7 884.3 581.9 875 582.045C 865.8 582.2 856.6 582.9 847.4 583.907C 827.8 586.1 825.1 588.3 805.6 591.75C 790.3 594.4 795.7 594.1 776.1 594.501C 757.6 594.9 786.1 575.1 791.4 567.247C 808.9 541.2 814.6 522.3 803.4 503.738C 794.1 488.5 762.1 483.7 762.9 480.985C 766.8 466.5 769 470.9 775.4 457.222C 783.2 440.3 783.6 419.8 794.2 404.424C 808.9 382.9 845.9 396 870.7 387.879C 893.9 380.3 918.9 379.3 942.7 373.877C 949.7 372.3 959.2 365.9 964.1 371.2 Z " class="style1"/><path d="M 866.6 401.599C 844.2 431.7 847.5 474.1 840.6 510.947C 839.1 518.7 836.9 526.4 835.8 534.273C 833.6 549.4 817.7 580.8 832.9 579.957C 916.9 575.5 1000.4 559.5 1084.6 559.497C 1112.3 559.5 1139.9 556.7 1167.6 554.953C 1181.3 554.1 1200 557.8 1207.9 546.619C 1219.6 530.3 1208 506.6 1207.3 486.611C 1206.3 459.8 1218.6 434 1221 407.266C 1222.6 388.4 1227.4 369.9 1232.5 351.592C 1234 345.8 1241.4 336.5 1236 333.923C 1210.7 322.1 1181.1 343.8 1153.6 348.591C 1108.3 356.4 1062.4 362.6 1018.2 375.595C 981.9 386.3 943.5 388.1 906.2 395.264C 893.1 397.8 874.5 390.8 866.6 401.6 Z " class="style2"/><path d="M 680.4 385.731C 665.4 391.4 654.4 424.2 668.3 432.238C 671.4 434 671.5 425.9 672.5 422.486C 675.5 412.7 676.7 402.4 680.9 393.107C 683.8 386.9 685.6 383.8 680.4 385.7 Z " class="style3"/><path d="M 692.8 409.148C 688.9 415.6 675.3 426.4 682.8 427.487C 686.8 428.1 688 421.1 690.1 417.611C 692 414.2 694.8 405.8 692.8 409.1 Z " class="style3"/><path d="M 639.4 343.6C 624.9 348.6 618.4 370.7 614.2 385.468C 610.1 399.8 620.4 441.9 620.6 426.974C 620.7 415.7 619.3 406 620.9 394.693C 623.4 377 637.7 360.2 643.7 343.338C 644.2 341.9 640.8 343.1 639.4 343.6 Z " class="style3"/><path d="M 662.7 364.603C 646.7 367 639.6 389.5 636.7 405.359C 634.9 414.8 641.7 431.5 645.2 432.863C 648.1 434 646.3 426.3 645.2 423.361C 641.7 414.3 643.5 404.1 646.9 395.108C 649.1 389.4 655.2 382.9 659 378.105C 662.4 373.9 667.9 363.8 662.7 364.6 Z " class="style3"/><path d="M 610.1 232.877C 637.5 237.7 665 242.8 692.1 249.546C 718.8 256.2 746.3 264.4 772.6 272.328C 782.7 275.4 795.7 280.5 803.5 273.5C 818.7 260.1 817.5 240.8 827.1 217.541C 829.8 211.2 813.8 213.7 807 212.627C 754.9 204.4 690.4 181.3 638.6 171.48C 634.3 170.7 596.6 230.5 610.1 232.9 Z " class="style4"/><path d="M 602.6 775.516C 603.2 780.5 619 797.2 626.5 791.454C 637.7 782.8 639.3 766.2 644.8 753.199C 649.2 742.6 668.5 717.8 657.5 721.194C 643.6 725.5 600.6 758.9 602.6 775.5 Z " class="style1"/><path d="M 445.8 520.021C 457.6 485.5 476.2 453.6 491.1 420.323C 498.4 403.9 505.8 387.5 513.1 371.03C 515.1 366.6 517.1 362.2 519.1 357.728C 521.1 353.4 523 349.2 524.9 344.867C 530.8 331.9 536.6 319 542.8 306.18C 543.5 304.7 544.2 303.2 545 301.78C 545.3 301.3 545.5 300 545.9 300.324C 556.7 308.7 540.8 327.2 537.7 340.494C 530.5 371.9 531.1 404.6 529 436.795C 527.8 456.1 526.9 456.8 527.4 460.346C 532.7 494.9 532.7 536.5 557.8 560.693C 573.9 576.2 597.9 585.1 620.3 585.069C 627.3 585.1 634.1 581.3 640.2 577.697C 640.8 577.3 641.5 577.1 642.2 577.029C 642.4 577 642.4 577.4 642.4 577.604C 642.4 595.8 615.5 602.7 599.8 612.033C 576.5 626 545.5 634.9 519.4 626.98C 495.8 619.8 487.3 589.3 473.4 568.805C 466.7 558.9 460.9 548.4 455.4 537.8C 452.3 531.8 443.7 526.4 445.8 520 Z " class="style1"/><path d="M 649 741.075C 647 744.8 645 748.6 643 752.381C 640.9 756.1 638.8 759.8 636.8 763.594C 634.8 767.4 632.9 771.4 630.9 775.264C 630.1 776.8 629.2 778.4 628.4 779.93C 627.6 781.6 626.7 783.2 626.1 784.98C 624.8 788.5 624.9 795.3 628.1 796.202C 659.4 804.8 674.1 740.3 686 705.013C 687.2 701.3 683.8 693.6 680.6 694.931C 663.4 702.1 654.2 725.4 644.1 743.5" class="style1"/><path d="M 755.7 459.243C 759.3 446.3 765.2 435.7 770 424.045C 781.4 396.5 790.2 365.9 802.3 340.727C 812.4 319.7 821.6 294.6 831.3 271.967C 840.8 249.7 852.5 230 862.2 208.196C 866.7 198 873.7 178.1 875.5 183.955C 877.9 191.4 881.9 199 877.1 213.709C 864.6 252.4 843.5 289.5 828.8 325.014C 813.9 360.9 799.2 397.3 784.4 433.401C 778.2 448.6 766.7 475.5 760.2 480.247C 758.3 481.7 761.8 480.4 760.2 480.247C 751.6 479.5 751.7 478.9 747.9 479.2" class="style1"/><path d="M 851.5 575.67C 897.4 574 943.1 569 988.9 566.669C 1014.8 565.3 1040.9 565.9 1066.5 562.335C 1085.2 559.7 1104.1 560 1122.9 559.668C 1126.1 559.6 1129.4 559.3 1132.6 558.936C 1135.8 558.6 1139 557.9 1142.2 557.668C 1146 557.4 1149.7 557.6 1153.4 557.501C 1157.1 557.4 1160.8 557.6 1164.6 557.334C 1176.7 556.5 1188.8 555.7 1200.8 553.971C 1203.4 553.6 1206.5 556.2 1207.1 558.757C 1208 562.6 1165.8 565.6 1140.7 567.101C 1062.8 571.9 1109.2 570.1 1045.7 571.602C 1043.9 571.6 902.3 577.1 900.5 577.337C 896.2 577.9 891.9 578.3 887.5 578.671C 886 578.8 884.4 578.5 882.9 578.671C 876.4 579.2 870 580.2 863.5 580.671C 862.2 580.8 831.1 583.7 831.2 582.338C 831.6 575.2 844.4 575.9 851.5 575.7 Z " class="style1"/><path d="M 1238.5 336.89C 1212.6 360.8 1224.7 406 1216.5 440.238C 1211.2 462.4 1209.4 485.2 1207.8 507.914C 1207.4 513.6 1206.9 519.2 1206.5 524.916C 1206.3 527.4 1206 529.9 1206.2 532.462C 1206.3 535 1206.9 537.4 1207.2 539.919C 1207.4 542.4 1207.6 545 1207.2 547.464C 1205.1 561 1201.2 560.6 1206.3 559.418C 1218.6 556.5 1216.5 535.8 1217.7 523.244C 1221.6 484 1226 444.7 1232.8 405.9C 1235.7 389.7 1236.5 373.1 1239.5 356.893C 1240 354.2 1240.9 351.6 1241.6 348.904C 1244.4 336.5 1240.3 335.2 1238.5 336.9 Z " class="style1"/><g><path d="M 512.9 324.425C 510 316.6 516.6 311.7 521.7 308.173C 533.6 300 545.5 290 551.9 277.043C 561.2 258.5 556.6 265.5 557.8 266.167C 570.2 273.3 547.7 295 535.9 303.047C 527.3 309 516.5 334.2 512.9 324.4 Z " class="style5"/><path d="M 449.9 427.324C 450.3 398.8 472.2 378.7 483 351.395C 487.6 339.8 495.2 329.4 498.5 311.617C 499.4 306.9 502.7 321.8 502.3 326.589C 499.5 361.2 482.6 378.5 467.7 402.55C 463.9 408.7 460.9 415.2 457.9 421.636C 453.3 431.5 449.7 445 449.9 427.3 Z " class="style5"/><path d="M 474.6 576.306C 462.8 571.1 432 541.3 429.7 530.461C 424.6 506.9 436.9 459 440.7 435.533C 441.5 430.2 434.2 410.1 442.3 419.571C 445.8 423.7 446.7 424.6 447.8 427.525C 453.4 442.2 447.4 458.1 445.2 473.078C 441.2 499.5 440 519 453.3 538.634C 465.1 556.1 475.7 576.8 474.6 576.3 Z " class="style5"/><path d="M 544.6 744.862C 554.8 746.2 572.7 732.3 572.8 721.025C 572.8 717.5 540 744.3 544.6 744.9 Z " class="style5"/><path d="M 560.6 269.126C 564.1 267 564.7 260.9 563.3 257.031C 561 250.7 555 245.7 548.9 242.9C 545.7 241.4 552.3 253.9 555.5 258.375C 557.8 261.6 559.2 270 560.6 269.1 Z " class="style5"/><path d="M 506.2 329.12C 507.4 334.9 516.4 325.1 510 316.633C 507.2 312.8 505.3 307.8 501.2 305.298C 486.9 296.7 493.4 302.7 493.8 303.131C 506.4 313.1 504 319.3 506.2 329.1 Z " class="style5"/><path d="M 454.8 427.148C 451 420.2 445.4 413.6 437.7 411.631C 419.3 407 415.8 412.1 423.8 411.798C 432.3 411.4 446.7 416.8 450.9 433.399C 451.5 435.6 454.2 430 454.8 427.9" class="style5"/><path d="M 396.8 286.114C 405.5 300.9 413 331 416.8 326.967C 438.3 303.8 388.5 272.2 396.8 286.1 Z " class="style5"/><path d="M 407.3 308.284C 399 330.6 388.7 346 378.5 361.88C 357.1 395.4 328.8 422.9 304.6 454.461C 301.7 458.2 296.6 463.1 295.1 467.588C 294 470.8 293.9 469.6 290.6 481.214C 287.3 492.6 305.1 460.1 313.9 452.041C 337.7 430.2 362.6 408.9 381.6 382.812C 393.4 366.6 404.3 349.7 413.3 331.805C 415.8 326.8 409.3 303 407.3 308.3 Z " class="style5"/><path d="M 311.3 590.081C 309.1 726.5 287.2 660.7 309.1 590.6" class="style5"/><path d="M 502.9 634.731C 498.2 652.9 572.2 647.1 559.1 643.776C 551.4 641.9 543.4 641.8 535.6 640.71C 531 640.1 526 639.2 521.4 638.398C 501.3 634.8 503.8 631.4 502.9 634.7 Z " class="style5"/><path d="M 725.2 564.006C 732.1 569.1 738.4 575.1 744.4 581.258C 745.7 582.6 751.3 589.8 752.2 591.451C 752.5 592.1 759.1 585.1 758.4 584.2C 750.6 574 738.8 561.7 725.9 562.5" class="style5"/><path d="M 709.4 582.508C 715.7 588.2 721.9 594.6 729.7 597.926C 730.3 598.2 741.1 604.9 741.5 604.421C 747.4 598 745.5 600 745.5 599.967C 746.7 598.7 723.9 580.3 710.4 579.8" class="style5"/><path d="M 687.7 610.596C 692.1 622.8 702.3 639.9 713.9 634.064C 715 633.5 724.6 625.7 718.4 626.438C 702 628.4 683.2 598.2 687.7 610.6 Z " class="style5"/><path d="M 468.6 940.226C 444.8 940.1 424.5 988.5 409.3 1006.9C 359.9 1066.5 324.2 1136.9 291.2 1206.93C 285.8 1218.6 280.7 1230.5 274.7 1241.94C 271.6 1248.1 296.3 1247.9 297.4 1247.08C 324.1 1228.1 335.3 1139.6 370.2 1088.43C 397.1 1049.1 422.2 1008.6 448.2 968.734C 462.8 946.3 472.2 940.2 468.6 940.2 Z " class="style5"/><path d="M 804.6 516.512C 791.4 521.7 790.9 541.5 782.6 553.184C 765.3 577.7 745.6 600.5 725.3 622.527C 663.4 689.6 583.7 748.8 551.8 834.325C 545.2 852.1 537 866.1 524.3 880.197C 504.8 901.8 476.4 918.1 451.9 933.904C 448.7 936 446.3 942.6 449.1 945.116C 456.6 951.7 465.7 934.1 474.1 928.74C 509.8 906.1 549.1 880 565.9 841.224C 580.8 807 596.8 772 621.3 743.877C 649 712.1 687.7 691.6 718 662.199C 748.2 632.8 767.6 594 795.1 562.08C 803.1 552.8 810.8 541.9 812.5 529.778C 813.2 524.7 809.4 514.6 804.6 516.5 Z " class="style5"/></g><path d="M 512.1 329.307C 520.2 319 529.9 300.2 542.4 304.304C 547.4 306 537.4 313.7 534.9 318.404C 528.6 330.4 522.8 342.8 517.6 355.311C 510.1 373.5 495.4 356.8 496.6 351.129C 498.7 341.4 506.3 331 515.9 328.3" class="style1"/><path d="M 466.7 412.402C 477.9 426.8 486.7 429.3 479.1 445.803C 474.4 456.1 459.3 504.3 451.7 495.889C 438.9 481.6 450 436.5 466 413.7" class="style1"/><path d="M 397.8 348.767C 379.7 378.3 360.7 409 333.4 430.299C 318.6 441.7 303.7 454.5 295.1 470.965C 293.1 474.8 291.6 478.9 290.7 483.056C 290.4 484.7 290.1 486.5 290 488.189C 290 489 289.9 489.9 290 490.717C 290 491.3 290.1 492 290.2 492.579C 290.3 493.4 290.5 495.1 291.3 494.866C 292.4 494.5 292.1 492.6 292.2 491.452C 292.4 489.6 292.5 487.8 293.1 486.044C 294.6 480.9 297.3 476.1 300.1 471.573C 309.2 456.9 323.2 445.5 337 435.22C 350 425.5 361.4 413.6 371.5 400.971C 388.4 379.8 401.6 355.9 416.3 333.243C 447.9 286.4 494 250.7 538.6 216.203C 550.3 207.1 561.5 196.5 575.3 191.013C 579.4 189.4 583.8 188.4 588.1 188.775C 589.8 188.9 591.4 189.2 593 189.514C 593.8 189.6 595.1 190 595.4 189.224C 595.9 188.3 594.9 187.1 594.2 186.388C 592.7 185 590.9 183.9 589 183.201C 583.8 181.4 577.8 182.2 572.7 184.008C 558 189.2 546.1 200.3 533.8 209.931C 488.5 244.9 442.1 281.7 410.2 329.255C 406 335.7 401.9 342.2 397.8 348.8 Z " class="style6"/><path d="M 251.9 696.515C 259.2 754.8 263.6 814.7 253.6 872.578C 249.6 892.9 242 912.6 232 930.677C 215.9 959.4 194.6 985 173.3 1010.04C 161.8 1023.6 150.1 1036.9 139.2 1050.87C 135.4 1055.7 131.6 1060.6 128.1 1065.71C 126.9 1067.4 125.8 1069.1 124.7 1070.89C 124.2 1071.8 123.5 1072.7 123.5 1073.7C 123.5 1074 124.1 1073.8 124.3 1073.68C 124.4 1073.6 124.6 1073.4 124.7 1073.29C 125.2 1072.8 125.6 1072.4 126 1071.88C 127.7 1070 129.2 1067.9 130.8 1065.95C 134.5 1061.2 138.5 1056.6 142.6 1052.12C 155 1038.5 167.3 1024.7 179.5 1010.74C 201.4 985.6 223 959.6 239.1 930.371C 248.8 912.8 256.1 893.5 260 873.784C 267.2 833.7 267.7 792.4 264.8 751.784C 260.7 693.4 250.2 635.7 244.4 577.507C 240.6 539.4 239.6 500.7 243.5 462.541C 245 451 251.8 440.4 259 431.226C 269.5 418 281.4 405 287 389.001C 296.3 358.7 301.8 327 314.4 297.92C 319.7 285.7 326.6 273.7 336.2 264.414C 342.1 258.7 349.2 254.2 356.7 251.07C 365.9 247.6 376.1 246.4 385.9 247.09C 400.8 248.1 415.3 251.7 429.8 254.793C 437.9 256.5 446.1 258 454.3 258.55C 457.2 258.7 460 258.8 462.9 258.481C 464.3 258.3 466.1 258.5 467.1 257.45C 467.5 257 466.2 256.4 465.6 256.242C 464.8 256 464 255.8 463.2 255.561C 460.4 254.9 457.6 254.3 454.8 253.698C 446.5 251.8 438.2 249.6 429.9 247.467C 414.5 243.5 398.7 239.9 382.8 239.225C 373 238.8 363 240.4 353.9 243.772C 346.1 247 338.8 251.4 332.6 257.037C 322.6 266 315.1 277.8 309.3 289.949C 294.9 320.4 289.4 354.4 279.5 386.647C 273.4 404.4 258.6 417.9 247.8 433.258C 242 441.7 237.2 451.5 235.9 461.714C 232.9 491.8 232.9 522.2 234.9 552.307C 238.1 600.6 246.1 648.5 251.9 696.5 Z " class="style6"/><path d="M 391.6 1064.19C 402 1047.2 412.9 1030.6 423.8 1013.92C 430.3 1004 436.9 994.2 443.3 984.238C 447 978.5 450.7 972.8 454.3 967.07C 456.3 963.9 458.2 960.7 460.1 957.495C 461.5 955.1 462.9 952.8 464.3 950.406C 465.4 948.4 466.5 946.3 467.4 944.229C 468 943 469.4 940.8 468.1 940.199C 467.3 939.8 466.5 941.3 466 942.106C 465.1 943.4 464.4 944.8 463.4 945.99C 459.2 951 455.3 956.3 451.6 961.742C 442.4 975.3 433.1 988.7 423.9 1002.19C 395.1 1044.1 366.5 1086.7 344.9 1132.72C 338 1148 331.7 1163.7 325.4 1179.24C 321.3 1189.5 317.1 1199.8 312.6 1210.01C 310.3 1215.3 307.9 1220.6 305.3 1225.84C 303.9 1228.9 302.3 1232 300.7 1235.06C 299.9 1236.7 299 1238.3 298.2 1239.96C 297.7 1240.9 297.2 1241.8 296.8 1242.81C 296.2 1244.2 295.2 1247.1 296.7 1247.31C 298.8 1247.7 300.7 1245.5 302.3 1243.96C 304.7 1241.7 306.9 1239 308.5 1236.09C 313.1 1228 317 1219.6 320.7 1211.1C 331.8 1186.3 340.9 1160.7 351.9 1135.88C 363.3 1111.1 377 1087.3 391.6 1064.2 Z " class="style6"/><path d="M 699.4 506.356C 670.7 535.6 647.9 570.3 617.9 598.048C 606.1 608.9 592.8 618.8 577.8 624.492C 567.5 628.4 556.2 630.1 545.2 629.566C 531 628.6 515.9 625.4 504.4 617.058C 494.5 609.9 487.8 598.2 484.4 586.555C 480.3 572.3 472.2 559.4 464.2 546.888C 457 535.7 449.6 524.1 446.9 511.125C 442.9 487.3 454.4 463 453.1 438.784C 452.8 432.8 451.3 426.4 447.7 421.513C 444.6 417.2 439.6 414.1 434.4 412.55C 431.1 411.6 427.6 411 424.1 410.799C 422.4 410.7 420.1 410 419.2 411.296C 418.9 411.7 420 411.9 420.5 412.009C 421.5 412.2 422.5 412.3 423.5 412.513C 426.4 413 429.4 413.5 432.2 414.365C 435.9 415.5 439.7 417.2 442.4 420.044C 445.3 423.1 447.4 427.1 448.2 431.206C 450.3 441.1 448.2 451.5 446.4 461.483C 443.3 478.1 438.9 495.3 441.6 512.08C 447.1 539.7 471 561 478.6 588.092C 482.2 601.1 489.7 614.1 500.6 622.164C 513 631.3 529.4 635 544.8 636.133C 556.7 636.8 569 635 580.2 630.801C 598.3 624 614.3 611.5 628.1 597.874C 663.3 563 689.9 518.6 730.1 489.508C 736.7 485.1 745.3 483.6 753.2 483.852C 768 484.4 783.5 490.1 794.7 499.776C 800.2 504.5 805 511 806.5 518.083C 808.2 527.5 804.5 537.8 799.6 546.073C 793 557.2 784.4 566.9 776.9 577.453C 734.5 638.5 680.5 691.6 623.8 739.691C 611.4 750.3 601.8 764.2 594.1 778.57C 579.6 805.7 570.3 836.2 550.9 860.016C 532.2 881.9 508.5 899.2 485.3 916.259C 476.4 922.8 467.5 929.3 459.1 936.369C 456.2 938.8 453.4 941.2 450.8 943.832C 449.2 945.4 446.9 946.9 446.6 949.059C 446.5 949.7 448 949.2 448.7 948.865C 449.6 948.4 450.4 947.9 451.3 947.447C 454.4 945.6 457.4 943.7 460.4 941.715C 468.8 936.3 477.1 930.8 485.3 925.184C 511 907.6 536.6 888.7 556.9 865.051C 576.1 841.7 585.8 811.9 599.7 785.049C 607.2 770.6 616.5 756.4 628.8 745.738C 686.1 697.2 740.4 643.4 783.1 581.69C 791.6 569.7 801.5 558.7 808.3 545.766C 812.9 537 815.6 526.4 813.8 516.638C 811.8 508 806.2 500 799.5 494.199C 786.2 482.8 767.6 476.2 750.1 476.541C 741.7 476.7 732.9 478.9 725.9 483.575C 716.4 490.4 707.5 498.1 699.4 506.4 Z " class="style6"/><path d="M 498.9 361.149C 504.5 348.3 509.2 333.5 506.3 319.836C 505.4 315.6 503.9 311.5 501.5 307.913C 500.8 306.8 499.9 305.6 499 304.634C 498.3 303.9 497.7 303.3 496.9 302.654C 496 301.9 494 300.9 493.4 301.949C 493 302.9 494.5 303.7 494.9 304.673C 495.6 306.2 496.1 307.8 496.8 309.289C 499.2 314.1 500.7 319.5 500.9 324.881C 501.3 340.1 494.4 355.1 487.1 368.496C 478.6 383.9 468.6 398.2 459.7 413.324C 457.1 417.6 454.8 422 452.7 426.541C 451.9 428.2 451.1 429.9 450.5 431.693C 450.1 432.8 449.6 434.3 450.3 435.226C 451.4 436.8 454.4 435.6 456 434.445C 458.5 432.6 459.7 429.5 461.2 426.741C 465.3 419 469.9 411.5 474.5 404.049C 483.1 390 492.3 376.2 498.9 361.1 Z " class="style6"/><path d="M 561.4 286.678C 566.5 276.5 563.4 262.5 557.7 252.612C 556.6 250.8 555.4 249.1 554.1 247.453C 552.9 246 551.6 244.4 550 243.348C 549 242.7 547.3 241.8 546.6 242.717C 546.2 243.2 546.9 244 547.2 244.539C 547.7 245.2 547.8 246.2 548.1 246.925C 549.6 250.1 551.6 252.9 553 256.069C 557 264.7 559.4 276.6 554.2 284.568C 545.9 295.7 533.4 302.8 522.9 311.747C 519.2 314.9 515.7 318.5 513 322.545C 511.7 324.6 509.9 326.7 509.9 329.101C 509.9 330 511 330.9 511.9 331.051C 513.8 331.3 516.1 330.7 517.5 329.352C 518.9 327.9 519.9 326.1 521.2 324.531C 523.3 322.1 525.7 319.8 528.1 317.71C 538.9 308.2 551.7 300.4 560.1 288.686L 561.1 287.244L 561.4 286.7 Z " class="style6"/><path d="M 604 192.292C 608.3 183.1 612.3 173.8 616.2 164.456C 618.2 159.8 620.1 155.1 621.9 150.384C 622.8 147.9 623.8 145.3 624.7 142.798C 625.2 141.4 625.6 139.9 626.1 138.46C 626.4 137.4 626.7 136.4 626.9 135.292C 627.2 133.8 627.6 130.9 626.2 130.926C 625 130.9 625 132.8 624.3 133.719C 622.4 136.4 620.8 139.2 619.4 142.161C 615.8 150.1 612.1 158 608.4 165.956C 596.8 190.6 584.2 214.8 572.4 239.357C 570 244.5 567.6 249.6 565.3 254.756C 565.1 255.1 565 255.5 564.8 255.897C 564.1 257.5 563.4 259.2 562.7 260.846C 562.3 261.9 561.9 262.9 561.5 263.904C 561.3 264.4 561.1 264.9 560.9 265.422C 560.4 266.8 559.9 268.2 559.4 269.58C 559.3 270 559.1 270.4 559.1 270.814C 558.8 271.9 559.2 273.6 560.3 273.842C 562.9 274.4 565.7 272 567.1 269.794C 569.3 266.1 570.7 262 572.5 258.021C 577.2 247.5 582.2 237.1 587.2 226.681C 592.8 215.2 598.6 203.8 604 192.3 Z " class="style6"/><path d="M 305.3 637.143C 304.4 642.6 303.6 648.1 302.8 653.562C 302.4 656.9 302 660.2 301.8 663.472C 301.7 665.4 301.6 667.3 301.6 669.213C 301.6 671.3 301.6 673.3 302.1 675.308C 302.4 676.3 303.1 677.9 304.1 677.729C 304.9 677.6 304.8 676.4 305.1 675.71C 306 673.6 306.6 671.2 306.9 668.93C 307.6 663.9 308.5 658.9 309.5 653.861C 312.5 638.5 316.9 623.1 317 607.406C 317.1 600.2 316.4 592.7 313.9 585.965C 313.2 584.2 312.6 581.6 310.8 581.05C 309 580.5 307.2 582.9 306.6 584.642C 306 586.2 306.7 588.1 307.1 589.745C 307.6 591.8 308 593.9 308.4 595.964C 309.5 601.9 309.4 608.1 308.8 614.187C 308.2 621.9 306.6 629.5 305.3 637.1 Z " class="style6"/><path d="M 409.2 297.347C 407.5 294.3 405.3 291.6 403 288.98C 401.9 287.8 400.8 286.6 399.5 285.503C 398.2 284.4 396.8 283.1 395.1 282.699C 394.2 282.5 392.9 282.9 392.5 283.791C 392.4 284.1 392.9 284.4 393 284.763C 393.3 286.9 394.9 288.7 396.2 290.443C 398.8 294.1 401.5 297.7 403.4 301.789C 405.7 306.7 407.1 312.1 408 317.412C 408.3 319.3 408.6 321.2 408.9 323.086C 409.1 324.3 409 325.6 409.7 326.56C 411 328.4 415.1 327.4 416.4 325.559C 417.4 324.3 416.7 322.4 416.5 320.904C 415.7 312.7 413.3 304.5 409.2 297.3 Z " class="style6"/><path d="M 509.2 364.492C 511.6 364.7 514.4 365.3 516.5 364.074C 517.7 363.4 517.9 361.6 517.6 360.293C 517.4 359.5 516.4 359.2 515.7 358.843C 514.3 358.2 512.9 357.8 511.4 357.514C 508.3 356.9 505.2 355.6 502.1 355.414C 501.2 355.4 500.2 355.5 499.4 355.896C 498.3 356.5 498.8 358.4 498.8 359.669C 498.9 360.8 498.4 362.6 499.4 363.117C 500.5 363.7 501.9 363.3 503.1 363.456C 505.2 363.7 507.2 364.3 509.2 364.5 Z " class="style6"/><path d="M 474.3 426.133C 475.5 427.6 476.9 428.8 478.2 430.134C 479.3 431.2 480.5 432.6 482.1 432.86C 483 433 484.3 432.5 484.6 431.607C 485.7 428.1 482.1 424.7 480 421.642C 478 418.6 476.6 415.2 474.3 412.44C 473.5 411.4 472.4 409.8 471.1 410.12C 469.7 410.5 468.6 411.8 467.6 412.987C 467.1 413.6 466.2 414.2 466.4 415.004C 466.8 416.7 468.5 417.9 469.5 419.324C 471.2 421.6 472.6 424 474.3 426.1 Z " class="style6"/><path d="M 447 496.671C 447.5 497.1 448 497.5 448.5 497.843C 449.6 498.6 451 499.1 452.3 499.19C 453.9 499.3 455.6 497.2 455.5 495.593C 455.5 494.4 454.2 493.6 453.3 492.903C 451.4 490.5 450.6 487 448 485.307C 446.7 484.5 445 486 443.9 487.029C 443 487.8 441.4 488.5 441.7 489.678C 441.9 490.8 443.1 491.5 443.8 492.427C 444.9 493.8 445.9 495.2 447 496.7 Z " class="style6"/><path d="M 755.6 532.034C 760.7 535 765.4 538.7 769.3 543.084C 772.5 546.8 774.9 551 777.6 555.011C 778.8 556.8 780.2 558.5 781.9 559.877C 783.6 561.3 786 562.3 788.2 561.911C 789.7 561.6 791.7 560.6 791.9 559.096C 791.9 558.6 791.6 558 791.2 557.795C 790.4 557.5 789.6 558.5 788.7 558.366C 787.2 558 785.9 556.9 784.9 555.674C 780.7 550.6 778.5 544.1 774.5 538.848C 766.5 529.2 754.7 522.5 742.7 518.766C 742.5 518.7 743 519.7 743.1 519.442C 743.4 518.8 743.6 518.2 743.9 517.576C 745 515.4 746.6 513.5 748.1 511.609C 751.2 507.9 754.5 504.4 757.8 500.973C 759.8 498.9 761.8 496.8 763.7 494.707C 764.6 493.7 765.5 492.8 766.3 491.827C 767.1 490.9 767.9 490 768.7 489.014C 768.8 489 768.8 488.9 768.9 488.841C 769.9 487.5 771.3 486.3 771.6 484.698C 771.8 484 771.4 483 770.7 482.608C 768.9 481.4 765.9 481.8 764.1 483.116C 760.7 485.6 758.3 489.1 755.4 492.07C 751.7 495.9 748 499.7 744.6 503.769C 740.8 508.2 736.3 513 735.7 518.719C 735.3 521.6 737.9 525.1 740.7 525.944C 745.8 527.5 751.1 529.2 755.6 532 Z " class="style6"/><path d="M 743.5 587.49C 745.5 589.8 747.5 592 749.4 594.349C 750.4 595.7 751.5 597.1 752.5 598.522C 753.6 600.1 754.5 601.8 755.8 603.214C 756.5 604.1 758.2 604.9 759.1 604.145C 759.4 603.9 759.1 603.3 759.1 602.924C 759.4 601.7 759.5 600.2 759 599.033C 757.8 596.1 756.5 593.3 754.8 590.635C 750 582.8 743.8 575.8 737 569.513C 734.3 567 731.3 564.5 727.8 562.99C 726.2 562.3 724 561 722.8 562.233C 721.3 563.7 721.4 566.5 722.2 568.437C 722.9 570 725 570.3 726.5 571.216C 729.2 573 731.7 575.1 734.1 577.372C 737.5 580.5 740.5 584 743.5 587.5 Z " class="style6"/><path d="M 731.8 604.822C 734.7 607 737.6 609.1 740.1 611.764C 741.5 613.2 742.7 614.8 743.7 616.479C 744.3 617.5 744.9 618.5 745.4 619.585C 745.6 620.1 745.9 620.6 746.3 620.938C 746.9 621.5 748.3 622 748.7 621.302C 751.4 616 746.7 608.8 742.5 604.573C 735.5 597.7 727.3 592.1 719.6 585.907C 717 583.8 714.4 581.6 711.7 579.504C 710.9 578.9 709.7 578.1 708.7 578.513C 706.9 579.4 705.1 582.1 705.9 584.062C 706.8 586.2 709 587.4 710.8 588.909C 713.9 591.5 717.1 593.9 720.4 596.262C 724.3 599.1 728 602 731.8 604.8 Z " class="style6"/><path d="M 708.2 639.761C 711.9 641.6 715.9 642.7 720 643.589C 723.7 644.4 727.7 644.6 731.6 644.065C 733.7 643.7 737.3 643 737.2 640.811C 737.2 640 735.8 639.9 735.1 639.517C 732.8 638.4 730.1 638.8 727.6 638.524C 721.4 637.7 715.2 635.6 709.8 632.382C 703.4 628.6 697.7 623.1 693.9 616.745C 692.6 614.6 691.7 612.2 691 609.835C 690.7 608.6 690.7 606.9 689.6 606.228C 687.6 605.1 684.1 606.7 683.4 608.79C 683 609.9 683.5 611.1 683.7 612.186C 684.2 614.5 685 616.7 686 618.778C 690.6 627.8 699.1 635.2 708.2 639.8 Z " class="style6"/><path d="M 535.5 652.072C 539.3 652 543.1 651.5 546.9 650.874C 549.3 650.5 551.8 650 554.2 649.534C 555.4 649.3 556.5 649 557.7 648.722C 559 648.4 560.3 648.1 561.4 647.261C 562 646.8 562.4 645.7 562.1 644.98C 561.8 644.6 561.1 644.9 560.7 644.672C 558.2 643.4 555.2 643.8 552.4 643.928C 545.6 644.3 538.8 645.4 532.1 644.609C 525.5 643.8 519 641.4 513.1 638.367C 511 637.3 508.9 636.1 506.8 635.016C 505.4 634.3 504 632.9 502.5 633.261C 500.3 633.7 499.4 637.5 500.2 639.513C 500.6 640.5 501.8 641 502.8 641.58C 504.4 642.6 506.1 643.6 507.9 644.563C 516.3 649 526 652.3 535.5 652.1 Z " class="style6"/><path d="M 562.3 733.016C 564.2 731.5 565.8 729.7 567.5 727.939C 568.6 726.7 569.7 725.5 570.8 724.202C 571.9 722.9 573.1 721.5 573.1 719.827C 573.2 719.1 572.6 718.2 572 717.872C 571.7 717.7 571.4 718.1 571.1 718.141C 569.6 718.1 568.2 719.1 567 719.988C 564.2 722.2 561.5 724.5 558.7 726.664C 554.8 729.7 550.5 732.2 546.3 734.651C 543.6 736.2 540.6 737.4 538.7 739.8C 537.2 741.7 540.7 746.2 543 745.646C 546 745 548.3 742.7 550.9 741.027C 554.8 738.5 558.8 736 562.3 733 Z " class="style6"/><path d="M 512.5 374.762C 519 359.5 525.7 344.2 533.1 329.374C 537.2 321.3 541.3 313.3 545.6 305.387C 548 301 550.4 296.7 552.8 292.373C 553.8 290.6 554.7 288.9 555.6 287.157C 556.3 286 556.9 284.8 557.5 283.536C 557.6 283.2 557.7 282.9 557.8 282.628C 557.9 282.4 558 282.1 558.1 281.852C 558.4 281.1 558.6 279.4 557.8 279.385C 556 279.3 555.5 282.2 554.3 283.491C 550.8 287.4 547.6 291.7 544.8 296.237C 537.1 308.4 530 320.9 523.6 333.801C 504.4 372.2 488.7 412.2 472.4 451.866C 468.1 462.4 463.8 473 459.5 483.506C 457.4 488.6 455.3 493.8 453.2 498.923C 452.3 501.1 451.4 503.3 450.6 505.562C 450.4 506.2 450.1 506.8 449.9 507.507C 449.6 508.7 449.2 510 449.6 511.103C 449.8 511.7 450.7 511.9 451.3 511.815C 455.9 510.8 458.6 505.3 460.5 500.898C 463 495.3 465.5 489.6 467.8 483.883C 474.9 466.7 481.8 449.4 488.7 432.178C 496.4 412.9 504.4 393.8 512.5 374.8 Z " class="style6"/><path d="M 830.5 262.358C 816.1 296 801.3 329.5 787.4 363.389C 780.1 381.3 773 399.3 766.3 417.43C 762.7 427.5 759.2 437.5 755.8 447.673C 754.3 452.4 752.8 457.1 751.4 461.805C 750.6 464.7 749.8 467.5 749 470.375C 748.6 472 748.1 473.7 747.7 475.374C 747.5 476.3 747.3 477.2 747.2 478.163C 747 478.8 746.9 479.5 746.8 480.211C 746.7 481 746.3 482.7 747.2 482.702C 748.2 482.6 748.5 481 748.8 480.035C 749.7 477.7 750.3 475.2 751.1 472.808C 753.3 467 755.9 461.4 758.1 455.621C 765.1 437.2 771.8 418.6 779.2 400.229C 800.3 347.7 823.7 296.1 846.3 244.169C 850.7 234.5 855.8 225.1 860.7 215.654C 863.3 210.7 865.9 205.8 868.4 200.833C 870.9 195.8 873.4 190.7 874.9 185.307C 875.4 183.5 875.7 181.3 875 179.543C 874.4 178.1 873 176.9 871.4 176.516C 854.4 172.9 837.3 169.3 820.2 165.7C 794 159.9 767.7 154.1 741.4 148.473C 727.5 145.5 713.5 142.7 699.4 140.054C 690.1 138.3 680.7 136.7 671.3 135.168C 666.5 134.4 661.6 133.7 656.7 132.959C 656 132.9 655.3 132.8 654.6 132.67C 652.1 132.3 649.5 132 646.9 131.651C 644.3 131.3 641.5 131 638.8 130.972C 637.7 130.9 636.5 130.9 635.4 131.128C 634.8 131.2 633.8 131.4 633.8 132.017C 633.7 132.9 635 133.5 635.8 133.901C 637.1 134.6 638.5 135.2 639.9 135.748C 644.6 137.5 649.4 138.8 654.3 139.884C 668.3 142.9 682.5 144.8 696.6 147.501C 737.4 155.3 778 164.5 818.6 173.243C 835.7 176.8 852.8 180.3 869.9 183.857C 869.5 183.8 869 183.5 868.7 183.226C 868.5 183 868.3 182.8 868.1 182.52C 868 182.4 868 182.2 867.9 181.972L 867.9 181.908C 867.2 183.8 867 185.8 866.2 187.639C 864.3 192.6 861.9 197.5 859.4 202.242C 852.8 215.2 845.7 228 839.7 241.295C 836.6 248.3 833.6 255.3 830.5 262.4 Z " class="style6"/><path d="M 814.2 350.555C 804.4 373.8 794.6 396.9 784.8 420.16C 780.4 430.6 776 441.1 771.8 451.645C 770.1 456 768.4 460.3 766.8 464.726C 766.2 466.3 765.7 467.9 765.2 469.578C 765.1 470 765 470.4 764.9 470.774C 764.8 471.1 764.7 471.4 764.6 471.781C 764.6 472.1 764.5 472.3 764.5 472.611C 764.5 472.8 764.4 473.1 764.4 473.278C 764.4 473.8 764.7 474.7 765.2 474.593C 766 474.4 766.3 473.3 766.7 472.572C 767.3 471.3 767.7 469.9 768.5 468.696C 771.1 464.5 773.4 460.1 775.5 455.651C 780.8 444.5 785.7 433.1 790.8 421.858C 808.2 383.2 824.9 344.3 841.7 305.428C 851.8 282.3 864 260.2 874.4 237.223C 878.1 229.1 881.5 220.7 883.9 212.084C 885.4 206.3 887 199.7 884.8 194.163C 884.2 192.9 883.6 191.6 883.4 190.254C 883.1 188.8 883.3 187 882.4 185.812C 880.8 183.9 878.8 182.4 876.8 181.055C 875.3 180.1 873.5 178.5 872 179.332C 871 179.9 871.7 181.7 872.2 182.761C 873.2 185.2 874.9 187.3 876.4 189.517C 876.5 189.7 876.6 189.8 876.7 190.008C 876.4 189.9 876.3 189.4 876.2 189.135C 876.1 188.6 876.4 188.4 876.2 188.638C 875.5 189.4 876 190.8 876.1 191.798C 876.4 193.6 877.1 195.4 877.8 197.118C 878.5 198.9 878.2 200.9 877.9 202.82C 877.4 206.1 876.5 209.3 875.6 212.496C 873.1 220.4 869.8 228.1 866.4 235.664C 856.2 258.1 844.5 279.9 834.8 302.517C 828 318.6 821.2 334.6 814.2 350.6 Z " class="style6"/><path d="M 630.1 776.071C 627.9 781.2 625.7 786.3 623.5 791.484C 623.2 792.3 624.6 791.4 624 791.631C 623.3 791.9 622.6 791.1 621.9 790.725C 621 790.1 620 789.4 619.1 788.689C 616.3 786.4 613.7 783.9 610.6 781.899C 609.4 781.1 608.2 780.4 606.8 780.033C 606.1 779.8 604.8 779.9 604.5 780.684C 604.3 781.5 605.6 782.1 606 782.822C 607.1 784.7 608.5 786.3 609.9 787.8C 613.6 791.6 617.1 796.6 622.3 797.855C 624.9 798.5 628.3 796.7 629.5 794.321C 637 779.1 644.1 763.7 651.3 748.305C 654.2 742.1 657.1 735.8 659.6 729.39C 660.1 728.3 660.5 727.3 660.8 726.238C 661.2 725.3 661.5 724.3 661.8 723.369C 662.1 722.5 662.2 721.4 661.5 720.696C 660.2 719.2 657.2 720 655.6 721.179C 653.7 722.6 653.1 725.1 652.1 727.268C 649 734.1 646 740.9 642.9 747.77C 638.7 757.2 634.4 766.7 630.1 776.1 Z " class="style6"/><path d="M 673 745.889C 676.6 736.7 679.9 727.4 682.9 718.081C 684 714.7 685.1 711.2 686 707.714C 686.3 706.3 686.7 704.9 686.9 703.457C 687 702.7 687.1 702 687.1 701.279C 687.2 700.2 686.5 698.2 685.6 698.541C 684.8 698.8 684.9 700 684.4 700.631C 682.9 702.6 681.7 704.8 680.8 707.061C 678.8 712.2 676.8 717.3 674.7 722.342C 669.8 734.5 665.1 746.7 659.4 758.489C 656.2 765.2 653.4 772.3 648.9 778.211C 645.9 782.1 643 786.6 638.6 788.669C 636.8 789.5 634.9 790.1 633 790.649C 631.3 791.1 628.7 791.3 628.1 793.078C 627.5 795 630.1 797.2 632 797.762C 634.4 798.4 636.9 797.4 639.2 796.729C 645.9 794.7 650.8 788.6 655.1 783.106C 658.1 779 660.3 774.2 662.5 769.623C 666.2 761.8 669.6 753.9 673 745.9 Z " class="style6"/><path d="M 749.5 203.264C 774.2 209.1 799 214.4 824 219.359C 823.6 219.3 823.2 219 822.9 218.693C 822.8 218.6 822.7 218.4 822.6 218.277C 822.6 218.2 822.5 217.5 822.5 217.97C 822.3 220.6 821.2 223 820.2 225.415C 817.9 231 815 236.4 813.1 242.205C 804.6 270.5 793.8 298 781.6 324.895C 765.7 359.9 751.2 395.6 737.6 431.6C 733 443.9 728.4 456.3 724 468.754C 722.5 473.1 721 477.4 719.7 481.734C 719.1 483.5 718.6 485.2 718.2 486.963C 718 487.9 717.3 489.1 718 489.831C 718.3 490.1 718.7 489.4 718.9 489.072C 719.2 488.6 719.5 488.1 719.7 487.553C 720 486.9 720.3 486.3 720.5 485.699C 721.8 482.7 722.8 479.7 724 476.706C 727.9 466.9 732.5 457.4 736.5 447.638C 743.7 430 750.7 412.2 758 394.569C 767.3 372 777 349.7 787.3 327.541C 799.9 300.5 810.9 272.7 819.6 244.163C 821 240.2 822.8 236.4 824.6 232.639C 826.6 228.2 829 223.7 829.5 218.854C 829.7 216.3 827.8 213.1 825.3 212.506C 788.5 205.1 751.9 196.7 715.5 187.211C 688.8 180.2 661.9 174.1 635.2 167.357C 633 166.9 630.5 168.7 629.2 170.575C 627.4 173.2 625.9 176.1 624.5 178.916C 620.9 186 617.9 193.4 614.7 200.668C 597.7 239.1 579.7 277.1 564.9 316.424C 553 348.1 539.9 379.4 526.2 410.334C 518.6 427.7 510.7 444.9 502.9 462.164C 497.9 473.2 492.9 484.2 487.9 495.195C 485.3 501.2 482.6 507.2 479.9 513.193C 478.3 516.9 476.7 520.6 475 524.365C 474.1 526.6 473.1 528.8 472.2 531.034C 471.9 532 471.5 532.9 471.1 533.806C 470.8 534.6 470.5 535.4 470.2 536.217C 469.6 537.9 469 539.6 468.6 541.396C 468.4 542.2 467.9 543.7 468.7 543.978C 469.9 544.4 470.8 542.4 471.6 541.377C 473 539.5 474.3 537.6 475.5 535.603C 478.7 530.6 481.6 525.4 484.3 520.168C 492.9 503.9 500.1 487 507.7 470.265C 530.6 420.5 553.1 370.5 572.2 319.129C 586.9 279.9 604.7 242 621.6 203.666C 623.6 199.1 625.5 194.5 627.6 189.921C 628.7 187.3 629.9 184.8 631.2 182.218C 631.6 181.5 631.9 180.7 632.3 179.934C 632.7 179.3 633.1 178.6 633.4 177.902C 633.8 177.3 634.1 176.8 634.4 176.2C 634.9 175.5 635.6 174.9 635.9 174.151C 636 173.9 635.4 174.4 635.2 174.52C 634.6 174.7 633.9 174.7 633.4 174.563C 660.1 181.2 687 187.3 713.6 194.245C 725.6 197.3 737.5 200.4 749.5 203.3 Z " class="style6"/><path d="M 719.3 263.603C 733.2 267.3 747.2 270.7 761.3 273.665C 768 275.1 774.7 276.3 781.5 277.425C 784.4 277.9 787.4 278.3 790.4 278.63C 792 278.8 793.5 279 795.1 279.036C 795.5 279.1 795.9 279.1 796.3 279.08C 796.7 279.1 797 279.1 797.4 279.091C 797.7 279.1 798 279.1 798.3 279.07C 798.6 279.1 798.8 279 799.1 279.018C 800 278.9 801.7 278.4 801.4 277.564C 801.1 276.5 799.4 276.8 798.4 276.547C 798.1 276.5 797.7 276.4 797.4 276.259C 796.8 276 796.2 275.8 795.6 275.518C 791.7 273.9 787.5 273.3 783.4 272.37C 773.2 270.1 763 267.7 752.9 265.029C 720.3 256.6 688.1 246.2 655.4 238.309C 645.1 235.8 634.8 233.5 624.3 231.928C 620.6 231.4 616.8 230.9 613.1 230.473C 611.6 230.3 610.2 230.1 608.7 230.177C 607.7 230.2 606.6 230.3 605.9 230.988C 605.3 231.6 605.6 232.8 606 233.474C 608.3 236.7 612.9 237.9 616.8 238.508C 621.2 239.2 625.5 240 629.8 240.844C 644 243.7 658.2 247 672.2 250.647C 687.9 254.8 703.5 259.4 719.3 263.6 Z " class="style6"/><path d="M 680 417.268C 679.3 420.3 679.2 423.5 679.9 426.528C 680.2 428 682 429.5 683.4 429.19C 684.8 428.9 685.2 426.9 685.5 425.556C 686 423.2 686.3 420.8 687.2 418.567C 688.1 416.3 689.4 414.2 690.9 412.411C 691.9 411.3 693.6 410.3 693.7 408.793C 693.9 407.5 692.9 406.3 692.1 405.344C 691.3 404.4 690.3 403 689.1 403.275C 687.2 403.8 686.1 405.8 684.9 407.367C 682.6 410.3 680.8 413.7 680 417.3 Z " class="style6"/><path d="M 662.4 409.971C 661.7 413.3 661.5 416.7 661.7 420.025C 661.9 423.2 662.5 426.4 663.9 429.177C 664.7 430.8 666.3 433.4 668.1 432.756C 668.8 432.5 668.7 431.4 669 430.648C 669.5 428.8 668.6 426.8 668.4 424.819C 667.9 420.8 668.2 416.7 669.2 412.758C 670.7 406.4 674.1 400.4 678 395.056C 679.2 393.4 680.5 391.7 681.9 390.019C 682.6 389 683.7 388.2 684 386.958C 684.6 384.8 681 382.4 678.7 382.705C 676.9 382.9 675.9 385 674.7 386.397C 669 393.2 664.2 401.3 662.4 410 Z " class="style6"/><path d="M 632.5 399.812C 631.5 404.8 631.7 410.1 632.8 414.998C 634.4 420.2 637 425.1 640.2 429.477C 640.9 430.4 641.7 431.3 642.6 432.029C 643.4 432.7 644.4 433.3 645.4 433.114C 646.1 433 646.9 432.2 646.8 431.471C 646.8 430.9 646 430.3 645.4 430.315C 645.1 430.3 644.2 430.9 644.6 430.873C 645.4 430.7 645.6 429.2 645.3 428.426C 644.7 426.9 643.8 425.5 643.1 424.032C 641.6 420.7 640.1 417.2 639.3 413.588C 638.6 409.2 638.6 404.5 639.9 400.289C 642.4 392.5 647.3 385.5 652.8 379.33C 655.9 375.8 659.3 372.5 662.6 369.162C 664.2 367.5 666.6 366.2 667.1 363.931C 667.5 361.7 663.5 359.9 661.3 360.428C 659.8 360.8 658.8 362.1 657.7 363.078C 655.6 365 653.6 367 651.5 369.064C 643.1 377.6 635.5 388.1 632.5 399.8 Z " class="style6"/><path d="M 609.3 389.522C 608.5 395.5 608.6 401.7 609.1 407.74C 609.6 413.4 610.9 419.1 613.3 424.252C 614.1 426 615.1 427.8 616.2 429.41C 617 430.4 618.3 431.8 619.4 431.295C 620 431.1 619.8 430 619.6 429.379C 619.3 428.5 619.4 427.5 619.3 426.563C 618.7 423.2 617.4 420 616.8 416.639C 615 407.4 615 397.6 616.9 388.383C 619.2 377 623.9 365.8 630.9 356.59C 633.6 353.1 636.5 349.9 639.7 347.047C 641.3 345.6 644 344.6 644.3 342.423C 644.7 340 640 338.4 637.7 339.163C 635.9 339.8 634.6 341.3 633.1 342.596C 630.6 344.8 628.3 347.2 626.2 349.777C 617.2 361 611.4 375.3 609.3 389.5 Z " class="style6"/><path d="M 1104.8 345.481L 1107 344.981C 1152.6 334.4 1198.7 326.4 1244.5 316.727C 1259.5 313.6 1274.5 310.1 1289.3 306.064C 1294.3 304.7 1299.3 303.3 1304.2 301.612C 1305.8 301.1 1307.3 300.5 1308.8 299.852C 1309.7 299.5 1311 299.1 1311 298.204C 1311 297.2 1309.1 297.8 1308.2 298.01C 1306.9 298.3 1305.7 298.6 1304.4 298.969C 1300.7 300 1296.7 300.4 1292.8 301.026C 1282.3 302.8 1271.9 305.3 1261.4 307.464C 1239 312.1 1216.4 316.2 1193.8 320.255C 1164.2 325.6 1134.7 331.4 1105.3 337.938C 1063.1 347.5 1020.4 355.6 977.7 363.234C 956.5 367 935.2 370.7 914 374.429C 901 376.7 888.1 379 875.1 381.432C 866.4 383 857.7 384.7 849 386.411C 843.8 387.4 838.6 388.5 833.4 389.567C 831.2 390 829.1 390.4 827 390.891C 826.7 390.9 826.4 391 826.2 391.07C 822 392 817.8 392.8 813.7 393.961C 812.5 394.3 811.3 394.7 810.2 395.226C 809.4 395.6 808.1 396.1 808.4 396.949C 808.7 398.4 811 398.2 812.5 398.413C 815 398.7 817.6 398.7 820.2 398.634C 828.3 398.4 836.4 396.6 844.4 395.124C 865.6 391.1 886.9 387.3 908.1 383.512C 973.9 371.8 1039.7 360.3 1104.8 345.5 Z " class="style6"/><path d="M 1066.6 582.111C 1100.7 580.4 1134.8 578.3 1168.9 576.058C 1187.3 574.8 1205.8 573.5 1224.3 572.083C 1234 571.3 1243.7 570.5 1253.4 569.672C 1259.4 569.1 1265.4 568.6 1271.4 567.967C 1274.5 567.6 1277.5 567.3 1280.5 566.937C 1282.3 566.7 1284.1 566.5 1285.8 566.219C 1286.8 566.1 1287.8 565.9 1288.8 565.732C 1289.6 565.6 1290.3 565.5 1291 565.279C 1291.2 565.2 1291.4 565.2 1291.6 565.134C 1291.8 565.1 1291.9 565 1292.1 564.992C 1292.7 564.8 1294 564.5 1293.7 563.914C 1293.1 562.6 1290.8 563.3 1289.3 563.423C 1286.9 563.6 1284.5 563.9 1282.1 563.853C 1270.7 563.8 1259.4 564.3 1248.1 564.957C 1217.4 566.8 1186.7 568.6 1156 570.241C 1068.2 575 980.2 578.3 892.3 580.616C 870.3 581.3 848.5 583.6 826.7 586.08C 813.9 587.5 801.1 589 788.2 589.989C 780.8 590.6 773.3 591.1 765.9 591.325C 762.6 591.4 759.3 591.5 756 591.546C 754 591.6 751.9 591.6 749.8 591.713C 748.9 591.8 747.9 591.8 747 591.962C 746.6 592 746.2 592.1 745.9 592.12C 745.6 592.2 745.3 592.2 745 592.31C 744.4 592.5 743.3 593.1 743.6 593.652C 744.7 595.6 747.6 595.9 749.8 596.459C 753.3 597.4 757 597.9 760.7 598.318C 772 599.5 783.4 598.1 794.7 597.219C 827.3 594.6 859.8 589.6 892.5 588.448C 950.5 586.8 1008.6 584.7 1066.6 582.1 Z " class="style6"/><path d="M 837.9 504.449C 836.2 515.5 835 526.7 833.9 537.868C 833.3 543.3 832.8 548.8 832.4 554.206C 832.2 557.3 831.9 560.4 831.8 563.461C 831.7 565.1 831.6 566.8 831.6 568.489C 831.6 569.7 831.6 570.9 831.7 572.101C 831.8 573.7 832 577 833.5 576.495C 834.7 576.1 834.2 574.1 834.6 572.958C 835.7 569.6 836.5 566 837 562.43C 838.4 552.6 839.7 542.7 841.1 532.881C 845.3 503.4 850.6 474.1 857.9 445.225C 859.4 439.3 860.9 433.4 862.5 427.452C 863.1 425 863.8 422.6 864.4 420.213C 864.7 419.1 864.9 418 865.2 416.874C 865.4 416.2 865.6 415.6 865.7 414.987C 866.2 413 866.9 411 867.1 408.896C 867.2 407.8 866.7 405.9 865.6 405.788C 862.8 405.5 860.3 408.7 859.1 411.245C 857.1 415.7 856.2 420.6 854.9 425.353C 851.5 437.7 848.4 450.1 845.8 462.67C 842.8 476.5 840 490.4 837.9 504.4 Z " class="style6"/><path d="M 1205.9 525.714C 1206.2 531.4 1206.5 537.1 1205.6 542.718C 1205.2 545.1 1204.6 547.6 1203 549.394C 1202.1 550.5 1200.6 551.2 1199.1 551.388C 1173.2 554.3 1147.1 555.1 1121.1 556.29C 1056.8 559.4 992.4 562 928.2 566.931C 907.4 568.5 886.6 570.4 865.9 572.868C 858.6 573.8 851.2 574.7 843.9 575.894C 841.7 576.2 839.5 576.6 837.4 577.115C 836.1 577.4 834.1 577.2 833.7 578.481C 833.5 578.9 834.4 579 834.9 578.969C 835.5 579 836.1 579 836.7 578.945C 838.5 578.9 840.2 578.7 841.9 578.479C 847.8 577.8 853.6 577.3 859.5 576.995C 874.4 576.3 889.2 575.1 904 573.977C 934.1 571.7 964.2 570 994.3 568.614C 1036.7 566.6 1079 565 1121.4 563.149C 1147.6 562 1173.9 561.3 1199.9 558.457C 1202.6 558.1 1205.4 557 1207.4 555.155C 1210 552.7 1211.5 549.1 1212.3 545.544C 1214.7 534.9 1212.7 523.6 1212.8 512.671C 1213.8 484.1 1217.3 455.7 1221.2 427.365C 1224.3 406.4 1227.5 385.5 1232.3 364.863C 1233.7 359.8 1235.8 354.9 1237.8 349.987C 1239.9 344.7 1242.8 338.7 1241.2 333.201C 1240.4 330.2 1236.1 328.3 1233 328.693C 1196.8 334.2 1160.9 342.3 1124.9 348.973C 1062.4 360.6 1000.1 373.3 937.3 383.284C 928 384.8 918.7 386.8 909.5 389.025C 904.3 390.3 899.1 391.6 893.9 392.932C 891 393.6 888.1 394.4 885.2 395.102C 883.3 395.6 881.3 396.1 879.4 396.586C 877.2 397.2 874.9 397.8 872.7 398.545C 871.8 398.8 871 399.1 870.2 399.525C 869.7 399.8 868.8 400.1 869 400.609C 869.3 401.5 870.8 401.3 871.7 401.389C 873.5 401.6 875.3 401.5 877.2 401.409C 882.7 401.1 888.2 400.4 893.7 399.555C 908.7 397.2 923.5 393.2 938.5 390.857C 1001.4 381.3 1063.7 368.4 1126.3 356.682C 1162.3 349.9 1198 341.8 1234.2 336.205C 1235.5 336 1234.7 336.2 1234.4 335.944C 1233.7 335.4 1234.1 335.3 1234 335.432C 1233.3 336.4 1233.9 337.7 1233.6 338.845C 1233.1 340.8 1232.5 342.7 1231.8 344.623C 1229.5 350.8 1226.7 356.8 1225 363.132C 1220.2 384 1217 405.2 1213.9 426.336C 1210 454.9 1206.6 483.6 1205.5 512.455C 1205.5 516.9 1205.7 521.3 1205.9 525.7 Z " class="style6"/><path d="M 908.7 443.272C 909.4 441.9 910.1 440.4 910.9 439.055C 911.3 438.4 911.6 437.8 912 437.167C 912 437.1 912 437 912.1 436.987C 912.4 436.5 912.6 436.1 912.9 435.598C 913 435.5 913.1 435.3 913.2 435.174C 913.3 435.1 913.3 435 913.4 434.963C 913.5 434.8 913 435.2 912.8 435.314C 912.4 435.5 912 435.6 911.7 435.609C 910.7 435.7 909.6 435.3 908.9 434.567C 908.6 434.3 908.4 433.9 908.2 433.584C 908.1 433.3 908 432.6 908 432.825C 908.4 437.6 906.8 442.3 906.1 447.093C 905.8 450.2 905.8 453.3 905.7 456.411C 905.7 457.9 905.6 459.3 905.7 460.749C 905.7 461.6 905.8 462.5 905.9 463.413C 906 464 906.1 464.6 906.2 465.232C 906.5 466.1 907.6 467.4 908.3 466.911C 909 466.5 908.6 465.4 908.9 464.696C 910 462.3 910.6 459.7 911 457.071C 911.4 454.1 911.6 451.1 912.1 448.093C 912.8 444.9 913.5 441.8 914.1 438.601C 914.6 436.2 915.5 433.5 914.7 431.158C 914.2 429.8 912.5 428.6 911.1 428.72C 908.8 428.9 907.2 431.4 906.1 433.297C 904.4 436.1 902.8 438.9 901.2 441.717C 900.8 442.4 900.4 443.1 899.9 443.737C 899.8 443.8 899.7 443.9 899.6 444.034C 899.6 444.1 899.5 444.2 899.4 444.236C 899.1 444.6 899 444.4 899.4 444.36C 899.6 444.3 899.7 444.3 899.9 444.326C 900.9 444.4 900.6 444.7 900.6 444.582C 900.8 444 900 443.4 899.8 442.814C 899.3 441.3 898.9 439.7 898.6 438.093C 898 435.3 898.1 432.1 896.5 429.646C 895.7 428.3 893.5 427.5 892 428.025C 890.5 428.6 889.5 430.4 889.1 431.987C 888.1 436.6 887.3 441.4 886.7 446.084C 886.2 449.9 885.8 453.7 885.5 457.493C 885.3 459.9 885.2 462.3 885.2 464.652C 885.1 466.3 884.7 468.1 885.4 469.656C 885.8 470.5 887.1 470.9 888 470.736C 889.7 470.4 891.3 469 892.1 467.39C 893 465.7 892.8 463.6 893 461.724C 893.4 456.9 893.9 452 894.5 447.134C 895.1 442.6 895.7 438.1 896.6 433.609C 896.7 433.2 896.1 434.2 895.8 434.494C 895.2 435.1 894.2 435.5 893.3 435.486C 892.5 435.5 891.6 435.2 891 434.728C 890.7 434.5 890.4 434.2 890.1 433.831C 890.1 433.8 890 433.7 889.9 433.534L 889.9 433.461C 890.8 438.5 891.5 443.8 894.2 448.168C 895.5 450.3 898.5 452 901 451.503C 904 450.9 906 447.8 907.6 445.219L 908.7 443.3 Z " class="style6"/><path d="M 914.9 456.897C 914.9 459.2 914.9 462 916.4 463.697C 917.1 464.5 918.5 465 919.4 464.557C 921.8 463.6 921.8 459.8 922.1 457.28C 922.4 454.8 923.4 452.4 923.5 449.932C 923.5 449.5 923.5 449.1 923.4 448.689C 923.3 448.3 923.2 447.9 923 447.614C 922.1 446.2 919.7 446.8 918 446.906C 917.2 446.9 916.1 446.7 915.8 447.333C 915.2 448.5 915.5 449.9 915.4 451.136C 915.3 453.1 914.9 455 914.9 456.9 Z " class="style6"/><path d="M 921.6 435.259C 923.2 434.9 925.4 432.4 924.4 431.166C 924 430.7 923 430.1 922.5 430.602C 922.2 431 922.4 431.7 922.6 432.129C 922.8 432.6 921.5 432.7 921 432.488L 921 432.488C 921 432.1 921.6 431.9 921.9 431.648C 922.5 431 923.1 429.6 922.4 429.129C 920.8 428.2 918 430.4 918.1 432.187C 918.1 433.3 918.8 434.4 919.7 434.947C 920.3 435.2 921 435.4 921.6 435.3 Z " class="style6"/><path d="M 928.8 447.59C 928.7 450.7 929 453.7 929.3 456.801C 929.4 457.9 929.5 458.9 929.8 459.965C 930.1 461.4 932.2 463.6 933.2 462.617C 934.5 461.4 935 459.3 935.2 457.555C 935.7 454.2 935.8 450.9 936.1 447.515C 936.5 441.7 938.2 435.9 937.9 429.987C 937.9 429.3 937.8 428.5 937.6 427.841C 937.6 427.6 937.4 427.4 937.2 427.283C 936 426.4 934.2 426.6 932.7 426.868C 931.8 427 930.7 427.2 930.4 427.939C 929.4 430.2 929.9 432.8 929.7 435.286C 929.3 439.4 928.8 443.5 928.8 447.6 Z " class="style6"/><path d="M 937.6 455.447C 938.4 458.7 940.9 462.1 944.1 463.347C 947.1 464.6 951.7 464 953.8 461.423C 954.5 460.6 954.6 458.3 953.5 458.077C 951.3 457.6 948.8 458.6 946.9 457.467C 945.5 456.6 944.7 454.7 944.6 453.082C 944.6 450.5 945.7 447.5 947.8 445.967C 949.4 444.7 951.7 444.4 953.8 443.951C 955.4 443.6 955.3 440.7 955 439.03C 954.9 438.1 954.5 436.9 953.6 436.687C 950.4 436 946.7 437.1 943.9 439.034C 939.1 442.4 936.2 449.8 937.6 455.4 Z " class="style6"/><path d="M 968.9 446.88C 969.3 446 969.7 445.2 970.2 444.345C 970.4 444 970.6 443.7 970.8 443.414C 970.9 443.2 971.1 443 971.2 442.774C 971.4 442.5 971.7 442.3 971.9 442.015C 972 441.9 972 441.9 972.1 441.783C 972.2 441.7 972.3 441.7 972.3 441.602C 973 441 972.7 441.3 972.6 441.225C 974.7 441.8 975.2 444.8 975.7 446.887C 976.5 450 976.6 453.3 977.1 456.554C 977.3 458.4 977.7 461.4 979.5 461.449C 980.5 461.4 980.5 459.6 981 458.712C 982.1 456.6 982 454 982 451.619C 982 445.6 980.6 437.4 975.1 434.929C 972.4 433.9 968.7 435.3 966.7 437.366C 963.1 441 961 446 959.4 450.859C 959.1 451.8 958.9 452.8 958.7 453.744C 958.4 455.4 958.1 457.1 957.9 458.708C 957.8 459.1 958.1 457.9 958.4 457.526C 958.6 457.3 958.8 457 959.1 456.808C 959.7 456.5 960.4 456.1 961.1 456.102C 961.8 456.1 962.6 456.4 963.2 456.731C 963.7 457 963.9 457.4 964.2 457.782C 964.4 458 964.4 458.2 964.5 458.387C 964.6 458.6 964.7 458.8 964.7 459.058C 964.7 459.1 964.7 459.2 964.7 459.274C 964.7 459.3 964.7 459.2 964.7 459.124C 965.1 451.4 965.7 443.7 966.4 435.963C 966.7 433 967 430 967.1 426.942C 967.2 425.5 967.6 423.7 966.6 422.665C 965 421.1 961.5 422.6 960.2 424.453C 958.7 426.8 959.1 430 958.8 432.839C 957.8 441.5 957.4 450.3 957.2 459.082C 957.2 460.5 957.7 462.2 958.9 462.883C 959.7 463.3 960.6 463.6 961.4 463.603C 962.2 463.6 963 463.2 963.7 462.794C 965.2 461.9 965.3 459.6 965.6 457.802C 965.8 456.2 966 454.5 966.4 452.877C 967.1 450.8 967.9 448.8 968.9 446.9 Z " class="style6"/><path d="M 1030 418.86C 1029.8 423 1029.6 427.2 1029.5 431.356C 1029.3 434 1029.2 436.6 1029.2 439.178C 1029.1 440.7 1029 442.3 1029.1 443.858C 1029.1 445.4 1029 446.9 1029.6 448.304C 1029.9 449.1 1030.8 449.9 1031.6 449.6C 1032.1 449.4 1031.9 448.6 1032.2 448.201C 1033.2 446.9 1033.9 445.4 1034.2 443.834C 1034.7 440.8 1035.2 437.8 1035.7 434.767C 1036.9 426.4 1037.3 417.8 1038.3 409.409C 1038.4 407.9 1038.1 406.1 1036.9 405.233C 1035.7 404.4 1033.7 404.4 1032.6 405.348C 1030.8 406.8 1030.2 409.2 1029.3 411.189C 1027.9 414.4 1026.8 417.8 1024.8 420.597C 1023.3 422.4 1021.5 423.9 1019.8 425.489C 1018.2 427 1016.2 428.2 1015.1 430.135C 1014.1 432 1017.7 434.5 1019.9 434.563C 1021.9 434.6 1023.4 432.6 1024.9 431.373C 1027.1 429.5 1029.3 427.6 1031.1 425.323C 1033.2 422.4 1034.5 418.9 1035.8 415.579C 1036 415.1 1036.2 414.5 1036.4 414.004C 1036.7 413.4 1036.9 412.8 1037.2 412.153C 1037.4 411.6 1037.7 411 1038 410.399C 1038 410.2 1037.7 410.8 1037.5 410.946C 1037 411.4 1036.5 411.7 1035.8 411.896C 1034.9 412.1 1033.8 412 1033 411.567C 1032.3 411.2 1031.7 410.7 1031.4 410.006C 1031.2 409.7 1031.1 409.4 1031 409.055C 1031 408.9 1031 407.7 1030.9 408.734C 1030.6 412.1 1030.3 415.5 1030 418.9 Z " class="style6"/><path d="M 1030.9 452.165C 1032.9 452 1035.4 451.6 1036.4 449.966C 1036.9 449.2 1036.5 448 1036.2 447.116C 1035.6 445.4 1033 445.2 1031.3 444.916C 1029.6 444.7 1027.9 444.2 1026.2 444.323C 1024.4 444.5 1021.5 446.1 1022 447.811C 1022.4 448.9 1023.8 449.4 1024.7 449.995C 1025.7 450.6 1026.3 451.9 1027.4 452.13C 1028.5 452.3 1029.8 452.2 1030.9 452.2 Z " class="style6"/><path d="M 1042 431.935C 1041.3 437.1 1041.2 443.2 1044.2 447.521C 1045.3 449.2 1047.2 450.7 1049.2 450.984C 1050.4 451.1 1052.2 450.8 1052.5 449.7C 1052.6 449.1 1052.1 448.6 1051.8 448.14C 1050.7 446.8 1049.5 445.6 1049 443.952C 1047.7 439.7 1048.7 434.9 1049.7 430.518C 1051 425 1053.2 419.7 1054.5 414.197C 1054.9 412.4 1055.3 410.5 1055.6 408.659C 1055.7 407.3 1056.2 405.7 1055.3 404.68C 1053.8 403 1049.9 403.3 1048.5 405.178C 1047.7 406.3 1047.9 407.8 1047.6 409.087C 1047.1 411.4 1046.4 413.7 1045.8 416.061C 1044.4 421.3 1042.8 426.5 1042 431.9 Z " class="style6"/><path d="M 1037.9 507.011C 1037.5 511.3 1037 515.6 1036.8 519.964C 1036.7 521.7 1036.6 523.4 1036.6 525.193C 1036.7 526.3 1036.7 527.5 1036.8 528.634C 1036.9 530 1037 531.4 1037.7 532.489C 1038.2 533.1 1039.2 533.6 1039.9 533.319C 1040.3 533.1 1040.1 532.5 1040.4 532.118C 1041.9 529.9 1042.1 527 1042.5 524.331C 1043.6 517.8 1044.4 511.2 1045.6 504.696C 1046.4 500.4 1047.8 496.2 1047.6 491.882C 1047.5 490.2 1046 488.2 1044.3 487.911C 1042.6 487.6 1040.7 489 1039.8 490.431C 1037.6 493.7 1035.2 496.8 1032.8 499.926C 1031.5 501.8 1029.1 503.7 1029.4 505.948C 1029.8 508.2 1034 509.7 1035.9 508.4C 1037.4 507.4 1038.3 505.7 1039.4 504.297C 1042 501.1 1044.4 497.8 1046.5 494.234C 1046.7 494 1046.1 494.7 1045.9 494.874C 1045.2 495.3 1044.4 495.6 1043.7 495.576C 1042 495.6 1040.6 493.9 1039.9 492.457C 1039.7 492 1039.9 493.4 1039.8 493.903C 1039.7 495.4 1039.4 497 1039.2 498.501C 1038.8 501.3 1038.3 504.2 1037.9 507 Z " class="style6"/><path d="M 1042.2 538.134C 1043.7 537.4 1045.4 536.9 1046.6 535.644C 1047.5 534.7 1047.6 532.9 1046.9 531.92C 1045.1 529.4 1040.7 531.1 1037.6 531.404C 1035.4 532 1032.6 532.7 1031.7 534.75C 1031.2 535.9 1032.6 537.2 1033.2 538.26C 1033.9 539.3 1035 541.2 1036.1 540.621C 1037.5 539.9 1038.8 539.2 1040.1 538.499C 1040.8 538.4 1041.5 538.3 1042.2 538.1 Z " class="style6"/><path d="M 1063.9 537.234C 1066 536.2 1067.7 533.7 1067.9 531.396C 1068 530 1067.5 528.5 1066.4 527.57C 1065.5 526.8 1063.8 526 1062.8 526.768C 1061.9 527.5 1062.7 529.2 1063.2 530.293C 1063.3 530.5 1063.1 530.8 1063 531.056C 1062.8 531.3 1062.7 531.5 1062.5 531.67C 1062.5 531.7 1062.4 531.8 1062.4 531.815C 1062.3 531.9 1062.3 531.9 1062.2 531.945C 1061.2 532.8 1061.9 532.2 1062.1 532.352C 1061.7 531.9 1061.3 531.4 1061.1 530.906C 1061 530.7 1060.9 530.6 1060.8 530.427C 1060.8 530.3 1060.7 530.1 1060.7 529.994C 1060.4 529.2 1060.5 529.4 1060.6 529.371C 1060.8 529.3 1060.4 529.9 1060.2 530.125C 1060.1 530.2 1059.6 530.7 1059.9 530.264C 1060.3 529.6 1061.6 529.7 1061.8 528.962C 1062.3 527.5 1062.9 525 1061.5 524.466C 1059.2 523.5 1055.5 525.6 1054.8 527.971C 1054 531 1056.2 534.4 1058.5 536.525L 1058.5 536.525C 1059.9 537.7 1062.2 537.9 1063.9 537.2 Z " class="style6"/><path d="M 1081 524.427C 1080.6 522.8 1081.4 521 1082.1 519.407C 1083.3 516.7 1084.8 514.1 1086.3 511.601C 1090.5 504.8 1095.6 498.4 1098.4 490.918C 1099.1 488.8 1099 486.4 1098.5 484.298C 1098.1 482.5 1095.8 479.6 1094.4 480.817C 1093.8 481.4 1094.8 482.4 1094.9 483.248C 1095.2 485.2 1094.5 487.2 1093.6 488.909L 1093.6 488.909C 1090.7 494.6 1086.6 499.7 1082.8 504.887C 1078.8 510.4 1074.3 516.3 1073.8 523.099C 1073.5 526.8 1076.3 530.9 1079.6 532.443C 1082.9 533.8 1086.9 532.5 1090.2 531.196L 1090.2 531.196C 1092.3 530.3 1094.2 528.9 1095.5 526.978C 1097.1 524.5 1097.6 521.3 1097.6 518.285C 1097.5 509.5 1093.8 500.9 1089.6 493.203L 1089.6 493.203C 1088.6 491.1 1087 488.6 1087.9 486.41L 1087.9 486.41C 1089.4 484.6 1093.3 484.7 1093.8 482.386C 1094.1 480.4 1091.8 478.2 1089.8 477.997C 1087.1 477.7 1084.2 479.3 1082.3 481.238C 1078.8 485.3 1080.3 492.4 1082.7 497.062C 1085.7 502.5 1088.3 508.3 1089.5 514.44C 1090.2 517.7 1090.6 523 1087.5 524.319L 1087.5 524.319C 1085.9 525 1084.1 526.4 1082.5 525.735L 1082.5 525.735C 1081.9 525.5 1081.2 525.1 1081 524.4 Z " class="style6"/><path d="M 1132.6 509.072C 1131.6 516 1124.4 523 1117.4 523.532C 1115.3 523.6 1112.8 522.7 1111.5 520.996C 1110.4 519.6 1109.3 516.9 1107.5 517.355C 1106.8 517.6 1107.1 519 1107.2 519.799C 1107.2 521.3 1107.3 522.8 1108 524.115C 1109.6 527.3 1113.7 529 1117.2 529.36C 1124.8 529.6 1132.8 524.3 1136.8 517.861C 1139.3 513.9 1140.4 508.7 1139.6 504.165C 1137.5 496.3 1127 491.1 1118.8 491.253C 1115.4 491.3 1111.8 492.6 1109.3 494.917C 1108.5 495.8 1107.9 496.8 1107.3 497.788C 1107.1 498.2 1106.9 498.6 1106.6 498.985C 1106.5 499.2 1106.4 499.4 1106.3 499.585L 1106.2 499.64C 1107.4 498.3 1109.9 497.9 1111.3 498.75C 1112.1 499.2 1112.7 500 1113 500.817C 1113.1 501.2 1113.2 501.7 1113.2 502.17C 1113.1 502.5 1113 502.9 1113.2 502.321C 1114.5 496.9 1113.3 491.1 1113.6 485.562C 1113.7 484.3 1113.3 482.4 1112.1 481.935C 1110.3 481.2 1107.7 482.5 1106.7 484.148C 1105.7 485.9 1105.9 488 1105.9 490.015C 1106 493.4 1106.3 496.9 1105.5 500.211C 1105.3 501.1 1105.1 502 1105.3 502.811C 1105.6 504.2 1107 505.6 1108.4 505.963C 1110 506.4 1112.1 505.2 1113 503.707C 1113.6 502.8 1114 501.9 1114.5 501.055C 1114.7 500.8 1115.1 500.2 1114.9 500.393C 1116.5 498.9 1119.2 498.8 1121.4 499.057C 1125.7 499.6 1131.4 501.7 1132.5 505.91C 1132.7 506.9 1132.7 508 1132.6 509.1 Z " class="style6"/><path d="M 1124.5 482.179C 1127.3 481.8 1130 481.2 1132.5 479.957C 1133.6 479.4 1134.1 477.6 1133.7 476.409C 1132.9 474.3 1129.4 474.7 1127.1 474.751C 1123.7 474.9 1120.2 474.6 1116.8 475.209C 1114.8 475.6 1112.9 476.2 1111.2 477.338C 1110.3 477.9 1109.6 479.4 1110.1 480.279C 1110.8 481.3 1111.7 482.2 1112.6 483.051C 1113.1 483.6 1113.6 484.4 1114.4 484.423C 1115.6 484.5 1116.6 483.3 1117.7 482.991C 1119.9 482.4 1122.3 482.5 1124.5 482.2 Z " class="style6"/><path d="M 879.1 533.207C 878.7 535.5 878.6 537.9 878.5 540.227C 878.4 541.5 877.6 543 878.4 544.015C 878.7 544.4 879.1 543.3 879.5 543.145C 880.5 542.7 882.3 543.4 882.4 544.472C 882.4 544.7 882 544.2 881.9 544.043C 881.5 543.7 881.2 543.5 880.8 543.401C 879.8 543.2 878.5 543.9 878.1 544.848C 877.5 546.2 880.1 548.1 881.4 547.527C 883 546.9 883.6 544.8 884.1 543.183C 885 540.3 885.6 537.2 886.3 534.228C 887.1 530.4 888.5 526.8 889.5 523.03C 890 521.2 891.3 519.1 890.6 517.29C 889.9 515.7 887.7 515.3 886 515.056C 885.2 515 884.1 514.9 883.5 515.504C 882 517.4 882 520.2 881.5 522.606C 880.6 526.1 879.6 529.6 879.1 533.2 Z " class="style6"/><path d="M 888.1 533.071C 887.8 535.4 887.8 537.8 887.7 540.101C 887.6 541.4 886.9 542.9 887.7 543.9C 887.9 544.2 888.2 543.4 888.5 543.169C 889 542.8 889.8 542.7 890.3 542.9C 891 543.1 892.2 543.9 891.8 544.391C 891.5 544.7 891.2 543.8 890.9 543.59C 890.2 543.1 888.9 542.7 888.4 543.321C 888 543.7 887.9 544.1 887.6 544.456C 887 545.1 887.4 546.4 888.1 546.97C 888.9 547.6 890.3 547.7 891.2 547.167C 892.5 546.3 892.9 544.5 893.4 542.947C 894.3 540 894.7 536.9 895.3 533.859C 896 530.2 897.2 526.6 897.9 522.912C 898.4 520.7 899.1 518.4 898.6 516.22C 898.3 515 896.3 514.9 895 514.736C 893.8 514.6 892 514.4 891.4 515.412C 890.3 517.1 890.5 519.3 890.2 521.325C 889.5 525.2 888.6 529.1 888.1 533.1 Z " class="style6"/><path d="M 898.4 528.693C 898.2 530.8 898.3 532.8 898.3 534.898C 898.3 535.9 898.3 536.9 898.4 537.858C 898.6 539.4 900.4 541.9 901.7 541.157C 905.3 539.1 904.9 533.4 905.6 529.323C 906.4 524.6 908.3 520 908.1 515.298C 908.1 514.7 908 514.1 907.9 513.545C 907.8 513.3 907.6 513.2 907.5 513.069C 906.2 512.2 904.4 512.4 902.9 512.467C 902.1 512.5 901 512.5 900.6 513.187C 899.7 514.9 900.1 517.1 899.8 519.01C 899.3 522.2 898.7 525.4 898.4 528.7 Z " class="style6"/><path d="M 905.5 529.055C 905.3 531.1 905.3 533.2 905.2 535.3C 905.1 536.3 905.1 537.3 905.1 538.281C 905.1 539.9 906.6 542.6 908 541.946C 911.5 540.3 911.9 535.1 912.5 531.357C 913.3 526.6 914.7 522 915 517.228C 915.2 515.8 915.6 513.6 914.4 512.834C 912.6 511.7 909.8 511.8 907.9 512.826C 907.3 513.2 907.4 514.3 907.3 515.009C 907.2 516.2 907.1 517.3 906.9 518.518C 906.6 522 905.9 525.5 905.5 529.1 Z " class="style6"/><path d="M 917.1 526.539C 916.9 528.5 916.9 530.5 916.7 532.537C 916.7 533.5 916.6 534.5 916.5 535.415C 916.5 537 917.8 539.8 919.3 539.193C 922.6 537.9 923.3 533.1 924 529.587C 924.7 525.4 925.8 521.2 926 516.879C 926 515.4 926.2 513.8 925.9 512.369C 925.8 511.8 925.7 511.2 925.4 510.594C 925.3 510.4 925.1 510.3 924.9 510.168C 923 509.2 920.3 509.7 918.5 510.905C 917.9 511.3 918.2 512.3 918.2 513.049C 918.1 514.2 918.1 515.3 918.1 516.41C 918 519.8 917.4 523.2 917.1 526.5 Z " class="style6"/><path d="M 926.2 524.595C 925.8 526.9 925.8 529.2 925.7 531.49C 925.6 532.6 925.6 533.7 925.7 534.776C 925.8 535.8 925.9 536.9 926.6 537.604C 927.1 538.2 928.3 538.7 929 538.279C 932.7 535.8 932.3 530 933.4 525.736C 934.7 520.8 937.2 516.3 937.9 511.271C 938 510.7 938 510 938 509.4C 938 509.2 937.8 509 937.7 508.829C 936.6 507.8 934.9 507.5 933.3 507.398C 932.5 507.3 931.4 507.2 930.9 507.795C 929.5 509.6 929.5 512.2 928.9 514.381C 927.9 517.8 926.8 521.1 926.2 524.6 Z " class="style6"/><path d="M 936.7 527.597C 936.6 529.5 936.4 531.4 936.3 533.354C 936.4 532.9 936.1 534.2 936 534.673C 936 534.7 936 534.8 936 534.818C 935.8 535.3 935.7 535.7 935.6 536.211C 935.2 537.6 934.7 539.1 935.1 540.495C 935.3 541.4 936.2 542.3 937.1 542.543C 938.8 542.9 941 540.3 940.4 538.708C 940.3 538.3 939.9 537.9 939.5 537.634C 939 537.2 938.2 537.5 937.5 537.597C 937.3 537.6 937.1 537.6 936.9 537.694C 936.3 537.8 936.3 538.3 936.4 537.876C 936.7 536.9 938.6 537.4 939.4 538.047C 939.9 538.5 939.6 539.8 940.3 540.123C 940.8 540.4 940.8 539.1 941.1 538.517C 941.8 537.2 942.7 535.8 942.9 534.331C 944.1 528.7 945.4 523.1 946.6 517.543C 947.2 515.3 947.5 512.9 947.7 510.574C 947.8 509.5 948 508 947.1 507.317C 945.9 506.4 944.1 506.6 942.6 506.883C 941.7 507 940.6 507.2 940.3 507.918C 939 510.7 939.3 514 938.8 517.018C 938.1 520.5 937.4 524.1 936.7 527.6 Z " class="style6"/><path d="M 941 524.545C 941.2 526.9 941.7 529.3 942.1 531.606C 942.3 532.7 942.4 533.8 942.7 534.812C 942.9 535.9 943.2 537.2 944.1 537.794C 944.7 538.2 945.7 538.6 946.2 538.166C 948 536.8 948.2 534 948.4 531.711C 948.6 528.2 948.1 524.6 948.2 521.072C 948.4 518.5 948.8 515.9 949.7 513.478C 950.2 512 952 510.8 951.7 509.263C 951.4 507.7 950.5 506.2 949.3 505.192C 948.6 504.7 947.7 504 946.9 504.361C 944.4 505.5 943 508.5 942.2 511.095C 940.8 515.4 940.6 520.1 941 524.5 Z " class="style6"/><path d="M 950.7 524.936C 950.5 527.2 950.6 529.4 950.5 531.675C 950.5 532.7 950.5 533.8 950.6 534.883C 950.6 535.9 950.7 537 951.3 537.701C 951.9 538.3 953 538.9 953.7 538.511C 955.1 537.7 955.9 535.9 956.3 534.324C 957.1 531.4 957.5 528.4 958 525.476C 958.8 520.4 960.7 515.3 960.5 510.137C 960.5 509.5 960.5 508.9 960.3 508.243C 960.3 508 960.1 507.9 959.9 507.726C 958.7 506.8 956.9 506.9 955.4 507.054C 954.6 507.1 953.5 507.1 953.1 507.852C 952.1 509.8 952.4 512.1 952.1 514.292C 951.7 517.8 951 521.4 950.7 524.9 Z " class="style6"/><path d="M 182.3 544.317C 183.4 562.5 185.4 580.5 187.9 598.477C 189.4 609.1 191.2 619.7 193.1 630.248C 194.2 636.3 195.4 642.3 196.6 648.323C 197.3 651.6 198 654.9 198.8 658.216C 199.3 660.3 199.7 662.3 200.3 664.37C 200.8 666.7 201.5 669.1 202.3 671.377C 202.7 672.5 203.1 674.8 204.2 674.424C 204.7 674.2 204.5 673.2 204.4 672.606C 204.2 671.2 203.8 669.8 203.6 668.439C 203.2 665 203 661.5 202.5 658.079C 200.7 645.7 198.3 633.4 196.4 620.957C 191.5 588.5 187.8 555.7 187.4 522.772C 187.1 486.3 191.1 449.1 201.3 414.453C 204.7 402.8 209 391.5 213.9 380.569C 215.3 377.4 216.8 374.2 218.3 371.03C 219 369.7 219.6 368.4 220.1 366.973C 220.4 366 220.9 364.8 220.4 364.009C 219.8 363.2 218.4 364.2 217.6 364.767C 216.3 365.7 215.2 366.8 214.2 368.053C 211 371.8 208.9 376.6 206.7 381.146C 201.1 393.3 196.7 406.2 193.2 419.315C 182.2 459.4 179.7 502.5 182.3 544.3 Z " class="style6"/><path d="M 137.5 501.031C 137.3 512.6 137.9 524.2 139.2 535.605C 140 542.4 141 549.2 142.2 555.869C 143 559.7 143.7 563.5 144.7 567.329C 145.2 569.4 145.7 571.5 146.3 573.566C 146.7 575 147.1 576.5 147.5 577.891C 147.9 579.2 148.4 580.5 148.9 581.8C 149.1 582.3 149.3 582.8 149.6 583.209C 149.7 583.4 150 583.8 150.2 583.668C 150.5 583.5 150.3 582.9 150.3 582.517C 150.2 582.2 150.1 581.8 150 581.501C 149.9 581.1 149.8 580.8 149.7 580.434C 149.4 579.1 149.3 577.8 149.1 576.468C 148.1 570.5 146.6 564.7 145.6 558.734C 142.3 540.2 140.5 521.2 141 502.398C 141.6 476.8 145.6 451.1 152.3 426.443C 154.5 418.1 157 409.9 159.7 401.727C 160.8 398.5 161.9 395.3 163 392.14C 163.6 390.2 164.8 388.3 164.5 386.27C 164.4 385.8 163.5 386 163.2 386.263C 162.5 386.8 162 387.5 161.5 388.275C 159.7 390.8 158.6 393.7 157.6 396.646C 154.5 404.9 152 413.4 149.6 421.878C 142.3 447.5 138.1 474.3 137.5 501 Z " class="style6"/><path d="M 669.2 214.422C 668.4 216.4 667.9 218.6 667.3 220.662C 666.7 223.1 666 225.5 666.2 228.016C 666.3 229.2 667.4 230.7 668.6 230.748C 668.9 230.8 669 230.3 669.2 230.154C 670.4 229.6 671.2 228.3 671.7 227.117C 672.9 224.3 674.1 221.5 675.3 218.641C 677.1 214.3 679.5 210.1 681.7 205.951C 683 203.5 684.4 201 684.7 198.224C 684.8 197.3 683.6 196.7 682.8 196.363C 681.3 195.7 678.9 194.7 677.8 195.922C 676 197.9 675.4 200.7 674.3 203.125C 672.6 206.9 670.6 210.5 669.2 214.4 Z " class="style6"/><path d="M 686.2 205.406C 688 205.7 690 206.1 691.6 205.255C 692.9 204.6 693.7 202.8 693.4 201.355C 693 199.4 690 199.1 688.1 198.389C 686.1 197.7 684.2 196.5 682.1 196.204C 681.7 196.2 681.4 196.1 681 196.176C 680.7 196.2 680.4 196.3 680.1 196.453C 678.6 197.3 678.9 199.7 678.7 201.325C 678.6 202.1 678.2 203.1 678.7 203.529C 679.6 204.2 680.8 204 681.9 204.258C 683.3 204.6 684.8 205.2 686.2 205.4 Z " class="style6"/><path d="M 679.4 218.701C 680.4 218.7 681.5 218.2 682.1 217.432C 683.2 216.2 683.2 214.2 682.8 212.67C 682.7 211.9 681.4 211.8 680.7 211.551C 680.1 211.3 679.9 210.4 679.3 210.417C 678.2 210.5 677.7 211.9 677 212.725C 676 213.9 674.3 215.1 674.5 216.654C 674.5 217.4 675.7 217.5 676.4 217.761C 677.3 218.2 678.4 218.7 679.4 218.7 Z " class="style6"/><path d="M 676 233.726C 678.1 234.1 680.4 234.5 682.6 234.067C 683.9 233.8 685.3 232.4 685.1 231.109C 684.6 228.3 680.4 227.6 677.6 226.666C 675 225.8 672.5 224.4 669.7 223.9C 669.2 223.8 668.8 223.8 668.3 223.774C 667.9 223.8 667.4 223.8 667 223.971C 665.8 224.4 666 226.3 665.8 227.597C 665.7 228.8 665 230.4 665.9 231.106C 667 231.9 668.6 231.7 669.9 232.069C 671.9 232.6 673.9 233.3 676 233.7 Z " class="style6"/><path d="M 691 227.077C 690.7 228.2 690.6 229.4 690.5 230.501C 690.4 231.9 690.1 233.5 690.9 234.788C 691.4 235.7 692.7 236.3 693.7 236.056C 696.3 235.3 696.9 231.7 697.9 229.246C 699.1 226.5 701.3 224 701.7 220.988C 701.9 219.1 699 218.1 697.1 217.559C 696.4 217.4 695.4 216.8 694.9 217.337C 693.9 218.3 693.8 219.9 693.3 221.152C 692.5 223.1 691.5 225 691 227.1 Z " class="style6"/><path d="M 701.6 210.121C 702.4 210.3 703.3 210.3 704 210.021C 705.4 209.6 706.9 208.4 706.9 207.005C 707 206.3 706.4 205.2 705.7 205.342C 705.1 205.4 704.7 206 704.4 206.444C 704.1 206.8 703.6 206.7 703.2 206.698C 702 206.7 702.4 206.3 702.7 206.804L 702.7 206.804C 702.9 207.2 704.2 206.5 703.9 206.199C 703.6 205.9 703.4 206.1 703.7 205.957C 704.1 205.8 704.7 205.8 705.1 205.545C 705.8 205.1 707 204 706.4 203.348C 705.3 202.3 703.2 202.1 701.9 202.778C 700.1 203.8 698.6 206.5 699.4 208.406L 699.4 208.406C 699.8 209.2 700.7 209.8 701.6 210.1 Z " class="style6"/><path d="M 715.4 228.379C 715.6 228.2 714.8 228.1 714.5 227.946C 713.9 227.5 713.7 227.4 714.1 227.328C 714.4 227.3 714.2 227.9 714.3 228.214C 714.3 228.7 714.2 229.2 714.1 229.742C 713.9 231.1 713.5 232.5 713.1 233.841C 712.7 235.2 712.2 236.5 711.8 237.845C 711.2 239.4 710.5 241 710.6 242.677C 710.7 243.5 711.3 244.4 712.1 244.502C 712.5 244.6 712.7 243.9 713.1 243.694C 714.9 242.8 716.2 241 717.1 239.268C 719.1 235.8 721 231.9 721.1 227.948C 721.1 225.5 719.8 222.7 717.7 221.596C 715.4 220.6 712.5 221.5 710.5 222.869C 707.4 224.9 704.9 227.7 702.5 230.512C 702.1 231 701.7 231.4 701.3 231.858C 701.3 231.9 701.2 232 701.2 232.012C 700.6 232.7 700.1 233.3 699.5 234.058C 699.4 234.2 699.2 234.4 699.1 234.625C 699 234.7 698.9 234.8 699 234.762C 699.5 234.1 700.4 233.1 701.2 233.479C 702.9 234.2 704.4 235.6 705.6 236.983C 705.9 237.3 705.5 237.9 705.4 238.375C 705.4 238.8 705 239.3 705.5 238.469C 707.9 234.6 709.4 230.2 710.3 225.702C 710.5 224.4 711 222.7 710.1 221.787C 708.5 220.4 705.5 220.5 703.8 221.786C 702.7 222.7 702.7 224.5 702.2 225.872C 701.3 228.8 700.3 231.8 698.8 234.447C 698.3 235.4 697.2 236.7 697.8 237.459C 699.1 239 700.7 240.4 702.5 241.149C 703.1 241.4 703.8 240.6 704.4 240.302C 704.5 240.2 704.6 240.1 704.7 239.977C 705.7 238.9 706.5 237.7 707.4 236.517C 709.7 233.5 712 230.2 715.4 228.4 Z " class="style6"/><path d="M 723 231.417C 722.5 233.7 722.3 236 721.9 238.24C 721.7 239.3 721.5 240.4 721.4 241.44C 721.3 242.4 721.1 243.5 721.6 244.376C 722 245.1 722.9 246 723.7 245.712C 725.7 245 726.8 242.8 727.6 240.901C 728.7 238.3 729.4 235.5 730.1 232.815C 731.6 227.7 734 222.8 734.8 217.531C 734.9 216.7 735.2 215.7 734.7 215.067C 733.6 213.9 731.9 213.7 730.4 213.49C 729.5 213.4 728.5 213.3 727.9 213.917C 726.4 215.5 726.5 218.1 725.9 220.246C 724.9 224 723.8 227.6 723 231.4 Z " class="style6"/><path d="M 725.2 240.396C 726.1 243.1 728.4 245.1 730.7 246.763C 731.9 247.7 733.8 248.8 735.2 248.115C 736.3 247.5 737 245.6 736.4 244.476C 735.6 243 734.3 241.7 733.3 240.303C 732.9 239.7 732 239.1 732.2 238.395C 732.4 238 733.1 237.9 733.5 237.719C 734.4 237.3 735.3 237 736.3 236.606C 737.8 236 739.6 235.5 740.8 234.279C 741.4 233.7 740.9 232.5 740.6 231.69C 740.1 230.2 739.6 227.7 738 227.604C 736.3 227.5 734.8 228.6 733.3 229.299C 730.7 230.4 727.9 231.9 726.3 234.212C 725.1 235.9 724.6 238.4 725.2 240.4 Z " class="style6"/><path d="M 738.2 242.199C 737.7 245 738.9 248.9 741.5 249.925C 744.8 251.3 748.7 249.4 752.2 249.901C 753 250 753.1 251.1 753.4 251.788C 753.8 252.9 755.5 254.6 756.3 253.693C 757.2 252.6 757.9 251 757.8 249.556C 757.5 247.5 756.1 245.5 754.3 244.553C 753.1 244 751.8 243.8 750.6 243.647C 749.7 243.6 748.9 243.6 748.1 243.606C 747.6 243.6 747.1 243.6 746.6 243.648C 746.4 243.7 746.1 243.6 745.8 243.644C 745.4 243.6 744.6 243.1 744.5 243.586C 744.4 243.9 745.1 244.1 745.2 244.427C 745.2 244.6 745.2 244 745.2 243.803C 745.3 243.4 745.4 243.1 745.6 242.712C 746.3 240.9 747.2 239.1 748.6 237.697C 749.1 237.1 749.7 236.6 750.3 236.214C 750.4 236.1 750.6 236.1 750.7 236.027C 751.4 235.7 751.3 235.6 751.3 235.857C 751.3 236 750.9 235.7 750.9 235.795C 750.5 236.6 751.5 237.6 751.6 238.487C 751.9 240.4 751.4 242.6 752.3 244.342C 752.9 245.4 754.7 245.4 755.9 245.288C 757.2 245.1 758.8 244.8 759.4 243.601C 759.9 242.4 759.6 241 759.6 239.652C 759.5 236.7 758.9 233.4 757.1 231.01C 755.9 229.4 753.7 228.2 751.7 228.104C 749.4 228 746.9 229.1 745.1 230.598C 742.1 233.1 740 236.7 738.7 240.382L 738.3 241.713L 738.2 242.2 Z " class="style6"/><path d="M 780.8 249.172C 781.8 247.9 782.7 246.6 783.6 245.285C 782.4 246.6 779.5 246.8 778.2 245.48C 777.8 245.1 777.6 244.7 777.4 244.196C 777.3 244.1 777.3 244 777.3 243.894C 777.3 243.8 777.2 243.7 777.2 243.638C 777.2 243.6 777.2 243.5 777.2 243.42C 777.2 243.4 777.2 243.3 777.2 243.266C 777.1 242.3 777.2 242.6 777.2 242.626C 777.5 242.7 777.1 243.2 777.1 243.489C 776.9 244.2 776.7 244.9 776.6 245.67C 776.2 247.2 775.8 248.8 775.5 250.398C 775 252.3 774.6 254.3 774.5 256.269C 774.5 257.5 774.7 259.4 775.9 259.619C 776.5 259.7 777 259.2 777.5 258.812C 779.2 257.4 780.1 255 780.9 252.876C 782.3 249.4 784.8 245.9 784 242.266C 783.8 241.1 782.6 239.9 781.4 239.668C 780.2 239.5 778.8 240.2 778.1 241.082C 776.2 243.4 774.2 245.8 771.8 247.607C 770.9 248.3 770 249 768.9 249.521C 768.4 249.8 766.9 250 767.4 249.97C 768.2 249.8 767.8 250.7 768 250.38C 768.3 249.9 768 249.2 768.1 248.553C 768.2 247.4 768.5 246.3 768.7 245.141C 768.9 244.1 769.1 243.1 769.2 242.118C 769.3 240.7 769.7 239.2 769.1 237.917C 768.7 237.2 767.6 236.9 766.7 236.992C 765.1 237.2 763 237.3 762.1 238.679C 761.3 239.9 761.4 241.5 761.1 242.896C 760.4 246.2 759.5 249.8 760.6 252.964C 761.3 255.1 763.4 256.9 765.6 257.47C 771.3 258.6 776.8 253.3 780.8 249.2 Z " class="style6"/><path d="M 786.6 246.289C 785.6 250.1 785 254 784.6 257.864C 784.4 259.3 784.1 260.7 784.5 262.094C 784.8 263 785.7 263.8 786.6 263.829C 786.9 263.9 787 263.3 787.3 263.186C 788.1 262.7 789 262 789.3 261.126C 790 259.4 790.7 257.7 791.3 255.99C 793.2 250.4 794.5 244.5 797.2 239.181C 797.5 238.6 797.8 237.9 798.2 237.337C 798.3 237.1 798.5 236.9 798.6 236.696C 798.7 236.5 798.9 236.4 799 236.192C 799.3 235.8 798.2 236.6 797.8 236.554C 797.4 236.6 797.1 236.5 796.7 236.317C 796.6 236.3 795.4 235.9 796.3 235.954C 797.4 236 797.4 238.4 798.6 238.615C 800.7 239.1 803.3 237.5 804.4 235.602C 804.9 234.5 803.8 233.2 803.2 232.143C 801.8 229.7 797.6 228 795.1 229.327C 792.5 230.7 791.1 233.8 789.9 236.537C 788.6 239.7 787.4 243 786.6 246.3 Z " class="style6"/><path d="M 791.9 245.618C 793.7 246.1 796 246.7 797.5 245.555C 798.3 244.9 798.8 243.7 798.7 242.674C 798.6 240.8 796.2 239.7 794.5 238.845C 792.9 238.1 791.6 237 789.9 236.485C 788.7 236.1 786.7 235.6 786 236.782C 785.4 237.9 785.9 239.3 786.1 240.597C 786.3 241.7 786 243.1 786.7 243.955C 787.1 244.5 788 244.1 788.7 244.31C 789.8 244.6 790.8 245.3 791.9 245.6 Z " class="style6"/><path d="M 624.5 221.25C 630.9 222.7 642.7 226.2 644 225.25C 649.8 220.6 653.5 214.3 657.7 208.206C 659.3 205.8 661.9 203.4 663.5 200.955C 665.3 198.2 672.7 192.7 669.8 191.454C 663.6 188.9 647.8 186.1 646.7 187.036C 637.6 194.3 632.7 205 625.5 214.124C 624.6 215.2 623.8 216.4 622.8 217.499C 622.1 218.4 621.2 219.2 620.3 219.999C 619.3 221 623.1 220.9 624.5 221.2 Z " class="style7"/><path d="M 684.4 164.378C 701.4 169.7 724.2 174.4 743.2 178.809C 755.4 181.7 782.4 187.8 784.6 184.582C 787.6 180.3 771.6 177.3 766.4 176.298C 751 173.3 721.9 167 710 163.656C 698.9 160.5 678.4 154.5 676.4 158.786C 675.4 161 683.5 164.1 684.4 164.4 Z " class="style8"/><path d="M 836 281.299C 829.5 295.8 823.3 310.4 816.7 324.805C 813.6 331.8 806.9 343.4 808.7 346.308C 810.7 349.3 815.3 336.4 817.7 331.056C 822.7 320.2 832.4 296.3 837.1 285.3C 839.4 279.9 838.4 275.9 836 281.3 Z " class="style9"/></svg>