<svg xmlns="http://www.w3.org/2000/svg" viewBox="0 0 256.00 256.00" enable-background="new 0 0 256.00 256.00"><g stroke-width=".2"><path fill="#e6003c" stroke-linejoin="round" d="m35.678 0l220.41.03-36.03 255.97-220.37.412 35.992-256.41"/><path fill="#fff" stroke="#fff" d="m56 72h144c0 5.492 0 10.983 4 20.317 4 9.334 12 22.508 12 35.841 0 13.332-8 26.822-12 36.16-4 9.333-4 14.51-4 19.686h-144c0-5.54 0-11.08-4-20.414-4-9.334-12-22.46-12-35.736 0-13.275 8-26.701 12-36.03 4-9.333 4-14.575 4-19.816Z"/><g fill="#e6003c" stroke-linejoin="round"><path d="m72 99.43c37.871 0 68.57 30.7 68.57 68.57h11.429c0-44.18-35.817-80-80-80v11.429"/><path d="m72 122.29c25.25 0 45.714 20.467 45.714 45.714h11.429c0-31.559-25.584-57.14-57.14-57.14v11.429"/><path d="m72 133.71v11.429c12.624 0 22.857 10.233 22.857 22.857h11.429c0-18.935-15.351-34.29-34.29-34.29"/></g></g></svg>