<?xml version="1.0" encoding="utf-8"?>
<!DOCTYPE svg PUBLIC "-//W3C//DTD SVG 1.1//EN" "http://www.w3.org/Graphics/SVG/1.1/DTD/svg11.dtd">
<svg xmlns="http://www.w3.org/2000/svg" xmlns:xlink="http://www.w3.org/1999/xlink" version="1.1" baseProfile="full" width="192" height="192" viewBox="0 0 192.00 192.00" enable-background="new 0 0 192.00 192.00" xml:space="preserve">
	<path fill="#FFFFFF" fill-opacity="1" stroke-width="0.2" stroke-linejoin="miter" stroke="#FFFFFF" stroke-opacity="1" d="M 13.7152,134.688L 80.4258,19.1418L 145.718,0.354004L 157.788,7.14407L 174.215,73.2911L 107.505,188.837L 13.7152,134.688 Z M 141.944,13.1849C 136.717,13.1849 132.479,17.4226 132.479,22.6501C 132.479,27.8775 136.717,32.1152 141.944,32.1152C 147.172,32.1152 151.409,27.8775 151.409,22.6501C 151.409,17.4226 147.171,13.1849 141.944,13.1849 Z "/>
	<g>
		<path fill="#E6003C" fill-opacity="1" stroke-width="0.2" stroke-linejoin="round" d="M 114.652,147.737C 119.302,139.65 120.97,132.242 119.657,125.512C 118.345,118.783 113.906,113.19 106.342,108.732C 99.2848,104.772 92.929,103.556 87.274,105.084C 81.619,106.612 77.0308,110.413 73.5094,116.485C 72.1244,118.944 71.1987,121.533 70.7323,124.252C 70.2658,126.971 70.22,129.528 70.5948,131.924L 70.3907,132.056L 55.2671,122.153L 71.5538,93.9438L 59.9476,87.243L 37.5155,126.097L 74.1561,148.922L 79.9977,140.608C 78.5837,135.842 79.074,131.386 81.4687,127.239C 84.0429,123.133 86.9785,120.951 90.2757,120.693C 93.5728,120.435 96.5701,121.133 99.2674,122.788C 102.666,124.737 104.842,127.393 105.796,130.758C 106.75,134.123 106.005,138.005 103.562,142.405C 101.915,145.32 99.9963,147.957 97.8075,150.315C 95.6188,152.674 92.7848,155.036 89.3056,157.404L 96.9281,166.969C 100.994,164.117 104.411,161.17 107.181,158.127C 109.95,155.083 112.441,151.62 114.652,147.737 Z "/>
	</g>
	<g>
		<path fill="#E6003C" fill-opacity="1" stroke-width="0.2" stroke-linejoin="round" d="M 153.469,81.7853L 144.349,76.5199C 145.552,74.0973 146.461,71.6541 147.077,69.1903C 147.693,66.7265 148.16,63.9617 148.479,60.8961L 137.706,56.6626C 137.289,59.5555 136.783,62.0997 136.19,64.2953C 135.597,66.4908 134.814,68.5435 133.841,70.4534L 103.805,53.1121C 105.018,51.3406 106.412,49.6408 107.988,48.0128C 109.564,46.3848 111.474,44.6514 113.717,42.8125L 104.664,35.5997C 102.175,37.4121 100.026,39.2063 98.2191,40.9821C 96.4118,42.758 94.7382,44.7601 93.1984,46.9883L 84.0797,41.7236L 80.8188,47.3715L 89.8385,52.579C 85.9143,60.2725 85.022,67.5221 87.1616,74.3278C 89.3012,81.1335 94.1637,86.7714 101.749,91.2417C 109.456,95.6006 116.783,96.9998 123.728,95.4392C 130.673,93.8786 136.493,89.4739 141.187,82.2251L 150.208,87.4332L 153.469,81.7853 Z M 109.604,77.6362C 105.42,75.177 102.56,72.3008 101.022,69.0075C 99.484,65.7142 99.3909,62.3365 100.743,58.8745L 130.382,75.9868C 128.025,78.8682 125.049,80.474 121.455,80.8044C 117.86,81.1347 113.91,80.0787 109.604,77.6362 Z "/>
	</g>
</svg>
