<?xml version="1.0" encoding="utf-8"?>
<!DOCTYPE svg PUBLIC "-//W3C//DTD SVG 1.1//EN" "http://www.w3.org/Graphics/SVG/1.1/DTD/svg11.dtd">
<svg xmlns="http://www.w3.org/2000/svg" xmlns:xlink="http://www.w3.org/1999/xlink" version="1.1" baseProfile="full" width="256" height="256" viewBox="0 0 256.00 256.00" enable-background="new 0 0 256.00 256.00" xml:space="preserve">
	<path fill="#E6003C" fill-opacity="1" stroke-width="0.2" stroke-linejoin="round" d="M 39.9869,-30.3409L 256.086,0.0298869L 215.786,286.783L -0.313578,256.412L 39.9869,-30.3409 Z "/>
	<path fill="#FFFFFF" fill-opacity="1" stroke-width="0.2" stroke-linejoin="miter" stroke="#FFFFFF" stroke-opacity="1" d="M 45.7151,166.688L 112.426,51.1418L 177.718,32.354L 189.788,39.1441L 206.215,105.291L 139.505,220.837L 45.7151,166.688 Z M 173.944,45.1849C 168.717,45.1849 164.479,49.4226 164.479,54.6501C 164.479,59.8775 168.717,64.1152 173.944,64.1152C 179.171,64.1152 183.409,59.8775 183.409,54.6501C 183.409,49.4226 179.171,45.1849 173.944,45.1849 Z "/>
	<g>
		<path fill="#E6003C" fill-opacity="1" stroke-width="0.2" stroke-linejoin="round" d="M 146.652,179.737C 151.302,171.65 152.97,164.242 151.657,157.512C 150.345,150.783 145.906,145.19 138.341,140.732C 131.285,136.772 124.929,135.556 119.274,137.084C 113.619,138.612 109.031,142.413 105.509,148.485C 104.124,150.944 103.199,153.533 102.732,156.252C 102.266,158.971 102.22,161.528 102.595,163.924L 102.391,164.056L 87.267,154.153L 103.554,125.944L 91.9476,119.243L 69.5155,158.097L 106.156,180.922L 111.998,172.608C 110.584,167.843 111.074,163.386 113.469,159.239C 116.043,155.133 118.978,152.951 122.276,152.693C 125.573,152.435 128.57,153.133 131.267,154.788C 134.666,156.737 136.842,159.393 137.796,162.758C 138.749,166.123 138.005,170.005 135.562,174.405C 133.915,177.32 131.996,179.957 129.807,182.315C 127.619,184.674 124.785,187.036 121.305,189.404L 128.928,198.969C 132.994,196.117 136.411,193.17 139.181,190.127C 141.95,187.083 144.441,183.62 146.652,179.737 Z "/>
	</g>
	<g>
		<path fill="#E6003C" fill-opacity="1" stroke-width="0.2" stroke-linejoin="round" d="M 185.468,113.785L 176.349,108.52C 177.552,106.097 178.461,103.654 179.077,101.19C 179.693,98.7265 180.16,95.9617 180.479,92.8962L 169.706,88.6626C 169.288,91.5555 168.783,94.0997 168.19,96.2953C 167.597,98.4908 166.814,100.544 165.841,102.453L 135.805,85.1121C 137.018,83.3406 138.412,81.6408 139.988,80.0128C 141.564,78.3848 143.474,76.6514 145.717,74.8125L 136.664,67.5997C 134.175,69.4121 132.026,71.2063 130.219,72.9822C 128.412,74.758 126.738,76.7601 125.198,78.9883L 116.08,73.7236L 112.819,79.3715L 121.838,84.579C 117.914,92.2725 117.022,99.5221 119.162,106.328C 121.301,113.133 126.164,118.771 133.749,123.242C 141.456,127.601 148.782,129 155.728,127.439C 162.673,125.879 168.492,121.474 173.187,114.225L 182.208,119.433L 185.468,113.785 Z M 141.604,109.636C 137.42,107.177 134.56,104.301 133.022,101.007C 131.484,97.7142 131.391,94.3365 132.743,90.8745L 162.382,107.987C 160.024,110.868 157.049,112.474 153.455,112.804C 149.86,113.135 145.91,112.079 141.604,109.636 Z "/>
	</g>
</svg>
