<?xml version="1.0" encoding="utf-8"?>
<!DOCTYPE svg PUBLIC "-//W3C//DTD SVG 1.1//EN" "http://www.w3.org/Graphics/SVG/1.1/DTD/svg11.dtd">
<svg xmlns="http://www.w3.org/2000/svg" xmlns:xlink="http://www.w3.org/1999/xlink" version="1.1" baseProfile="full" width="256" height="256" viewBox="0 0 256.00 256.00" enable-background="new 0 0 256.00 256.00" xml:space="preserve">
	<path fill="#E6003C" fill-opacity="1" stroke-width="0.2" stroke-linejoin="round" d="M 35.678,6.61214e-005L 256.086,0.0299123L 220.095,256L -0.313558,256.412L 35.678,6.61214e-005 Z "/>
	<g>
		<path fill="#FFFFFF" fill-opacity="1" stroke-width="0.2" stroke-linejoin="miter" stroke="#FFFFFF" stroke-opacity="1" d="M 47.7499,168.092L 114.46,52.5463L 179.753,33.7585L 191.823,40.5485L 208.25,106.696L 141.539,222.242L 47.7499,168.092 Z M 175.979,46.5894C 170.751,46.5894 166.514,50.8271 166.514,56.0545C 166.514,61.282 170.751,65.5197 175.979,65.5197C 181.206,65.5197 185.444,61.282 185.444,56.0545C 185.444,50.8271 181.206,46.5894 175.979,46.5894 Z "/>
		<g>
			<path fill="#E6003C" fill-opacity="1" stroke-width="0.2" stroke-linejoin="round" d="M 147.687,181.141C 152.336,173.054 154.005,165.646 152.692,158.917C 151.38,152.188 146.941,146.594 139.376,142.136C 132.32,138.176 125.964,136.96 120.309,138.488C 114.654,140.017 110.065,143.817 106.544,149.889C 105.159,152.348 104.233,154.937 103.767,157.656C 103.301,160.375 103.255,162.933 103.63,165.328L 103.425,165.461L 88.3018,155.558L 104.589,127.348L 92.9823,120.647L 70.5502,159.501L 107.191,182.326L 113.032,174.012C 111.618,169.247 112.109,164.791 114.503,160.644C 117.078,156.537 120.013,154.355 123.31,154.097C 126.607,153.839 129.605,154.538 132.302,156.193C 135.701,158.141 137.877,160.798 138.831,164.162C 139.784,167.527 139.04,171.409 136.597,175.809C 134.949,178.725 133.031,181.361 130.842,183.72C 128.653,186.078 125.819,188.441 122.34,190.808L 129.963,200.373C 134.028,197.522 137.446,194.574 140.215,191.531C 142.985,188.488 145.475,185.025 147.687,181.141 Z "/>
		</g>
		<g>
			<path fill="#E6003C" fill-opacity="1" stroke-width="0.2" stroke-linejoin="round" d="M 133.018,103.191C 130.27,100.241 128.552,97.0523 127.864,93.6255C 127.175,90.1987 127.891,86.5905 130.011,82.801C 131.172,80.7096 132.989,78.592 135.464,76.4483C 137.939,74.3046 141.182,72.4305 145.192,70.8259L 137.657,61.1455C 134.891,61.9553 131.596,63.6113 127.774,66.1136C 123.951,68.6158 120.381,72.5751 117.065,77.9913C 113.053,85.2375 111.924,92.1897 113.678,98.8477C 115.432,105.506 119.291,111.435 125.256,116.637L 121.185,123.688L 128.931,128.16L 132.443,122.077C 133.304,122.574 134.164,123.071 135.025,123.568C 136.258,124.299 137.466,124.957 138.65,125.543L 135.087,131.714L 142.834,136.186L 147.006,128.959C 154.964,131.63 162.317,132.125 169.067,130.445C 175.817,128.765 181.282,124.444 185.461,117.48C 188.492,111.899 190.128,106.823 190.369,102.253C 190.61,97.683 190.383,93.9937 189.687,91.1854L 177.003,89.1919C 177.809,93.5773 177.954,97.4076 177.439,100.683C 176.924,103.958 176.052,106.621 174.822,108.673C 172.658,112.27 169.823,114.553 166.317,115.522C 162.812,116.492 158.978,116.461 154.818,115.429L 163.046,101.178L 155.751,95.9239L 146.018,112.782C 144.884,112.224 143.676,111.565 142.393,110.805C 141.533,110.308 140.672,109.811 139.811,109.315L 149.143,93.1515L 141.848,87.8972L 133.018,103.191 Z "/>
		</g>
	</g>
</svg>
