<?xml version="1.0" encoding="utf-8"?>
<!DOCTYPE svg PUBLIC "-//W3C//DTD SVG 1.1//EN" "http://www.w3.org/Graphics/SVG/1.1/DTD/svg11.dtd">
<svg xmlns="http://www.w3.org/2000/svg" xmlns:xlink="http://www.w3.org/1999/xlink" version="1.1" baseProfile="full" width="18" height="18" viewBox="0 0 18.00 18.00" enable-background="new 0 0 18.00 18.00" xml:space="preserve">
	<path fill="#000000" fill-opacity="1" stroke-width="0.2" stroke-linejoin="round" d="M 7.65686,8.00249C 7.28644,7.84693 6.95248,7.63256 6.65498,7.35936C 6.35747,7.08616 6.10372,6.76143 5.89371,6.38518C 5.68371,6.00892 5.53982,5.59524 5.46204,5.14412L 5.411,4.78974L 5.39788,4.44411C 5.39788,4.04356 5.45572,3.65904 5.57142,3.29056C 5.68712,2.92208 5.85385,2.58034 6.07163,2.26534C 6.31469,1.91923 6.6049,1.63679 6.94227,1.41804C 7.27963,1.19929 7.6486,1.05588 8.04916,0.987825L 8.29999,0.957199L 8.55083,0.952826C 8.95722,0.952826 9.34612,1.02866 9.71751,1.18033C 10.0889,1.332 10.4234,1.54443 10.7209,1.81763C 11.0184,2.09082 11.2702,2.41604 11.4763,2.79326C 11.6758,3.15838 11.8161,3.55447 11.8972,3.98152L 7.81494,8.06374C 7.76187,8.04488 7.70917,8.02446 7.65686,8.00249 Z M 2.102,13.6171L 2.22451,12.7786L 2.35284,12.1092L 2.59055,11.2517L 2.89972,10.5648L 3.3416,10.0223L 3.98328,9.60376L 4.61328,9.31063L 5.10621,9.11521L 5.49267,9.00584L 5.79746,8.97375C 6.00552,8.97375 6.17469,9.01459 6.30497,9.09625L 6.5831,9.29558L 2.08075,13.7979L 2.102,13.6171 Z M 11.3684,9.42001L 11.45,9.34709L 11.8,9.09625C 11.9303,9.01459 12.0995,8.97375 12.3075,8.97375L 12.6109,9.00584L 12.9944,9.11084L 13.4815,9.30188L 14.1101,9.59209L 14.759,10.0223L 15.2053,10.5648L 15.5144,11.2517L 15.7434,12.1092L 15.8703,12.7742L 15.9928,13.6128L 16.1065,14.5388L 16.2072,15.4678L 16.2859,16.3151L 16.3355,16.9947L 3.12665,16.9947L 9.8081,10.3132C 10.3243,10.165 10.8444,9.86729 11.3684,9.42001 Z "/>
	<path fill="#000000" fill-opacity="1" stroke-width="0.2" stroke-linejoin="round" d="M 0.117115,17.1344L 17.1216,0.129904L 17.9701,0.978432L 0.965644,17.9829L 0.117115,17.1344 Z "/>
</svg>
