<?xml version="1.0" encoding="utf-8"?>
<!DOCTYPE svg PUBLIC "-//W3C//DTD SVG 1.1//EN" "http://www.w3.org/Graphics/SVG/1.1/DTD/svg11.dtd">
<svg xmlns="http://www.w3.org/2000/svg" xmlns:xlink="http://www.w3.org/1999/xlink" version="1.1" baseProfile="full" width="256" height="256" viewBox="0 0 256.00 256.00" enable-background="new 0 0 256.00 256.00" xml:space="preserve">
	<path fill="#E6003C" fill-opacity="1" stroke-width="0.2" stroke-linejoin="round" d="M 40.1006,-30.5619L 256.2,-0.191116L 215.899,286.562L -0.199891,256.191L 40.1006,-30.5619 Z "/>
	<path fill="#FFFFFF" fill-opacity="1" stroke-width="0.2" stroke-linejoin="round" d="M 52.3332,66.1672L 64.1136,79.779L 96.1136,191.779L 188,191.833L 190.756,181.092C 191.208,179.321 191.661,177.55 190.876,176.665C 190.091,175.779 188.069,175.779 186.047,175.779L 113.021,175.779C 111.903,175.779 110.785,175.779 110.105,175.335C 109.426,174.891 109.186,174.003 108.945,173.115L 101.938,147.243C 101.625,146.088 101.313,144.934 101.786,144.356C 102.259,143.779 103.518,143.779 104.778,143.779L 186.396,143.779C 188.302,143.779 190.208,143.779 191.346,143.038C 192.484,142.297 192.855,140.815 193.225,139.333L 205.964,88.8633C 206.68,85.8352 207.397,82.8071 206.008,81.2931C 204.619,79.779 201.125,79.779 197.631,79.779L 88.6667,79.779L 65.9999,55.7794C 63.8629,53.4741 61.7259,51.1689 58.449,51.6829C 55.1722,52.197 50.7555,55.5303 49.5462,58.4142C 48.337,61.2982 50.3351,63.7327 52.3332,66.1672 Z "/>
	<ellipse fill="#FFFFFF" fill-opacity="1" stroke-width="0.2" stroke-linejoin="round" cx="184.114" cy="199.779" rx="12" ry="12"/>
	<ellipse fill="#FFFFFF" fill-opacity="1" stroke-width="0.2" stroke-linejoin="round" cx="104.114" cy="199.779" rx="12" ry="12"/>
</svg>
