<?xml version="1.0" encoding="utf-8"?>
<!DOCTYPE svg PUBLIC "-//W3C//DTD SVG 1.1//EN" "http://www.w3.org/Graphics/SVG/1.1/DTD/svg11.dtd">
<svg xmlns="http://www.w3.org/2000/svg" xmlns:xlink="http://www.w3.org/1999/xlink" version="1.1" baseProfile="full" width="256" height="256" viewBox="0 0 256.00 256.00" enable-background="new 0 0 256.00 256.00" xml:space="preserve">
	<path fill="#E6003C" fill-opacity="1" stroke-width="0.2" stroke-linejoin="round" d="M 35.678,6.61214e-005L 256.086,0.0299123L 220.053,256L -0.313558,256.412L 35.678,6.61214e-005 Z "/>
	<g>
		<path fill="#FFFFFF" fill-opacity="1" stroke-width="1.00014" stroke-linejoin="round" d="M 121.872,95.8817C 130.027,95.7925 131.186,97.5322 131.943,102.171L 131.943,165.114L 147.05,165.114C 152.22,164.667 157.612,164.667 159.617,156.326L 159.617,83.3022C 158.859,75.3173 157.79,66.931 147.05,45.5191C 146.203,44.1362 146.248,42.8426 147.05,41.772L 148.298,40.4784L 148.298,31.6905L 131.943,31.6905L 131.899,40.523L 133.191,41.772C 133.993,43.1549 134.127,44.047 133.191,45.5191C 126.774,55.7343 122.897,68.6261 120.624,83.3022L 120.624,94.6326C 120.802,95.5248 121.382,95.614 121.872,95.8817 Z "/>
		<path fill="#FFFFFF" fill-opacity="1" stroke-width="1.00014" stroke-linejoin="round" d="M 86.6671,108.461L 86.6671,166.407C 87.692,170.6 92.594,173.054 95.4015,172.697L 115.633,172.697C 118.307,172.474 123.476,170.154 123.12,165.114L 123.12,108.461L 119.421,102.171L 90.4549,102.171L 86.6671,108.461 Z "/>
		<path fill="#FFFFFF" fill-opacity="1" stroke-width="1.00014" stroke-linejoin="round" d="M 167.148,122.334L 167.148,142.453L 168.751,142.453C 187.645,142.497 187.645,181.485 168.751,181.485L 74.9931,181.485L 74.9931,158.824L 36.0004,191.567L 74.9931,224.309L 74.9931,202.897L 168.751,202.897C 187.601,202.897 204,184.028 204,165.114C 204,139.955 187.645,122.334 168.751,122.334L 167.148,122.334 Z "/>
	</g>
</svg>
