<svg xmlns="http://www.w3.org/2000/svg" viewBox="0 0 256.00 256.00" enable-background="new 0 0 256.00 256.00"><g stroke-width=".2"><path fill="#e6003c" stroke-linejoin="round" d="m35.678 0l220.41.03-36.03 255.97-220.37.412 35.992-256.41"/><g fill="#fff" stroke="#fff"><path d="m160 152l-36.9-69h.164c-2.096-4.566-3.264-9.647-3.264-15 0-19.882 16.12-36 36-36 19.882 0 36 16.12 36 36 0 5.353-1.169 10.433-3.264 15h.164l-28.9 69m-4-96c-6.628 0-12 5.373-12 12 0 6.627 5.372 12 12 12 6.627 0 12-5.373 12-12 0-6.627-5.373-12-12-12Z"/><path d="m51 104h75.84l34.23 64 26.805-64h7.128c0 5.492 0 10.983 4 20.317 4 9.333 12 22.508 12 35.841 0 13.332-8 26.822-12 36.16-4 9.333-4 14.51-4 19.686h-144c0-5.54 0-11.08-4-20.414-4-9.334-12-22.46-12-35.736 0-13.275 8-26.701 12-36.03 4-9.333 4-14.575 4-19.816Z"/></g><g fill="#e6003c" stroke-linejoin="round"><path d="m67 131.43c37.871 0 68.57 30.7 68.57 68.57h11.429c0-44.18-35.817-80-80-80v11.429"/><path d="m67 154.29c25.25 0 45.714 20.467 45.714 45.714h11.429c0-31.559-25.584-57.14-57.14-57.14v11.429"/><path d="m67 165.71v11.429c12.624 0 22.857 10.233 22.857 22.857h11.429c0-18.935-15.351-34.29-34.29-34.29"/></g></g></svg>