<?xml version="1.0" encoding="utf-8"?>
<!DOCTYPE svg PUBLIC "-//W3C//DTD SVG 1.1//EN" "http://www.w3.org/Graphics/SVG/1.1/DTD/svg11.dtd">
<svg xmlns="http://www.w3.org/2000/svg" xmlns:xlink="http://www.w3.org/1999/xlink" version="1.1" baseProfile="full" width="256" height="256" viewBox="0 0 256.00 256.00" enable-background="new 0 0 256.00 256.00" xml:space="preserve">
	<path fill="#E6003C" fill-opacity="1" stroke-width="0.2" stroke-linejoin="round" d="M 40.1006,-30.5619L 256.2,-0.191116L 215.899,286.562L -0.199891,256.191L 40.1006,-30.5619 Z "/>
	<g>
		<path fill="#FFFFFF" fill-opacity="1" stroke-width="0.2" stroke-linejoin="round" d="M 54,39.4537L 210,39.4537L 210,133.167L 54,133.167L 54,39.4537 Z "/>
		<rect x="72" y="80.8333" fill="#E6003C" fill-opacity="1" stroke-width="0.2" stroke-linejoin="round" width="67.3333" height="23"/>
		<rect x="165.667" y="80.5" fill="#E6003C" fill-opacity="1" stroke-width="0.2" stroke-linejoin="round" width="24.6667" height="53.3333"/>
		<rect x="51" y="51.1667" fill="#E6003C" fill-opacity="1" stroke-width="0.2" stroke-linejoin="round" width="164.333" height="8.66666"/>
	</g>
	<g>
		<g>
			<path fill="#E6003C" fill-opacity="1" stroke-width="0.2" stroke-linejoin="round" d="M 164.404,160.805C 161.37,160.805 158.478,160.227 155.726,159.071C 152.975,157.916 150.494,156.323 148.284,154.294C 146.074,152.265 144.189,149.852 142.629,147.057C 141.069,144.262 140,141.189 139.422,137.838C 139.234,136.943 139.108,136.065 139.043,135.206C 138.978,134.346 138.945,133.49 138.945,132.638C 138.945,129.663 139.375,126.806 140.235,124.069C 141.094,121.332 142.333,118.793 143.95,116.453C 145.756,113.882 147.912,111.784 150.418,110.159C 152.924,108.534 155.665,107.469 158.64,106.963C 159.276,106.833 159.897,106.757 160.504,106.736C 161.11,106.714 161.732,106.703 162.367,106.703C 165.386,106.703 168.275,107.266 171.034,108.393C 173.793,109.52 176.277,111.098 178.487,113.127C 180.697,115.157 182.568,117.573 184.099,120.375C 185.63,123.177 186.692,126.225 187.284,129.518C 187.472,130.428 187.598,131.309 187.663,132.161C 187.728,133.014 187.76,133.895 187.76,134.805C 187.76,137.78 187.331,140.633 186.471,143.363C 185.612,146.093 184.373,148.635 182.755,150.99C 180.993,153.561 178.859,155.659 176.353,157.284C 173.847,158.909 171.106,159.989 168.13,160.523C 167.495,160.624 166.874,160.696 166.267,160.74C 165.66,160.783 165.039,160.805 164.404,160.805 Z M 111.992,225.87C 112.079,224.469 112.202,222.786 112.36,220.821C 112.519,218.857 112.711,216.77 112.935,214.56C 113.158,212.35 113.397,210.06 113.65,207.691C 113.902,205.323 114.173,203.019 114.462,200.78C 114.751,198.541 115.054,196.465 115.372,194.551C 115.69,192.637 116.008,190.979 116.325,189.578C 116.874,187.224 117.463,185.1 118.091,183.208C 118.72,181.316 119.485,179.615 120.388,178.106C 121.291,176.596 122.385,175.253 123.67,174.076C 124.956,172.898 126.545,171.862 128.437,170.966C 130.199,170.1 131.759,169.374 133.117,168.789C 134.475,168.204 135.695,167.72 136.779,167.337C 137.862,166.955 138.819,166.684 139.65,166.525C 140.48,166.366 141.235,166.286 141.914,166.286C 143.459,166.286 144.716,166.59 145.684,167.196C 146.652,167.803 147.518,168.424 148.284,169.06L 148.825,169.601C 154.733,174.57 160.468,177.055 166.029,177.055C 171.72,177.055 177.476,174.57 183.297,169.601L 183.904,169.06C 184.669,168.424 185.536,167.803 186.504,167.196C 187.472,166.59 188.728,166.286 190.274,166.286C 190.938,166.286 191.689,166.366 192.527,166.525C 193.365,166.684 194.315,166.944 195.376,167.305C 196.438,167.666 197.644,168.139 198.995,168.724C 200.345,169.309 201.902,170.028 203.664,170.88C 205.57,171.833 207.177,172.898 208.485,174.076C 209.792,175.253 210.897,176.596 211.8,178.106C 212.702,179.615 213.468,181.316 214.096,183.208C 214.725,185.1 215.292,187.224 215.797,189.578C 216.115,190.936 216.429,192.583 216.74,194.518C 217.05,196.454 217.353,198.53 217.65,200.747C 217.946,202.965 218.227,205.258 218.495,207.626C 218.762,209.995 219.011,212.296 219.242,214.527C 219.473,216.759 219.668,218.857 219.827,220.821C 219.986,222.786 220.109,224.469 220.195,225.87L 111.992,225.87 Z "/>
		</g>
		<g>
			<path fill="#FFFFFF" fill-opacity="1" stroke-width="0.2" stroke-linejoin="round" d="M 164.266,155.508C 161.962,155.508 159.764,155.069 157.674,154.191C 155.584,153.313 153.7,152.104 152.021,150.562C 150.342,149.021 148.91,147.188 147.725,145.065C 146.54,142.942 145.728,140.608 145.289,138.062C 145.147,137.382 145.051,136.715 145.001,136.062C 144.952,135.41 144.927,134.759 144.927,134.112C 144.927,131.852 145.254,129.682 145.907,127.603C 146.559,125.524 147.5,123.595 148.729,121.818C 150.101,119.865 151.738,118.271 153.642,117.037C 155.546,115.802 157.628,114.993 159.888,114.609C 160.371,114.51 160.842,114.453 161.303,114.436C 161.764,114.42 162.236,114.411 162.719,114.411C 165.012,114.411 167.206,114.839 169.302,115.695C 171.398,116.551 173.285,117.75 174.964,119.291C 176.642,120.833 178.063,122.668 179.226,124.797C 180.389,126.925 181.196,129.24 181.646,131.742C 181.788,132.433 181.884,133.103 181.934,133.75C 181.983,134.397 182.008,135.067 182.008,135.758C 182.008,138.018 181.681,140.185 181.029,142.259C 180.376,144.333 179.435,146.264 178.206,148.052C 176.867,150.005 175.246,151.599 173.343,152.833C 171.439,154.068 169.357,154.888 167.097,155.294C 166.614,155.371 166.142,155.426 165.681,155.459C 165.22,155.491 164.749,155.508 164.266,155.508 Z M 124.453,204.932C 124.519,203.868 124.612,202.59 124.733,201.098C 124.854,199.605 124.999,198.02 125.169,196.341C 125.339,194.662 125.52,192.923 125.712,191.124C 125.904,189.324 126.11,187.574 126.329,185.874C 126.549,184.173 126.779,182.596 127.021,181.142C 127.262,179.688 127.503,178.429 127.745,177.365C 128.162,175.576 128.609,173.963 129.086,172.526C 129.563,171.088 130.145,169.797 130.831,168.65C 131.516,167.503 132.348,166.483 133.324,165.589C 134.301,164.694 135.508,163.907 136.945,163.227C 138.284,162.569 139.469,162.017 140.5,161.573C 141.531,161.128 142.459,160.761 143.281,160.47C 144.104,160.179 144.831,159.974 145.462,159.853C 146.093,159.732 146.666,159.672 147.182,159.672C 148.356,159.672 149.311,159.902 150.046,160.363C 150.781,160.824 151.439,161.296 152.021,161.779L 152.432,162.19C 156.92,165.964 161.276,167.852 165.5,167.852C 169.823,167.852 174.196,165.964 178.617,162.19L 179.078,161.779C 179.66,161.296 180.318,160.824 181.053,160.363C 181.788,159.902 182.743,159.672 183.917,159.672C 184.422,159.672 184.992,159.732 185.629,159.853C 186.265,159.974 186.987,160.171 187.793,160.445C 188.599,160.72 189.516,161.079 190.542,161.523C 191.567,161.968 192.75,162.514 194.088,163.161C 195.537,163.885 196.757,164.694 197.75,165.589C 198.743,166.483 199.583,167.503 200.268,168.65C 200.954,169.797 201.536,171.088 202.013,172.526C 202.49,173.963 202.921,175.576 203.305,177.365C 203.546,178.396 203.785,179.647 204.021,181.117C 204.257,182.587 204.487,184.165 204.712,185.849C 204.937,187.533 205.151,189.275 205.354,191.074C 205.557,192.874 205.746,194.621 205.922,196.316C 206.097,198.012 206.246,199.605 206.366,201.098C 206.487,202.59 206.58,203.868 206.646,204.932L 124.453,204.932 Z "/>
		</g>
	</g>
</svg>
