<svg xmlns="http://www.w3.org/2000/svg" viewBox="0 0 256.00 256.00" enable-background="new 0 0 256.00 256.00"><g stroke-linejoin="round" stroke-width=".2"><path fill="#e6003c" d="m35.678 0l220.41.03-36.03 255.97-220.37.412 35.992-256.41"/><g fill="#fff"><path d="m170.57 56.11c5.225 4.077 6.156 11.618 2.079 16.843l-39.37 50.46c-4.077 5.225-11.618 6.155-16.843 2.078-5.224-4.077-6.155-11.617-2.078-16.842l39.37-50.46c4.077-5.225 11.618-6.155 16.843-2.078"/><path d="m200 111.66v64.34c0 15.464-8.536 24-24 24h-104c-15.464 0-24-8.536-24-24v-64.34h56v4.338c0 11.05 8.954 20 20 20 3.361 0 6.529-.829 9.31-2.294 2.528-1.292 4.822-3.143 6.684-5.529l12.887-16.515h47.12m-124 16.338c-4.418 0-8 3.582-8 8v40c0 4.418 3.582 8 8 8 4.418 0 8-3.582 8-8v-40c0-4.418-3.582-8-8-8m32 16c-4.418 0-8 3.582-8 8v24c0 4.418 3.582 8 8 8 4.418 0 8-3.582 8-8v-24c0-4.418-3.582-8-8-8m32 0c-4.418 0-8 3.582-8 8v24c0 4.418 3.582 8 8 8 4.418 0 8-3.582 8-8v-24c0-4.418-3.582-8-8-8m32-16c-4.418 0-8 3.582-8 8v40c0 4.418 3.582 8 8 8 4.418 0 8-3.582 8-8v-40c0-4.418-3.582-8-8-8Z"/></g></g></svg>