<svg xmlns="http://www.w3.org/2000/svg" viewBox="0 0 256.00 256.00" enable-background="new 0 0 256.00 256.00"><g stroke-linejoin="round"><path fill="#e6003c" stroke-width=".2" d="m35.678 0l220.41.03-36.03 255.97-220.37.412 35.992-256.41"/><g fill="#fff"><path d="m48.656 127.98c-2.248 13.755-1.011 25.19 3.71 34.31 4.721 9.121 15.179 13.854 31.375 14.199 5.527.02 11.04-.357 16.554-1.13 5.509-.774 11.548-2.062 18.11-3.864l-1.941-15.599c-7.48 1.676-13.287 2.794-17.421 3.353-4.134.558-7.896.816-11.285.773-8.609-.089-14.307-2.937-17.09-8.544-2.785-5.607-3.421-13.441-1.907-23.501 1.277-9.395 4.062-16.804 8.355-22.23 4.293-5.422 10.753-8.189 19.38-8.301 3.473-.043 7.205.214 11.198.772 3.992.558 9.459 1.674 16.398 3.35l6.518-15.501c-6.085-1.852-11.77-3.168-17.06-3.949-5.287-.781-10.696-1.16-16.225-1.138-16.294.308-28.08 4.839-35.36 13.595-7.28 8.756-11.718 19.889-13.313 33.4"/><path d="m161.12 175.1c15.98-.296 27.634-4.816 34.964-13.56 7.329-8.744 11.807-19.931 13.434-33.562 2.199-13.448.852-24.349-4.04-32.703-4.891-8.354-15.286-12.657-31.19-12.908h-35.22l-13.174 92.73h35.22m-13.729-16.466l8.46-59.8h16.09c8.728.055 14.223 2.592 16.485 7.612 2.262 5.02 2.591 12.198.988 21.532-1.115 9.397-3.53 16.826-7.246 22.287-3.715 5.462-9.944 8.251-18.686 8.369h-16.09Z"/></g></g></svg>