<svg xmlns="http://www.w3.org/2000/svg" viewBox="0 0 1313.78 1362.33" enable-background="new 0 0 1313.78 1362.33"><g stroke-linejoin="round"><g stroke-width=".2"><path fill="#f4dccc" d="m129.12 1072.85c.683 8.49 8.332 14.88 13 22 19.306 29.46 44.526 54.7 69.01 80.02 22.308 23.06 41.29 52.89 71.01 65 6.365 2.6 13.923 8.21 20 5.01 10.737-5.66 6.091-23.88 12.425-34.23 15.03-24.56 29.528-49.81 39.582-76.79 6.03-16.19 9.132-33.84 18.255-48.52 19.454-31.3 38.942-62.57 58.01-94.1 5.764-9.53 7.145-21.526 13.89-30.39 32.422-42.609 83.999-67.4 118.87-108.03 24.23-28.23 24.04-72.53 48.615-100.46 24.718-28.09 57.06-48.5 83.83-74.64 19.817-19.345 34.33-43.841 55.03-62.24 23.453-20.846 46.23-46.46 54.56-76.71 2.307-8.381 6.668-18.669 2-26-14.858-23.345-52.818-44.44-77.01-31.01-11.137 6.185-16.644 19.364-26 28-17.496 16.15-37.15 30.644-51.01 50.01-18.521 25.881-38.25 54.38-67.01 68.01-23.896 11.327-60.15 11.997-79.07-6.477-8.05-7.862-10.618-19.856-16.376-29.526-8.08-13.567-21.284-23.567-29.572-37.01-16-25.955-18.954-58.812-15.07-89.06 4.237-32.99 22.471-63.16 38.905-92.07 16.457-28.959 36.805-56.5 61.791-78.53 16.6-14.635 23.683-37.494 33.391-57.38 7.634-15.639 29.12-39.829 15-50.01-27.11-19.544-61.36 27.853-88.01 48.01-8.391 6.344-14.02 17.418-24.12 20.339-40.893 11.824-87.05-29.31-126.9-14.338-50.2 18.867-51.37 94.29-73.23 143.26-13.416 30.06-43.974 53.27-48.829 85.83-3.949 26.479 3.762 53.46 7.568 79.959 11.502 80.07 31.28 159.61 32.472 240.49.352 23.85 2.096 47.899-.99 71.55-5.991 45.911-39.947 84.35-68.3 120.95-18.606 24.02-43.05 43.11-61.719 67.08-5.343 6.86-14.7 13.34-14 22"/><path fill="#bdbdbd" d="m964.06 371.21c5.576 6.05-3.223 16.13-4.98 24.16-4.4 20.11-8.896 40.22-12.356 60.51-5.03 29.5-8.06 59.35-14 88.68-2.668 13.158 4.159 29.889-4.668 40-5.56 6.373-16.893-.852-25.337-1.333-9.217-.526-18.439-1.306-27.67-1.195-9.244.112-18.483.84-27.671 1.862-19.618 2.18-20.37 4.7-40.1 5.223-14.357.381-4.411 1.071-24 1.501-18.551.407 2.826-15.54 8.106-23.384 17.503-26 23.23-44.994 12-63.51-9.251-15.252-37.592-19.488-36.842-22.24 3.959-14.516 10.166-22.398 16.502-36.05 7.868-16.943 7.499-26.923 17-43.01 4.334-7.334 45.865-6.429 70.67-14.568 23.23-7.623 48.16-8.583 72.01-14 6.989-1.588 16.477-7.936 21.336-2.667"/><path fill="#0087ff" fill-opacity=".435" d="m859.43 408.99c-6.87 8.471-15.231 69.49-20.741 104.77-1.167 7.474-2.918 14.822-3.806 22.351-1.71 14.475-8.835 42.792 3.318 42.02 67.04-4.255 127.98-17.853 195.11-17.853 22.11 0 44.16-2.71 66.22-4.353 10.93-.815 25.82 2.726 32.18-7.986 9.26-15.607.06-38.34-.53-57.5-.81-25.697 9.01-50.41 10.9-76.03 1.33-18.09 5.13-35.851 9.17-53.35 1.28-5.543 7.13-14.497 2.79-16.93-20.15-11.294-43.76 9.501-65.67 14.06-36.16 7.515-72.75 13.467-107.96 25.874-29.01 10.224-59.65 12.02-89.34 18.847-10.49 2.413-27.998 1.576-31.642 6.069"/><g fill="#0078e9"><path d="m680.42 385.73c-14.994 5.642-25.993 38.484-12.13 46.507 3.069 1.775 3.231-6.355 4.25-9.752 2.926-9.754 4.134-20.12 8.376-29.379 2.855-6.228 4.692-9.329-.5-7.376"/><path d="m692.78 409.15c-3.893 6.486-17.46 17.234-9.976 18.339 4.04.597 5.175-6.359 7.251-9.876 1.992-3.375 4.741-11.824 2.725-8.463"/><path d="m639.42 343.6c-14.559 5.04-20.981 27.05-25.2 41.868-4.095 14.375 6.21 56.45 6.376 41.506.125-11.251-1.333-21 .277-32.28 2.528-17.71 16.835-34.508 22.852-51.35.496-1.389-2.91-.22-4.303.262"/><path d="m662.67 364.6c-15.941 2.362-23.08 24.909-26 40.756-1.742 9.436 5.05 26.16 8.501 27.504 2.951 1.151 1.129-6.542 0-9.502-3.445-9.03-1.688-19.216 1.751-28.25 2.175-5.717 8.329-12.207 12.13-17 3.306-4.176 8.895-14.282 3.626-13.502"/></g><path fill="#f4e8c5" d="m610.08 232.88c27.469 4.862 54.949 9.903 82.01 16.669 26.674 6.668 54.21 14.807 80.52 22.782 10.06 3.05 23.06 8.156 30.916 1.172 15.13-13.448 13.923-32.676 23.581-55.959 2.65-6.389-13.329-3.836-20.16-4.914-52.07-8.222-116.56-31.364-168.36-41.15-4.264-.805-42.01 59.01-28.515 61.4"/><g fill="#bdbdbd"><path d="m602.62 775.52c.62 4.981 16.407 21.716 23.883 15.938 11.179-8.64 12.762-25.24 18.252-38.25 4.463-10.582 23.719-35.413 12.752-32-13.882 4.315-56.95 37.75-54.887 54.32"/><path d="m445.83 520.02c11.735-34.559 30.37-66.38 45.26-99.7 7.342-16.436 14.683-32.872 22.06-49.29 1.992-4.435 3.986-8.869 5.984-13.302 1.933-4.288 3.868-8.576 5.809-12.861 5.859-12.936 11.645-25.91 17.844-38.687.716-1.476 1.429-2.954 2.205-4.4.273-.509.483-1.812.939-1.456 10.78 8.4-5.171 26.846-8.215 40.17-7.177 31.421-6.62 64.14-8.694 96.3-1.245 19.315-2.138 19.983-1.594 23.551 5.272 34.552 5.243 76.1 30.421 100.35 16.09 15.493 40.08 24.376 62.42 24.376 7.084 0 13.814-3.803 19.933-7.372.605-.353 1.292-.638 1.991-.668.2-.009.287.416.166.575-13.251 17.441-32.28 32.414-47.922 41.778-23.39 14-48.933 15.622-74.985 7.598-36.03-11.1-32.14-37.705-46.01-58.18-6.701-9.895-12.492-20.4-18-31-3.107-5.978-11.778-11.4-9.612-17.779"/><path d="m649.01 741.08c-2.01 3.768-4 7.555-6.03 11.306-2.037 3.756-4.179 7.431-6.179 11.213-2.035 3.847-3.938 7.789-5.925 11.67-.802 1.564-1.663 3.086-2.442 4.666-.818 1.66-1.723 3.277-2.349 5.05-1.244 3.528-1.156 10.358 1.995 11.222 31.33 8.59 45.988-55.892 57.9-91.19 1.242-3.679-2.161-11.398-5.323-10.08-17.296 7.203-26.45 30.503-36.548 48.592"/><path d="m755.66 459.24c3.661-12.916 9.543-23.534 14.358-35.2 11.365-27.53 20.19-58.14 32.26-83.32 10.09-21.04 19.344-46.17 29-68.76 9.534-22.298 21.22-41.946 30.909-63.771 4.526-10.193 11.519-30.07 13.347-24.24 2.337 7.456 6.351 14.999 1.584 29.754-12.505 38.703-33.637 75.839-48.36 111.31-14.893 35.869-29.574 72.25-44.36 108.39-6.2 15.16-16.287 48.24-17.864 48.1-8.626-.75-14.839-2.618-18.685-2.253"/><path d="m847.58 575.67c36.956-1.686 73.77-6.627 110.7-9 20.874-1.342 41.907-.76 62.61-4.334 15.01-2.591 30.26-2.297 45.41-2.667 2.61-.064 5.21-.399 7.8-.732 2.61-.334 5.18-1.045 7.79-1.268 2.99-.256 6-.111 9-.167 3-.056 6 .088 9-.167 9.74-.828 19.51-1.598 29.17-3.363 2.1-.385 4.59 2.216 5.09 4.786.74 3.844-33.27 6.801-53.47 8.344-62.8 4.8-25.4 3-76.58 4.501-1.46.043-115.58 5.502-117.02 5.735-3.482.561-6.978 1.01-10.479 1.334-1.251.117-2.513-.13-3.762 0-5.205.538-10.379 1.483-15.585 2-1.071.106-26.13 2.997-26.06 1.667.357-7.12 10.645-6.406 16.391-6.668"/><path d="m1160.23 348.82c-24.2 22.312-12.89 64.58-20.56 96.59-4.96 20.669-6.62 42.05-8.11 63.25-.37 5.3-.88 10.589-1.24 15.89-.16 2.347-.41 4.701-.31 7.05.1 2.341.67 4.639.93 6.968.26 2.336.4 4.728.04 7.05-1.94 12.673-5.59 12.298-.82 11.173 11.5-2.712 9.51-22.05 10.67-33.807 3.62-36.679 7.76-73.36 14.1-109.67 2.65-15.178 3.39-30.657 6.23-45.801.48-2.526 1.36-4.96 1.93-7.465 2.66-11.628-1.15-12.809-2.86-11.229"/></g><g fill-opacity=".376"><path d="m512.9 324.43c-2.883-7.792 3.688-12.756 8.751-16.252 11.907-8.222 23.806-18.18 30.25-31.13 9.245-18.57 4.656-11.573 5.876-10.876 12.41 7.092-10.08 28.808-21.878 36.88-8.639 5.911-19.372 31.2-23 21.378"/><path d="m449.91 427.32c.392-28.527 22.307-48.657 33.08-75.929 4.57-11.57 12.238-21.987 15.527-39.778.877-4.742 4.2 10.196 3.809 14.972-2.834 34.64-19.736 51.904-34.636 75.961-3.807 6.146-6.807 12.63-9.796 19.09-4.55 9.828-8.228 23.4-7.985 5.688"/><path d="m474.61 576.31c-11.847-5.249-42.595-35.04-44.918-45.845-5.068-23.582 7.194-71.42 10.991-94.93.858-5.307-6.507-25.427 1.571-15.962 3.532 4.138 4.403 5.074 5.507 7.954 5.632 14.685-.346 30.597-2.607 45.553-3.991 26.411-5.181 45.886 8.12 65.56 11.835 17.502 22.459 38.17 21.336 37.672"/><path d="m544.59 744.86c10.191 1.362 28.1-12.602 28.17-23.837.022-3.555-32.716 23.23-28.17 23.837"/><path d="m560.61 269.13c3.511-2.174 4.074-8.205 2.685-12.09-2.247-6.291-8.31-11.372-14.394-14.13-3.249-1.474 3.437 11.02 6.583 15.475 2.29 3.243 3.669 11.653 5.126 10.751"/><path d="m506.19 329.12c1.261 5.733 10.168-4 3.832-12.487-2.865-3.839-4.737-8.853-8.834-11.335-14.271-8.646-7.834-2.566-7.335-2.167 12.504 9.987 10.172 16.14 12.337 25.989"/><path d="m454.8 427.15c-3.828-6.98-9.408-13.563-17.12-15.517-18.38-4.653-21.837.5-13.836.167 8.48-.353 22.837 5 27.09 21.601.556 2.173 3.232-3.352 3.875-5.501"/><path d="m396.75 286.11c8.795 14.821 16.291 44.906 20.04 40.853 21.463-23.18-28.316-54.795-20.04-40.853"/><path d="m407.34 308.28c-8.298 22.319-18.625 37.668-28.8 53.596-21.427 33.543-49.753 60.99-73.966 92.58-2.869 3.743-8.02 8.649-9.501 13.13-1.052 3.175-1.217 1.975-4.501 13.626-3.222 11.429 14.552-21.15 23.305-29.17 23.802-21.819 48.723-43.15 67.756-69.23 11.797-16.17 22.645-33.15 31.671-51.01 2.538-5.02-4-28.795-5.964-23.521"/><path d="m311.33 590.08c-2.255 136.41-24.16 70.58-2.25.501"/><path d="m502.94 634.73c-4.761 18.15 69.26 12.335 56.13 9.04-7.643-1.915-15.635-1.974-23.439-3.066-4.673-.654-9.625-1.479-14.269-2.312-20.08-3.598-17.542-7.01-18.419-3.667"/><path d="m725.17 564.01c6.942 5.107 13.262 11.06 19.253 17.252 1.287 1.33 6.905 8.537 7.733 10.193.333.666 6.973-6.306 6.25-7.251-7.808-10.221-19.647-22.467-32.485-21.694"/><path d="m709.42 582.51c6.294 5.717 12.505 12.07 20.32 15.418.576.247 11.315 6.956 11.739 6.495 5.876-6.376 4.01-4.435 4.03-4.454 1.234-1.25-21.566-19.641-35.09-20.21"/><path d="m687.67 610.6c4.409 12.202 14.609 29.26 26.22 23.468 1.09-.544 10.751-8.376 4.5-7.626-16.359 1.963-35.21-28.28-30.717-15.842"/><path d="m468.6 940.23c-23.748-.103-44.14 48.32-59.33 66.67-49.35 59.65-85.05 129.98-118.02 200.03-5.493 11.67-10.564 23.55-16.503 35.01-3.195 6.16 21.542 5.94 22.669 5.14 26.67-19.01 37.88-107.48 72.806-158.65 26.849-39.33 52.03-79.79 78.01-119.7 14.614-22.443 23.955-28.493 20.36-28.508"/><path d="m806.18 511.56c-2.778 9.129-21.311 25.07-26.67 36.588-.978 2.102 4.02 3.955 2.75 5.751-17.323 24.485-36.63 46.598-56.98 68.63-61.912 67.03-141.55 126.3-173.44 211.8-6.626 17.764-14.887 31.782-27.574 45.872-19.488 21.643-47.883 37.921-72.36 53.707-3.236 2.087-5.652 8.651-2.777 11.212 7.421 6.61 16.519-11.06 24.913-16.376 35.728-22.639 75.04-48.717 91.88-87.52 14.862-34.24 30.837-69.19 55.34-97.35 27.695-31.824 66.43-52.27 96.68-81.68 30.21-29.371 49.644-68.21 77.16-100.12 7.985-9.26 15.655-20.2 17.384-32.3.727-5.089-4.813-23.14-6.31-18.222"/></g><g fill="#bdbdbd"><path d="m512.1 329.31c8.09-10.285 17.839-29.13 30.25-25 5.04 1.675-4.923 9.411-7.417 14.1-6.383 12-12.139 24.348-17.337 36.907-7.529 18.19-22.18 1.516-20.963-4.182 2.078-9.725 9.636-20.14 19.213-22.822"/><path d="m466.68 412.4c11.17 14.361 20.04 16.881 12.415 33.401-4.748 10.292-19.792 58.52-27.368 50.09-12.804-14.248-1.71-59.42 14.287-82.15"/></g><path d="m397.81 348.77c-18.14 29.509-37.15 60.19-64.43 81.53-14.742 11.365-29.642 24.17-38.27 40.666-1.988 3.799-3.511 7.894-4.393 12.09-.355 1.689-.637 3.407-.695 5.133-.028.842-.078 1.687-.025 2.528.039.622.092 1.244.167 1.862.103.845.323 2.532 1.138 2.287 1.128-.34.819-2.24.915-3.414.15-1.818.32-3.659.838-5.408 1.523-5.145 4.216-9.915 7.05-14.471 9.123-14.668 23.06-26.06 36.928-36.35 12.935-9.741 24.355-21.589 34.453-34.25 16.881-21.17 30.07-45.03 44.827-67.73 31.539-46.801 77.71-82.5 122.34-117.04 11.674-9.148 22.9-19.695 36.676-25.19 4.03-1.605 8.491-2.611 12.809-2.238 1.633.142 3.244.47 4.86.739.812.135 2.068.438 2.451-.29.484-.919-.558-2.102-1.294-2.836-1.435-1.43-3.262-2.518-5.175-3.187-5.131-1.796-11.167-1.014-16.29.807-14.674 5.214-26.592 16.339-38.865 25.923-45.34 34.989-91.73 71.75-123.61 119.32-4.184 6.473-8.315 12.981-12.408 19.512"/><path d="m251.88 696.51c7.287 58.24 11.682 118.23 1.673 176.06-3.943 20.281-11.538 40.05-21.595 58.1-16.01 28.737-37.38 54.28-58.672 79.36-11.481 13.52-23.17 26.88-34.12 40.83-3.812 4.86-7.57 9.77-11.09 14.84-1.172 1.69-2.315 3.4-3.35 5.18-.518.88-1.264 1.78-1.264 2.81 0 .28.61.15.823-.02.149-.12.294-.25.428-.39.447-.46.889-.93 1.313-1.41 1.662-1.91 3.184-3.94 4.737-5.93 3.723-4.79 7.726-9.35 11.813-13.83 12.461-13.65 24.747-27.45 36.898-41.38 21.939-25.14 43.575-51.14 59.673-80.37 9.699-17.61 16.912-36.876 20.866-56.59 7.179-40.06 7.688-81.4 4.82-122-4.122-58.35-14.676-116.07-20.443-174.28-3.778-38.14-4.768-76.844-.848-114.97 1.471-11.549 8.242-22.18 15.464-31.31 10.47-13.241 22.435-26.27 27.954-42.23 9.335-30.3 14.894-61.962 27.444-91.08 5.276-12.241 12.25-24.24 21.828-33.506 5.861-5.672 12.981-10.205 20.508-13.344 9.194-3.472 19.407-4.629 29.21-3.98 14.821.981 29.352 4.655 43.889 7.703 8.08 1.693 16.239 3.211 24.475 3.757 2.848.189 5.725.233 8.563-.069 1.44-.154 3.197-.007 4.221-1.031.445-.446-.859-1-1.455-1.208-.804-.276-1.632-.484-2.459-.681-2.785-.663-5.593-1.224-8.383-1.863-8.328-1.907-16.58-4.127-24.859-6.231-15.462-3.93-31.21-7.595-47.15-8.242-9.748-.396-19.775 1.13-28.914 4.547-7.735 3.197-15.11 7.655-21.32 13.265-9.967 9-17.487 20.777-23.24 32.912-14.455 30.478-19.957 64.44-29.834 96.7-6.112 17.754-20.888 31.21-31.631 46.611-5.885 8.435-10.651 18.251-11.925 28.456-3.02 30.05-3.064 60.46-1.048 90.59 3.23 48.29 11.174 96.16 17 144.21"/><path d="m391.56 1064.19c10.408-16.97 21.342-33.62 32.27-50.27 6.493-9.89 13.04-19.752 19.477-29.682 3.695-5.698 7.359-11.418 10.974-17.17 1.991-3.168 3.937-6.365 5.859-9.575 1.404-2.345 2.794-4.699 4.119-7.089 1.122-2.024 2.229-4.061 3.167-6.177.553-1.247 1.938-3.418.718-4.03-.86-.43-1.637 1.103-2.164 1.907-.853 1.301-1.586 2.692-2.586 3.884-4.212 5.02-8.091 10.327-11.769 15.752-9.177 13.532-18.497 26.965-27.75 40.448-28.781 41.92-57.33 84.51-78.971 130.53-6.896 15.33-13.191 30.93-19.458 46.52-4.142 10.31-8.357 20.59-12.81 30.77-2.329 5.32-4.773 10.59-7.289 15.83-1.488 3.1-3.039 6.16-4.611 9.22-.844 1.64-1.706 3.27-2.551 4.9-.482.94-.954 1.88-1.362 2.85-.583 1.38-1.634 4.25-.152 4.5 2.158.37 4.053-1.85 5.646-3.35 2.433-2.3 4.55-4.97 6.212-7.87 4.607-8.05 8.437-16.52 12.215-24.99 11.06-24.78 20.17-50.4 31.14-75.22 11.461-24.79 25.15-48.57 39.676-71.69"/><path d="m699.37 506.36c-28.622 29.2-51.46 63.936-81.49 91.69-11.751 10.861-25.12 20.722-40.07 26.444-10.284 3.937-21.645 5.602-32.644 5.074-14.196-.968-29.31-4.136-40.814-12.508-9.818-7.145-16.542-18.838-19.915-30.503-4.093-14.268-12.224-27.17-20.237-39.667-7.15-11.151-14.577-22.805-17.333-35.763-3.984-23.873 7.55-48.17 6.253-72.34-.323-6.02-1.807-12.414-5.381-17.271-3.168-4.306-8.169-7.462-13.3-8.963-3.367-.985-6.875-1.553-10.378-1.751-1.63-.092-3.925-.832-4.874.497-.296.415.854.615 1.355.713.997.194 2 .338 3 .504 2.904.482 5.825.976 8.635 1.852 3.731 1.162 7.539 2.87 10.254 5.679 2.914 3.02 4.929 7.06 5.803 11.162 2.109 9.889-.006 20.336-1.853 30.28-3.096 16.657-7.45 33.859-4.826 50.597 5.588 27.619 29.403 48.875 36.993 76.01 3.669 13.02 11.163 26.05 22.05 34.07 12.426 9.158 28.755 12.841 44.15 13.969 11.925.633 24.24-1.142 35.426-5.332 18.15-6.802 34.16-19.287 47.931-32.927 35.24-34.898 61.749-79.32 101.95-108.37 6.604-4.414 15.21-5.948 23.15-5.656 14.808.546 30.27 6.26 41.505 15.924 5.509 4.739 10.249 11.216 11.837 18.307 1.701 9.46-2.01 19.732-6.924 27.99-6.603 11.09-15.214 20.85-22.674 31.38-42.45 61.07-96.41 114.19-153.17 162.24-12.37 10.621-21.973 24.51-29.675 38.879-14.521 27.09-23.797 57.629-43.22 81.45-18.695 21.901-42.39 39.16-65.57 56.24-8.874 6.541-17.818 13.02-26.26 20.11-2.841 2.388-5.66 4.819-8.264 7.463-1.569 1.594-3.857 3.02-4.207 5.227-.109.689 1.451.098 2.084-.194.905-.417 1.771-.916 2.632-1.418 3.099-1.809 6.102-3.78 9.113-5.732 8.362-5.422 16.69-10.901 24.914-16.531 25.711-17.604 51.28-36.485 71.57-60.13 19.17-23.384 28.862-53.15 42.772-80 7.506-14.49 16.809-28.667 29.18-39.31 57.25-48.563 111.57-102.32 154.3-164.05 8.429-11.945 18.4-22.961 25.16-35.924 4.569-8.759 7.243-19.408 5.475-29.13-1.955-8.651-7.565-16.666-14.298-22.439-13.271-11.38-31.906-17.966-49.39-17.658-8.409.147-17.242 2.354-24.23 7.03-9.436 6.831-18.32 14.488-26.502 22.781"/><path d="m498.9 361.15c5.638-12.805 10.324-27.63 7.408-41.31-.892-4.189-2.413-8.358-4.787-11.923-.765-1.148-1.586-2.269-2.526-3.279-.654-.702-1.34-1.379-2.087-1.98-.925-.742-2.955-1.764-3.489-.705-.467.928 1.085 1.779 1.518 2.724.693 1.514 1.194 3.113 1.912 4.616 2.313 4.845 3.881 10.226 4.04 15.592.451 15.246-6.52 30.23-13.838 43.615-8.402 15.362-18.484 29.748-27.382 44.828-2.533 4.294-4.86 8.714-7 13.217-.802 1.687-1.604 3.383-2.206 5.152-.38 1.116-.822 2.564-.151 3.533 1.082 1.56 4.1.327 5.641-.781 2.515-1.81 3.727-4.979 5.199-7.704 4.173-7.725 8.777-15.211 13.373-22.692 8.609-14.01 17.747-27.847 24.375-42.9"/><path d="m561.37 286.68c5.124-10.208 2.069-24.21-3.708-34.07-1.057-1.803-2.239-3.543-3.566-5.159-1.232-1.501-2.524-3.02-4.135-4.105-.949-.641-2.701-1.555-3.377-.631-.38.52.273 1.296.644 1.822.489.695.54 1.617.9 2.386 1.468 3.131 3.468 5.995 4.897 9.144 3.93 8.657 6.354 20.544 1.148 28.499-8.22 11.11-20.795 18.211-31.31 27.18-3.704 3.159-7.144 6.74-9.831 10.798-1.335 2.02-3.176 4.137-3.114 6.556.023.932 1.085 1.811 2.01 1.95 1.908.287 4.154-.348 5.532-1.699 1.457-1.429 2.458-3.262 3.775-4.821 2.078-2.463 4.438-4.685 6.851-6.821 10.794-9.556 23.599-17.354 32.06-29.02l.921-1.442.304-.566"/><path d="m603.98 192.29c4.292-9.181 8.308-18.491 12.228-27.836 1.957-4.666 3.914-9.335 5.691-14.07.945-2.519 1.875-5.04 2.76-7.586.499-1.435.972-2.881 1.403-4.338.31-1.047.603-2.101.831-3.168.308-1.444.741-4.349-.735-4.366-1.112-.014-1.174 1.892-1.826 2.793-1.907 2.64-3.568 5.479-4.919 8.442-3.627 7.954-7.303 15.886-11.03 23.795-11.605 24.651-24.21 48.818-35.965 73.4-2.438 5.101-4.821 10.231-7.117 15.399-.169.379-.335.759-.497 1.141-.698 1.648-1.398 3.295-2.082 4.949-.42 1.015-.823 2.037-1.228 3.058-.2.504-.401 1.01-.589 1.518-.511 1.383-1.029 2.763-1.508 4.158-.139.404-.259.816-.344 1.234-.218 1.069.179 2.781 1.241 3.03 2.563.596 5.39-1.812 6.777-4.048 2.275-3.668 3.603-7.843 5.385-11.773 4.77-10.52 9.75-20.945 14.785-31.34 5.557-11.474 11.338-22.84 16.736-34.389"/><path d="m305.31 637.14c-.954 5.452-1.759 10.93-2.465 16.419-.424 3.294-.809 6.597-1.028 9.91-.127 1.911-.229 3.827-.207 5.741.023 2.039.04 4.115.529 6.095.251 1.013.95 2.554 1.986 2.421.74-.095.668-1.335.967-2.02.935-2.142 1.465-4.465 1.788-6.78.704-5.05 1.624-10.07 2.607-15.07 3.02-15.393 7.37-30.769 7.525-46.46.072-7.223-.599-14.68-3.141-21.441-.682-1.814-1.245-4.369-3.104-4.915-1.772-.52-3.577 1.86-4.216 3.592-.592 1.605.109 3.448.541 5.103.534 2.051.95 4.132 1.318 6.219 1.055 5.983.944 12.169.427 18.223-.658 7.714-2.194 15.33-3.527 22.956"/><path d="m409.24 297.35c-1.709-3.03-3.917-5.772-6.232-8.367-1.096-1.228-2.241-2.423-3.504-3.477-1.336-1.115-2.705-2.418-4.401-2.804-.904-.207-2.193.239-2.558 1.092-.139.325.375.622.428.972.327 2.152 1.94 3.922 3.224 5.68 2.638 3.612 5.271 7.294 7.166 11.346 2.303 4.921 3.732 10.267 4.648 15.623.323 1.887.599 3.783.904 5.674.189 1.172.105 2.504.79 3.474 1.308 1.851 5.345.796 6.726-1 .946-1.231.225-3.11.078-4.655-.778-8.181-3.23-16.4-7.269-23.557"/><path d="m509.21 364.49c2.43.25 5.184.774 7.317-.418 1.145-.639 1.389-2.505 1.087-3.781-.184-.776-1.17-1.136-1.903-1.45-1.391-.597-2.856-1.036-4.341-1.329-3.119-.614-6.13-1.891-9.301-2.1-.899-.059-1.873.044-2.661.482-1.112.619-.623 2.501-.583 3.773.036 1.166-.433 2.923.61 3.448 1.092.55 2.436.218 3.653.339 2.059.205 4.063.823 6.122 1.036"/><path d="m474.33 426.13c1.16 1.438 2.518 2.705 3.835 4 1.127 1.108 2.315 2.509 3.88 2.726.943.131 2.278-.346 2.565-1.253 1.103-3.484-2.542-6.925-4.57-9.965-2.01-3-3.444-6.404-5.731-9.202-.829-1.015-1.911-2.667-3.175-2.32-1.473.405-2.568 1.719-3.576 2.867-.512.583-1.329 1.258-1.164 2.02.38 1.741 2.11 2.873 3.15 4.32 1.62 2.252 3.045 4.649 4.786 6.809"/><path d="m447 496.67c.487.4.97.806 1.483 1.172 1.147.713 2.477 1.225 3.823 1.347 1.606.145 3.272-1.984 3.237-3.597-.025-1.171-1.306-2.01-2.26-2.69-1.921-2.416-2.69-5.941-5.296-7.596-1.247-.793-2.986.735-4.087 1.722-.861.774-2.501 1.52-2.246 2.649.255 1.129 1.408 1.838 2.122 2.749 1.095 1.399 2.16 2.821 3.224 4.244"/><path d="m755.61 532.03c5.095 2.928 9.774 6.71 13.735 11.05 3.154 3.667 5.519 7.945 8.267 11.927 1.227 1.777 2.619 3.482 4.277 4.866 1.695 1.414 4.135 2.457 6.301 2.034 1.512-.295 3.509-1.282 3.667-2.815.05-.485-.219-1.117-.671-1.301-.777-.316-1.631.75-2.45.571-1.518-.33-2.809-1.499-3.803-2.692-4.23-5.074-6.405-11.617-10.466-16.826-8.01-9.632-19.812-16.32-31.759-20.08-.248-.095.309.915.424.676.29-.605.436-1.274.751-1.866 1.146-2.154 2.675-4.094 4.239-5.967 3.07-3.679 6.364-7.169 9.672-10.636 1.983-2.078 3.991-4.133 5.915-6.266.866-.96 1.743-1.911 2.599-2.88.82-.929 1.621-1.874 2.43-2.813.048-.057.095-.115.14-.173 1.023-1.305 2.393-2.525 2.753-4.143.165-.741-.257-1.689-.901-2.09-1.877-1.167-4.825-.794-6.611.508-3.374 2.459-5.865 5.944-8.759 8.954-3.677 3.825-7.337 7.673-10.793 11.699-3.779 4.403-8.257 9.185-8.916 14.95-.333 2.917 2.232 6.356 5.04 7.225 5.154 1.517 10.361 3.253 14.923 6.09"/><path d="m743.49 587.49c1.988 2.262 4.048 4.468 5.879 6.859 1.052 1.372 2.091 2.756 3.082 4.173 1.101 1.572 2.09 3.234 3.337 4.692.745.871 2.415 1.647 3.309.931.318-.255-.047-.825.048-1.221.3-1.262.347-2.688-.14-3.891-1.176-2.9-2.543-5.741-4.196-8.398-4.859-7.81-11-14.882-17.76-21.12-2.769-2.557-5.767-5.05-9.238-6.523-1.567-.664-3.85-1.965-5.05-.757-1.464 1.472-1.334 4.282-.549 6.204.639 1.564 2.833 1.842 4.239 2.779 2.723 1.813 5.248 3.929 7.645 6.156 3.371 3.133 6.355 6.662 9.394 10.118"/><path d="m731.85 604.82c2.897 2.133 5.792 4.328 8.264 6.942 1.361 1.44 2.6 3.01 3.616 4.715.602 1.01 1.123 2.061 1.658 3.106.245.479.498.975.881 1.353.583.573 2.058 1.094 2.424.364 2.665-5.321-2.01-12.539-6.234-16.729-6.976-6.918-15.16-12.501-22.81-18.666-2.641-2.129-5.241-4.311-7.911-6.403-.83-.651-2.053-1.445-3.01-.991-1.877.892-3.656 3.636-2.843 5.549.896 2.107 3.103 3.386 4.865 4.847 3.109 2.577 6.355 4.99 9.63 7.353 3.869 2.79 7.626 5.731 11.466 8.56"/><path d="m708.19 639.76c3.689 1.852 7.747 2.939 11.778 3.828 3.775.833 7.765 1.048 11.588.476 2.154-.322 5.751-1.078 5.665-3.254-.032-.825-1.369-.935-2.112-1.294-2.274-1.1-5.01-.679-7.513-.993-6.227-.779-12.389-2.956-17.795-6.142-6.401-3.772-12.11-9.239-15.884-15.637-1.269-2.149-2.205-4.508-2.886-6.91-.353-1.246-.316-2.977-1.449-3.607-1.952-1.086-5.46.451-6.195 2.562-.374 1.074.092 2.284.33 3.396.488 2.277 1.256 4.517 2.313 6.592 4.618 9.06 13.07 16.418 22.16 20.983"/><path d="m535.5 652.07c3.803-.076 7.597-.567 11.348-1.198 2.452-.412 4.9-.852 7.338-1.34 1.181-.237 2.356-.51 3.522-.812 1.277-.331 2.633-.656 3.678-1.461.627-.484 1.053-1.587.67-2.281-.22-.397-.922-.102-1.326-.308-2.493-1.272-5.57-.907-8.365-.744-6.739.393-13.54 1.501-20.241.681-6.626-.812-13.08-3.209-19.03-6.242-2.112-1.076-4.165-2.265-6.273-3.351-1.39-.716-2.82-2.074-4.351-1.755-2.168.452-3.119 4.214-2.252 6.252.428 1.01 1.625 1.48 2.548 2.067 1.663 1.055 3.359 2.063 5.1 2.983 8.44 4.459 18.09 7.7 27.634 7.509"/><path d="m562.31 733.02c1.844-1.565 3.535-3.306 5.183-5.077 1.133-1.217 2.243-2.458 3.306-3.737 1.059-1.273 2.318-2.72 2.351-4.375.016-.758-.5-1.584-1.161-1.955-.27-.151-.579.272-.888.269-1.495-.016-2.901.935-4.086 1.847-2.82 2.171-5.527 4.488-8.335 6.676-3.881 3.02-8.168 5.501-12.414 7.987-2.631 1.539-5.688 2.741-7.557 5.149-1.488 1.916 1.968 6.379 4.335 5.846 2.961-.667 5.299-2.971 7.849-4.619 3.905-2.523 7.872-5 11.417-8.01"/><path d="m512.5 374.76c6.529-15.281 13.178-30.53 20.619-45.39 4.04-8.06 8.173-16.08 12.5-23.987 2.378-4.348 4.775-8.686 7.192-13.01.964-1.725 1.896-3.469 2.82-5.216.631-1.194 1.263-2.389 1.817-3.621.135-.3.265-.603.388-.908.103-.256.2-.515.288-.776.266-.786.512-2.442-.316-2.467-1.795-.055-2.286 2.771-3.488 4.106-3.554 3.946-6.724 8.256-9.562 12.746-7.681 12.149-14.754 24.704-21.17 37.564-19.16 38.38-34.934 78.37-51.2 118.06-4.319 10.541-8.61 21.1-12.92 31.64-2.098 5.133-4.186 10.27-6.25 15.417-.885 2.209-1.797 4.408-2.624 6.639-.239.644-.481 1.287-.678 1.945-.346 1.153-.739 2.472-.31 3.596.213.558 1.062.842 1.644.712 4.662-1.041 7.343-6.552 9.283-10.917 2.505-5.639 4.935-11.312 7.289-17.02 7.092-17.19 14-34.444 20.912-51.705 7.696-19.23 15.628-38.37 23.766-57.42"/><path d="m830.5 262.36c-14.441 33.64-29.24 67.13-43.06 101.03-7.298 17.907-14.441 35.884-21.09 54.04-3.671 10.02-7.197 20.1-10.506 30.24-1.53 4.693-3.02 9.399-4.417 14.13-.841 2.847-1.662 5.7-2.424 8.57-.441 1.66-.881 3.322-1.257 4.999-.209.927-.41 1.856-.585 2.789-.128.679-.245 1.362-.328 2.048-.101.831-.505 2.536.332 2.491 1.044-.056 1.288-1.686 1.649-2.667.873-2.376 1.447-4.856 2.333-7.227 2.16-5.786 4.725-11.415 6.923-17.19 7.03-18.463 13.704-37.07 21.09-55.39 21.17-52.53 44.554-104.14 67.18-156.06 4.4-9.698 9.439-19.1 14.41-28.515 2.596-4.918 5.204-9.831 7.658-14.821 2.474-5.03 5.02-10.11 6.477-15.526.499-1.856.784-3.971.092-5.764-.557-1.445-2.02-2.672-3.524-3.03-17.07-3.586-34.15-7.167-51.21-10.816-26.27-5.755-52.52-11.623-78.82-17.227-13.961-2.975-27.953-5.817-41.988-8.419-9.347-1.733-18.714-3.359-28.1-4.886-4.86-.791-9.732-1.505-14.605-2.209-.704-.102-1.41-.195-2.116-.289-2.558-.342-5.116-.685-7.675-1.019-2.685-.35-5.388-.618-8.094-.679-1.159-.026-2.328-.028-3.472.156-.607.098-1.581.276-1.616.889-.051.918 1.211 1.437 2.01 1.884 1.32.735 2.726 1.312 4.139 1.847 4.67 1.769 9.516 3.09 14.4 4.136 13.998 3 28.2 4.935 42.27 7.617 40.846 7.79 81.41 17 122.06 25.742 17.09 3.586 34.19 7.095 51.29 10.614-.452-.106-.894-.323-1.241-.631-.227-.201-.424-.441-.572-.706-.078-.139-.141-.287-.215-.548l-.012-.064c-.709 1.858-.927 3.881-1.654 5.731-1.964 5-4.383 9.817-6.825 14.603-6.632 12.994-13.758 25.755-19.757 39.05-3.044 7.02-6.085 14.05-9.152 21.06"/><path d="m815.19 349.84c-9.139 23.329-18.17 46.702-26.985 70.15-3.971 10.565-7.927 21.14-11.715 31.768-1.557 4.37-3.097 8.748-4.487 13.174-.508 1.616-.997 3.238-1.411 4.88-.1.398-.196.798-.283 1.2-.073.335-.14.671-.197 1.01-.047.276-.087.553-.116.831-.023.221-.038.443-.039.665-.002.505.319 1.427.803 1.284.797-.235 1.083-1.293 1.401-2.06.543-1.308.955-2.682 1.653-3.915 2.42-4.276 4.617-8.689 6.531-13.213 4.789-11.318 9.289-22.755 13.894-34.15 15.663-38.746 31.06-77.61 47.46-116.05 10.188-23.19 22.368-45.47 32.824-68.54 3.371-7.438 6.467-15.04 8.782-22.872 1.88-6.363 3.988-13.709 1.475-19.85-.538-1.272-1.143-2.547-1.381-3.908-.263-1.497-.086-3.253-1.032-4.443-1.532-1.927-3.569-3.437-5.635-4.777-1.398-.906-3.275-2.568-4.7-1.705-.976.592-.306 2.368.132 3.421 1.024 2.465 2.775 4.564 4.272 6.775.095.14.177.29.204.461-.275-.148-.322-.546-.392-.85-.116-.506.167-.765-.082-.499-.72.77-.176 2.119-.024 3.162.269 1.839.996 3.587 1.67 5.319.66 1.731.426 3.724.153 5.556-.487 3.262-1.378 6.458-2.34 9.612-2.408 7.895-5.697 15.51-9.09 23.03-10.186 22.581-21.935 44.45-31.735 67.2-6.59 15.752-13.187 31.502-19.605 47.32"/><path d="m630.05 776.07c-2.169 5.143-4.368 10.272-6.541 15.413-.335.842 1.125-.06.501.147-.718.237-1.437-.506-2.078-.906-.979-.61-1.894-1.32-2.798-2.036-2.851-2.258-5.482-4.821-8.539-6.79-1.174-.755-2.413-1.462-3.749-1.866-.766-.231-2.051-.106-2.31.651-.282.822 1.07 1.378 1.491 2.138 1.023 1.845 2.432 3.469 3.905 4.978 3.71 3.801 7.211 8.753 12.36 10.06 2.607.659 6-1.152 7.251-3.534 7.416-15.258 14.568-30.644 21.745-46.02 2.916-6.245 5.818-12.506 8.356-18.915.414-1.045.818-2.095 1.203-3.152.346-.95.683-1.905.99-2.869.271-.854.314-2.01-.293-2.673-1.344-1.457-4.324-.682-5.928.483-1.892 1.373-2.514 3.96-3.481 6.089-3.098 6.818-6.127 13.668-9.189 20.502-4.239 9.46-8.53 18.898-12.896 28.3"/><path d="m673.02 745.89c3.543-9.181 6.872-18.45 9.915-27.808 1.114-3.424 2.143-6.879 3.03-10.367.358-1.408.693-2.824.929-4.257.118-.721.218-1.448.253-2.178.05-1.055-.607-3.114-1.594-2.738-.742.283-.661 1.461-1.146 2.09-1.5 1.944-2.698 4.144-3.595 6.43-2 5.104-4.03 10.2-6.094 15.281-4.922 12.12-9.631 24.358-15.31 36.15-3.231 6.707-6.01 13.773-10.483 19.722-3.042 3.852-5.922 8.371-10.364 10.458-1.775.834-3.654 1.442-5.539 1.98-1.753.5-4.373.684-4.899 2.429-.587 1.948 1.949 4.15 3.911 4.684 2.339.637 4.875-.34 7.198-1.033 6.678-1.99 11.605-8.102 15.857-13.623 3.02-4.135 5.165-8.857 7.361-13.483 3.715-7.823 7.191-15.759 10.567-23.734"/><path d="m749.48 203.26c24.713 5.883 49.569 11.179 74.49 16.09-.413-.097-.807-.345-1.083-.666-.108-.126-.202-.266-.275-.416-.04-.081-.074-.773-.106-.307-.176 2.589-1.271 5.05-2.275 7.445-2.356 5.612-5.248 11.02-7.174 16.79-8.46 28.25-19.255 55.84-31.45 82.69-15.875 35.04-30.443 70.69-43.969 106.71-4.636 12.346-9.232 24.71-13.598 37.15-1.511 4.308-3.01 8.622-4.366 12.98-.54 1.729-1.069 3.465-1.481 5.229-.218.934-.886 2.177-.222 2.868.283.294.764-.402.959-.759.274-.501.542-1 .787-1.519.29-.61.557-1.232.82-1.854 1.247-2.962 2.301-6 3.474-8.993 3.85-9.817 8.487-19.31 12.486-29.07 7.235-17.656 14.156-35.44 21.455-53.07 9.332-22.535 19.1-44.896 29.349-67.03 12.553-27.04 23.638-54.864 32.33-83.38 1.346-3.961 3.219-7.724 4.97-11.524 2.039-4.424 4.391-8.935 4.856-13.785.242-2.515-1.675-5.793-4.14-6.348-36.827-7.399-73.46-15.827-109.81-25.295-26.691-6.964-53.58-13.14-80.34-19.854-2.197-.48-4.645 1.372-5.93 3.218-1.827 2.625-3.32 5.477-4.746 8.341-3.543 7.117-6.624 14.458-9.788 21.752-17.01 38.41-34.994 76.45-49.808 115.76-11.867 31.706-24.974 62.952-38.674 93.91-7.667 17.326-15.496 34.581-23.335 51.83-4.999 11-9.99 22.01-14.939 33.03-2.69 5.992-5.359 11.993-8.02 17.998-1.645 3.717-3.275 7.442-4.891 11.172-.96 2.213-1.925 4.425-2.813 6.669-.365.923-.732 1.845-1.087 2.772-.306.801-.605 1.604-.895 2.411-.611 1.701-1.205 3.417-1.611 5.179-.193.839-.765 2.333.059 2.582 1.242.376 2.101-1.575 2.895-2.601 1.428-1.843 2.705-3.801 3.946-5.774 3.154-5.01 6.05-10.193 8.808-15.435 8.552-16.26 15.717-33.21 23.397-49.903 22.896-49.76 45.41-99.8 64.5-151.14 14.681-39.2 32.507-77.15 49.36-115.46 1.976-4.589 3.924-9.19 5.975-13.745 1.164-2.585 2.349-5.162 3.606-7.703.379-.765.763-1.527 1.157-2.284.356-.682.718-1.361 1.094-2.032.321-.574.65-1.143.996-1.702.442-.715 1.147-1.273 1.473-2.049.106-.254-.477.288-.741.369-.574.177-1.214.17-1.801.043 26.744 6.642 53.621 12.756 80.29 19.682 11.921 3.09 23.859 6.117 35.828 9.02"/><path d="m719.27 263.6c13.923 3.718 27.947 7.078 42.04 10.06 6.686 1.415 13.408 2.667 20.15 3.76 2.964.48 5.94.891 8.926 1.205 1.56.163 3.12.348 4.687.406.409.015.817.034 1.226.044.357.009.714.013 1.071.011.308-.0001.616-.007.924-.021.262-.011.524-.028.786-.052.919-.087 2.633-.573 2.357-1.454-.319-1.022-1.999-.795-3.047-1.017-.333-.071-.66-.171-.98-.288-.617-.226-1.22-.491-1.829-.741-3.877-1.592-8.08-2.255-12.172-3.148-10.234-2.233-20.416-4.71-30.555-7.341-32.611-8.464-64.722-18.835-97.48-26.72-10.276-2.474-20.612-4.782-31.06-6.381-3.739-.573-7.493-1.056-11.254-1.455-1.456-.155-2.918-.336-4.381-.296-.982.027-2.129.126-2.833.811-.596.579-.283 1.802.19 2.486 2.254 3.261 6.863 4.396 10.776 5.03 4.34.707 8.67 1.484 12.985 2.336 14.221 2.808 28.343 6.136 42.37 9.803 15.752 4.119 31.365 8.755 47.1 12.956"/><path d="m679.99 417.27c-.694 3.01-.807 6.257-.094 9.26.338 1.426 2.064 2.96 3.499 2.662 1.374-.284 1.813-2.266 2.123-3.634.528-2.337.764-4.773 1.675-6.989.913-2.223 2.191-4.329 3.751-6.156.99-1.159 2.648-2.101 2.797-3.618.125-1.271-.864-2.456-1.666-3.449-.764-.946-1.826-2.37-3-2.069-1.891.482-2.995 2.547-4.186 4.092-2.248 2.916-4.067 6.314-4.895 9.901"/><path d="m662.38 409.97c-.696 3.286-.851 6.699-.68 10.05.159 3.131.798 6.334 2.175 9.152.804 1.647 2.443 4.179 4.175 3.579.722-.251.675-1.379.905-2.108.586-1.861-.312-3.892-.549-5.829-.489-3.998-.207-8.148.749-12.06 1.564-6.403 4.905-12.395 8.814-17.702 1.257-1.706 2.572-3.37 3.881-5.04.773-.984 1.856-1.851 2.173-3.061.577-2.197-3.068-4.534-5.321-4.253-1.801.224-2.832 2.303-3.999 3.692-5.705 6.788-10.486 14.9-12.323 23.574"/><path d="m632.54 399.81c-1.055 4.952-.854 10.246.253 15.186 1.566 5.191 4.224 10.1 7.416 14.479.686.942 1.488 1.815 2.391 2.552.78.636 1.825 1.246 2.818 1.085.707-.115 1.441-.929 1.385-1.643-.046-.593-.765-1.168-1.36-1.156-.342.006-1.199.619-.862.558.834-.15.979-1.65.69-2.447-.556-1.534-1.473-2.913-2.157-4.394-1.556-3.366-2.984-6.834-3.836-10.444-.695-4.383-.723-9.07.625-13.299 2.492-7.817 7.448-14.834 12.908-20.959 3.125-3.504 6.456-6.821 9.748-10.168 1.618-1.645 4.063-2.972 4.528-5.231.457-2.219-3.626-4.051-5.824-3.503-1.426.356-2.419 1.68-3.522 2.65-2.157 1.894-4.171 3.947-6.191 5.986-8.482 8.559-16.02 19.07-19.01 30.748"/><path d="m609.34 389.52c-.872 6.01-.728 12.168-.203 18.218.49 5.654 1.765 11.362 4.149 16.512.832 1.797 1.766 3.569 2.947 5.158.735.989 2.041 2.353 3.182 1.885.592-.243.334-1.306.141-1.916-.285-.899-.116-1.887-.278-2.816-.587-3.36-1.852-6.575-2.504-9.924-1.801-9.245-1.786-19.03.106-28.26 2.328-11.352 7.06-22.561 14.06-31.793 2.611-3.442 5.566-6.644 8.769-9.543 1.608-1.455 4.253-2.48 4.574-4.624.362-2.417-4.242-4.01-6.566-3.26-1.82.591-3.158 2.177-4.603 3.433-2.504 2.176-4.807 4.601-6.892 7.181-9.05 11.197-14.822 25.499-16.887 39.745"/><path d="m1039.39 355.92l1.66-.416c35.7-8.874 71.82-15.621 107.67-23.752 11.77-2.67 23.51-5.551 35.12-8.975 3.91-1.157 7.83-2.33 11.68-3.732 1.21-.441 2.42-.91 3.58-1.479.66-.323 1.75-.607 1.75-1.385.001-.804-1.5-.323-2.23-.164-1 .216-1.97.522-2.94.807-2.97.864-6.05 1.15-9.08 1.716-10.38 1.94-20.63 4.597-30.96 6.809-17.73 3.792-35.51 7.211-53.29 10.685-20.94 4.09-41.8 8.578-62.57 13.549-33.14 7.976-66.5 14.845-99.93 21.265-16.636 3.196-33.3 6.243-49.938 9.411-10.142 1.932-20.283 3.871-30.41 5.888-6.826 1.36-13.644 2.762-20.458 4.186-4.087.854-8.166 1.752-12.245 2.653-1.666.367-3.33.741-4.995 1.113-.219.049-.438.099-.657.15-3.255.757-6.537 1.418-9.731 2.43-.94.298-1.878.623-2.769 1.064-.597.296-1.614.766-1.442 1.448.299 1.183 2.094 1.087 3.228 1.231 2.01.254 4.04.26 6.07.186 6.364-.234 12.648-1.688 18.907-2.951 16.629-3.354 33.28-6.562 49.94-9.761 51.48-9.889 103.02-19.657 154.04-31.976"/><path d="m1012.92 581.25c21.36-1.542 42.71-3.274 64.05-5.115 12.72-1.097 25.43-2.315 38.14-3.58 8.05-.8 16.09-1.656 24.13-2.589 4.07-.472 8.14-.962 12.21-1.48 2.97-.379 5.94-.798 8.9-1.26.77-.12 1.54-.244 2.31-.373.67-.113 1.34-.23 2.01-.353 1.46-.269 2.93-.557 4.38-.953.32-.088.64-.184.96-.29.25-.084.5-.175.75-.281.44-.189 1.23-.471 1.13-1.068-.09-.555-.79-.526-1.22-.561-.29-.024-.58-.022-.87-.015-.33.008-.65.033-.97.059-1.7.139-3.4.424-5.1.389-7.94-.163-15.88.28-23.8.918-21.48 1.731-42.96 3.377-64.44 4.917-69.54 4.986-139.16 8.339-208.78 10.925-10.909.446-21.82.937-32.714 1.813-5.421.437-10.836.975-16.251 1.521-3.99.403-7.978.822-11.967 1.234-1.841.19-3.683.383-5.524.578-.708.076-1.415.16-2.123.234-2.478.26-4.966.449-7.424.94-.932.186-1.865.404-2.765.767-.608.245-1.632.624-1.555 1.454.056.604.633.935 1.053 1.188.844.508 1.755.814 2.66 1.083 2.01.599 4.067.941 6.121 1.171 6.21.697 12.47-.139 18.688-.674 17.307-1.488 34.633-2.664 51.967-3.396 48.695-1.878 97.38-4.176 146.04-7.203"/><path d="m837.91 504.45c-1.669 11.1-2.901 22.256-4.04 33.419-.555 5.441-1.098 10.884-1.489 16.338-.221 3.084-.437 6.168-.596 9.255-.086 1.675-.145 3.352-.165 5.03-.015 1.204-.011 2.41.051 3.612.081 1.589.34 4.863 1.86 4.394 1.173-.362.624-2.377 1.028-3.537 1.186-3.402 1.965-6.958 2.451-10.528 1.342-9.851 2.651-19.707 4.062-29.549 4.221-29.451 9.547-58.807 16.819-87.66 1.495-5.933 3.036-11.855 4.589-17.773.634-2.413 1.28-4.823 1.9-7.239.285-1.112.554-2.227.837-3.339.16-.63.335-1.256.491-1.887.497-2.02 1.15-4.02 1.377-6.091.124-1.143-.353-2.982-1.495-3.108-2.809-.309-5.331 2.879-6.485 5.457-2 4.48-2.89 9.381-4.207 14.11-3.438 12.337-6.472 24.791-9.139 37.32-2.95 13.859-5.741 27.766-7.849 41.779"/><path d="m1130.1 527.91c.21 5.426.49 10.938-.26 16.293-.32 2.251-.82 4.65-2.04 6.397-.75 1.069-1.96 1.707-3.11 1.91-20.67 2.767-41.49 3.567-62.26 4.697-51.3 2.961-102.64 5.466-153.84 10.196-16.58 1.532-33.15 3.289-49.661 5.688-5.875.854-11.749 1.748-17.588 2.9-1.726.341-3.45.706-5.155 1.17-1.032.28-2.616.116-2.979 1.309-.119.389.614.464.958.467.49.005.981.003 1.47-.023 1.385-.072 2.765-.26 4.143-.446 4.673-.632 9.36-1.148 14.06-1.422 11.846-.691 23.672-1.825 35.499-2.892 23.97-2.163 47.975-3.801 71.987-5.139 33.781-1.882 67.57-3.469 101.36-5.236 20.9-1.024 41.85-1.786 62.65-4.495 2.14-.367 4.35-1.4 5.94-3.164 2.11-2.343 3.32-5.839 3.95-9.209 1.91-10.246.3-20.998.36-31.498.83-27.361 3.57-54.624 6.74-81.74 2.42-20.06 5.07-40.13 8.85-59.887 1.13-4.876 2.81-9.55 4.37-14.254 1.68-5.083 4.05-10.852 2.72-16.08-.72-2.851-4.05-4.668-6.52-4.319-28.93 5.258-57.51 13-86.28 19.431-49.84 11.11-99.53 23.273-149.58 32.876-7.457 1.481-14.87 3.324-22.21 5.501-4.161 1.234-8.316 2.5-12.475 3.743-2.304.688-4.61 1.373-6.911 2.079-1.531.469-3.064.929-4.59 1.422-1.801.581-3.603 1.171-5.373 1.877-.686.275-1.373.563-2.026.939-.384.221-1.071.552-.94 1.039.232.858 1.419.663 2.167.748 1.446.163 2.906.102 4.356.018 4.419-.254 8.817-.959 13.188-1.776 11.983-2.241 23.737-6.06 35.715-8.335 50.17-9.197 99.92-21.511 149.8-32.744 28.69-6.475 57.19-14.295 86.05-19.62 1.05-.153.4-.047.17-.251-.52-.481-.23-.66-.33-.491-.51.91-.09 2.204-.3 3.271-.38 1.883-.91 3.718-1.46 5.536-1.8 5.911-3.98 11.67-5.38 17.735-3.78 19.986-6.42 40.27-8.84 60.56-3.16 27.374-5.88 54.898-6.7 82.52-.02 4.236.15 8.471.3 12.704"/><path d="m912.03 445.19c.851-1.643 1.7-3.287 2.598-4.905.408-.735.828-1.463 1.242-2.195.039-.07.076-.141.118-.209.329-.54.657-1.08.995-1.615.106-.168.223-.33.337-.493.058-.084.132-.157.181-.246.127-.235-.45.292-.691.408-.405.196-.856.308-1.304.343-1.144.092-2.425-.386-3.222-1.211-.383-.397-.687-.89-.862-1.413-.067-.197-.129-.821-.115-.613.358 5.568-1.467 11.06-2.209 16.592-.383 3.595-.399 7.221-.487 10.836-.061 1.68-.094 3.363-.039 5.04.034 1.035.1 2.07.225 3.098.087.712.199 1.424.392 2.115.28 1 1.565 2.527 2.431 1.953.742-.491.327-1.765.692-2.576 1.256-2.791 1.937-5.839 2.379-8.867.477-3.478.762-6.985 1.387-10.439.703-3.351 1.386-6.705 2.084-10.06.637-3.06 1.78-6.305.978-9.326-.435-1.641-2.279-3.186-3.976-3.181-2.716.008-4.74 3.03-6.141 5.357-1.943 3.229-3.782 6.521-5.655 9.791-.488.8-.958 1.618-1.544 2.349-.095.118-.193.233-.294.346-.073.081-.149.159-.227.234-.42.403-.456.244-.05.145.194-.047.398-.059.597-.04 1.19.114.803.428.838.298.198-.732-.723-1.341-.976-2.056-.632-1.781-1.031-3.639-1.41-5.49-.676-3.302-.615-6.964-2.401-9.822-.983-1.573-3.478-2.484-5.233-1.885-1.809.616-2.917 2.761-3.414 4.606-1.215 5.41-2.056 10.901-2.815 16.393-.577 4.408-1.016 8.835-1.358 13.268-.213 2.77-.299 5.548-.395 8.324-.068 1.942-.5 4.056.314 5.82.455.987 1.946 1.485 3.01 1.256 2-.433 3.863-2.051 4.767-3.892.98-1.994.801-4.376 1.01-6.588.538-5.66 1.065-11.324 1.765-16.967.692-5.26 1.385-10.529 2.449-15.727.109-.442-.555.732-.901 1.03-.786.675-1.851 1.128-2.887 1.152-.973.024-2-.3-2.785-.88-.343-.256-.649-.569-.988-1.044-.043-.068-.085-.137-.197-.345l-.039-.085c1.045 5.845 1.835 12.07 4.984 17.1 1.558 2.491 5.04 4.496 7.917 3.878 3.448-.742 5.847-4.278 7.654-7.308l1.272-2.263"/><path d="m921.22 459.97c.018 2.883-.008 6.276 1.899 8.438.865.981 2.564 1.556 3.777 1.066 2.977-1.204 2.92-5.856 3.327-9.04.392-3.065 1.624-6.03 1.658-9.12.012-1.058.098-2.495-.787-3.075-1.258-.824-2.955-.66-4.458-.693-1.398-.03-2.998-.352-4.174.403-1.16.746-.395 2.731-.502 4.105-.207 2.643-.757 5.267-.74 7.918"/><path d="m929.58 433.09c1.998-.466 4.767-3.492 3.471-5.083-.511-.627-1.769-1.288-2.324-.699-.435.459-.206 1.309.029 1.896.248.616-1.312.713-1.975.445-.015-.504.742-.685 1.099-1.042.752-.752 1.547-2.593.628-3.129-1.884-1.1-5.363 1.617-5.33 3.798.021 1.332.908 2.748 2.054 3.428.727.318 1.563.503 2.348.386"/><path d="m937.48 449.62c-.042 3.653.262 7.307.61 10.944.121 1.26.261 2.525.543 3.76.386 1.687 2.876 4.347 4.127 3.151 1.557-1.49 2.053-3.884 2.364-6.02.494-3.386.701-6.81.879-10.226.394-7.54 2.577-14.986 2.308-22.531-.04-1.103.108-2.585-.799-3.213-1.292-.896-3.114-.755-4.677-.592-1.158.12-2.6.177-3.317 1.095-.608.781-.35 1.95-.455 2.933-.183 1.695-.3 3.396-.447 5.094-.45 5.194-1.077 10.386-1.136 15.6"/><path d="m951.43 455.42c.868 3.554 3.512 7.189 6.921 8.521 3.243 1.268 7.78.574 10.283-1.848.92-.889 1.137-3.546-.109-3.837-2.168-.506-4.629.482-6.667-.415-1.878-.827-2.874-3.384-2.889-5.436-.022-3 1.755-6.416 4.385-7.858 1.863-1.02 4.794-.25 6.06-1.951 1.112-1.487 1.056-3.731.617-5.535-.161-.66-.442-1.417-1.029-1.761-.954-.56-2.212-.257-3.315-.174-2.628.197-5.304 1.086-7.468 2.589-5.192 3.606-8.293 11.564-6.794 17.705"/><path d="m989.2 442.43c.38-.84.814-1.656 1.266-2.459.056-.1.108-.201.168-.298.211-.34.422-.682.647-1.013.162-.239.343-.465.515-.697.039-.053.076-.108.118-.159.097-.122.197-.241.3-.359.092-.104.186-.207.283-.307.084-.086.171-.17.259-.252.073-.068.148-.133.224-.196.727-.602.427-.29.262-.41 1.927.528 2.584 3.198 3.1 5.128.925 3.463 1.283 7.06 1.684 10.62.249 2.215.255 5.851 2.45 6.222.8.134 1.02-1.279 1.38-2.01.99-2.036 1.55-4.341 1.59-6.606.09-4.778.06-9.841-1.87-14.214-1.1-2.502-3.102-4.869-5.594-5.992-2.988-1.109-6.945.385-9.187 2.651-3.91 3.954-6.194 9.394-7.93 14.676-.26 1.04-.513 2.083-.699 3.139-.318 1.797-.622 3.598-.92 5.399-.077.466.289-.926.596-1.285.236-.278.446-.609.768-.781.662-.355 1.368-.754 2.119-.769.821-.015 1.641.299 2.365.685.462.245.753.73 1.072 1.143.149.193.222.434.317.658.097.232.152.481.186.73.001.078-.009.165.027.235.025.048.006-.109.001-.163.366-8.412 1.056-16.809 1.83-25.19.302-3.266.602-6.535.768-9.811.079-1.561.548-3.552-.561-4.653-1.701-1.691-5.6-.053-6.928 1.945-1.707 2.569-1.222 6.06-1.564 9.122-1.057 9.474-1.56 19.01-1.728 28.546.026 1.514.55 3.421 1.887 4.134.829.441 1.768.8 2.707.783.86-.017 1.668-.473 2.426-.88 1.708-.919 1.809-3.511 2.091-5.431.263-1.791.49-3.592.897-5.356.7-2.243 1.598-4.432 2.669-6.523"/><path d="m1040.81 414.23c-.2 4.791-.39 9.582-.59 14.373-.13 2.998-.25 5.997-.35 8.996-.07 1.793-.12 3.588-.1 5.382.001 1.716-.04 3.513.58 5.114.33.867 1.47 1.787 2.35 1.49.56-.188.37-1.14.73-1.61 1.1-1.463 1.9-3.22 2.23-5.02.62-3.466 1.17-6.944 1.69-10.428 1.43-9.668 1.89-19.458 3.05-29.16.15-1.684-.28-3.804-1.64-4.803-1.34-.977-3.69-.922-4.97.133-1.97 1.629-2.67 4.378-3.7 6.717-1.63 3.671-2.94 7.561-5.28 10.82-1.69 2.073-3.79 3.783-5.73 5.627-1.83 1.723-4.15 3.119-5.33 5.343-1.17 2.193 2.95 4.988 5.43 5.092 2.29.096 4.05-2.198 5.81-3.668 2.52-2.157 5.05-4.361 7.11-6.959 2.38-3.401 3.87-7.356 5.42-11.206.24-.604.48-1.207.78-1.945.27-.665.54-1.33.8-1.994.28-.681 1.33-1.431.89-2.02-.16-.217-.32.444-.52.63-.54.508-1.21.911-1.93 1.092-1.26.318-2.79.055-3.84-.713-.68-.498-1.24-1.22-1.54-2.01-.12-.307-.21-.63-.24-.958-.03-.244-.001-.389-.05.043-.35 3.883-.71 7.764-1.06 11.646"/><path d="m1041.91 452.53c2.26-.143 5.09-.618 6.31-2.53.58-.925.14-2.252-.24-3.277-.73-1.941-3.63-2.223-5.68-2.53-1.92-.287-3.85-.853-5.78-.682-2.08.184-5.3 1.802-4.94 3.862.23 1.372 2.05 1.905 3.22 2.661 1.09.707 1.75 2.233 3.04 2.456 1.34.232 2.72.126 4.07.04"/><path d="m1056.99 428.87c-.56 6.06-.91 13.877 3.67 17.884 2.28 1.994 6.68 1.624 9.08-.217 1.12-.853 2.39-2.01 2.47-3.411.04-.719-.36-1.538-.95-1.942-.35-.235-.82.328-1.23.272-.37-.051-.74-.167-1.11-.196-.32-.024-.63-.0001-.94.039-.26.033-.51.111-.76.177-.2.052-.39.122-.72.206-.12.03-.24.065-.36.092-.29.067-.91.292-.91-.011-.001-5.04-.29-10.135.55-15.1 1.15-6.749 3.22-13.311 4.6-20.01.46-2.183.85-4.386 1.06-6.605.16-1.691.71-4.149-.73-5.05-2.14-1.326-6.07-1-7.46 1.089-.94 1.408-.73 3.303-1.06 4.962-.6 3.089-1.24 6.17-1.87 9.254-1.26 6.162-2.76 12.306-3.33 18.568"/><path d="m997.87 507.01c-.415 4.313-.818 8.629-1.081 12.953-.106 1.741-.161 3.485-.148 5.229.009 1.148.033 2.298.144 3.441.129 1.317.217 2.752.948 3.855.435.656 1.489 1.145 2.21.83.388-.169.178-.854.418-1.201 1.56-2.198 1.71-5.13 2.15-7.787 1.08-6.538 1.93-13.11 3.11-19.635.76-4.252 2.23-8.502 1.95-12.814-.11-1.714-1.59-3.685-3.28-3.971-1.7-.287-3.6 1.057-4.513 2.52-2.142 3.287-4.628 6.338-6.958 9.495-1.369 1.854-3.739 3.743-3.396 6.02.345 2.289 4.573 3.741 6.496 2.452 1.486-.996 2.336-2.711 3.461-4.103 2.59-3.201 5.02-6.541 7.15-10.06.16-.268-.42.462-.67.64-.63.444-1.44.704-2.21.702-1.62-.007-3.06-1.647-3.749-3.119-.205-.437-.036.966-.087 1.446-.162 1.537-.386 3.068-.604 4.598-.405 2.843-.892 5.674-1.341 8.51"/><path d="m1002.22 538.13c1.52-.72 3.22-1.276 4.38-2.49.86-.901 1.01-2.708.29-3.724-1.79-2.529-6.2-.862-9.282-.516-2.173.594-4.966 1.284-5.873 3.346-.513 1.165.834 2.426 1.5 3.51.65 1.058 1.783 2.939 2.882 2.361 1.332-.701 2.647-1.433 3.983-2.122.71-.128 1.42-.244 2.12-.365"/><path d="m1023.9 537.23c2.13-1.016 3.79-3.487 4.02-5.838.12-1.361-.45-2.925-1.48-3.826-.93-.812-2.63-1.551-3.61-.803-.94.719-.17 2.483.39 3.526.12.236-.11.536-.26.763-.13.212-.27.427-.44.614-.05.05-.09.098-.14.145-.05.045-.1.089-.15.13-1.06.865-.36.273-.12.407-.39-.451-.77-.919-1.05-1.446-.08-.157-.16-.316-.23-.479-.06-.141-.11-.288-.16-.433-.27-.808-.14-.62-.1-.623.29-.024-.17.568-.39.753-.05.045-.54.557-.3.14.39-.68 1.7-.564 1.95-1.303.5-1.419 1.04-3.927-.35-4.495-2.32-.943-5.98 1.093-6.63 3.505-.8 2.991 1.4 6.411 3.64 8.554 1.42 1.135 3.72 1.379 5.41.709"/><path d="m1041.03 524.43c-.46-1.648.36-3.457 1.05-5.02 1.21-2.71 2.72-5.276 4.27-7.806 4.16-6.802 9.24-13.208 12.02-20.683.69-2.095.68-4.471.17-6.62-.41-1.755-2.79-4.681-4.13-3.481-.62.55.36 1.613.48 2.431.26 1.915-.43 3.921-1.27 5.661-2.94 5.718-7.03 10.772-10.8 15.978-3.98 5.491-8.56 11.451-9.05 18.212-.27 3.666 2.53 7.777 5.86 9.344 3.29 1.308 7.25.012 10.57-1.247 2.07-.862 4.04-2.331 5.26-4.218 1.63-2.504 2.18-5.707 2.16-8.693-.07-8.772-3.79-17.37-7.98-25.08-1.07-2.072-2.6-4.638-1.7-6.793 1.46-1.847 5.39-1.706 5.81-4.02.35-1.938-2-4.148-3.96-4.389-2.71-.334-5.6 1.309-7.53 3.241-3.41 4.03-1.95 11.132.47 15.824 2.95 5.472 5.58 11.277 6.8 17.378.65 3.299 1.03 8.56-2.06 9.879-1.61.642-3.39 2.033-5.01 1.416-.57-.269-1.27-.654-1.43-1.308"/><path d="m1092.58 509.07c-.94 6.921-8.2 13.926-15.19 14.46-2.13.04-4.57-.849-5.88-2.536-1.1-1.42-2.24-4.128-3.97-3.641-.79.223-.41 1.621-.38 2.444.07 1.463.16 3.01.82 4.316 1.59 3.16 5.7 4.932 9.23 5.245 7.58.193 15.6-5.073 19.63-11.499 2.47-3.943 3.59-9.125 2.72-13.696-2.09-7.864-12.59-13.09-20.72-12.912-3.41.075-7.08 1.31-9.55 3.664-.78.857-1.39 1.864-1.97 2.871-.23.398-.45.799-.68 1.197-.12.201-.23.4-.35.6l-.04.055c1.11-1.324 3.62-1.777 5.1-.89.75.45 1.33 1.243 1.62 2.067.15.429.21.899.19 1.353-.02.306-.14.707.001.151 1.29-5.438.09-11.181.43-16.759.08-1.307-.29-3.156-1.51-3.627-1.8-.696-4.39.539-5.36 2.213-.99 1.709-.83 3.893-.81 5.867.04 3.4.37 6.88-.38 10.196-.21.844-.4 1.75-.21 2.6.3 1.428 1.63 2.781 3.04 3.152 1.67.439 3.75-.794 4.67-2.256.54-.859 1-1.771 1.5-2.652.13-.222.56-.851.39-.662 1.56-1.53 4.25-1.594 6.43-1.336 4.32.516 10 2.645 11.13 6.853.2 1.033.22 2.112.09 3.162"/><path d="m1084.51 482.18c2.75-.377 5.54-.966 8.01-2.222 1.11-.564 1.59-2.378 1.17-3.548-.78-2.125-4.32-1.732-6.58-1.658-3.43.112-6.91-.144-10.29.458-1.97.352-3.96 1.01-5.63 2.129-.87.579-1.6 2.056-1.05 2.941.65 1.048 1.56 1.915 2.45 2.772.54.518 1.03 1.323 1.77 1.372 1.22.081 2.2-1.127 3.38-1.432 2.2-.567 4.52-.504 6.77-.812"/><path d="m879.06 533.21c-.361 2.321-.442 4.677-.604 7.02-.087 1.26-.841 2.777-.083 3.788.287.382.699-.688 1.141-.87.986-.404 2.827.264 2.91 1.327.019.238-.405-.261-.576-.429-.302-.296-.684-.538-1.094-.642-.975-.247-2.244.526-2.648 1.447-.574 1.306 2.02 3.225 3.336 2.679 1.568-.649 2.136-2.728 2.653-4.344.936-2.925 1.473-5.962 2.161-8.955.871-3.785 2.203-7.45 3.223-11.198.511-1.878 1.794-3.934 1.069-5.74-.629-1.567-2.872-2.026-4.548-2.234-.832-.103-1.949-.205-2.474.448-1.544 1.923-1.484 4.707-2.074 7.102-.867 3.517-1.836 7.02-2.392 10.601"/><path d="m888.1 533.07c-.282 2.33-.305 4.685-.407 7.03-.055 1.265-.803 2.81-.012 3.799.231.288.517-.538.832-.731.526-.322 1.238-.441 1.831-.269.659.19 1.886.988 1.419 1.491-.274.294-.578-.563-.903-.801-.675-.496-1.914-.869-2.499-.269-.322.33-.481.795-.793 1.135-.581.631-.119 1.963.537 2.514.782.658 2.19.734 3.059.197 1.353-.835 1.773-2.695 2.226-4.22.884-2.968 1.343-6.05 1.936-9.09.718-3.681 1.828-7.277 2.6-10.947.462-2.193 1.144-4.508.643-6.692-.287-1.253-2.281-1.365-3.561-1.484-1.23-.114-2.982-.367-3.643.676-1.077 1.696-.818 3.935-1.174 5.913-.704 3.914-1.611 7.798-2.091 11.746"/><path d="m898.4 528.69c-.181 2.061-.093 4.137-.091 6.205 0 .988.015 1.977.112 2.96.153 1.548 1.957 4.084 3.3 3.299 3.588-2.096 3.225-7.737 3.918-11.834.792-4.68 2.643-9.282 2.461-14.02-.023-.589-.069-1.187-.233-1.753-.059-.202-.237-.362-.414-.476-1.283-.828-3.02-.712-4.541-.602-.792.057-1.881.028-2.271.72-.963 1.708-.582 3.88-.848 5.823-.443 3.231-1.108 6.435-1.393 9.683"/><path d="m905.52 529.05c-.201 2.074-.203 4.164-.32 6.245-.056.993-.119 1.987-.103 2.981.025 1.569 1.534 4.337 2.952 3.665 3.461-1.641 3.864-6.805 4.465-10.589.75-4.726 2.199-9.356 2.537-14.13.105-1.477.599-3.611-.658-4.394-1.831-1.14-4.583-1.053-6.469-.008-.66.365-.503 1.434-.59 2.183-.136 1.169-.255 2.34-.385 3.509-.389 3.523-1.085 7.01-1.429 10.537"/><path d="m917.1 526.54c-.197 1.994-.21 4-.371 5.998-.078.959-.177 1.917-.202 2.878-.042 1.557 1.301 4.346 2.751 3.778 3.316-1.3 4.052-6.1 4.677-9.606.752-4.221 1.814-8.423 2-12.708.066-1.502.197-3.03-.082-4.51-.114-.601-.225-1.212-.464-1.775-.083-.195-.281-.335-.473-.426-1.953-.918-4.652-.481-6.434.737-.598.409-.347 1.42-.354 2.144-.011 1.121-.047 2.241-.077 3.361-.091 3.391-.642 6.754-.975 10.129"/><path d="m926.23 524.6c-.392 2.272-.467 4.591-.555 6.895-.042 1.094-.076 2.194.014 3.286.08.983.201 2.107.875 2.828.572.611 1.72 1.137 2.419.675 3.699-2.444 3.332-8.246 4.426-12.543 1.245-4.89 3.794-9.464 4.466-14.465.084-.62.173-1.248.125-1.871-.016-.216-.157-.418-.31-.571-1.08-1.079-2.831-1.289-4.351-1.431-.807-.076-1.9-.242-2.398.397-1.416 1.817-1.478 4.365-2.086 6.586-.928 3.391-2.026 6.75-2.625 10.214"/><path d="m936.73 527.6c-.159 1.917-.291 3.837-.398 5.757.101-.44-.19.884-.31 1.319-.013.049-.029.097-.043.145-.13.464-.267.926-.389 1.393-.362 1.392-.858 2.886-.517 4.284.229.936 1.097 1.85 2.04 2.048 1.652.347 3.905-2.255 3.31-3.835-.163-.431-.508-.792-.874-1.074-.543-.419-1.377-.122-2.057-.037-.204.026-.409.047-.608.097-.568.145-.571.589-.468.182.242-.955 2.206-.473 2.95.171.569.493.193 1.787.888 2.076.562.233.589-1.066.87-1.606.701-1.351 1.536-2.692 1.826-4.186 1.161-5.61 2.407-11.203 3.68-16.788.522-2.291.88-4.626 1.063-6.969.086-1.098.307-2.581-.562-3.257-1.207-.937-3.055-.674-4.564-.434-.83.133-1.945.273-2.299 1.035-1.293 2.788-.924 6.079-1.491 9.1-.663 3.53-1.389 7.05-2.047 10.579"/><path d="m940.95 524.54c.206 2.376.74 4.711 1.144 7.06.184 1.07.35 2.144.576 3.206.23 1.082.532 2.372 1.454 2.982.594.393 1.544.811 2.105.372 1.786-1.397 1.986-4.194 2.143-6.455.246-3.538-.289-7.096-.13-10.639.115-2.574.523-5.187 1.441-7.594.556-1.458 2.366-2.692 2.032-4.215-.34-1.542-1.172-3.107-2.423-4.071-.662-.509-1.606-1.18-2.365-.831-2.499 1.15-3.925 4.116-4.767 6.734-1.378 4.285-1.597 8.965-1.21 13.45"/><path d="m950.71 524.94c-.184 2.24-.136 4.493-.184 6.739-.023 1.069-.028 2.14.03 3.208.053.974.152 2.078.787 2.818.547.636 1.667 1.248 2.383.81 1.399-.855 2.147-2.606 2.579-4.187.791-2.894 1.173-5.886 1.652-8.848.827-5.118 2.729-10.157 2.569-15.339-.019-.634-.034-1.278-.184-1.894-.051-.212-.223-.39-.4-.517-1.242-.888-3.01-.79-4.532-.672-.809.063-1.914.084-2.299.798-1.03 1.911-.677 4.288-.963 6.44-.473 3.549-1.145 7.08-1.438 10.644"/><path d="m182.27 544.32c1.097 18.13 3.174 36.2 5.669 54.16 1.477 10.637 3.277 21.22 5.169 31.771 1.083 6.05 2.273 12.07 3.524 18.07.688 3.305 1.397 6.606 2.153 9.893.473 2.056.951 4.111 1.467 6.154.597 2.36 1.219 4.717 2.01 7.01.397 1.153.84 3.436 1.895 3.047.524-.194.355-1.209.277-1.818-.181-1.406-.616-2.762-.804-4.167-.461-3.438-.582-6.928-1.082-10.36-1.811-12.416-4.214-24.719-6.096-37.12-4.923-32.44-8.647-65.29-9-98.18-.395-36.465 3.622-73.65 13.81-108.32 3.415-11.618 7.728-22.931 12.61-33.884 1.433-3.214 2.977-6.365 4.48-9.539.628-1.327 1.273-2.654 1.748-4.057.316-.93.83-2.177.284-2.964-.591-.853-2.02.163-2.826.758-1.25.919-2.358 2.077-3.389 3.286-3.192 3.743-5.297 8.505-7.416 13.09-5.622 12.174-10.02 25.08-13.596 38.17-10.948 40.06-13.406 83.23-10.882 125"/><path d="m137.53 501.03c-.236 11.537.323 23.12 1.669 34.574.798 6.787 1.753 13.561 3.03 20.264.731 3.84 1.517 7.67 2.447 11.46.511 2.086 1.023 4.172 1.603 6.237.406 1.445.82 2.889 1.254 4.325.4 1.326.866 2.632 1.387 3.909.197.484.401.97.674 1.409.136.22.374.561.6.459.331-.149.148-.774.078-1.151-.063-.344-.168-.678-.258-1.016-.095-.357-.211-.707-.298-1.067-.316-1.298-.415-2.646-.642-3.966-1.019-5.944-2.487-11.793-3.524-17.734-3.234-18.528-5.06-37.494-4.578-56.34.657-25.63 4.647-51.33 11.304-75.955 2.248-8.317 4.757-16.556 7.461-24.716 1.06-3.201 2.126-6.401 3.225-9.587.656-1.901 1.839-3.878 1.486-5.87-.079-.443-.932-.287-1.262-.007-.663.565-1.206 1.285-1.715 2.01-1.746 2.497-2.849 5.466-3.914 8.371-3.03 8.268-5.601 16.73-8.01 25.23-7.238 25.578-11.473 52.43-12.02 79.15"/><path d="m669.16 214.42c-.763 2.028-1.287 4.14-1.823 6.24-.613 2.404-1.386 4.883-1.158 7.354.112 1.213 1.209 2.715 2.428 2.732.284.004.358-.469.614-.594 1.171-.57 1.928-1.847 2.457-3.037 1.245-2.802 2.405-5.643 3.579-8.476 1.815-4.379 4.204-8.499 6.42-12.69 1.293-2.444 2.695-4.981 3.01-7.727.101-.882-1.092-1.505-1.905-1.861-1.527-.67-3.854-1.668-4.983-.441-1.806 1.964-2.358 4.787-3.489 7.203-1.754 3.749-3.691 7.424-5.15 11.297"/><path d="m686.24 205.41c1.757.278 3.76.676 5.336-.151 1.276-.67 2.154-2.488 1.867-3.901-.406-2-3.43-2.3-5.361-2.965-2.01-.695-3.897-1.9-6.01-2.185-.339-.045-.687-.071-1.027-.028-.324.041-.653.118-.938.277-1.477.818-1.161 3.198-1.376 4.872-.094.729-.55 1.731.012 2.204.816.688 2.077.494 3.119.729 1.472.332 2.888.912 4.378 1.148"/><path d="m679.44 218.7c.988.007 2.038-.516 2.678-1.269 1.041-1.223 1.085-3.197.726-4.762-.183-.795-1.417-.821-2.176-1.119-.549-.215-.768-1.173-1.356-1.134-1.081.071-1.599 1.472-2.288 2.308-.994 1.206-2.741 2.376-2.561 3.929.085.729 1.231.813 1.903 1.107.982.428 2 .932 3.074.94"/><path d="m675.95 233.73c2.186.412 4.48.754 6.667.341 1.259-.239 2.686-1.697 2.456-2.958-.517-2.839-4.682-3.559-7.429-4.443-2.669-.858-5.178-2.301-7.943-2.766-.467-.079-.941-.139-1.414-.126-.422.011-.855.052-1.252.197-1.195.438-1.028 2.365-1.197 3.626-.156 1.16-.887 2.838.071 3.509 1.118.782 2.657.624 3.979.963 2.029.52 4 1.268 6.06 1.657"/><path d="m690.99 227.08c-.296 1.113-.353 2.278-.468 3.424-.144 1.426-.369 3.043.344 4.287.522.912 1.875 1.554 2.886 1.268 2.56-.724 3.144-4.353 4.167-6.81 1.163-2.795 3.409-5.253 3.78-8.258.234-1.887-2.726-2.925-4.56-3.429-.722-.198-1.71-.755-2.235-.222-.97.984-1.105 2.531-1.613 3.815-.78 1.97-1.757 3.877-2.301 5.925"/><path d="m701.57 210.12c.804.189 1.693.164 2.475-.1 1.323-.445 2.853-1.621 2.905-3.02.026-.697-.583-1.786-1.269-1.663-.564.101-.942.67-1.319 1.102-.268.308-.789.248-1.197.254-1.15.019-.745-.365-.449.106.208.391 1.507-.302 1.184-.605-.287-.269-.486-.116-.213-.242.442-.203.971-.181 1.399-.412.749-.405 1.893-1.584 1.302-2.197-1.046-1.084-3.163-1.294-4.485-.57-1.799.985-3.302 3.743-2.492 5.628.434.81 1.284 1.435 2.159 1.715"/><path d="m715.35 228.38c.258-.173-.55-.288-.825-.433-.588-.451-.847-.529-.461-.618.294-.067.182.584.184.886.004.511-.042 1.023-.121 1.528-.218 1.389-.595 2.753-1 4.099-.409 1.348-.894 2.672-1.351 4-.537 1.567-1.286 3.181-1.157 4.832.062.782.712 1.7 1.487 1.825.417.067.595-.627.978-.808 1.808-.854 3.068-2.685 4.052-4.426 1.967-3.48 3.909-7.323 3.953-11.32.027-2.404-1.305-5.204-3.418-6.352-2.227-1-5.191-.094-7.216 1.273-3.057 2.064-5.597 4.848-8 7.643-.385.446-.764.897-1.145 1.346-.043.051-.084.103-.126.154-.536.66-1.073 1.32-1.662 2.045-.15.189-.298.379-.449.568-.038.046-.156.181-.115.137.58-.629 1.441-1.626 2.225-1.283 1.727.756 3.201 2.082 4.44 3.504.307.353-.095.932-.176 1.392-.077.441-.494.963.07.094 2.357-3.879 3.932-8.3 4.737-12.768.232-1.285.797-3.04-.173-3.914-1.555-1.4-4.628-1.29-6.276-.0001-1.149.898-1.123 2.695-1.561 4.085-.924 2.937-1.906 5.899-3.427 8.576-.532.91-1.657 2.215-.967 3.01 1.301 1.5 2.855 2.897 4.675 3.69.621.271 1.249-.528 1.846-.847.141-.075.24-.211.353-.325 1.026-1.027 1.756-2.312 2.644-3.46 2.326-3.01 4.642-6.332 7.987-8.138"/><path d="m723.01 231.42c-.467 2.256-.717 4.552-1.104 6.823-.182 1.065-.377 2.128-.507 3.2-.119.973-.255 2.065.197 2.936.387.745 1.347 1.624 2.135 1.336 1.931-.707 3.04-2.925 3.859-4.811 1.127-2.592 1.777-5.368 2.552-8.09 1.46-5.122 3.813-10.03 4.661-15.284.13-.812.433-1.861-.125-2.464-1.037-1.121-2.783-1.409-4.301-1.577-.825-.091-1.887-.181-2.452.427-1.505 1.62-1.418 4.192-1.989 6.329-.993 3.719-2.147 7.401-2.926 11.171"/><path d="m725.24 240.4c.852 2.656 3.197 4.696 5.43 6.367 1.252.936 3.091 2.047 4.491 1.352 1.148-.571 1.876-2.518 1.252-3.639-.842-1.514-2.091-2.762-3.095-4.173-.424-.596-1.321-1.216-1.084-1.908.153-.444.815-.467 1.235-.676.895-.447 1.853-.757 2.788-1.113 1.582-.603 3.325-1.124 4.516-2.327.609-.616.081-1.768-.191-2.589-.507-1.53-.978-3.95-2.584-4.086-1.667-.142-3.192 1.024-4.725 1.695-2.609 1.141-5.39 2.556-6.989 4.913-1.174 1.73-1.682 4.194-1.044 6.184"/><path d="m738.17 242.2c-.493 2.767.773 6.656 3.37 7.727 3.302 1.361 7.182-.556 10.713-.024.725.11.877 1.199 1.134 1.887.406 1.085 2.166 2.794 2.909 1.905.938-1.123 1.649-2.685 1.469-4.137-.25-2.02-1.683-4.082-3.497-5-1.131-.575-2.433-.801-3.697-.907-.83-.069-1.666-.058-2.498-.04-.486.001-.971.034-1.457.042-.26.005-.52-.007-.781-.004-.442.003-1.251-.495-1.326-.059-.061.351.585.494.654.842.04.206.029-.419.074-.624.081-.371.21-.731.33-1.091.723-1.809 1.677-3.586 3-5.01.523-.565 1.107-1.091 1.768-1.483.114-.068.233-.128.352-.187.67-.336.641-.434.614-.17-.015.143-.369-.194-.428-.062-.381.849.601 1.771.735 2.691.282 1.947-.218 4.128.721 5.856.585 1.074 2.332 1.09 3.547.946 1.284-.152 2.933-.522 3.494-1.687.572-1.188.253-2.631.222-3.949-.07-2.996-.651-6.272-2.486-8.642-1.252-1.616-3.358-2.794-5.398-2.906-2.353-.129-4.792 1-6.615 2.494-3.01 2.471-5.05 6.131-6.407 9.784l-.403 1.331-.114.485"/><path d="m780.76 249.17c1.036-1.234 1.951-2.565 2.872-3.887-1.205 1.35-4.141 1.469-5.426.195-.361-.358-.639-.81-.822-1.284-.038-.099-.069-.2-.098-.302-.025-.085-.044-.17-.061-.256-.015-.072-.026-.145-.036-.218-.007-.051-.013-.102-.016-.154-.066-.967.0001-.642.023-.64.289.032-.068.579-.133.863-.164.727-.327 1.454-.494 2.181-.362 1.578-.764 3.147-1.115 4.728-.43 1.934-.858 3.891-.927 5.871-.042 1.207.192 3.144 1.382 3.35.581.101 1.12-.43 1.573-.807 1.757-1.459 2.583-3.812 3.421-5.936 1.355-3.43 3.883-6.999 3.136-10.61-.252-1.214-1.442-2.384-2.664-2.598-1.181-.206-2.551.483-3.307 1.413-1.862 2.362-3.842 4.7-6.232 6.526-.925.706-1.874 1.402-2.917 1.914-.473.233-2.042.447-1.515.449.84-.151.367.731.554.41.307-.527.029-1.223.11-1.827.155-1.145.411-2.275.613-3.412.179-1 .39-2.01.486-3.02.131-1.394.568-2.963-.086-4.201-.393-.743-1.509-1.01-2.344-.925-1.642.17-3.712.333-4.656 1.686-.826 1.184-.674 2.808-.984 4.218-.722 3.282-1.63 6.896-.519 10.07.745 2.127 2.864 3.916 5.04 4.506 5.641 1.147 11.157-4.146 15.14-8.298"/><path d="m786.56 246.29c-.944 3.8-1.53 7.688-2 11.575-.169 1.4-.42 2.874-.032 4.23.249.869 1.182 1.666 2.083 1.735.309.024.396-.502.672-.643.865-.44 1.683-1.165 2.056-2.06.701-1.689 1.333-3.407 1.926-5.136 1.929-5.617 3.225-11.511 5.909-16.809.318-.628.655-1.246 1.026-1.844.136-.218.279-.43.425-.641.124-.18.311-.314.418-.504.213-.375-.811.362-1.243.362-.365 0-.737-.088-1.07-.237-.103-.046-1.319-.375-.453-.363 1.173.016 1.16 2.405 2.305 2.661 2.12.476 4.735-1.108 5.78-3.01.586-1.067-.562-2.406-1.173-3.459-1.428-2.465-5.56-4.167-8.07-2.816-2.608 1.403-4.058 4.474-5.19 7.21-1.315 3.178-2.541 6.414-3.37 9.752"/><path d="m791.86 245.62c1.805.525 4.164 1.103 5.639-.063.819-.647 1.32-1.841 1.226-2.881-.173-1.898-2.543-2.978-4.25-3.829-1.524-.76-2.901-1.873-4.533-2.36-1.257-.375-3.282-.847-3.924.297-.622 1.109-.139 2.561.075 3.815.192 1.121-.079 2.455.613 3.358.402.525 1.319.162 1.951.355 1.102.338 2.095.986 3.203 1.308"/><path fill="#e6003c" d="m624.45 221.25c6.477 1.444 18.294 4.958 19.503 4 5.825-4.62 9.512-10.908 13.71-17.04 1.672-2.443 4.217-4.772 5.834-7.251 1.77-2.711 9.235-8.245 6.251-9.501-6.18-2.603-21.952-5.325-23.09-4.418-9.113 7.288-13.996 17.918-21.21 27.09-.881 1.12-1.688 2.301-2.625 3.375-.775.888-1.667 1.667-2.5 2.5-1.016 1.016 2.723.938 4.125 1.251"/></g><g fill="none" stroke="#000"><path stroke-width="5" d="m684.39 164.38c17.04 5.322 39.834 10 58.771 14.431 12.268 2.871 39.24 9.02 41.452 5.773 2.945-4.326-12.974-7.286-18.19-8.284-15.433-2.957-44.546-9.304-56.43-12.642-11.09-3.114-31.596-9.199-33.623-4.87-1.013 2.165 7.158 5.325 8.01 5.592Z"/><path stroke-width="4" d="m835.99 281.3c-6.519 14.457-12.722 29.06-19.253 43.506-3.15 6.969-9.876 18.628-8 21.503 1.97 3.02 6.565-9.874 9-15.252 4.923-10.866 14.715-34.776 19.378-45.756 2.308-5.436 1.302-9.385-1.125-4Z"/></g></g></svg>