<svg xmlns="http://www.w3.org/2000/svg" viewBox="0 0 1207.46 1146.16" enable-background="new 0 0 1207.46 1146.16"><g stroke-linejoin="round"><g stroke-width="8"><path fill="#f4dccc" d="m17.381 951.72c1.117 8.446 8.922 14.524 13 22 16.865 30.918 44.11 55.11 69.01 80.01 18.02 18.02 31.626 40.73 52.01 56.01 5.607 4.21 12.44 6.54 19 9 6.435 2.42 13.722 7.79 20 5 7.324-3.25 4.892-15.27 7-23 2.198-8.06 8.265-14.53 12-22 4.01-8.03 6.85-16.6 10-25.01 5.503-14.67 17.647-26.27 23-41 4.684-12.882 7.436-26.484 13-39.01 5.899-13.272 17.1-23.733 23-37 6.237-14.03 12.484-28.23 21-41.01 7.848-11.771 19.04-21.757 24-35 1.592-4.246 1.973-8.947 4-13 5.708-11.417 16.696-19.313 25-29 6.473-7.552 15.237-12.79 23-19 5.733-4.586 8.81-11.811 14-17 4.056-4.056 9.23-6.82 14-10 10.599-7.07 18.333-17.713 28-26 6.328-5.424 14.515-8.73 20-15 14.88-17 14.03-43.26 25-63.01 9.719-17.496 18.532-35.24 34.19-47.696 14.668-11.668 27-19.836 36.671-29.504 17.967-17.967 31.528-29.19 49.17-47.51 8.03-8.334 16.797-18.13 24.98-26.315 4.773-4.774 6.556-11.922 11-17 7.931-9.06 19.07-14.94 27-24 4.263-4.872 7.118-10.824 11-16 9.754-13.01 18.725-27.322 23-43.01 1.589-5.825 2-11.965 2-18 0-1.333 0-2.667 0-4 0-1.334.707-2.87 0-4-1.131-1.81-3.405-2.582-5-4-1.41-1.253-2.843-2.512-4-4-10.71-13.77-29.562-23-47.01-23-7 0-14.741-3.131-21 0-11.393 5.696-16.417 19.615-26 28-17.919 15.679-38.39 29.815-51.01 50.01-16.868 26.987-38.544 53.776-67.01 68.01-13.12 6.562-29.496 7.75-43.73 4.192-10.355-2.589-27.792-3.121-35.34-10.669-10.608-10.608-12.337-27.921-22.945-38.529-8.542-8.542-17.14-17.444-23-28-8.573-15.432-7.413-22.1-15.308-37.889-.745-1.49-.506-15.388-1.333-16.835-.662-1.158 0-5.084 0-6.418 0-1.333.082-2.177-.083-3.5-.674-5.385.321-8.975-.278-14.369-1.664-14.969 6.357-28.06 8.02-43.03 1.268-11.411 10.751-18.762 15.886-29.03 10.969-21.938 23.753-38.505 31.28-59.15 3.073-8.427 7.809-14.525 15.684-18.82 2.13-1.162 2.93-7.989 5.139-8.993 1.518-.69 2.746-1.903 4-3 14.552-12.733 31.757-23.608 42.01-40 6.825-10.92 8.243-24.487 14-36.01 5.402-10.805 14.381-20.21 17-32 1.31-5.894 3.02-14.653-2-18-6.941-4.627-17.712-5.05-25-1-10.56 5.867-18.913 15.05-28 23-6.751 5.907-12.826 12.62-20 18-4.534 3.401-10.359 4.751-15 8-4.446 3.113-6.66 8.746-11 12-7.515 5.636-9.628 8.475-18.975 9.41-8.334.833-47.1-.825-64.04-11.41-8.877-5.548-20.536-5-31-5-8.674 0-17.95-2.221-26 1-17.359 6.944-27.644 26.28-36 43.01-6.534 13.07-14.872 25.324-20 39.01-4.148 11.06-7.135 22.542-10 34-1.611 6.445-2.14 13.598-6 19-.866 1.213-.327 7.05-1.222 8.243-1.265 1.687-1.55 3.043-2.334 5-.553 1.384-4.418 10.991-5.334 12.168-8.635 11.1-11 10.875-17.835 23.17-5.534 9.96-10.653 21.02-15.281 31.429-.605 1.363-1.03 2.869-2 4-1.085 1.265-3.255 1.509-4 3-4.476 8.951-1 19.997-1 30 0 25.514 6.463 50.624 9 76.01 5.072 50.719 11.64 101.57 24 151.02 2.993 11.971-3.333 25.451 1 37 7.974 21.263 4 45.3 4 68.01 0 12.335 1.53 24.765 0 37.01-.838 6.698-5.062 12.537-7 19-6 20-17.473 38.3-30 55.01-.895 1.193-1.477 2.605-2 4-.482 1.287-.385 2.771-1 4-4.681 9.364-12.05 17.18-19 25-4.917 5.532-7.381 13.185-13 18-9.846 8.44-18.465 18.245-27 28-1.098 1.255-2.076 2.614-3 4-1.078 1.617-1.547 3.709-3 5-5.682 5.05-13.643 7.774-18 14-1.282 1.833-1.874 4.07-3 6-1.211 2.077-2.499 4.124-4 6-5.431 6.789-15.14 13.385-14 22"/><path fill="#bdbdbd" d="m852.32 250.08c5.575 6.05-3.223 16.13-4.98 24.16-4.4 20.11-8.896 40.22-12.356 60.51-5.03 29.501-8.06 59.35-14 88.68-2.667 13.158 4.16 29.89-4.667 40.01-5.56 6.372-16.893-.852-25.337-1.334-9.217-.525-18.439-1.306-27.67-1.194-9.244.111-18.483.84-27.671 1.861-19.618 2.181-22.306 4.428-41.748 7.844-15.323 2.692-9.913 2.32-29.504 2.75-18.551.407 9.972-19.41 15.252-27.25 17.502-26 23.23-44.993 12-63.51-9.252-15.252-41.26-20-40.506-22.753 3.959-14.517 6.157-10.115 12.494-23.762 7.867-16.944 8.207-37.41 18.79-52.799 14.791-21.514 51.75-8.406 76.56-16.544 23.23-7.623 48.17-8.584 72.01-14 6.989-1.589 16.477-7.936 21.336-2.667"/><path fill="#0087ff" fill-opacity=".435" d="m754.83 280.47c-.282.344 0 .889 0 1.333 0 .445.055.893 0 1.334-.187 1.5-.803 2.919-1.333 4.334-1.87 4.987-4.464 9.682-6.335 14.669-.482 1.287-.385 2.771-1 4-4.05 8.1-5.544 17.351-6.667 26.337-.783 6.258-3.346 12.169-4.668 18.336-.815 3.805.363 7.84-.333 11.668-1.128 6.206-2.855 12.295-4.667 18.336-.868 2.892-.268 6.073-1 9-3.838 15.354-6.667 31.18-6.667 47.01 0 4.784-.139 9.581-.667 14.335-.172 1.551-.333 3.108-.333 4.668 0 .555 0 1.111 0 1.667 0 .444-.422 1.193 0 1.333.666.222 1.36-.376 2-.667.59-.268 1.046-.814 1.667-1 1.4-.42 2.884-.485 4.334-.666 4.743-.593 9.555-.334 14.335-.334 10.115 0 20.419 1.317 30.338-.667 1.659-.332 3.01-1.633 4.667-2 4.213-.936 8.809-.737 12.669-2.667 1.513-.757 2.984-1.813 4.667-2 7.842-.872 15.811.381 23.67-.334 5.756-.523 11.694.921 17.335-.333 5.01-1.113 10.205-1.334 15.336-1.334 7.668 0 15.382.847 23 0 7.311-.812 14.868.117 22-1.666 5.337-1.334 10.863-1.787 16.336-2.334 5.436-.544 10.872-1.334 16.336-1.334 3 0 6 0 9 0 1.444 0 3.079.717 4.334 0 .431-.246.235-1.086.667-1.333 1.254-.717 2.895.131 4.333 0 3.328-.303 6.674-.364 10-.667 1.91-.174 3.78-.657 5.667-1 5.904-1.073 12.05.744 18 0 5.735-.717 11.591.305 17.336-.333 9.437-1.049 18.907-1.823 28.337-3 4.08-.51 8.26.51 12.33 0 5.32-.664 10.69-.742 16.01-1.333 3.64-.405 7.35.405 11 0 3.44-.383 6.87-1 10.33-1 6.79 0 15.06-1.81 19.01-7.335 1.31-1.844 1.08-4.415 1.33-6.667.5-4.534.67-9.107.67-13.669 0-7.89.71-15.812 0-23.67-.19-2.02-.75-3.989-1-6-.28-2.208.44-4.584-.34-6.667-.19-.521-.79-.818-1-1.334-.25-.627-.27-1.327-.33-2-1.04-11.444 2.03-23.1 5.67-34 1.97-5.935 2.64-12.229 4-18.336 1.09-4.92 3.11-9.659 3.66-14.669.46-4.088-.03-8.238.34-12.335.66-7.235 1.53-14.449 2.33-21.669.62-5.572 2.79-10.863 4-16.336 1.11-4.977 2.06-10.11 4.34-14.669.92-1.856.73-4.144 1.66-6 1.04-2.076 1.44-4.417 2-6.668.65-2.596 2.9-6.517.67-8-1.94-1.295-4.67 0-7 0-5.24 0-10.55.196-15.67 1.333-5.06 1.126-10.33 1.302-15.34 2.667-1.5.411-3.18-.159-4.66.334-4.3 1.434-8.57 3.05-13 4-2.86.613-5.88.474-8.67 1.334-5.95 1.831-11.81 4.381-18 5-7.39.738-14.73 1.879-22.01 3.333-.93.187-1.76.7-2.66 1-.44.145-.88.277-1.34.334-10.62 1.328-21.341 2.517-31.67 5.334-2.039.556-4.261-.081-6.334.333-3.039.608-5.944 1.824-9 2.334-3.96.66-8.107.026-12 1-16.84 4.21-34.22 6.888-50.34 13.335-1.357.543-2.907.35-4.334.667-5.298 1.177-10.602 2.46-16 3-3.996.4-7.677 2.557-11.669 3-6.01.668-11.981 1.731-18 2.334-2.773.277-5.614.062-8.335.666-4.814 1.07-9.576 2.37-14.335 3.668-4.514 1.231-9.563-.48-14 1-6.638 2.212-13.881 1.97-20.669 3.667-1.603.4-3.03 1.462-4.668 1.667-8.937 1.117-17.838 2.567-26.67 4.334-2.33.466-4.644 1.039-7 1.333-1.997.25-4.725-.889-6 .667"/><g fill="#0078e9"><path d="m568.69 264.6c-14.994 5.643-25.994 38.484-12.13 46.507 3.07 1.776 3.232-6.355 4.251-9.751 2.926-9.754 4.134-20.12 8.376-29.379 2.855-6.229 4.692-9.33-.5-7.377"/><path d="m577.94 284.73c-.088.148.159.332.126.5-.055.274-.211.524-.376.75-1.713 2.356-3.461 4.705-4.875 7.251-.423.761-.361 1.723-.75 2.501-.36.72-.776 1.451-.875 2.25-.021.166 0 .334 0 .5 0 .167.052.342 0 .5-.506 1.515-.626 3.154-.626 4.751 0 .891-.334 2.312.501 2.625.842.316 2.085.095 2.625-.625.894-1.193 1.106-2.808 2-4 1.174-1.566 1.54-3.623 2.626-5.251 1.055-1.583 2.54-3.11 2.75-5 .207-1.864.714-3.948-.125-5.626-.362-.723-1.202-1.508-2-1.375-.339.057-.824-.044-1 .25"/><path d="m527.68 222.47c-2.412.15-3.919 3.088-5 5.25-1.919 3.838-3.617 7.865-6.251 11.252-2.541 3.266-5.15 6.55-7 10.251-2.135 4.27-2.843 9.121-4 13.752-.639 2.557-1.861 4.944-2.5 7.501-.835 3.34-.87 6.83-1.25 10.252-.692 6.223-.389 13.407 3.25 18.502.613.858.745 1.978 1 3 .27 1.078.399 2.195.751 3.25.141.426.251.877.5 1.25.261.393.528 1 1 1 .372 0 .419-.636.5-1 .09-.407-.046-.836 0-1.25.038-.341.167-.667.25-1 .083-.333.212-.659.25-1 .34-3.065 0-6.168 0-9.251 0-9.1-1.609-18.704 1.5-27.25 2.907-7.993 7.515-15.29 10.502-23.254 1.439-3.838 3.509-7.417 5.5-11 .764-1.375 1.692-2.652 2.501-4 .231-.384.282-.857.5-1.25.202-.364.529-.647.75-1 .657-1.051 1.685-2.34 1.25-3.5-.472-1.259-2.659-.584-4-.5"/><path d="m550.93 243.47c-15.941 2.362-23.08 24.909-26 40.756-1.742 9.437-1.095 27.504 8.501 27.504 3.167 0 1.129-6.542 0-9.501-3.445-9.04-1.689-19.217 1.75-28.25 2.176-5.717 8.33-12.206 12.13-17 3.306-4.176 8.894-14.282 3.626-13.502"/></g><path fill="#f4e8c5" d="m498.34 111.75c.378.234.889 0 1.334 0 1.333 0 2.668-.061 4 0 2.592.118 5.094 1.012 7.668 1.333 2.107.264 4.32-.004 6.334.667 1.521.507 2.466 2.207 4 2.667 1.755.527 3.537.974 5.334 1.334 6.245 1.249 12.736.861 19 2 5.466.994 10.799 2.716 16 4.667 2.531.95 5.411.557 8 1.334 2.392.718 4.632 1.877 7 2.667.422.141.889 0 1.333 0 .667 0 1.347-.131 2 0 2.964.593 5.761 1.837 8.667 2.667 6.468 1.848 13.318 1.924 20 2.667 1.747.194 3.278 1.322 5 1.667.872.174 1.832-.304 2.667 0 .522.19.478 1.144 1 1.333 1.779.647 3.855-.21 5.668.334 12.341 3.702 25.11 5.927 37.34 10 7.04 2.346 13.975 5.414 21.336 6.334 2.122.266 4.248 1.464 6.335 1 2.612-.581 4.516-3.108 6-5.334 1.499-2.25.329-5.491 1.333-8 1.551-3.877 3.467-7.6 5.334-11.335.746-1.49 2.076-2.613 3-4 1.19-1.786 1.58-3.991 2.333-6 1.396-3.723 3.72-7.03 5.334-10.668.745-1.675.514-3.695 1.334-5.334 1.147-2.295 2.617-4.785 2.334-7.335-.16-1.44-2.242-2.074-3.668-2.334-2.319-.422-4.662-.708-7-1-6.363-.796-12.616-2.42-19-3-1.646-.15-3.055-1.308-4.668-1.667-4.738-1.053-9.226-3.132-14-4-4.746-.863-9.54-1.467-14.335-2-1.546-.172-3.205.532-4.667 0-.753-.274-1.256-1.036-2-1.334-1.757-.703-3.786-.124-5.667-.334-6.602-.733-12.871-3.446-19-6-3-1.251-6.467-.752-9.668-1.334-4.402-.8-8.614-2.456-13-3.334-2.048-.409-3.706-1.954-5.668-2.667-5.675-2.064-11.774-2.691-17.669-4-4.187-.93-8.266-2.311-12.335-3.667-1.909-.636-3.998-.467-6-.667-2.066-.206-3.941-1.409-6-1.667-3.324-.416-6.671-.63-10-1-5.03-.559-9.597-3.224-14.336-5-1.415-.531-2.834-1.521-4.333-1.334-1.723.215-2.371 2.556-3.334 4-1.49 2.234-2.133 4.932-3.334 7.334-3.179 6.359-7.277 12.439-9 19.336-.375 1.498-1.584 2.651-2.334 4-1.024 1.843-1.333 4-2 6-.537 1.609-1.826 2.861-2.667 4.334-.803 1.405-.766 3.152-1.334 4.667-.866 2.311-1 4.867-1 7.335 0 1.591-.353 3.831 1 4.667"/><g fill="#bdbdbd"><path d="m490.26 656.07c-1.054 1.054 1.146 2.779 2 4 1.157 1.653 3.232 2.422 4.75 3.75 2 1.751 3.624 4.062 6 5.251 1.935.968 4.1 1.511 6.251 1.75 1.83.204 3.992.556 5.501-.5 1.712-1.198 1.839-3.768 2.5-5.751.967-2.899 2.124-5.838 4-8.251 1.948-2.505 3.747-5.24 4.75-8.251.761-2.282.774-4.803 1.751-7 .968-2.178 2.82-3.844 4.25-5.751.68-.907.493-2.236 1-3.25 2.12-4.239 3.826-8.671 5.751-13 1.075-2.419 2.767-4.543 3.751-7 1.047-2.618 2.197-5.236 2.75-8 .264-1.318 1.167-2.834.5-4-.673-1.178-2.684-1.079-4-.75-1.637.41-2.803 1.882-4.25 2.751-5.503 3.302-10.714 7.213-15.252 11.751-2.922 2.922-5.53 6.142-8.251 9.252-1.878 2.145-4.632 3.343-6.751 5.25-3.206 2.885-6.03 6.219-8.502 9.752-1.796 2.566-3.204 5.399-4.5 8.251-.545 1.2-1.715 2.046-2.25 3.25-.623 1.4-1.418 2.755-1.751 4.251-.09.407 0 .833 0 1.25 0 .333 0 .667 0 1"/><path d="m334.09 398.89c3.816-6.174 6.089-13.178 9.335-19.67.739-1.477 2.246-2.424 3.334-3.667 2.01-2.296 3.308-5.129 5-7.667 4.06-6.09 4.398-12.909 6.501-19.92.886-2.951 1.665-5.608 3.251-8.251.998-1.664 1.628-3.128 3-4.5 1.179-1.179 1.271-3.405 1.75-5 .658-2.192 1.573-6.04 2.751-8 .794-1.324 63.866-143.84 65.18-143.02 3.217 2.01-11.04 45.541-9.501 49.01 2.987 6.721-12.08 40.39-8 46.51 6.02 9.03-5.769 89.53-.5 99.01.222.4-.6-34.952-.5-34.505.123.553 1.247 41.499 1.5 42.01 2.269 4.537 2.136 9.918 3.917 14.668 2.148 5.727 4.698 11.323 7.668 16.669.786 1.415.501 3.28 1.334 4.668 2.093 3.489 4.844 6.55 7 10 2.697 4.316 5.402 8.736 9 12.335 7.245 7.245 15.713 13.36 24.67 18.336 2 1.113 4.494.943 6.668 1.667 2.173.724 4.514.884 6.667 1.667.591.215.759 1.078 1.334 1.333 2.236.994 4.906.03 7.334.334 3.976.497 7.995.667 12 .667 2.444 0 5.1.992 7.334 0 2.908-1.293 5.822-2.578 8.668-4 1.736-.868 3.901-.53 5.667-1.334 1.406-.638 2.62-3.02 4-2.333.398.199.044.891 0 1.333-.175 1.749-.814 3.465-1.667 5-2.599 4.679-8.217 6.883-12 10.668-5.864 5.865-13.339 9.883-20.336 14.336-2.56 1.629-5.681 2.193-8.334 3.667-1.594.885-2.876 2.24-4.334 3.334-2.943 2.207-6.941 2.626-10 4.667-5.173 3.449-10.437 7.03-16.335 9-4.86 1.62-10.213 1-15.336 1-5 0-10.03.498-15 0-1.731-.173-3.02-1.783-4.667-2.333-5-1.667-9.928 1.458-14.726-.723-2.763-1.256-10.07-3.651-12.335-5.668-5.579-4.959-9.05-9.419-14.668-14.335-1.508-1.319-3.391 1.611-5.335-7-1.032-4.575-1.828-9.441-4.943-12.946-3.933-4.424-4.54-14.04-8.725-18.225-1.766-1.766-4.468-7.697-6-9.668-6.471-8.32-8.301-11.467-12-21.336-1.434-3.826-4.982-5.592-6.417-9.418-.507-1.353-1.188-2.292-1.834-3.584-.222-.445-.575-.618-.75-1.084-.161-.429-1.093-.994-.917-1.416.428-1.026-.277-1.333.307-2.278"/><path d="m537.27 619.94c-3.123 6.982-8.897 15.662-12.213 22.52-1.905 3.938-3.992 7.751-5.926 11.669-2.842 5.762-8.285 13.769-4.937 19.14 2.948 4.729 5.256-1.316 10.2-.696 7.155.897 16.593-8.096 20.13-15.502 10.551-22.11 19-40.942 26.358-64.79.897-2.91 2.32-5.558 3.357-8.402 1.468-4.02-.107-9.29-3.711-10.32-3.5-1-13.779 11.837-21.378 20.378-7.234 8.131-10.898 18.922-16.783 28.452"/><path d="m643.92 338.11c3.66-12.916 9.543-23.534 14.358-35.2 11.365-27.53 20.19-58.14 32.26-83.32 10.09-21.04 19.343-46.16 29-68.759 9.534-22.299 21.22-41.946 30.909-63.772 4.525-10.194 11.519-30.07 13.347-24.24 2.337 7.456 6.351 14.999 1.584 29.754-12.505 38.702-33.637 75.838-48.36 111.3-14.893 35.87-29.575 72.25-44.36 108.39-6.2 15.16-17.75 42.11-24.17 46.845-8.626-.75-8.53-1.365-12.376-1"/><path d="m739.79 454.54c8.25 0 16.616-.21 24.67-2 6.337-1.408 12.998-.925 19.336-2.334 5.207-1.157 10.7.59 16 0 11.285-1.254 22.72-.746 34-2 5.92-.658 11.749-2.01 17.669-2.667 8.504-.945 17.18 1.062 25.67 0 12.148-1.518 24.43-2 36.672-2 13.69 0 27.641.636 41-2.334 5.534-1.229 11.504 1.042 17-.333 3.465-.866 7.114-.645 10.668-1 2.473-.248 4.869-1.026 7.334-1.334 7.06-.882 14.228 0 21.338 0 6.48 0 12.89-1.285 19.33-2 7.41-.822 14.94.489 22.34-.334 8.43-.936 16.91-1.397 25.34-2.333 2.88-.32 5.79-.307 8.67-.667 2.65-.332 6.67-1.657 8 .667 1.18 2.062.6 5.62-1.34 7-.37.266-.88.234-1.33.333-.55.123-1.1.277-1.67.334-7.53.753-15.16.394-22.67 1.333-9.03 1.129-17.97 2.872-27 4-8.38 1.047-16.89 0-25.34 0-3.11 0-6.29-.675-9.33 0-7.507 1.667-15.349.97-23 1.667-14.502 1.318-29.11 1-43.673 1-7.928 0-15.93.613-23.67 2.333-3.146.699-6.445 0-9.668 0-5.89 0-11.779 0-17.669 0-21.68 0-43.497-.688-65.01 2-7.94.992-16.03-.391-24 .333-3.603.328-7.078 1.552-10.668 2-4.323.541-8.666.9-13 1.334-1.548.155-3.148-.338-4.667 0-6.325 1.405-12.856 2-19.336 2-7.459 0-14.915.591-22.336 1.334-2.435.243-4.887.333-7.335.333-.444 0-.889 0-1.333 0-.445 0-1.135.398-1.334 0-.222-.445.404-.912.667-1.334.295-.471.607-.94 1-1.333 1.054-1.054 2.605-1.477 4-2 4.62-1.733 9.734-2 14.669-2"/><path d="m1126.76 215.76c-3.83 4.412-3.5 11.231-6.34 16.336-1.81 3.257-2.96 6.961-3.33 10.668-.63 6.311-2.88 12.376-3.67 18.669-.96 7.68-3.19 15.265-6.33 22.337-2.67 6.01-1.33 13.1-1.33 19.669 0 5.234.65 10.704-1 15.669-1.12 3.334-2.9 6.515-3.34 10-.59 4.753-.4 9.582-1 14.335-.53 4.261-1.86 8.401-2.33 12.668-1.13 10.183-2 20.426-2 30.671 0 5.685-.71 11.353-1.34 17-.55 4.975-.54 10.146.67 15 .35 1.405.05 2.913.33 4.334.38 1.903-3.08 15.44-1.16 15.17 1.62-.232 6.16-5.17 8-11.501 1.24-4.303 3.67-9.335 3.17-14.999-1.15-12.934 4.66-25.688 4.66-38.672 0-11.721 1.88-23.374 3.34-35 .31-2.536-.32-5.132 0-7.668.83-6.661 1.5-13.342 2.33-20 .24-1.954 1.32-3.73 1.67-5.667 1.21-6.651 2.49-13.296 3.33-20 .6-4.823 1.8-9.553 2.67-14.335.93-5.149.35-10.476 1-15.669.79-6.363 2.29-12.629 3-19 .6-5.439 3.67-10.53 3.67-16 0-.556 0-1.111 0-1.667 0-.444 0-.889 0-1.333 0-1.591-3.63-2.203-4.67-1"/></g><g fill-opacity=".376"><path d="m401.16 203.29c.17-.025.125-.328.125-.5 0-.673-.346-1.337-.75-1.875-.548-.731-1.586-1.133-1.875-2-.237-.712-.263-1.548 0-2.251.364-.969 1.268-1.643 2-2.375.668-.668 1.12-1.558 1.876-2.125 2.395-1.797 4.981-3.33 7.376-5.126 1.01-.756 2.02-1.522 3.125-2.125.557-.304 1.23-.386 1.75-.75 2.561-1.793 5.082-3.647 7.501-5.626.807-.66 1.764-1.139 2.501-1.876 4.211-4.21 7.948-8.922 11.251-13.876 1.483-2.224 3.281-4.341 4.126-6.876.866-2.599 2.689-4.802 3.625-7.376.255-.701.667-1.334 1-2 .076-.153.064-.339.125-.5.065-.174.166-.333.25-.5.083-.167.088-.407.25-.5.181-.103.444-.103.625 0 .162.093.205.319.25.5.04.162 0 .334 0 .5 0 .709 0 1.417 0 2.125 0 1.878-.043 3.761-.25 5.626-.182 1.635-.587 3.24-.75 4.876-.025.249.024.501 0 .75-.018.171-.049.346-.125.5-.576 1.151-1.05 2.35-1.626 3.501-.35.7-.519 1.507-1 2.125-1.228 1.579-1.981 3.574-3.5 4.876-3.209 2.75-5.976 6.121-9.627 8.251-1.778 1.037-3.472 2.213-5.25 3.25-.715.417-1.153 1.224-1.876 1.625-2.526 1.404-5.076 2.848-7.251 4.751-1.444 1.264-3.265 2.036-4.75 3.251-1.939 1.586-3.48 3.604-5.251 5.375-1.144 1.145-1.675 2.791-2.75 4-.196.22-.417.417-.625.625-.167.167-.356.314-.501.5-.149.192-.375.382-.375.625 0 .243.135.661.375.625"/><path d="m338.17 306.19c.392-28.527 22.307-48.657 33.08-75.929 4.57-11.569 4.172-39.476 18.15-39.06 5.52.162 1.577 9.483 1.186 14.26-2.834 34.64-19.736 51.903-34.637 75.96-3.806 6.146-6.806 12.63-9.795 19.09-4.55 9.828-8.228 23.4-7.985 5.688"/><path d="m362.87 455.17c-11.847-5.249-42.596-35.04-44.918-45.845-5.068-23.582 7.194-71.42 10.991-94.93.857-5.308-6.507-25.428 1.571-15.963 3.532 4.139 4.403 5.075 5.507 7.954 5.631 14.686-.347 30.597-2.607 45.554-3.991 26.41-5.181 45.885 8.119 65.56 11.836 17.503 22.46 38.17 21.337 37.672"/><path d="m432 622.2c.211.27.658.212 1 .25.414.046.833 0 1.25 0 2.25 0 4.501 0 6.751 0 4.762 0 8.866-4.167 12-7.751 1.493-1.707 3.45-3.302 4-5.501.345-1.377-.094-2.874.25-4.251.091-.361.41-.638.5-1 .081-.323-.135-.695 0-1 .217-.488 1-.717 1-1.25 0-.334-.688-.117-1 0-.39.146-.653.519-1 .75-.404.269-.825.514-1.25.75-2.405 1.336-4.68 2.939-6.751 4.751-3.552 3.108-6.725 6.669-10.501 9.501-.927.695-1.965 1.232-3 1.75-.372.187-.646.529-1 .75-.316.198-.674.319-1 .5-.425.236-.968.355-1.25.75-.194.272-.205.738 0 1"/><path d="m448.87 147.99c-.192-.149.301-.393.375-.625.179-.569.282-1.161.375-1.75.2-1.271 1.173-2.296 1.625-3.5.519-1.386 1.04-2.925.75-4.376-.203-1.015-.554-2.734-1.25-3.5-1.368-1.505-3.03-4.106-4.376-5.626-1.046-1.177-2.463-1.565-3.5-2.75-.381-.436-1.412-.778-1.875-1.125-1.036-.777-1.836-1.433-3.053-1.876-.298-.108-.966-.414-1.281-.375-.171.022.312 1.83.333 2 .023.185.209.318.25.5.045.204-.037.42 0 .625.047.26.16.503.25.75.484 1.332 1.021 2.66 1.75 3.876.964 1.606 1.899 3.236 3 4.751.173.238.429.405.625.625.138.155.282.313.375.5.077.153.055.343.125.5.098.222.215.442.375.625.982 1.123 1.901 2.321 2.625 3.625.835 1.502 1.232 3.214 2 4.751.26.519.422 1.082.626 1.625.06.161.153.331.125.5-.02.117-.158.323-.25.25"/><path d="m393.11 212.34c.307.179.43-.568.667-.834.6-.676 1.11-1.457 1.833-2 1.572-1.179 3.91-1.325 5.167-2.834.748-.897.312-2.341.167-3.5-.238-1.905-1.248-3.65-2.167-5.334-.381-.699-.248-1.579-.5-2.334-.778-2.334-1.691-4.699-3.167-6.668-1.468-1.957-3.662-3.264-5.667-4.667-1.08-.755-2.209-1.575-3.501-1.834-.272-.054-.557.028-.833 0-.282-.028-.556-.111-.834-.166-.278-.056-.552-.136-.833-.167-.221-.024-.445 0-.667 0-.222 0-.667-.222-.667 0 0 .314.46.43.667.667.958 1.094 2.128 2 3 3.167 1.647 2.196 2.335 5 3 7.668.833 3.334 2.121 6.586 2.5 10 .247 2.224.758 4.457 1.667 6.501.093.209.094.449.167.667.094.284.333.534.333.833 0 .299-.592.683-.333.834"/><path d="m343.06 306.02c-.448-1.567-1.787-2.727-2.625-4.125-1.505-2.508-3.271-5.076-5.751-6.626-1.667-1.042-3.618-1.561-5.501-2.125-.554-.167-1.01-.569-1.5-.875-1.02-.638-2.307-.726-3.501-.876-2.076-.259-4.03-1.375-6.125-1.375-2.042 0-4.084 0-6.126 0-.699 0-1.376.313-2 .625-.153.077-.339.065-.5.125-.174.066-.5.064-.5.25 0 .187.32.205.5.25.162.041.334 0 .5 0 .584 0 1.167 0 1.751 0 1.627 0 3.227.554 4.75 1.126.841.315 1.624.805 2.501 1 .838.186 1.771.17 2.5.625 2.355 1.472 5.02 2.383 7.501 3.625.765.383 1 1.46 1.75 1.876 1.815 1.01 2.808 3.095 3.876 4.875.758 1.264 1.578 2.508 2.125 3.876.301.751 1.013 1.276 1.375 2 .342.684.754 1.332 1.125 2 .109.196.03.581.251.625.204.041.237-.343.375-.5.548-.627 1-1.333 1.5-2 .805-1.074 1.75-2.284 1.75-3.625"/><path d="m281.72 163.16c-.81.81.646 2.251 1.334 3.167 1.28 1.708 2.69 3.316 4 5 1.634 2.1 2.993 4.477 3.834 7 .418 1.253.41 2.652 1 3.834.823 1.645 1.573 3.326 2.334 5 1.452 3.195 3.057 6.339 4.167 9.669.567 1.701.772 3.528 1.5 5.167.145.325.523.508.667.833.301.678.107 1.539.5 2.167.722 1.155 3.114 1.868 4 .834.97-1.132.892-3 2-4 1.17-1.053 3-1.674 3.501-3.167.316-.949 0-2 0-3 0-2.068.039-4.225-.667-6.168-.45-1.238-1.245-2.322-1.834-3.5-1.537-3.074-2.232-6.555-4-9.502-1.314-2.19-3.242-4.04-5.334-5.501-.258-.18-.46-.43-.667-.666-.183-.209-.289-.486-.5-.667-1.3-1.114-2.798-1.973-4.168-3-1.512-1.134-3.477-1.489-5.167-2.334-1.278-.639-2.75-.823-4.167-1-.774-.097-1.782-.718-2.334-.167"/><path d="m298.9 194c-.625-.173-.603 1.155-1 1.667-1.628 2.092-3.149 4.297-4.334 6.667-2.358 4.715-5.979 8.684-9 13-2.705 3.865-6.182 7.699-8.799 11.624-6.634 9.95-11.364 17.571-17.703 27.712-1.878 3-4.941 5.117-7 8-2.615 3.662-5.634 8.235-8.334 11.835-1.18 1.573-3.155 2.428-4.334 4-1.134 1.511-1.458 3.549-2.667 5-.556.667-1.355 1.087-2 1.667-.468.421-.957.831-1.334 1.334-3.168 4.223-9.241 8.112-12.17 12.505-3.045 4.568-7.438 8.318-9.668 13.335-1.255 2.823-3.771 4.895-5.667 7.334-2.102 2.702-3.747 5.758-6 8.335-1.464 1.672-2.664 2.702-4.708 5.081-.98 1.14-4.903 6.498-5.375 7.126-13.167 17.499-8.962 18.07-8.752 18.627.704 1.876 16.587-22.937 18.17-24.17 2.856-2.221 4.933-5.417 8-7.334 1.753-1.096 3.248-2.572 5-3.667 1.858-1.162 4.117-1.784 5.667-3.334 1.893-1.893 3.302-4.259 5.334-6 2.482-2.127 5.69-3.356 8-5.667 1.228-1.228 2.107-2.773 3.334-4 1.745-1.745 2.819-4.053 4.334-6 2.558-3.288 6.399-5.415 9-8.668 7.601-9.5 15.704-18.604 23-28.337 6.213-8.285 10.788-17.719 17-26 1.104-1.471 1.313-3.47 2.334-5 2.179-3.269 3.91-6.821 5.667-10.335 1.751-3.502 4.593-6.348 6.668-9.668 1.591-2.546 1.448-6.214.333-9-.206-.516-.607-.941-1-1.334-.393-.393-.972-.578-1.333-1-.324-.377-.547-.851-.667-1.334-.108-.431 0-.889 0-1.333 0-.889.856-2.43 0-2.667"/><path d="m199.6 468.95c0 3.834-.673 7.69-.25 11.501.737 6.635 1.737 13.368 1 20-.123 1.105-.627 2.145-.75 3.251-.046.414.042.835 0 1.25-.042.423-.025.89-.25 1.25-.969 1.55-1.807 3.227-2.25 5-1.148 4.589-1.385 9.521-3.501 13.752-.166.333-.382.646-.5 1-.134.403-.203.827-.25 1.25-.037.331 0 .667 0 1 0 .333.041.669 0 1-.043.341.094 1-.25 1-.373 0-.419-.636-.5-1-.09-.407 0-.833 0-1.25 0-1.592-.238-3.18-.5-4.751-.613-3.676-1.192-7.363-2-11-.833-3.746-1.333-7.756-.5-11.502.916-4.124 2.421-8.108 3.25-12.252 1.285-6.422 2.568-12.921 5-19"/><path d="m391.98 512.44c-.689 1.574 1.846 3.214 3.45 3.831 2.631 1.013 5.507 1.306 8.13 2.341 1.226.484 2.153 1.554 3.36 2.082 2.566 1.125 5.458 1.491 7.906 2.854 1.502.835 3.402.535 5.058.995 3.884 1.079 8.04 1.094 12.06.889 2.081-.105 4.162-.211 6.243-.317 2.354-.119 4.746-.496 6.941-1.354.396-.154.857-.121 1.236-.313.372-.188 1.05-.393.961-.8-.265-1.21-2.366-.739-3.559-1.071-1.347-.374-2.666-.943-4.059-1.045-4.279-.316-8.615-.273-12.824-1.102-.982-.193-2.01.32-2.997.153-1.544-.262-2.81-1.48-4.347-1.783-3.114-.612-6.329-.816-9.353-1.778-1.137-.362-2.469-.033-3.534-.571-.372-.189-.449-.737-.8-.961-.289-.186-.684-.095-1.01-.199-2.641-.84-5.272-1.707-7.894-2.604-.394-.135-.655-.531-1.037-.698-.314-.138-.668-.174-1.01-.199-.333-.025-.709-.113-.999.051-.726.41-1.587.836-1.922 1.599"/><path d="m613.44 442.87c3.02 1.508 5.214 4.281 7.751 6.501 3.95 3.456 7.791 7.04 11.502 10.752 1.308 1.308 2.485 2.816 3.25 4.5.659 1.45 1.668 3.677 3.251 3.501 2.354-.262 6.107-1.898 6.343-4.255.246-2.462-3.981-5.868-5.843-7.497-3.791-3.317-7.882-6.276-11.752-9.501-2.23-1.859-3.935-4.797-6.751-5.501-2.264-.566-4.667 0-7 0"/><path d="m597.68 461.38c4.203 3.152 7.448 7.489 11.752 10.501 2.178 1.525 4.496 2.841 6.751 4.251 1.076.673 2.602.602 3.5 1.5 1.912 1.912 4.332 3.291 6.751 4.501.333.166.651.369 1 .5.322.12.679.129 1 .25.349.131.667.333 1 .5.334.167.652.631 1 .5.499-.187.741-.784 1-1.25.167-.301.096-.693.25-1 .633-1.268 1.106-3.366 0-4.251-2.504-2-6.088-2.389-8.501-4.501-5.271-4.611-10.239-9.87-16.503-13-2.414-1.208-5.301-1.251-8-1.251"/><path d="m575.93 489.46c.747 3.881 3.233 7.216 5 10.751 2.672 5.345 5.953 11.533 11.501 13.752 2.057.823 4.054 1.976 6.251 2.251 1.904.238 4.106.737 5.751-.25 1.887-1.132 4.478-3.103 4-5.251-.358-1.611-2.444-2.233-3.501-3.501-1.019-1.223-2.124-2.374-3.25-3.5-1.521-1.521-2.118-3.851-3.751-5.251-2.686-2.302-4.588-5.421-7.251-7.751-.98-.857-1.459-2.219-2.5-3-1.265-.949-2.927-1.343-4.501-1.501-1.448-.144-2.83-.684-4.25-1-1.302-.289-2.891-.739-4 0-1.187.792.23 2.85.5 4.251"/><path d="m346.04 833.26c-.932-.721-2.367.177-3.501.5-1.22.349-2.307 1.067-3.5 1.501-3.172 1.153-6.115 3.114-8.501 5.5-7.879 7.879-16.02 16.04-21 26-3.351 6.701-7.126 13.315-12 19-1.613 1.881-4.393 2.784-5.501 5-7.364 14.73-17.373 27.981-26 42.01-3.985 6.475-9.441 11.921-14 18-3.401 4.534-4.959 10.22-8 15-4.468 7.02-8.729 14.184-13.501 21-3.121 4.458-3.96 10.37-7.501 14.505-1.932 2.25-4.08 4.39-5.501 7-2.149 3.94-2.692 8.65-5 12.5-7.29 12.15-11.666 25.83-18 38.5-3.02 6.04-7.258 11.39-11 17.01-1.906 2.86-2.56 6.38-4 9.5-1.438 3.12-3.725 5.81-5 9-.921 2.3-1.126 4.94-2.501 7-3.101 4.65-5 10-7.501 15-.333.67-.738 1.31-1 2-.241.65-.136 1.42-.5 2-.5.8-1.617 1.14-2 2-.339.77-.414 1.78 0 2.5 1.654 2.9 6.767.81 10 0 6.909-1.72 15.181-1.27 20.503-6 2.898-2.57 3.267-7.03 5-10.5 3.808-7.61 6.194-15.89 10-23.5 2.478-4.96 3.751-10.44 6-15.5 1.486-3.35 4.02-6.16 5.501-9.5.969-2.19.872-4.7 1.5-7.01 1.296-4.75 4.443-8.83 6-13.5 1.701-5.1 2.094-10.69 4.501-15.5 1.49-2.98 3.831-5.47 6-8 2.039-2.38 2.341-5.85 4-8.5 3.046-4.88 5.931-9.863 8.501-15 3.325-6.65 4.891-14.04 7.501-21 2.423-6.462 8.844-10.651 12.502-16.503 3.02-4.824 5.986-9.677 9-14.502 3.043-4.868 4.317-10.725 7.501-15.502 1.966-2.948 5.123-4.996 7-8 2.061-3.297 3.471-7.05 6-10 1.613-1.882 3.797-3.335 5-5.501.412-.743.155-1.724.5-2.5.338-.762.951-1.373 1.5-2 3.823-4.369 7.781-8.671 11-13.502 5.185-7.778 9.547-16.08 14.502-24 1.666-2.667 3.896-5.056 5-8 .981-2.616.755-5.819 2.501-8 .607-.759 1.691-.961 2.5-1.5.693-.463 1.293-1.059 2-1.501.632-.395 1.404-.552 2-1 .755-.566 1.789-1.081 2-2 .339-1.471.693-3.576-.5-4.501"/><path d="m692.89 395.38c-1.173.241-.848 2.24-1.334 3.334-.404.908-.93 1.759-1.334 2.667-.486 1.094-.752 2.288-1.333 3.334-5.299 9.538-11.304 18.725-18 27.337-5.567 7.159-9.901 15.293-16 22-6.977 7.675-15.253 14.13-22 22-6.914 8.07-12.34 17.342-19.336 25.337-4.801 5.487-11.8 8.591-17.336 13.335-8.383 7.186-14.15 16.954-21.336 25.337-10.751 12.543-26.352 20.438-36.672 33.34-5.638 7.05-11.493 13.943-16.669 21.336-2.757 3.939-4.601 8.602-8 12-7.126 7.126-14.715 13.816-22.67 20-2.987 2.324-6.568 4.185-8.668 7.334-15.396 23.09-25.861 41.832-38.28 66.66-1.618 3.236-3.163 12.774-5.334 15.669-3.293 4.391-3.488 11.03-6.398 15.686-8.575 13.721-16.702 28.564-29.337 38.672-11.318 9.06-24.43 15.792-35.34 25.337-5.29 4.628-12 7.428-17.336 12-2.793 2.394-7.129 2.369-10 4.667-.982.785-1.721 1.839-2.667 2.667-.837.732-2.116 1.035-2.667 2-1.532 2.681 1.905 6.62 4.667 8 .994.497 2.34.497 3.334 0 .994-.497 1.156-1.944 2-2.667 3.701-3.172 7.221-6.554 10.668-10 8.113-8.113 20.762-10.38 29.338-18 2.905-2.583 6.857-3.714 10-6 8.134-5.916 14.224-14.225 21.336-21.337 4.336-4.335 9.298-8.05 13.335-12.668 5.382-6.15 12.803-10.536 17.336-17.336 3.481-5.221 4.528-11.724 7.335-17.336 2.404-4.808 4.461-9.956 8-14 1.99-2.275 4.601-4.401 5.334-7.334.941-3.766 3.304-7.03 4.667-10.668 4.118-10.982 8.279-22.511 16-31.34 8.812-10.07 12.628-23.845 21.337-34 4.339-5.062 9.909-9.293 16-12 2.829-1.258 6.191-1.477 8.668-3.334 6.557-4.918 12.04-11.182 18.669-16 9.743-7.086 20.15-13.485 28.671-22 2.183-2.184 2.634-5.678 4.667-8 2.589-2.959 5.412-5.708 8-8.667 7.348-8.399 16.655-14.939 24-23.337 3.046-3.48 4.992-7.823 8-11.335 1.967-2.295 5.399-3.01 7.334-5.334 8.05-9.665 13.335-21.336 20-32 5.136-8.218 12.695-14.83 17.335-23.337 6.6-12.1 18.247-20.854 25.337-32.671 2.027-3.377 2.942-7.416 3.334-11.335.313-3.128 2.437-6.392 1.334-9.335-.391-1.04-1.247-1.85-2-2.667-1.918-2.079-3.229-6.569-6-6"/></g><g fill="#bdbdbd"><path d="m400.36 208.18c4.195-6.992 11.979-11.11 18.502-16 2.459-1.844 4.601-4.081 7-6 1.083-.866 2.288-1.576 3.501-2.25.424-.236.77-.83 1.25-.75 1.017.169-.204 2.126-.75 3-1.115 1.784-2.334 3.501-3.501 5.251-2.461 3.692-3.899 7.989-6.251 11.752-.25.399-.71.628-1 1-.298.383-.569.799-.75 1.25-1.047 2.618-1.489 5.479-2.75 8-1.884 3.767-4.541 7.217-5.751 11.252-.988 3.291-2.464 6.427-4 9.501-1.086 2.173-1.475 5.398-3.75 6.251-1.093.409-2.334 0-3.501 0-2.37 0-4.88-.19-7-1.25-1.968-.984-4.78-.92-6-2.751-2.432-3.648-.129-9.168 2-13 1.256-2.262 1.091-5.078 2-7.501 1.983-5.286 9.02-7.381 14.502-8.751"/><path d="m354.95 291.27c.99.792 1.542 2.01 2.334 3 2.378 2.972 4.05 6.456 6.334 9.501 1.494 1.992 4.073 2.906 5.834 4.667 1.992 1.992 3.478 5.03 3.167 7.835-.326 2.94-2.844 5.189-4.167 7.834-1.757 3.514-3.585 7-5.667 10.335-.569.91-.731 2.02-1.167 3-.677 1.525-1.859 2.795-2.5 4.334-.541 1.298-.705 2.744-1.334 4-.968 1.936-2.743 3.545-3.167 5.667-.386 1.931-.786 3.907-1.667 5.668-1.306 2.612-1.981 5.499-3.167 8.168-.454 1.021-1.229 1.915-1.5 3-.507 2.026-1.191 4.191-2.667 5.667-.176.176-.434.247-.667.334-.215.08-.462.064-.667.167-2.411 1.205-6.406.285-7.834-2-.422-.674-.272-1.571-.5-2.333-.265-.881-.853-1.636-1.167-2.501-.422-1.159-.201-2.47-.5-3.667-.745-2.977-1.911-6.295-.834-9.168 1.648-4.395 2.652-9.01 4-13.502.191-.638-.074-1.337 0-2 .192-1.726.326-3.464.667-5.167.747-3.738 1.5-7.524 1.5-11.335 0-3.733-.836-7.83.833-11.169 1.089-2.178 2.564-4.168 4.168-6 .558-.639.733-1.568 1.333-2.167.64-.64 1.521-1.067 2-1.834 1.945-3.111 4.299-5.948 6.335-9"/></g></g><g stroke-width=".2"><path d="m286.07 227.64c-18.14 29.508-37.15 60.19-64.42 81.53-14.742 11.366-29.642 24.17-38.27 40.666-1.988 3.8-3.51 7.895-4.392 12.09-.356 1.69-.637 3.407-.695 5.133-.028.842-.078 1.687-.025 2.528.039.622.091 1.244.167 1.863.103.845.323 2.532 1.138 2.286 1.128-.34.818-2.24.915-3.414.15-1.818.319-3.659.837-5.408 1.524-5.145 4.216-9.915 7.05-14.471 9.122-14.667 23.06-26.06 36.927-36.35 12.936-9.742 24.356-21.59 34.453-34.25 16.882-21.17 30.07-45.03 44.827-67.73 31.54-46.8 77.71-82.5 122.34-117.04 11.673-9.149 22.9-19.696 36.676-25.19 4.03-1.606 8.491-2.612 12.809-2.238 1.632.141 3.243.47 4.86.739.811.135 2.068.438 2.451-.29.484-.919-.558-2.102-1.294-2.836-1.435-1.43-3.263-2.518-5.175-3.187-5.131-1.796-11.167-1.014-16.291.807-14.673 5.214-26.591 16.339-38.865 25.923-45.34 34.99-91.73 71.75-123.61 119.32-4.184 6.473-8.315 12.981-12.408 19.513"/><path d="m140.14 575.38c7.288 58.24 11.682 118.23 1.673 176.06-3.942 20.281-11.537 40.05-21.594 58.1-16.02 28.737-37.38 54.28-58.672 79.36-11.481 13.521-23.17 26.879-34.12 40.834-3.812 4.859-7.57 9.768-11.09 14.839-1.173 1.687-2.316 3.399-3.35 5.174-.518.889-1.264 1.787-1.264 2.816 0 .275.61.153.823-.02.15-.121.295-.249.428-.387.447-.464.889-.933 1.313-1.418 1.663-1.906 3.184-3.931 4.738-5.927 3.723-4.784 7.726-9.35 11.813-13.827 12.46-13.647 24.747-27.454 36.897-41.38 21.939-25.14 43.576-51.15 59.674-80.37 9.698-17.61 16.912-36.876 20.866-56.59 7.179-40.06 7.688-81.4 4.82-122-4.122-58.35-14.676-116.07-20.443-174.28-3.779-38.14-4.768-76.844-.849-114.97 1.472-11.548 8.243-22.18 15.464-31.31 10.47-13.24 22.436-26.27 27.955-42.22 9.334-30.3 14.894-61.961 27.444-91.08 5.276-12.241 12.249-24.24 21.828-33.506 5.861-5.671 12.98-10.205 20.508-13.344 9.194-3.471 19.407-4.629 29.21-3.98 14.821.981 29.352 4.655 43.889 7.703 8.08 1.694 16.239 3.211 24.475 3.757 2.848.189 5.725.234 8.563-.069 1.44-.154 3.197-.007 4.221-1.031.445-.446-.859-1-1.455-1.208-.804-.276-1.632-.483-2.459-.68-2.785-.664-5.593-1.225-8.384-1.864-8.327-1.906-16.579-4.127-24.858-6.231-15.463-3.93-31.21-7.595-47.15-8.242-9.748-.395-19.775 1.13-28.914 4.547-7.735 3.197-15.11 7.655-21.32 13.266-9.967 9-17.487 20.776-23.24 32.911-14.454 30.478-19.956 64.44-29.833 96.7-6.112 17.754-20.889 31.21-31.632 46.611-5.884 8.435-10.65 18.251-11.924 28.457-3.02 30.05-3.064 60.46-1.049 90.59 3.231 48.3 11.175 96.16 17 144.21"/><path d="m279.82 943.06c10.408-16.973 21.342-33.619 32.27-50.26 6.493-9.894 13.04-19.757 19.476-29.686 3.696-5.699 7.36-11.419 10.974-17.17 1.992-3.168 3.938-6.364 5.86-9.575 1.403-2.345 2.794-4.699 4.119-7.089 1.121-2.024 2.229-4.061 3.167-6.176.553-1.248 1.937-3.419.718-4.03-.86-.431-1.637 1.102-2.164 1.906-.853 1.301-1.586 2.693-2.586 3.884-4.212 5.02-8.091 10.328-11.77 15.753-9.176 13.531-18.497 26.964-27.749 40.444-28.781 41.927-57.33 84.51-78.971 130.54-6.896 15.33-13.191 30.93-19.458 46.52-4.142 10.31-8.357 20.59-12.81 30.77-2.329 5.32-4.773 10.59-7.289 15.83-1.488 3.1-3.039 6.16-4.612 9.22-.843 1.64-1.705 3.26-2.551 4.9-.481.93-.953 1.88-1.361 2.84-.583 1.39-1.634 4.26-.153 4.51 2.158.37 4.054-1.85 5.647-3.35 2.433-2.3 4.55-4.98 6.212-7.88 4.607-8.04 8.437-16.51 12.215-24.98 11.06-24.78 20.17-50.4 31.14-75.23 11.46-24.787 25.15-48.558 39.676-71.68"/><path d="m587.63 385.22c-28.622 29.2-51.47 63.936-81.49 91.69-11.751 10.861-25.12 20.722-40.07 26.444-10.283 3.938-21.644 5.602-32.643 5.075-14.196-.969-29.31-4.136-40.814-12.509-9.818-7.145-16.542-18.838-19.915-30.503-4.093-14.268-12.224-27.17-20.237-39.666-7.15-11.152-14.577-22.806-17.333-35.763-3.984-23.874 7.549-48.17 6.253-72.34-.324-6.02-1.808-12.414-5.381-17.271-3.168-4.306-8.169-7.461-13.3-8.962-3.367-.985-6.875-1.553-10.378-1.751-1.63-.092-3.925-.833-4.874.496-.296.416.854.615 1.355.713.997.194 2 .338 3 .504 2.904.482 5.825.976 8.635 1.852 3.73 1.162 7.539 2.87 10.254 5.68 2.914 3.01 4.928 7.06 5.803 11.161 2.109 9.889-.006 20.336-1.854 30.28-3.095 16.657-7.449 33.86-4.825 50.598 5.588 27.618 29.403 48.874 36.992 76.01 3.67 13.02 11.164 26.05 22.06 34.07 12.425 9.157 28.755 12.84 44.15 13.968 11.925.633 24.24-1.141 35.426-5.332 18.15-6.801 34.16-19.286 47.931-32.926 35.24-34.899 61.749-79.32 101.94-108.37 6.603-4.414 15.21-5.948 23.15-5.655 14.808.545 30.27 6.26 41.504 15.923 5.51 4.739 10.25 11.216 11.838 18.308 1.701 9.459-2.01 19.732-6.924 27.989-6.603 11.09-15.214 20.851-22.674 31.381-42.45 61.07-96.41 114.18-153.17 162.24-12.369 10.621-21.972 24.51-29.674 38.879-14.521 27.09-23.797 57.629-43.22 81.45-18.695 21.9-42.39 39.16-65.57 56.24-8.874 6.542-17.818 13.02-26.26 20.11-2.841 2.388-5.66 4.818-8.264 7.462-1.569 1.594-3.858 3.02-4.207 5.227-.109.69 1.45.098 2.084-.194.905-.417 1.771-.916 2.631-1.418 3.1-1.809 6.103-3.779 9.114-5.732 8.362-5.422 16.69-10.9 24.914-16.531 25.711-17.604 51.28-36.485 71.57-60.13 19.17-23.383 28.863-53.15 42.772-80 7.507-14.49 16.81-28.667 29.18-39.31 57.25-48.564 111.57-102.32 154.3-164.05 8.429-11.944 18.4-22.961 25.16-35.923 4.568-8.76 7.242-19.408 5.475-29.13-1.955-8.651-7.565-16.667-14.298-22.44-13.272-11.38-31.906-17.965-49.39-17.658-8.409.148-17.243 2.355-24.23 7.03-9.436 6.831-18.321 14.488-26.502 22.781"/><path d="m387.16 240.02c5.638-12.804 10.324-27.629 7.408-41.31-.892-4.189-2.414-8.358-4.787-11.923-.765-1.148-1.586-2.269-2.526-3.279-.654-.702-1.34-1.379-2.087-1.979-.925-.743-2.955-1.765-3.489-.706-.467.928 1.085 1.779 1.517 2.724.694 1.514 1.195 3.113 1.913 4.616 2.313 4.845 3.881 10.226 4.04 15.593.451 15.245-6.52 30.23-13.838 43.614-8.402 15.363-18.484 29.748-27.382 44.828-2.533 4.294-4.86 8.714-7 13.217-.802 1.687-1.604 3.384-2.206 5.152-.38 1.116-.823 2.565-.151 3.533 1.082 1.56 4.1.327 5.641-.781 2.515-1.809 3.726-4.978 5.199-7.704 4.172-7.725 8.777-15.211 13.373-22.691 8.608-14.01 17.747-27.848 24.375-42.901"/><path d="m449.63 165.55c5.124-10.209 2.069-24.21-3.708-34.07-1.057-1.803-2.24-3.543-3.566-5.158-1.232-1.502-2.524-3.02-4.135-4.106-.949-.64-2.701-1.555-3.377-.63-.38.52.273 1.295.644 1.822.489.695.539 1.616.9 2.386 1.468 3.13 3.468 5.995 4.897 9.143 3.929 8.658 6.354 20.544 1.148 28.5-8.22 11.11-20.795 18.21-31.31 27.18-3.704 3.158-7.144 6.739-9.831 10.798-1.336 2.02-3.176 4.137-3.115 6.555.024.933 1.086 1.811 2.01 1.95 1.907.287 4.154-.348 5.531-1.698 1.458-1.429 2.459-3.262 3.775-4.822 2.079-2.462 4.439-4.684 6.852-6.82 10.793-9.557 23.599-17.355 32.06-29.03l.92-1.442.305-.565"/><path d="m492.24 71.16c4.292-9.181 8.308-18.49 12.228-27.836 1.957-4.666 3.913-9.334 5.69-14.07.946-2.52 1.876-5.04 2.76-7.586.5-1.435.973-2.88 1.404-4.337.31-1.047.603-2.101.831-3.169.308-1.443.741-4.349-.735-4.366-1.113-.013-1.174 1.892-1.826 2.794-1.907 2.64-3.568 5.478-4.919 8.442-3.627 7.954-7.303 15.886-11.03 23.795-11.605 24.651-24.21 48.819-35.965 73.4-2.439 5.102-4.821 10.231-7.117 15.399-.169.379-.335.759-.497 1.141-.698 1.648-1.398 3.295-2.082 4.949-.42 1.015-.823 2.037-1.228 3.058-.201.504-.401 1.01-.589 1.518-.511 1.383-1.029 2.764-1.508 4.158-.139.404-.259.816-.344 1.234-.218 1.069.178 2.781 1.241 3.03 2.563.596 5.39-1.813 6.777-4.049 2.275-3.667 3.603-7.843 5.385-11.773 4.769-10.52 9.75-20.944 14.785-31.34 5.557-11.474 11.338-22.84 16.736-34.389"/><path d="m193.57 516.01c-.954 5.451-1.759 10.929-2.465 16.418-.425 3.294-.809 6.597-1.028 9.911-.127 1.91-.229 3.826-.207 5.741.023 2.039.039 4.115.529 6.094.251 1.013.95 2.555 1.985 2.422.741-.096.669-1.336.967-2.02.936-2.142 1.466-4.465 1.789-6.78.704-5.05 1.624-10.07 2.607-15.07 3.02-15.392 7.369-30.769 7.525-46.46.072-7.222-.599-14.68-3.142-21.441-.682-1.813-1.244-4.369-3.103-4.915-1.772-.52-3.578 1.86-4.217 3.592-.592 1.605.11 3.448.542 5.104.534 2.05.949 4.131 1.317 6.218 1.056 5.984.945 12.169.428 18.223-.658 7.714-2.194 15.33-3.527 22.957"/><path d="m297.5 176.22c-1.709-3.03-3.917-5.772-6.232-8.366-1.096-1.228-2.241-2.423-3.505-3.478-1.335-1.115-2.705-2.417-4.4-2.804-.904-.206-2.193.24-2.558 1.092-.139.326.375.622.428.973.326 2.152 1.94 3.921 3.223 5.679 2.639 3.613 5.272 7.295 7.167 11.346 2.303 4.921 3.732 10.268 4.648 15.623.323 1.888.599 3.783.904 5.674.189 1.173.105 2.504.79 3.474 1.308 1.852 5.344.796 6.726-1 .946-1.23.225-3.11.078-4.655-.778-8.181-3.23-16.4-7.269-23.557"/><path d="m397.48 243.36c2.431.251 5.185.774 7.318-.417 1.145-.64 1.389-2.505 1.087-3.782-.184-.776-1.17-1.135-1.903-1.45-1.391-.596-2.857-1.036-4.342-1.328-3.118-.614-6.129-1.891-9.3-2.1-.899-.059-1.873.043-2.661.481-1.112.619-.623 2.501-.584 3.773.037 1.167-.432 2.923.611 3.448 1.092.55 2.436.218 3.653.339 2.059.206 4.063.824 6.121 1.036"/><path d="m362.6 305c1.159 1.439 2.518 2.706 3.835 4 1.127 1.109 2.314 2.509 3.88 2.727.943.131 2.278-.347 2.565-1.254 1.103-3.484-2.542-6.925-4.57-9.964-2.01-3.01-3.445-6.404-5.731-9.203-.829-1.015-1.911-2.666-3.175-2.319-1.473.404-2.568 1.718-3.576 2.866-.512.584-1.329 1.259-1.164 2.02.38 1.741 2.109 2.873 3.15 4.32 1.62 2.253 3.045 4.65 4.786 6.809"/><path d="m335.26 375.54c.487.401.97.806 1.483 1.172 1.147.713 2.477 1.225 3.823 1.347 1.606.145 3.272-1.984 3.237-3.597-.025-1.171-1.306-2.01-2.26-2.69-1.922-2.415-2.69-5.941-5.296-7.596-1.248-.792-2.987.735-4.087 1.723-.861.773-2.501 1.519-2.246 2.648.255 1.129 1.408 1.838 2.122 2.749 1.095 1.399 2.16 2.822 3.224 4.244"/><path d="m643.88 410.9c5.095 2.928 9.774 6.71 13.735 11.05 3.154 3.668 5.519 7.946 8.267 11.927 1.227 1.777 2.619 3.483 4.277 4.866 1.695 1.414 4.134 2.457 6.301 2.035 1.512-.295 3.509-1.283 3.667-2.816.05-.485-.219-1.117-.671-1.3-.777-.317-1.631.749-2.45.571-1.518-.331-2.809-1.5-3.804-2.693-4.229-5.073-6.404-11.617-10.465-16.826-8.01-9.632-19.812-16.32-31.759-20.08-.248-.095.308.915.424.676.29-.604.436-1.274.751-1.865 1.146-2.154 2.675-4.095 4.239-5.968 3.07-3.678 6.363-7.169 9.672-10.635 1.983-2.078 3.991-4.134 5.915-6.267.866-.96 1.742-1.91 2.598-2.88.821-.928 1.622-1.874 2.431-2.813.048-.056.094-.114.14-.173 1.023-1.305 2.393-2.524 2.753-4.143.165-.74-.257-1.689-.901-2.089-1.877-1.167-4.825-.794-6.611.507-3.374 2.459-5.866 5.944-8.759 8.954-3.677 3.825-7.338 7.673-10.793 11.699-3.779 4.403-8.257 9.186-8.916 14.95-.333 2.917 2.232 6.356 5.04 7.225 5.154 1.517 10.36 3.254 14.923 6.09"/><path d="m631.75 466.36c1.988 2.262 4.048 4.469 5.879 6.859 1.052 1.373 2.091 2.756 3.082 4.173 1.101 1.573 2.09 3.234 3.337 4.693.745.87 2.415 1.646 3.309.93.318-.254-.047-.824.048-1.22.3-1.263.347-2.689-.141-3.891-1.175-2.901-2.542-5.742-4.195-8.399-4.859-7.81-11-14.881-17.76-21.12-2.769-2.558-5.767-5.05-9.238-6.524-1.567-.664-3.85-1.964-5.05-.757-1.464 1.472-1.334 4.282-.549 6.204.639 1.564 2.833 1.842 4.239 2.779 2.723 1.813 5.247 3.93 7.644 6.157 3.372 3.132 6.356 6.661 9.395 10.117"/><path d="m620.11 483.69c2.897 2.134 5.792 4.328 8.264 6.943 1.36 1.439 2.6 3.01 3.616 4.714.602 1.01 1.123 2.061 1.658 3.106.245.479.497.976.881 1.353.583.573 2.058 1.095 2.424.364 2.665-5.321-2.01-12.538-6.234-16.728-6.976-6.918-15.16-12.502-22.81-18.667-2.641-2.129-5.241-4.31-7.911-6.403-.83-.651-2.053-1.444-3.01-.991-1.877.892-3.657 3.637-2.843 5.549.896 2.107 3.102 3.386 4.865 4.847 3.109 2.578 6.355 4.99 9.63 7.353 3.868 2.79 7.626 5.732 11.466 8.56"/><path d="m596.45 518.63c3.689 1.853 7.746 2.939 11.778 3.829 3.775.833 7.765 1.048 11.588.475 2.154-.322 5.751-1.078 5.665-3.254-.032-.825-1.369-.934-2.112-1.294-2.274-1.1-5.01-.679-7.513-.993-6.227-.779-12.389-2.956-17.795-6.142-6.401-3.772-12.11-9.239-15.884-15.637-1.269-2.149-2.205-4.508-2.886-6.91-.354-1.246-.317-2.976-1.449-3.606-1.952-1.087-5.461.45-6.195 2.561-.374 1.074.092 2.284.33 3.397.488 2.276 1.256 4.516 2.313 6.591 4.618 9.06 13.07 16.418 22.16 20.983"/><path d="m423.77 530.94c3.803-.076 7.597-.567 11.348-1.198 2.452-.413 4.9-.853 7.338-1.341 1.181-.237 2.356-.509 3.522-.812 1.277-.331 2.633-.655 3.678-1.461.627-.483 1.053-1.587.669-2.28-.219-.397-.921-.103-1.325-.309-2.494-1.272-5.57-.907-8.365-.744-6.739.393-13.54 1.502-20.241.681-6.627-.811-13.08-3.209-19.03-6.241-2.112-1.077-4.165-2.266-6.273-3.351-1.39-.716-2.82-2.074-4.351-1.755-2.169.451-3.119 4.213-2.252 6.251.428 1.01 1.625 1.481 2.548 2.067 1.663 1.056 3.359 2.063 5.1 2.983 8.44 4.459 18.09 7.7 27.634 7.51"/><path d="m450.57 611.88c1.844-1.565 3.535-3.307 5.183-5.077 1.133-1.218 2.243-2.458 3.306-3.737 1.058-1.274 2.318-2.72 2.351-4.376.015-.757-.5-1.584-1.161-1.955-.27-.151-.579.273-.888.269-1.495-.015-2.901.936-4.086 1.847-2.82 2.171-5.527 4.488-8.335 6.676-3.881 3.02-8.168 5.502-12.415 7.987-2.63 1.539-5.688 2.741-7.556 5.149-1.488 1.917 1.968 6.379 4.334 5.847 2.962-.667 5.3-2.972 7.85-4.62 3.905-2.523 7.872-5 11.417-8.01"/><path d="m400.77 253.63c6.529-15.281 13.178-30.53 20.619-45.39 4.04-8.06 8.173-16.08 12.499-23.987 2.379-4.348 4.776-8.686 7.193-13.01.963-1.726 1.896-3.469 2.82-5.217.631-1.194 1.263-2.389 1.817-3.62.135-.301.265-.603.388-.909.103-.256.2-.514.288-.776.265-.785.512-2.442-.317-2.467-1.794-.054-2.285 2.771-3.487 4.106-3.554 3.947-6.724 8.256-9.562 12.746-7.681 12.149-14.754 24.704-21.17 37.565-19.16 38.38-34.935 78.37-51.2 118.06-4.318 10.542-8.61 21.1-12.92 31.64-2.098 5.133-4.186 10.271-6.249 15.418-.885 2.208-1.797 4.407-2.625 6.638-.238.644-.481 1.287-.678 1.945-.345 1.153-.738 2.472-.309 3.597.213.558 1.061.841 1.644.711 4.662-1.04 7.343-6.552 9.283-10.917 2.505-5.639 4.935-11.311 7.289-17.02 7.092-17.19 14-34.444 20.912-51.704 7.696-19.231 15.628-38.37 23.766-57.42"/><path d="m718.76 141.23c-14.441 33.639-29.24 67.13-43.06 101.03-7.298 17.908-14.441 35.884-21.09 54.04-3.67 10.02-7.196 20.1-10.505 30.24-1.53 4.692-3.02 9.398-4.417 14.13-.841 2.847-1.662 5.7-2.424 8.569-.441 1.661-.881 3.322-1.257 4.999-.209.927-.41 1.856-.586 2.789-.127.68-.244 1.362-.327 2.048-.101.832-.505 2.536.332 2.491 1.043-.056 1.288-1.686 1.649-2.667.873-2.376 1.447-4.855 2.333-7.227 2.16-5.786 4.725-11.415 6.923-17.19 7.03-18.463 13.704-37.07 21.09-55.39 21.17-52.53 44.554-104.14 67.18-156.06 4.401-9.698 9.44-19.1 14.411-28.515 2.596-4.917 5.204-9.83 7.658-14.82 2.474-5.03 5.02-10.111 6.477-15.526.499-1.856.784-3.971.092-5.764-.557-1.445-2.02-2.672-3.524-3.03-17.07-3.585-34.15-7.167-51.21-10.816-26.27-5.755-52.52-11.623-78.82-17.227-13.962-2.975-27.953-5.817-41.988-8.419-9.347-1.733-18.715-3.359-28.1-4.886-4.86-.791-9.732-1.504-14.605-2.209-.704-.102-1.41-.194-2.116-.289-2.558-.341-5.116-.685-7.675-1.019-2.685-.35-5.388-.618-8.095-.679-1.158-.026-2.328-.028-3.471.156-.607.098-1.582.275-1.616.889-.051.918 1.211 1.437 2.01 1.884 1.32.735 2.726 1.312 4.139 1.847 4.67 1.769 9.516 3.09 14.399 4.136 13.999 3 28.2 4.935 42.27 7.617 40.847 7.79 81.41 17 122.06 25.742 17.09 3.586 34.19 7.095 51.29 10.614-.452-.106-.894-.323-1.242-.631-.226-.201-.423-.442-.571-.706-.078-.139-.141-.287-.215-.549l-.012-.064c-.709 1.858-.927 3.881-1.654 5.732-1.964 5-4.383 9.817-6.826 14.603-6.631 12.994-13.757 25.755-19.756 39.05-3.044 7.02-6.085 14.05-9.153 21.06"/><path d="m702.47 229.42c-9.766 23.21-19.636 46.39-29.393 69.6-4.398 10.468-8.764 20.95-13 31.484-1.742 4.33-3.437 8.682-4.998 13.08-.57 1.605-1.122 3.218-1.599 4.852-.116.397-.227.796-.33 1.196-.086.334-.166.67-.236 1.01-.058.275-.108.552-.148.83-.031.221-.055.444-.064.667-.021.505.265 1.443.754 1.315.809-.21 1.134-1.262 1.481-2.02.594-1.296 1.059-2.661 1.805-3.876 2.585-4.211 4.932-8.576 7.04-13.04 5.277-11.179 10.207-22.518 15.274-33.794 17.36-38.637 34.07-77.56 50.907-116.43 10.138-23.08 22.263-45.24 32.665-68.2 3.696-8.16 7.145-16.496 9.5-25.14 1.572-5.771 3.172-12.385.907-17.92-.538-1.273-1.143-2.548-1.381-3.909-.262-1.497-.085-3.252-1.031-4.442-1.526-1.919-3.552-3.424-5.609-4.757-1.406-.911-3.287-2.589-4.722-1.723-.979.591-.299 2.374.143 3.43 1.028 2.457 2.769 4.553 4.266 6.756.095.141.173.293.238.491-.291-.142-.353-.558-.426-.873-.114-.498.169-.77-.082-.496-.712.776-.18 2.118-.028 3.16.27 1.839.993 3.588 1.667 5.32.678 1.776.412 3.822.131 5.702-.49 3.285-1.415 6.498-2.382 9.675-2.421 7.946-5.766 15.596-9.182 23.17-10.134 22.466-21.828 44.22-31.58 66.853-6.814 16.03-13.64 32.06-20.586 48.04"/><path d="m518.32 654.94c-2.169 5.143-4.369 10.273-6.541 15.414-.335.841 1.124-.061.501.146-.718.238-1.437-.505-2.078-.905-.979-.611-1.894-1.321-2.798-2.037-2.851-2.257-5.482-4.821-8.539-6.79-1.174-.755-2.413-1.462-3.749-1.865-.766-.231-2.051-.107-2.31.65-.282.822 1.07 1.378 1.491 2.139 1.022 1.844 2.432 3.469 3.905 4.978 3.71 3.8 7.211 8.752 12.36 10.05 2.607.659 6-1.152 7.25-3.534 7.417-15.258 14.568-30.644 21.746-46.02 2.916-6.245 5.818-12.506 8.356-18.914.414-1.046.818-2.096 1.203-3.152.346-.951.683-1.905.989-2.87.272-.854.315-2.01-.293-2.673-1.344-1.457-4.323-.681-5.927.483-1.892 1.374-2.515 3.961-3.482 6.089-3.097 6.819-6.126 13.668-9.188 20.502-4.24 9.461-8.53 18.898-12.896 28.3"/><path d="m561.28 624.76c3.543-9.182 6.872-18.45 9.915-27.809 1.114-3.424 2.143-6.878 3.03-10.367.359-1.408.694-2.824.929-4.257.119-.721.219-1.448.254-2.178.05-1.055-.607-3.113-1.594-2.738-.743.283-.661 1.461-1.146 2.09-1.5 1.944-2.698 4.144-3.595 6.43-2 5.105-4.03 10.2-6.094 15.281-4.923 12.12-9.631 24.358-15.31 36.15-3.232 6.707-6.01 13.774-10.483 19.722-3.042 3.852-5.922 8.371-10.364 10.459-1.775.834-3.654 1.442-5.539 1.979-1.753.5-4.373.685-4.899 2.43-.587 1.947 1.948 4.149 3.911 4.684 2.339.636 4.875-.341 7.198-1.033 6.678-1.991 11.605-8.103 15.857-13.623 3.02-4.135 5.165-8.858 7.361-13.483 3.714-7.824 7.19-15.76 10.567-23.734"/><path d="m637.74 82.13c24.714 5.883 49.57 11.178 74.49 16.09-.412-.096-.806-.344-1.082-.665-.108-.126-.202-.266-.275-.416-.04-.081-.075-.773-.106-.308-.176 2.589-1.271 5.05-2.275 7.446-2.356 5.611-5.248 11.02-7.174 16.789-8.46 28.25-19.255 55.84-31.45 82.69-15.875 35.04-30.443 70.69-43.969 106.71-4.637 12.346-9.232 24.71-13.598 37.15-1.511 4.308-3.01 8.622-4.367 12.98-.539 1.729-1.068 3.465-1.48 5.229-.219.934-.886 2.177-.222 2.869.283.294.763-.402.959-.76.274-.5.541-1 .786-1.519.291-.61.558-1.231.82-1.854 1.248-2.961 2.301-6 3.475-8.992 3.85-9.818 8.487-19.311 12.486-29.07 7.235-17.656 14.156-35.44 21.455-53.07 9.331-22.535 19.1-44.896 29.349-67.03 12.553-27.04 23.638-54.864 32.33-83.38 1.346-3.961 3.219-7.725 4.97-11.524 2.038-4.425 4.39-8.936 4.856-13.786.242-2.515-1.675-5.793-4.14-6.348-36.827-7.399-73.46-15.827-109.81-25.295-26.691-6.964-53.58-13.14-80.34-19.854-2.196-.48-4.644 1.372-5.929 3.218-1.827 2.625-3.32 5.477-4.746 8.341-3.543 7.118-6.624 14.458-9.788 21.753-17.01 38.41-34.995 76.45-49.808 115.76-11.867 31.706-24.975 62.952-38.674 93.91-7.667 17.327-15.496 34.581-23.335 51.83-4.999 11-9.99 22.01-14.939 33.03-2.69 5.991-5.359 11.992-8.02 17.998-1.645 3.717-3.275 7.441-4.892 11.171-.959 2.214-1.924 4.426-2.812 6.669-.365.923-.733 1.845-1.087 2.773-.306.8-.606 1.604-.895 2.41-.611 1.702-1.205 3.418-1.611 5.179-.193.839-.765 2.334.059 2.583 1.242.375 2.1-1.576 2.895-2.602 1.428-1.843 2.705-3.801 3.946-5.774 3.154-5.01 6.05-10.192 8.807-15.435 8.553-16.26 15.718-33.21 23.397-49.902 22.897-49.761 45.41-99.8 64.51-151.14 14.681-39.2 32.507-77.15 49.36-115.46 1.976-4.588 3.924-9.189 5.975-13.745 1.164-2.585 2.349-5.162 3.606-7.703.379-.765.762-1.528 1.157-2.285.356-.682.718-1.361 1.094-2.032.321-.573.65-1.142.996-1.702.442-.716 1.146-1.274 1.472-2.049.107-.254-.476.287-.74.368-.574.177-1.214.17-1.801.043 26.744 6.643 53.621 12.756 80.29 19.682 11.921 3.09 23.859 6.117 35.827 9.02"/><path d="m607.53 142.47c13.923 3.719 27.947 7.078 42.05 10.06 6.686 1.415 13.407 2.668 20.15 3.76 2.964.481 5.94.892 8.926 1.205 1.559.164 3.12.348 4.687.406.408.016.817.035 1.226.045.357.008.714.013 1.071.011.308-.002.616-.008.923-.021.263-.012.525-.028.787-.053.919-.087 2.633-.573 2.357-1.454-.319-1.022-1.999-.794-3.047-1.017-.333-.071-.66-.171-.98-.288-.617-.226-1.22-.491-1.829-.741-3.877-1.592-8.08-2.255-12.172-3.148-10.234-2.233-20.416-4.709-30.555-7.341-32.611-8.464-64.722-18.835-97.48-26.72-10.276-2.474-20.612-4.782-31.06-6.381-3.739-.572-7.493-1.056-11.255-1.455-1.455-.154-2.917-.335-4.381-.296-.981.027-2.128.127-2.832.811-.597.579-.283 1.803.19 2.486 2.254 3.261 6.863 4.396 10.776 5.03 4.34.708 8.67 1.485 12.985 2.337 14.221 2.807 28.343 6.135 42.37 9.802 15.752 4.119 31.365 8.756 47.09 12.956"/><path d="m568.26 296.14c-.694 3.01-.808 6.257-.095 9.26.339 1.427 2.065 2.96 3.5 2.663 1.374-.285 1.813-2.267 2.123-3.635.528-2.337.764-4.773 1.675-6.989.913-2.223 2.19-4.329 3.751-6.156.99-1.159 2.648-2.101 2.797-3.618.125-1.271-.864-2.455-1.666-3.449-.764-.946-1.826-2.37-3-2.069-1.891.482-2.995 2.547-4.186 4.093-2.248 2.915-4.067 6.313-4.895 9.9"/><path d="m550.64 288.84c-.696 3.285-.851 6.699-.68 10.05.159 3.132.798 6.334 2.174 9.152.805 1.647 2.443 4.179 4.175 3.579.723-.25.676-1.378.906-2.108.586-1.861-.312-3.892-.549-5.829-.489-3.998-.207-8.148.749-12.06 1.564-6.403 4.904-12.395 8.814-17.701 1.257-1.707 2.571-3.371 3.881-5.04.773-.985 1.855-1.852 2.173-3.062.577-2.197-3.068-4.533-5.322-4.253-1.8.224-2.831 2.304-3.998 3.693-5.705 6.787-10.486 14.899-12.323 23.574"/><path d="m520.8 278.68c-1.055 4.952-.854 10.246.253 15.186 1.566 5.192 4.223 10.1 7.416 14.479.686.943 1.488 1.815 2.391 2.552.78.636 1.824 1.247 2.818 1.085.707-.114 1.441-.929 1.385-1.643-.046-.593-.765-1.168-1.36-1.156-.343.007-1.199.619-.862.558.834-.15.979-1.65.69-2.446-.556-1.534-1.473-2.913-2.158-4.394-1.555-3.367-2.983-6.835-3.835-10.444-.695-4.384-.724-9.07.625-13.299 2.492-7.818 7.448-14.835 12.908-20.959 3.125-3.505 6.456-6.822 9.748-10.169 1.617-1.644 4.063-2.972 4.528-5.231.457-2.219-3.626-4.05-5.824-3.502-1.426.355-2.419 1.679-3.523 2.649-2.157 1.894-4.17 3.947-6.19 5.986-8.482 8.559-16.02 19.08-19.01 30.748"/><path d="m497.61 268.39c-.872 6.01-.728 12.168-.203 18.218.49 5.654 1.764 11.362 4.149 16.512.832 1.797 1.765 3.569 2.947 5.158.735.989 2.041 2.353 3.181 1.885.593-.243.335-1.306.141-1.916-.285-.899-.115-1.886-.277-2.815-.587-3.361-1.852-6.576-2.504-9.924-1.801-9.246-1.786-19.03.106-28.26 2.328-11.352 7.06-22.561 14.06-31.793 2.611-3.441 5.566-6.644 8.769-9.543 1.607-1.455 4.253-2.48 4.574-4.624.362-2.417-4.242-4.01-6.567-3.26-1.82.592-3.157 2.177-4.602 3.433-2.504 2.176-4.807 4.601-6.892 7.182-9.05 11.196-14.822 25.499-16.887 39.744"/><path d="m993.11 224.35l2.126-.5c45.585-10.556 91.72-18.581 137.5-28.25 15.03-3.176 30.02-6.639 44.84-10.663 5.01-1.359 10.01-2.785 14.93-4.452 1.54-.525 3.08-1.082 4.57-1.76.84-.384 2.23-.722 2.24-1.648 0-.955-1.93-.384-2.86-.194-1.27.256-2.51.621-3.76.959-3.78 1.029-7.71 1.425-11.58 2.058-10.56 1.725-20.97 4.252-31.44 6.437-22.44 4.681-45.01 8.693-67.56 12.791-29.6 5.379-59.14 11.136-88.5 17.683-42.29 9.586-84.92 17.659-127.61 25.296-21.245 3.801-42.522 7.426-63.773 11.195-12.951 2.297-25.901 4.604-38.833 7-8.716 1.617-17.423 3.285-26.12 4.979-5.219 1.015-10.429 2.084-15.637 3.155-2.127.438-4.253.882-6.379 1.325-.28.058-.56.118-.839.179-4.156.9-8.347 1.686-12.426 2.89-1.2.354-2.399.741-3.536 1.265-.763.352-2.062.912-1.841 1.723.382 1.407 2.674 1.294 4.122 1.464 2.565.302 5.163.309 7.744.221 8.128-.278 16.15-2.01 24.14-3.509 21.236-3.991 42.504-7.807 63.774-11.612 65.741-11.763 131.59-23.22 196.71-38.03"/><path d="m954.9 460.98c34.09-1.753 68.17-3.774 102.23-6.05 18.47-1.236 36.94-2.523 55.4-3.975 9.73-.766 19.46-1.545 29.18-2.412 5.99-.534 11.98-1.073 17.97-1.704 3.03-.321 6.07-.657 9.1-1.031 1.78-.22 3.56-.453 5.33-.717 1-.149 1.99-.307 2.98-.488.74-.134 1.47-.279 2.2-.453.19-.046.38-.094.57-.145.17-.044.33-.091.5-.142.62-.19 1.88-.484 1.62-1.077-.59-1.341-2.91-.584-4.37-.492-2.43.153-4.85.451-7.28.431-11.34-.098-22.67.406-33.99 1.103-30.67 1.89-61.34 3.625-92.03 5.285-87.87 4.752-175.82 8.08-263.79 10.375-21.926.679-43.781 3.03-65.58 5.463-12.804 1.431-25.609 2.901-38.453 3.909-7.443.585-14.897 1.063-22.358 1.337-3.28.12-6.563.184-9.846.22-2.062.023-4.126.055-6.185.168-.962.053-1.925.123-2.88.249-.366.048-.731.093-1.094.157-.294.052-.587.113-.875.19-.621.165-1.699.782-1.385 1.342 1.105 1.971 3.988 2.221 6.17 2.807 3.562.956 7.238 1.488 10.907 1.859 11.288 1.145 22.71-.191 34.02-1.099 32.619-2.619 65.07-7.658 97.78-8.77 58.07-1.684 116.13-3.761 174.16-6.338"/><path d="m726.18 383.32c-1.669 11.1-2.901 22.257-4.04 33.42-.555 5.44-1.098 10.883-1.489 16.337-.221 3.084-.437 6.168-.596 9.256-.086 1.674-.146 3.351-.165 5.03-.015 1.205-.011 2.41.051 3.612.081 1.589.34 4.864 1.86 4.394 1.173-.362.624-2.377 1.028-3.537 1.186-3.402 1.965-6.957 2.451-10.528 1.342-9.851 2.651-19.707 4.061-29.549 4.222-29.45 9.548-58.806 16.819-87.66 1.496-5.933 3.037-11.855 4.59-17.773.633-2.413 1.279-4.823 1.9-7.239.285-1.111.554-2.227.837-3.339.16-.63.335-1.256.49-1.887.498-2.02 1.151-4.02 1.377-6.091.125-1.143-.352-2.982-1.495-3.108-2.808-.308-5.33 2.879-6.484 5.458-2 4.479-2.89 9.38-4.207 14.11-3.438 12.336-6.472 24.79-9.139 37.32-2.95 13.86-5.741 27.767-7.849 41.779"/><path d="m1094.18 404.58c.26 5.663.62 11.415-.33 17-.4 2.35-1.03 4.853-2.56 6.676-.94 1.116-2.45 1.782-3.89 1.994-25.92 2.888-52.02 3.684-78.07 4.902-64.32 3.091-128.68 5.705-192.88 10.642-20.787 1.598-41.566 3.431-62.26 5.936-7.366.891-14.731 1.824-22.05 3.03-2.163.356-4.324.737-6.463 1.221-1.293.293-3.279.122-3.735 1.366-.148.406.77.484 1.202.488.615.005 1.229.003 1.843-.024 1.737-.076 3.466-.271 5.194-.466 5.859-.659 11.736-1.198 17.625-1.483 14.852-.721 29.679-1.905 44.507-3.02 30.05-2.258 60.15-3.967 90.26-5.363 42.35-1.964 84.72-3.621 127.09-5.465 26.2-1.107 52.47-1.874 78.55-4.692 2.69-.382 5.45-1.461 7.44-3.302 2.65-2.445 4.17-6.093 4.96-9.611 2.4-10.693.37-21.914.45-32.872 1.04-28.556 4.47-57.01 8.45-85.31 3.04-20.939 6.26-41.901 11.09-62.5 1.34-5.113 3.52-9.968 5.48-14.877 2.11-5.305 4.96-11.289 3.42-16.786-.85-2.995-5.09-4.872-8.18-4.507-36.27 5.485-72.11 13.569-108.18 20.28-62.48 11.597-124.78 24.289-187.53 34.31-9.35 1.546-18.644 3.47-27.844 5.741-5.217 1.288-10.426 2.61-15.641 3.907-2.889.718-5.78 1.433-8.664 2.17-1.92.49-3.843.97-5.756 1.484-2.258.607-4.517 1.222-6.736 1.959-.861.286-1.721.588-2.54.98-.481.23-1.343.576-1.178 1.084.291.896 1.778.693 2.716.781 1.813.17 3.643.106 5.461.019 5.54-.265 11.05-1 16.536-1.854 15.02-2.339 29.76-6.322 44.778-8.698 62.907-9.598 125.27-22.451 187.82-34.17 35.98-6.758 71.71-14.919 107.88-20.477 1.33-.16.5-.048.23-.262-.65-.502-.3-.689-.42-.512-.64.95-.12 2.299-.38 3.413-.47 1.965-1.14 3.881-1.83 5.778-2.25 6.169-5.1 12.151-6.74 18.509-4.84 20.836-8.05 42.03-11.09 63.2-3.95 28.57-7.36 57.3-8.4 86.12-.03 4.421.2 8.841.38 13.259"/><path d="m796.93 322.14c.732-1.412 1.462-2.826 2.234-4.217.351-.632.712-1.259 1.068-1.888.034-.06.066-.121.102-.18.283-.464.565-.929.855-1.388.092-.145.192-.284.291-.425.05-.071.113-.134.155-.211.11-.202-.387.251-.594.351-.348.168-.736.264-1.122.295-.983.079-2.085-.332-2.77-1.042-.274-.283-.508-.618-.655-.983-.097-.242-.203-1.019-.186-.759.308 4.788-1.262 9.513-1.899 14.268-.33 3.092-.343 6.21-.419 9.319-.052 1.445-.081 2.892-.034 4.337.03.89.087 1.781.194 2.664.075.612.171 1.225.337 1.819.241.861 1.346 2.173 2.091 1.68.638-.422.281-1.519.595-2.216 1.08-2.4 1.668-5.02 2.044-7.625.405-2.991.658-6.01 1.188-8.978.655-3.163 1.317-6.326 1.959-9.492.495-2.439 1.393-5.088.587-7.443-.472-1.377-2.173-2.559-3.624-2.438-2.248.187-3.819 2.645-4.982 4.577-1.672 2.777-3.253 5.607-4.864 8.42-.419.688-.824 1.391-1.327 2.02-.082.102-.167.201-.254.298-.062.069-.127.136-.194.201-.362.346-.393.21-.043.124.166-.04.342-.05.513-.034 1.024.098.69.37.72.256.169-.63-.621-1.153-.839-1.768-.543-1.531-.886-3.129-1.212-4.721-.581-2.839-.529-5.988-2.065-8.446-.845-1.353-2.991-2.136-4.5-1.622-1.555.531-2.508 2.375-2.936 3.962-1 4.662-1.752 9.376-2.421 14.1-.496 3.791-.874 7.598-1.167 11.41-.184 2.381-.257 4.771-.34 7.158-.059 1.67-.43 3.488.27 5 .391.848 1.674 1.277 2.587 1.079 1.724-.372 3.321-1.763 4.099-3.346.843-1.715.689-3.763.869-5.665.463-4.868.917-9.738 1.519-14.591.609-4.521 1.234-9.05 2.105-13.524.094-.381-.483.623-.775.885-.662.596-1.591.97-2.482.991-.837.02-1.723-.259-2.395-.757-.295-.22-.559-.49-.85-.898-.037-.058-.073-.117-.169-.296l-.034-.074c.899 5.03 1.578 10.378 4.286 14.707 1.34 2.142 4.338 3.867 6.808 3.335 2.966-.638 5.03-3.679 6.583-6.284l1.093-1.947"/><path d="m803.14 335.76c.012 2.323-.006 5.057 1.531 6.8.697.791 2.065 1.255 3.042.86 2.396-.969 2.343-4.714 2.676-7.277.321-2.468 1.311-4.858 1.339-7.348.004-.415-.006-.836-.088-1.243-.076-.372-.184-.75-.382-1.075-.877-1.442-3.327-.769-5.01-.708-.744.027-1.838-.228-2.194.427-.607 1.119-.254 2.534-.359 3.803-.159 1.922-.561 3.832-.551 5.761"/><path d="m809.87 314.13c1.609-.376 3.839-2.812 2.795-4.093-.411-.505-1.424-1.037-1.872-.564-.349.37-.165 1.055.024 1.527.2.496-1.056.575-1.59.359-.012-.406.597-.552.885-.839.605-.606 1.245-2.088.505-2.52-1.517-.885-4.318 1.302-4.291 3.059.016 1.072.731 2.212 1.653 2.759.585.257 1.259.406 1.891.312"/><path d="m817.04 326.46c-.035 3.074.221 6.149.514 9.21.102 1.061.219 2.125.457 3.164.324 1.42 2.421 3.659 3.473 2.652 1.31-1.253 1.727-3.268 1.989-5.062.486-3.323.585-6.691.837-10.04.442-5.859 2.19-11.664 1.845-17.529-.042-.719-.078-1.447-.252-2.146-.056-.226-.231-.422-.42-.558-1.241-.89-3.056-.662-4.563-.415-.826.136-1.941.303-2.272 1.072-.972 2.26-.521 4.894-.724 7.346-.34 4.098-.837 8.193-.884 12.305"/><path d="m825.9 334.32c.805 3.295 3.256 6.665 6.416 7.9 3.082 1.204 7.661.651 9.738-1.925.703-.872.785-3.091-.306-3.345-2.158-.504-4.716.523-6.621-.611-1.408-.838-2.164-2.747-2.222-4.385-.092-2.587 1.059-5.539 3.114-7.115 1.681-1.289 3.954-1.581 6.03-2.02 1.655-.346 1.472-3.248 1.225-4.92-.134-.9-.51-2.151-1.399-2.343-3.243-.702-6.949.454-9.674 2.346-4.813 3.343-7.688 10.721-6.298 16.414"/><path d="m857.13 325.75c.393-.867.829-1.717 1.318-2.535.189-.315.388-.626.595-.93.149-.22.316-.427.474-.641.197-.267.413-.52.644-.759.077-.079.156-.157.238-.232.066-.062.136-.122.206-.18.67-.555.391-.266.242-.377 2.077.562 2.583 3.573 3.104 5.661.789 3.159.963 6.44 1.394 9.667.24 1.803.593 4.894 2.412 4.895 1.04 0 .992-1.828 1.498-2.737 1.161-2.086 1-4.705 1-7.093-.013-6.02-1.403-14.217-6.891-16.69-2.747-1.019-6.385.354-8.445 2.438-3.595 3.634-5.695 8.636-7.292 13.492-.239.956-.47 1.915-.642 2.885-.292 1.653-.571 3.308-.846 4.964-.071.428.267-.851.548-1.182.217-.255.411-.559.707-.718.608-.326 1.257-.693 1.947-.706.755-.014 1.509.275 2.175.629.424.226.692.671.985 1.052.137.177.204.398.291.604.09.213.14.443.171.671.001.072-.008.152.025.216.023.045.006-.1.009-.15.337-7.733.972-15.453 1.683-23.16.278-3 .554-6.01.706-9.02.073-1.435.504-3.266-.515-4.278-1.565-1.554-5.149-.048-6.37 1.788-1.569 2.362-1.123 5.568-1.437 8.386-.972 8.71-1.435 17.481-1.589 26.24.024 1.392.506 3.145 1.735 3.8.762.406 1.625.736 2.488.72.791-.015 1.534-.435 2.23-.809 1.571-.844 1.664-3.228 1.923-4.992.242-1.647.45-3.303.824-4.925.644-2.061 1.47-4.074 2.454-5.997"/><path d="m918.23 297.73c-.173 4.165-.336 8.331-.512 12.497-.11 2.607-.217 5.214-.305 7.822-.053 1.559-.098 3.119-.088 4.679.001 1.492-.03 3.055.506 4.447.291.754 1.284 1.554 2.05 1.296.485-.164.321-.991.629-1.4.957-1.273 1.655-2.8 1.936-4.367.542-3.01 1.023-6.04 1.472-9.07 1.248-8.406 1.646-16.919 2.65-25.358.135-1.464-.238-3.307-1.425-4.176-1.163-.85-3.209-.802-4.319.116-1.713 1.416-2.321 3.807-3.22 5.84-1.41 3.192-2.553 6.575-4.59 9.408-1.47 1.803-3.291 3.289-4.977 4.893-1.596 1.497-3.615 2.712-4.641 4.645-1.012 1.907 2.569 4.338 4.725 4.428 1.991.083 3.525-1.913 5.05-3.19 2.191-1.874 4.389-3.792 6.182-6.05 2.064-2.958 3.364-6.396 4.707-9.744.211-.525.421-1.05.633-1.574.249-.618.499-1.234.749-1.851.24-.592.535-1.161.77-1.755.086-.22-.279.386-.45.548-.468.441-1.056.792-1.679.949-.936.236-2.02.119-2.875-.329-.657-.345-1.228-.912-1.588-1.561-.164-.297-.287-.621-.366-.951-.032-.131.002-1.317-.099-.321-.303 3.376-.618 6.751-.929 10.126"/><path d="m919.19 331.03c1.965-.124 4.427-.538 5.482-2.2.511-.804.125-1.958-.21-2.85-.633-1.687-3.156-1.933-4.939-2.2-1.667-.249-3.344-.741-5.02-.592-1.812.16-4.728 1.746-4.199 3.487.336 1.108 1.733 1.55 2.703 2.184.948.62 1.528 1.942 2.645 2.136 1.163.201 2.364.109 3.542.035"/><path d="m930.29 310.8c-.704 5.198-.779 11.253 2.177 15.586 1.144 1.676 2.991 3.218 5 3.463 1.163.141 2.951-.157 3.271-1.284.157-.552-.375-1.107-.727-1.56-1.025-1.319-2.274-2.588-2.753-4.188-1.288-4.296-.292-9.07.736-13.434 1.298-5.515 3.428-10.812 4.757-16.32.441-1.829.855-3.671 1.085-5.538.162-1.319.675-3-.224-3.98-1.543-1.677-5.47-1.339-6.819.498-.794 1.081-.662 2.6-.952 3.909-.518 2.341-1.15 4.656-1.761 6.974-1.389 5.261-3.064 10.483-3.795 15.874"/><path d="m926.13 385.88c-.415 4.313-.818 8.629-1.081 12.954-.106 1.74-.162 3.485-.148 5.228.008 1.148.033 2.299.144 3.442.128 1.317.217 2.751.948 3.855.435.656 1.489 1.145 2.21.83.389-.17.177-.855.422-1.201 1.553-2.199 1.703-5.131 2.142-7.787 1.079-6.539 1.935-13.11 3.111-19.636.766-4.252 2.235-8.501 1.958-12.813-.111-1.714-1.59-3.686-3.284-3.972-1.699-.287-3.604 1.057-4.514 2.52-2.142 3.287-4.628 6.338-6.958 9.495-1.369 1.854-3.739 3.743-3.396 6.02.344 2.289 4.573 3.741 6.496 2.452 1.486-.996 2.336-2.711 3.461-4.103 2.587-3.2 5.02-6.541 7.152-10.06.158-.267-.422.462-.676.641-.63.444-1.434.704-2.205.701-1.626-.006-3.059-1.647-3.75-3.118-.205-.437-.037.965-.087 1.446-.162 1.537-.386 3.067-.604 4.597-.405 2.843-.892 5.674-1.341 8.51"/><path d="m930.49 417c1.516-.719 3.218-1.275 4.376-2.49.86-.901 1.013-2.707.293-3.723-1.791-2.53-6.204-.863-9.284-.517-2.174.595-4.966 1.284-5.874 3.347-.512 1.164.835 2.426 1.501 3.51.65 1.058 1.783 2.938 2.882 2.36 1.332-.7 2.646-1.433 3.984-2.122.706-.128 1.415-.244 2.122-.365"/><path d="m952.16 416.1c2.133-1.016 3.795-3.486 4.02-5.838.129-1.361-.448-2.925-1.476-3.826-.927-.812-2.63-1.551-3.609-.802-.94.718-.171 2.483.386 3.525.127.237-.111.537-.255.763-.135.213-.273.427-.443.614-.046.05-.093.099-.142.145-.048.046-.098.089-.149.13-1.059.865-.356.273-.114.407-.389-.451-.773-.919-1.051-1.446-.083-.157-.163-.316-.232-.479-.06-.141-.107-.287-.157-.433-.275-.808-.141-.619-.1-.623.282-.023-.178.569-.392.754-.051.044-.537.556-.3.139.386-.68 1.694-.564 1.951-1.302.495-1.42 1.037-3.927-.355-4.495-2.313-.944-5.973 1.092-6.624 3.504-.808 2.992 1.4 6.411 3.638 8.554 1.42 1.135 3.718 1.379 5.407.709"/><path d="m969.29 403.3c-.454-1.649.359-3.458 1.054-5.02 1.205-2.71 2.723-5.276 4.271-7.806 4.16-6.802 9.241-13.209 12.02-20.684.696-2.095.682-4.471.177-6.62-.413-1.754-2.794-4.681-4.139-3.48-.617.55.366 1.613.48 2.431.268 1.915-.423 3.92-1.265 5.661-2.939 5.718-7.03 10.771-10.801 15.978-3.977 5.49-8.558 11.45-9.05 18.211-.268 3.667 2.533 7.777 5.858 9.344 3.298 1.308 7.254.013 10.57-1.247 2.077-.862 4.04-2.331 5.266-4.218 1.625-2.504 2.182-5.707 2.158-8.692-.072-8.773-3.791-17.371-7.975-25.08-1.076-2.072-2.609-4.639-1.709-6.794 1.463-1.846 5.393-1.705 5.811-4.02.35-1.938-1.999-4.148-3.953-4.388-2.712-.335-5.598 1.308-7.531 3.241-3.408 4.03-1.951 11.132.465 15.823 2.956 5.472 5.584 11.277 6.798 17.378.656 3.299 1.039 8.56-2.055 9.879-1.611.643-3.385 2.034-5.01 1.416-.578-.269-1.27-.654-1.437-1.307"/><path d="m1020.85 387.94c-.94 6.921-8.21 13.925-15.2 14.46-2.13.039-4.57-.85-5.875-2.537-1.1-1.42-2.243-4.127-3.972-3.641-.794.223-.413 1.621-.375 2.445.067 1.462.159 3.01.817 4.315 1.588 3.161 5.705 4.932 9.225 5.245 7.58.193 15.6-5.073 19.63-11.498 2.47-3.943 3.6-9.125 2.72-13.696-2.09-7.865-12.58-13.09-20.72-12.912-3.41.075-7.08 1.309-9.544 3.663-.783.858-1.394 1.865-1.972 2.872-.229.398-.454.798-.682 1.196-.116.201-.233.401-.351.6l-.036.055c1.107-1.324 3.62-1.777 5.101-.89.754.45 1.324 1.243 1.614 2.067.16.429.21.899.19 1.354-.02.305-.13.706.02.15 1.28-5.438.08-11.181.42-16.758.08-1.308-.29-3.157-1.51-3.628-1.802-.696-4.392.539-5.36 2.214-.988 1.709-.831 3.892-.809 5.866.038 3.401.376 6.88-.379 10.196-.21.844-.396 1.75-.213 2.6.308 1.428 1.631 2.781 3.043 3.152 1.673.44 3.748-.794 4.668-2.256.55-.859 1-1.77 1.5-2.652.13-.222.56-.851.39-.662 1.57-1.53 4.26-1.594 6.43-1.335 4.33.515 10 2.645 11.13 6.852.2 1.033.22 2.112.1 3.163"/><path d="m1012.77 361.05c2.75-.377 5.54-.965 8.01-2.221 1.11-.565 1.59-2.379 1.17-3.549-.77-2.125-4.32-1.732-6.58-1.658-3.43.113-6.9-.144-10.28.458-1.98.352-3.97 1.01-5.64 2.129-.865.579-1.595 2.057-1.046 2.941.65 1.048 1.563 1.915 2.446 2.772.54.519 1.03 1.323 1.77 1.372 1.23.081 2.2-1.126 3.39-1.432 2.2-.567 4.51-.504 6.76-.812"/><path d="m767.33 412.07c-.36 2.321-.441 4.678-.603 7.02-.087 1.259-.841 2.777-.084 3.787.287.382.699-.688 1.142-.869.986-.405 2.827.263 2.91 1.326.019.238-.405-.261-.576-.428-.302-.296-.684-.539-1.094-.642-.975-.248-2.244.525-2.649 1.446-.573 1.307 2.02 3.225 3.337 2.68 1.568-.649 2.136-2.728 2.653-4.345.935-2.924 1.473-5.962 2.161-8.955.871-3.785 2.203-7.45 3.223-11.198.511-1.878 1.794-3.934 1.069-5.739-.63-1.568-2.872-2.026-4.549-2.234-.831-.104-1.948-.206-2.473.447-1.544 1.923-1.484 4.707-2.074 7.102-.867 3.517-1.836 7.02-2.393 10.601"/><path d="m776.36 411.94c-.283 2.33-.305 4.685-.407 7.03-.055 1.266-.803 2.81-.012 3.799.231.288.517-.538.831-.73.527-.322 1.239-.441 1.832-.27.659.19 1.886.989 1.419 1.491-.274.294-.579-.563-.903-.801-.676-.495-1.914-.869-2.499-.269-.323.331-.481.795-.794 1.135-.58.631-.119 1.963.538 2.514.782.658 2.189.734 3.059.197 1.353-.835 1.773-2.695 2.226-4.219.883-2.969 1.343-6.05 1.936-9.09.717-3.681 1.827-7.277 2.6-10.947.462-2.192 1.144-4.507.643-6.691-.288-1.254-2.281-1.366-3.562-1.485-1.229-.114-2.981-.367-3.643.676-1.076 1.697-.818 3.935-1.173 5.913-.704 3.914-1.612 7.798-2.091 11.746"/><path d="m786.66 407.56c-.182 2.06-.093 4.136-.092 6.205.0001.987.015 1.977.113 2.959.152 1.548 1.957 4.084 3.3 3.299 3.588-2.095 3.225-7.737 3.918-11.834.791-4.68 2.643-9.282 2.46-14.02-.022-.589-.069-1.187-.233-1.753-.058-.202-.236-.362-.413-.476-1.283-.827-3.02-.712-4.542-.602-.791.057-1.88.028-2.27.72-.963 1.709-.582 3.88-.848 5.824-.444 3.23-1.108 6.434-1.393 9.683"/><path d="m793.78 407.92c-.202 2.074-.203 4.164-.32 6.245-.056.993-.119 1.987-.104 2.981.026 1.569 1.535 4.338 2.953 3.666 3.461-1.642 3.864-6.806 4.465-10.589.75-4.726 2.199-9.356 2.537-14.13.105-1.477.599-3.611-.658-4.394-1.831-1.14-4.583-1.053-6.469-.008-.66.365-.503 1.434-.59 2.184-.136 1.168-.255 2.339-.385 3.508-.39 3.523-1.086 7.01-1.429 10.537"/><path d="m805.37 405.41c-.196 1.994-.209 4-.37 5.999-.078.958-.177 1.916-.203 2.877-.041 1.557 1.302 4.346 2.752 3.778 3.316-1.3 4.052-6.1 4.676-9.605.752-4.222 1.815-8.424 2-12.708.067-1.503.198-3.03-.081-4.511-.114-.601-.225-1.212-.464-1.775-.083-.195-.281-.335-.473-.425-1.953-.919-4.652-.482-6.434.736-.598.409-.347 1.42-.354 2.145-.011 1.12-.047 2.24-.077 3.36-.092 3.391-.643 6.754-.976 10.129"/><path d="m814.49 403.46c-.393 2.272-.468 4.591-.555 6.895-.042 1.095-.076 2.194.013 3.286.081.984.202 2.107.876 2.828.571.612 1.72 1.137 2.418.676 3.699-2.445 3.333-8.247 4.427-12.543 1.245-4.891 3.794-9.465 4.466-14.466.083-.619.172-1.247.125-1.87-.016-.216-.157-.418-.31-.572-1.08-1.079-2.831-1.288-4.352-1.431-.806-.076-1.899-.242-2.397.397-1.416 1.817-1.479 4.365-2.087 6.587-.927 3.39-2.025 6.749-2.624 10.213"/><path d="m824.99 406.46c-.159 1.917-.291 3.837-.398 5.758.1-.441-.19.883-.31 1.318-.013.049-.029.097-.043.146-.13.463-.268.925-.389 1.392-.362 1.392-.858 2.887-.517 4.284.229.936 1.096 1.85 2.039 2.048 1.653.347 3.906-2.254 3.31-3.834-.162-.432-.508-.793-.873-1.074-.543-.42-1.377-.123-2.058-.037-.203.025-.408.046-.607.097-.568.144-.571.588-.468.181.241-.955 2.205-.473 2.95.172.569.492.193 1.786.888 2.075.562.233.589-1.065.87-1.606.701-1.351 1.536-2.691 1.825-4.186 1.162-5.61 2.407-11.202 3.68-16.788.523-2.291.881-4.626 1.064-6.969.086-1.098.307-2.58-.563-3.257-1.206-.937-3.054-.673-4.563-.433-.83.132-1.946.272-2.299 1.034-1.293 2.789-.924 6.079-1.491 9.1-.664 3.53-1.389 7.05-2.047 10.579"/><path d="m829.21 403.41c.206 2.376.74 4.712 1.144 7.06.184 1.07.35 2.143.576 3.205.23 1.082.532 2.372 1.454 2.982.594.394 1.544.811 2.105.372 1.786-1.396 1.986-4.193 2.143-6.455.246-3.538-.29-7.096-.131-10.638.116-2.575.524-5.187 1.442-7.595.556-1.457 2.366-2.692 2.031-4.215-.339-1.542-1.171-3.107-2.422-4.07-.662-.51-1.606-1.181-2.366-.831-2.498 1.149-3.925 4.115-4.766 6.733-1.378 4.285-1.598 8.965-1.21 13.45"/><path d="m838.97 403.81c-.183 2.239-.135 4.492-.183 6.738-.023 1.07-.029 2.141.03 3.208.053.974.152 2.078.787 2.818.547.636 1.667 1.248 2.383.81 1.399-.854 2.147-2.605 2.579-4.186.791-2.895 1.173-5.887 1.652-8.849.827-5.118 2.729-10.157 2.569-15.339-.019-.634-.034-1.277-.184-1.894-.051-.212-.223-.39-.4-.517-1.242-.888-3.01-.79-4.532-.672-.809.063-1.914.084-2.299.798-1.03 1.911-.677 4.288-.964 6.44-.472 3.549-1.145 7.08-1.438 10.645"/><path d="m70.53 423.19c1.096 18.13 3.174 36.2 5.668 54.16 1.477 10.636 3.277 21.22 5.169 31.771 1.084 6.05 2.273 12.07 3.524 18.07.688 3.305 1.398 6.606 2.154 9.893.473 2.056.951 4.111 1.467 6.154.597 2.36 1.219 4.718 2.01 7.01.397 1.153.84 3.436 1.895 3.047.525-.194.356-1.209.277-1.817-.181-1.407-.616-2.762-.804-4.167-.461-3.439-.581-6.929-1.082-10.36-1.811-12.417-4.214-24.72-6.096-37.12-4.923-32.44-8.647-65.29-9-98.19-.394-36.464 3.623-73.65 13.811-108.32 3.415-11.619 7.728-22.932 12.61-33.884 1.432-3.215 2.977-6.366 4.48-9.54.628-1.327 1.273-2.654 1.748-4.057.315-.93.83-2.177.284-2.964-.592-.853-2.02.164-2.826.758-1.25.92-2.358 2.077-3.389 3.286-3.192 3.743-5.297 8.506-7.416 13.09-5.623 12.174-10.02 25.08-13.597 38.17-10.948 40.06-13.406 83.24-10.882 125"/><path d="m25.797 379.9c-.236 11.538.323 23.12 1.669 34.574.798 6.787 1.753 13.562 3.03 20.264.731 3.84 1.517 7.671 2.447 11.461.511 2.085 1.023 4.171 1.603 6.236.406 1.446.82 2.889 1.254 4.325.401 1.327.866 2.632 1.387 3.909.197.484.401.97.674 1.41.136.219.374.561.601.458.33-.149.147-.773.078-1.151-.063-.344-.168-.678-.258-1.015-.095-.357-.211-.708-.298-1.067-.316-1.299-.415-2.647-.642-3.967-1.02-5.944-2.487-11.793-3.524-17.734-3.234-18.528-5.061-37.493-4.578-56.34.657-25.63 4.647-51.33 11.304-75.955 2.248-8.317 4.758-16.556 7.461-24.716 1.061-3.201 2.126-6.4 3.225-9.586.656-1.902 1.839-3.879 1.485-5.871-.079-.443-.931-.286-1.261-.006-.664.564-1.207 1.284-1.715 2.01-1.746 2.497-2.85 5.466-3.914 8.371-3.03 8.269-5.601 16.73-8.01 25.23-7.239 25.579-11.473 52.43-12.02 79.15"/><path d="m557.43 93.29c-.764 2.028-1.288 4.14-1.823 6.24-.613 2.405-1.386 4.883-1.158 7.354.112 1.213 1.209 2.715 2.427 2.732.285.004.359-.469.615-.593 1.171-.571 1.928-1.848 2.456-3.038 1.246-2.802 2.405-5.642 3.579-8.475 1.815-4.38 4.205-8.5 6.421-12.69 1.292-2.444 2.695-4.981 3.01-7.727.101-.882-1.092-1.505-1.905-1.861-1.527-.669-3.854-1.668-4.983-.44-1.806 1.964-2.358 4.787-3.489 7.203-1.754 3.748-3.691 7.424-5.15 11.296"/><path d="m574.5 84.27c1.758.279 3.761.676 5.337-.151 1.276-.67 2.154-2.488 1.867-3.9-.407-2-3.43-2.301-5.361-2.966-2.01-.695-3.898-1.9-6.01-2.184-.34-.046-.688-.072-1.027-.028-.324.041-.653.118-.939.277-1.476.818-1.16 3.199-1.376 4.873-.093.728-.549 1.73.012 2.203.817.688 2.078.494 3.12.729 1.471.332 2.887.912 4.377 1.148"/><path d="m567.7 97.57c.987.007 2.038-.516 2.678-1.269 1.041-1.223 1.085-3.197.726-4.762-.183-.795-1.417-.821-2.177-1.119-.548-.215-.768-1.173-1.356-1.134-1.08.071-1.598 1.472-2.287 2.308-.994 1.206-2.741 2.376-2.561 3.928.085.729 1.23.814 1.903 1.107.982.428 2 .932 3.074.94"/><path d="m564.21 112.59c2.187.412 4.481.755 6.668.341 1.259-.238 2.686-1.697 2.456-2.958-.518-2.839-4.682-3.559-7.429-4.442-2.669-.859-5.178-2.302-7.943-2.767-.467-.079-.941-.138-1.414-.126-.422.012-.855.052-1.252.198-1.195.437-1.028 2.364-1.198 3.625-.155 1.16-.886 2.839.072 3.509 1.118.783 2.657.624 3.979.963 2.029.521 4 1.268 6.06 1.657"/><path d="m579.25 105.94c-.297 1.113-.353 2.278-.469 3.424-.143 1.427-.368 3.044.345 4.288.522.911 1.874 1.553 2.886 1.267 2.56-.724 3.144-4.352 4.167-6.809 1.163-2.795 3.409-5.254 3.78-8.259.234-1.887-2.726-2.925-4.56-3.429-.722-.198-1.71-.755-2.236-.222-.969.983-1.104 2.531-1.612 3.814-.781 1.97-1.757 3.878-2.301 5.925"/><path d="m589.83 88.99c.804.189 1.693.164 2.475-.1 1.323-.445 2.853-1.622 2.905-3.02.026-.697-.583-1.786-1.27-1.663-.563.101-.942.67-1.318 1.102-.268.308-.79.248-1.198.254-1.149.019-.744-.366-.449.105.209.391 1.508-.301 1.185-.604-.287-.269-.486-.116-.213-.242.441-.204.971-.182 1.399-.413.749-.405 1.893-1.584 1.302-2.196-1.046-1.085-3.163-1.294-4.485-.57-1.8.985-3.302 3.743-2.492 5.628.434.81 1.283 1.436 2.159 1.716"/><path d="m603.62 107.25c.258-.174-.55-.289-.825-.434-.588-.451-.847-.529-.461-.617.294-.067.182.584.184.885.004.511-.042 1.023-.121 1.528-.219 1.39-.595 2.753-1 4.099-.408 1.348-.893 2.672-1.35 4-.538 1.566-1.286 3.18-1.157 4.831.062.783.712 1.701 1.486 1.826.418.067.596-.628.978-.808 1.809-.855 3.069-2.685 4.053-4.427 1.967-3.479 3.908-7.323 3.953-11.319.027-2.405-1.306-5.204-3.418-6.353-2.227-1-5.192-.093-7.216 1.273-3.058 2.064-5.597 4.848-8 7.644-.384.446-.763.896-1.144 1.345-.043.051-.084.103-.126.155-.537.659-1.073 1.319-1.662 2.045-.15.189-.299.379-.449.567-.038.046-.156.181-.115.137.58-.629 1.44-1.626 2.224-1.282 1.727.756 3.202 2.082 4.44 3.503.307.353-.094.932-.175 1.393-.077.44-.494.963.07.093 2.357-3.879 3.932-8.3 4.737-12.767.232-1.285.797-3.04-.174-3.914-1.554-1.4-4.628-1.291-6.276-.002-1.148.898-1.122 2.695-1.56 4.086-.925 2.936-1.907 5.899-3.427 8.575-.532.911-1.658 2.216-.967 3.01 1.301 1.5 2.855 2.897 4.675 3.69.62.271 1.249-.528 1.846-.846.141-.076.24-.212.353-.325 1.025-1.028 1.755-2.312 2.644-3.46 2.325-3.01 4.642-6.333 7.987-8.138"/><path d="m611.27 110.28c-.467 2.256-.718 4.552-1.104 6.823-.182 1.065-.377 2.128-.507 3.2-.119.974-.255 2.065.197 2.936.386.745 1.346 1.625 2.135 1.336 1.93-.706 3.04-2.925 3.859-4.81 1.127-2.593 1.777-5.369 2.552-8.09 1.46-5.122 3.813-10.03 4.66-15.284.131-.812.434-1.86-.124-2.464-1.037-1.121-2.783-1.409-4.301-1.576-.825-.091-1.888-.181-2.452.426-1.506 1.62-1.419 4.193-1.989 6.329-.993 3.719-2.147 7.402-2.926 11.171"/><path d="m613.5 119.27c.852 2.656 3.196 4.695 5.43 6.366 1.251.937 3.091 2.048 4.49 1.352 1.149-.571 1.877-2.518 1.253-3.639-.842-1.513-2.091-2.762-3.096-4.173-.424-.596-1.32-1.216-1.083-1.908.152-.443.815-.466 1.234-.676.896-.446 1.853-.757 2.789-1.113 1.582-.603 3.325-1.123 4.516-2.327.608-.615.08-1.767-.192-2.589-.506-1.53-.978-3.949-2.583-4.086-1.667-.141-3.192 1.025-4.725 1.695-2.609 1.141-5.39 2.557-6.989 4.913-1.174 1.73-1.682 4.194-1.044 6.185"/><path d="m626.43 121.07c-.493 2.766.772 6.655 3.37 7.726 3.301 1.361 7.181-.555 10.712-.023.726.109.878 1.199 1.135 1.886.405 1.086 2.166 2.795 2.909 1.905.938-1.123 1.649-2.685 1.469-4.137-.25-2.02-1.684-4.081-3.498-5-1.131-.575-2.432-.801-3.696-.906-.83-.069-1.666-.058-2.499-.041-.485.001-.97.034-1.456.043-.26.004-.521-.007-.781-.005-.443.004-1.251-.494-1.327-.058-.06.35.586.493.655.842.04.205.028-.42.073-.625.082-.371.21-.731.331-1.091.723-1.809 1.677-3.585 3-5.02.523-.564 1.106-1.091 1.768-1.483.114-.068.233-.128.352-.187.67-.335.641-.434.613-.17-.014.144-.369-.193-.428-.062-.38.849.602 1.771.735 2.692.283 1.946-.217 4.127.722 5.855.585 1.075 2.331 1.09 3.546.946 1.285-.151 2.933-.522 3.495-1.687.572-1.188.253-2.63.222-3.948-.07-2.997-.651-6.272-2.487-8.642-1.251-1.616-3.357-2.795-5.398-2.906-2.352-.129-4.791 1-6.614 2.494-3.01 2.471-5.05 6.13-6.407 9.783l-.404 1.331-.113.486"/><path d="m669.02 128.04c1.036-1.234 1.951-2.565 2.872-3.887-1.206 1.35-4.141 1.47-5.426.195-.361-.358-.639-.81-.823-1.284-.038-.098-.069-.2-.098-.302-.024-.084-.043-.17-.06-.256-.015-.072-.026-.145-.036-.217-.007-.052-.013-.103-.017-.154-.065-.967.002-.643.024-.64.289.031-.068.579-.133.862-.165.727-.327 1.455-.494 2.181-.362 1.578-.764 3.147-1.115 4.728-.43 1.934-.858 3.891-.927 5.872-.042 1.207.191 3.143 1.381 3.349.581.101 1.121-.43 1.574-.807 1.757-1.459 2.582-3.811 3.421-5.936 1.354-3.43 3.883-6.998 3.135-10.61-.251-1.214-1.441-2.383-2.663-2.597-1.181-.207-2.552.482-3.307 1.413-1.862 2.362-3.842 4.699-6.233 6.526-.924.706-1.873 1.401-2.917 1.914-.472.232-2.041.446-1.515.448.841-.15.368.731.555.411.307-.528.028-1.223.11-1.828.155-1.145.411-2.274.613-3.412.179-1 .39-2.01.486-3.02.131-1.395.568-2.964-.086-4.202-.393-.743-1.509-1.01-2.345-.925-1.641.17-3.711.333-4.655 1.687-.826 1.184-.674 2.808-.984 4.218-.722 3.281-1.63 6.896-.519 10.07.745 2.127 2.864 3.916 5.04 4.507 5.64 1.146 11.157-4.146 15.14-8.299"/><path d="m674.82 125.16c-.944 3.8-1.53 7.688-2 11.575-.17 1.4-.42 2.875-.032 4.23.249.869 1.182 1.667 2.083 1.735.309.024.396-.502.672-.642.865-.441 1.683-1.165 2.055-2.061.702-1.689 1.333-3.406 1.927-5.135 1.928-5.618 3.225-11.512 5.909-16.81.318-.627.655-1.246 1.026-1.844.135-.217.279-.43.425-.641.124-.179.31-.314.418-.503.213-.376-.812.362-1.243.362-.366 0-.737-.088-1.07-.237-.103-.046-1.319-.376-.453-.364 1.173.016 1.16 2.405 2.305 2.662 2.12.476 4.735-1.109 5.78-3.01.585-1.068-.563-2.406-1.173-3.46-1.428-2.465-5.56-4.167-8.07-2.816-2.607 1.404-4.057 4.474-5.19 7.211-1.315 3.177-2.54 6.413-3.369 9.751"/><path d="m680.12 124.49c1.806.525 4.165 1.104 5.64-.062.819-.648 1.32-1.842 1.226-2.881-.173-1.899-2.543-2.979-4.25-3.829-1.525-.76-2.901-1.874-4.534-2.361-1.256-.374-3.281-.846-3.923.297-.623 1.109-.139 2.561.075 3.815.192 1.122-.079 2.455.613 3.358.402.525 1.319.162 1.951.356 1.102.338 2.095.985 3.202 1.307"/></g><path fill="#e6003c" stroke-width="8" d="m512.72 100.12c6.477 1.445 18.294 4.959 19.503 4 5.825-4.619 9.512-10.908 13.71-17.04 1.671-2.443 4.216-4.772 5.834-7.251 1.77-2.712 9.235-8.245 6.251-9.501-6.18-2.602-21.952-5.325-23.09-4.417-9.112 7.288-13.996 17.917-21.21 27.09-.881 1.12-1.688 2.301-2.625 3.376-.775.888-1.667 1.667-2.501 2.5-1.016 1.016 2.723.937 4.126 1.25"/><g fill="none" stroke="#000"><path stroke-width="5" d="m572.66 43.25c17.04 5.321 39.834 10 58.77 14.431 12.269 2.871 39.24 9.02 41.453 5.773 2.945-4.326-12.974-7.285-18.18-8.284-15.433-2.956-44.547-9.304-56.43-12.641-11.09-3.114-31.596-9.2-33.622-4.87-1.014 2.165 7.157 5.325 8.01 5.592Z"/><path stroke-width="4" d="m724.25 160.17c-6.519 14.457-12.722 29.05-19.253 43.506-3.15 6.969-9.877 18.627-8 21.503 1.97 3.02 6.565-9.875 9-15.253 4.922-10.865 14.715-34.776 19.378-45.756 2.308-5.436 1.302-9.384-1.125-4Z"/></g></g></svg>