<svg xmlns="http://www.w3.org/2000/svg" viewBox="0 0 521.00 338.00" enable-background="new 0 0 521.00 338.00"><g stroke-linejoin="round" stroke-width=".2"><path d="m378.67 219.07c-5.115 9.977-9.06 20.531-12.846 31.09-2.02 5.641-3.978 11.307-5.752 17.03-.908 2.931-1.754 5.886-2.462 8.873-.716 3.02-1.591 6.228-.953 9.268.329 1.567 1.973 3.364 3.568 3.217 1.022-.094 1.136-1.715 1.804-2.493.741-.863 1.889-1.285 2.71-2.072 1.311-1.257 2.309-2.836 3.151-4.446 2.863-5.467 5.253-11.17 7.844-16.772 6.889-14.889 13.407-30.02 21.704-44.17 9.348-15.947 21.403-30.359 34.434-43.47 4.735-4.764 9.632-9.364 14.408-14.09 1.442-1.424 2.882-2.85 4.292-4.305 1.09-1.126 2.439-2.278 2.747-3.814.399-1.985-1.088-4.161-2.628-5.474-2.56-2.184-6.26-3.466-9.606-3.106-1.23.133-2.312.97-3.278 1.743-1.375 1.1-2.742 2.21-4.092 3.34-4.236 3.547-8.288 7.317-12.217 11.202-17.17 16.984-31.808 36.957-42.828 58.45"/><path d="m374.26 286.32c6.997-2.095 14.1-3.842 21.263-5.286 4.273-.861 8.55-1.698 12.837-2.486 2.72-.5 5.442-.994 8.147-1.566 2.897-.613 6-1.109 8.426-2.813 1.422-1 2.411-3.307 1.752-4.916-.312-.761-1.6-.403-2.359-.72-.893-.373-1.502-1.241-2.356-1.697-1.295-.693-2.797-1-4.26-1.126-5.227-.437-10.501-.2-15.736.14-15.934 1.033-31.75 4.299-47.12 8.626l9.879 6.523c-.802-16.237-1.041-32.681-4.527-48.56-.568-2.59-1.149-5.184-1.936-7.716-.679-2.183-1.475-5.189-3.681-5.787-2.55-.691-5.414.597-7.678 1.957-1.855 1.116-3.899 2.467-4.704 4.477-.937 2.341.125 5.056.506 7.55.625 4.101 1.235 8.205 1.778 12.317 1.626 12.317 2.852 24.688 3.879 37.07.218 2.732 1.683 5.211 3.97 6.721 2.287 1.51 5.142 1.883 7.74 1.01 4.665-1.455 9.417-2.629 14.181-3.718"/><path d="m193.96 224.36c5.971 9.18 11.11 18.895 16.04 28.671 2.467 4.887 4.916 9.784 7.468 14.627 1.457 2.766 2.911 5.538 4.538 8.207 1.11 1.821 2.264 3.619 3.52 5.342 1.251 1.715 2.763 3.578 4.795 4.193 1.203.364 2.883.064 3.654-.928.737-.949-.723-2.375-.547-3.563.546-3.677-.304-7.548-1.58-11.04-2.68-7.327-5.399-14.64-8.277-21.892-8.933-22.51-21.453-43.781-36.19-63-10.298-13.163-20.648-26.493-33.02-37.73-2.125-1.93-4.24-3.888-6.553-5.588-1.342-.986-2.653-2.02-4.03-2.955-.407-.278-.845-.518-1.307-.69-1.111-.413-2.512-.264-3.54.326-3.641 2.088-5.199 7.551-4.632 11.71.387 2.836 3.049 4.902 5.069 6.93 3.263 3.276 6.523 6.558 9.711 9.908 8.825 9.274 16.993 19.16 25.18 29 7.284 8.95 13.907 18.487 19.694 28.471"/><path d="m224.37 267.73c-2.561-1.01-5.095-2.09-7.616-3.196-11.09-5.125-22.75-9.685-34.854-11.354-2.803-.387-5.633-.697-8.463-.662-1.51.018-3.03.147-4.505.476-1.288.288-2.672.908-3.419 1.996-.693 1.01-1.139 2.64-.439 3.643.492.705 1.783.299 2.429.866 1.204 1.056 2.278 2.335 3.707 3.059 3.272 1.657 6.966 2.301 10.42 3.534 9.499 3.387 18.637 7.766 27.61 12.369 7.721 3.87 15.566 7.488 23.392 11.141 2.207.926 4.721.758 6.783-.455 2.063-1.212 3.433-3.327 3.697-5.705.962-6.33 2-12.654 3.366-18.91 2.217-9.39 4.432-18.782 6.613-28.18.837-3.607 1.604-7.233 2.249-10.88.363-2.047 1.125-4.427.101-6.238-1-1.772-3.448-2.493-5.472-2.717-3.501-.387-8.07.065-10.163 2.895-1.048 1.415-1.214 3.308-1.72 4.995-.842 2.801-1.631 5.619-2.355 8.454-2.396 9.38-4.348 18.872-6.235 28.368-1.202 6.755-2.075 13.568-2.883 20.382l12.444-7.315c-4.927-2.117-9.83-4.293-14.687-6.565"/><path d="m327.38 50.697c.122-.544.281-1.125.475-1.74.193-.616.449-1.181.765-1.695.317-.514.73-.944 1.24-1.291.511-.347 1.161-.521 1.95-.521.742 0 1.406.204 1.991.612.585.408 1.113.824 1.582 1.245.565.361 1.106 1.087 1.623 2.179.518 1.092 1.053 2.438 1.608 4.04.555 1.599 1.15 3.408 1.787 5.426.636 2.02 1.339 4.129 2.108 6.334.769 2.205 1.63 4.459 2.582 6.763.953 2.304 2.035 4.548 3.247 6.732.19.333.416.726.678 1.179.262.453.528.88.797 1.281.268.401.517.738.745 1.01.228.272.396.408.505.408.061 0 .135-.158.22-.475.085-.316.182-.698.291-1.143.108-.446.221-.9.336-1.363.116-.463.228-.844.337-1.143.402-.966.843-2.079 1.322-3.338.48-1.259 1.013-2.78 1.598-4.563.585-1.783 1.228-3.901 1.929-6.355.701-2.453 1.477-5.358 2.328-8.713.211-.823.439-1.758.684-2.802.245-1.045.48-2.111.704-3.2.225-1.089.422-2.151.592-3.185.17-1.034.286-1.933.347-2.695 0-.129.011-.352.031-.669.02-.316.058-.675.112-1.077.055-.401.124-.818.209-1.251.086-.432.198-.829.337-1.189.14-.361.315-.657.526-.888.211-.231.466-.347.766-.347.299 0 .667.042 1.102.128.436.085.834.213 1.195.383.401.544.767 1.203 1.097 1.975.33.773.495 1.812.495 3.119 0 .823-.085 1.81-.255 2.96-.17 1.15-.388 2.385-.653 3.706-.266 1.32-.564 2.678-.894 4.073-.33 1.395-.665 2.731-1.01 4.01-.341 1.276-.664 2.447-.97 3.512-.306 1.065-.568 1.948-.786 2.649-.381 1.225-.779 2.486-1.194 3.782-.416 1.296-.873 2.658-1.373 4.083-.501 1.426-1.043 2.937-1.629 4.532-.585 1.596-1.238 3.302-1.96 5.12-.32.823-.687 1.647-1.102 2.47-.415.824-.888 1.567-1.419 2.231-.531.664-1.132 1.201-1.802 1.613-.67.412-1.421.618-2.251.618-.49 0-.995-.068-1.516-.204-.52-.136-.961-.415-1.322-.837-1.762-1.994-3.331-4.258-4.706-6.794-1.375-2.535-2.605-5.186-3.69-7.952-1.086-2.766-2.049-5.564-2.889-8.391-.841-2.828-1.604-5.535-2.292-8.121l-.194-.725c-.088-.293-.17-.592-.245-.898-.075-.306-.15-.585-.224-.837-.075-.252-.16-.456-.256-.612-.095-.157-.207-.235-.336-.235-.13 0-.291.23-.485.689-.194.459-.388.978-.582 1.557-.194.578-.371 1.14-.531 1.684-.16.544-.26.888-.301 1.031-.157.544-.385 1.325-.684 2.343-.3 1.017-.638 2.164-1.016 3.44-.378 1.276-.786 2.627-1.225 4.053-.439 1.426-.863 2.804-1.271 4.134-.408 1.331-.796 2.561-1.164 3.69-.367 1.13-.667 2.042-.898 2.736-.197.544-.435 1.245-.715 2.103-.279.858-.558 1.722-.837 2.593-.279.871-.537 1.662-.775 2.373-.239.711-.388 1.182-.45 1.414-.251.796-.627 1.399-1.128 1.807-.5.408-1 .612-1.516.612-.319 0-.638-.111-.954-.332-.316-.221-.597-.488-.842-.801-.245-.313-.448-.653-.608-1.021-.16-.368-.239-.698-.239-.99 0-.17.052-.437.158-.801.105-.364.277-.989.515-1.873l.827-3.236 9.443-30.12"/><path d="m368.05 76.7c0-1.048.238-1.938.714-2.669.477-.732 1.11-1.22 1.899-1.465.232-.449.585-1.058 1.062-1.827.476-.769 1.068-1.604 1.776-2.506.708-.902 1.513-1.808 2.414-2.721.902-.912 1.899-1.742 2.991-2.491 1.093-.749 2.267-1.359 3.522-1.832 1.256-.473 2.588-.709 3.997-.709 1.204 0 2.254.151 3.149.454.895.303 1.633.725 2.215 1.266.582.541 1.018 1.184 1.307 1.929.289.745.434 1.55.434 2.414 0 .735-.092 1.436-.276 2.103-.286 1.211-.816 2.271-1.592 3.18-.776.909-1.69 1.703-2.741 2.384-1.052.681-2.193 1.249-3.425 1.705-1.232.456-2.465.835-3.701 1.138-1.235.303-2.424.534-3.567.694-1.144.16-2.134.284-2.971.373-.184.286-.342.645-.475 1.077-.133.432-.199.852-.199 1.261 0 .919.482 1.63 1.445 2.134.963.504 2.295.755 3.996.755.987 0 1.931-.082 2.833-.245.902-.163 1.756-.373 2.562-.628.807-.255 1.566-.533 2.277-.832.711-.299 1.363-.596 1.955-.888.755-.374 1.473-.689 2.154-.944.68-.255 1.282-.383 1.806-.383.524 0 .86.129 1.01.388.146.259.22.531.22.817 0 .17-.006.332-.016.485-.001.153-.025.284-.046.393-.109.538-.323 1.075-.643 1.613-.32.538-.721 1-1.204 1.388-2.212 1.695-4.482 2.904-6.809 3.629-2.328.725-4.809 1.087-7.442 1.087-.511 0-1.111-.031-1.802-.092-.691-.061-1.407-.182-2.149-.362-.742-.18-1.475-.441-2.2-.781-.725-.34-1.368-.791-1.929-1.353-.562-.561-1.018-1.254-1.368-2.077-.351-.823-.526-1.817-.526-2.981 0-.946.136-2 .408-3.165-.272-.048-.517-.213-.734-.495-.218-.282-.327-.689-.327-1.22m19.539-8.463c.04-.088.061-.169.061-.24 0-.071 0-.148 0-.23 0-.47-.201-.822-.602-1.057-.402-.235-.885-.352-1.45-.352-.878 0-1.744.199-2.598.597-.854.398-1.659.897-2.414 1.495-.756.599-1.424 1.24-2.01 1.924-.582.684-1.033 1.305-1.353 1.863 1.443-.102 2.768-.27 3.976-.505 1.208-.235 2.258-.531 3.15-.888.891-.357 1.612-.757 2.164-1.2.551-.442.908-.912 1.072-1.409Z"/><path d="m399.76 87.989c-.49.388-1.137.582-1.94.582-.36 0-.685-.077-.975-.23-.289-.153-.534-.354-.735-.602-.2-.248-.353-.529-.459-.842-.105-.313-.158-.629-.158-.949 0-.456.092-.841.275-1.153.184-.313.41-.584.679-.812.269-.228.56-.419.873-.572.313-.153.599-.284.858-.393.857-.558 1.824-1.249 2.899-2.072 1.075-.823 2.184-1.705 3.328-2.644 1.143-.939 2.28-1.897 3.409-2.874 1.13-.977 2.202-1.907 3.216-2.792l1.45-1.296c-.334-1.103-.667-2.049-1-2.838-.333-.789-.667-1.499-1-2.128-.334-.629-.672-1.22-1.016-1.771-.344-.551-.713-1.14-1.108-1.766-.36-.565-.634-.999-.821-1.302-.188-.303-.281-.607-.281-.914 0-.211.053-.475.158-.791.106-.316.271-.621.495-.914.225-.293.512-.541.863-.745.35-.204.76-.306 1.23-.306.68 0 1.283.146 1.807.439.524.293.988.665 1.393 1.118.405.453.757.944 1.057 1.475.299.531.565 1.035.796 1.511.129.259.269.604.419 1.036.149.432.292.892.428 1.378.136.487.269.963.398 1.429.13.466.235.873.317 1.22.939-.898 1.851-1.841 2.736-2.828.884-.987 1.871-2.133 2.96-3.44.34-.408.696-.849 1.067-1.322.371-.473.759-.907 1.164-1.301.405-.395.821-.721 1.25-.98.429-.259.888-.388 1.378-.388.831 0 1.421.214 1.771.643.351.429.526.99.526 1.684 0 .728-.136 1.399-.408 2.01-.272.612-.623 1.092-1.052 1.439-.626.49-1.313 1.085-2.062 1.786-.748.701-1.507 1.438-2.276 2.21-.769.773-1.531 1.536-2.287 2.292-.755.755-1.449 1.433-2.082 2.031-.259.238-.48.475-.664.709-.184.235-.275.536-.275.903 0 .218.059.49.178.817.119.327.271.674.454 1.041.184.368.368.742.552 1.123.183.381.34.721.469 1.021.259.585.621 1.279 1.087 2.082.467.803.933 1.645 1.399 2.527.466.881.873 1.776 1.22 2.685.347.909.521 1.778.521 2.608 0 .517-.075.999-.225 1.445-.15.446-.34.837-.572 1.174-.231.337-.49.602-.776.796-.285.194-.558.291-.816.291-.552 0-.992-.065-1.322-.194-.33-.129-.611-.325-.842-.587-.232-.262-.427-.582-.587-.96-.16-.378-.336-.818-.526-1.322-.279-.803-.642-1.725-1.087-2.766-.446-1.041-.907-2.072-1.384-3.093-.476-1.021-.927-1.97-1.352-2.848-.426-.878-.754-1.545-.985-2-.592.476-1.201.968-1.828 1.475-.626.507-1.437 1.162-2.434 1.965-.997.803-2.266 1.82-3.808 3.052-1.541 1.232-3.52 2.811-5.936 4.737"/><path d="m437.31 79.58c0-1.81.203-3.692.608-5.645.405-1.953.832-3.825 1.281-5.615-.552-.02-1.127-.107-1.725-.26-.599-.153-1.157-.361-1.675-.623-.517-.262-.939-.584-1.265-.965-.327-.381-.49-.82-.49-1.317 0-.197.044-.449.132-.755.089-.306.216-.606.383-.898.167-.293.383-.543.648-.75.266-.208.565-.311.899-.311h4.471c.422 0 .711-.174.868-.521.156-.347.279-.687.367-1.021.286-1.218.556-2.271.812-3.159.255-.888.473-1.642.653-2.261.18-.619.32-1.123.419-1.511.098-.388.148-.698.148-.929 0-.272-.012-.534-.036-.786-.024-.252-.036-.596-.036-1.031v-.317c0-.17.017-.391.051-.664.034-.272.136-.66.306-1.164.13-.395.364-.771.705-1.128.34-.357.84-.536 1.5-.536.572 0 1.06.116 1.465.347.405.231.735.534.99.909.256.374.446.803.572 1.286.126.483.189.966.189 1.45 0 .517-.054.987-.163 1.409l-2.328 8.789c1.15-.191 2.169-.371 3.058-.541.888-.17 1.778-.34 2.669-.51.973-.197 1.814-.381 2.521-.551.708-.17 1.316-.313 1.823-.429.507-.116.934-.211 1.281-.286.347-.075.636-.112.868-.112.34 0 .685.029 1.036.087.35.058.656.158.918.301.262.143.479.344.649.602.17.259.255.602.255 1.031 0 .565-.101 1.065-.301 1.501-.201.436-.461.813-.781 1.133-.32.32-.682.58-1.087.781-.405.201-.812.349-1.22.444-.341.055-.783.138-1.327.25-.545.112-1.142.235-1.792.367-.65.133-1.325.274-2.026.424-.701.15-1.385.299-2.052.449-.98.231-1.816.422-2.506.572-.691.15-1.281.262-1.771.337-.49.075-.89.131-1.2.169-.31.037-.56.056-.75.056-.409 1.211-.761 2.402-1.057 3.573-.296 1.171-.546 2.261-.75 3.272-.204 1.01-.354 1.916-.449 2.715-.096.8-.143 1.421-.143 1.863 0 .579.054 1.128.163 1.649.109.521.291.971.546 1.353.255.381.601.684 1.036.909.436.225.984.337 1.644.337 1.123 0 2.227-.317 3.313-.949 1.085-.633 2.123-1.436 3.113-2.409.99-.973 1.926-2.038 2.807-3.195.882-1.157 1.693-2.259 2.435-3.308.259-.395.589-.592.99-.592.13 0 .284.022.465.066.18.044.355.121.525.23.171.109.315.252.434.429.119.177.179.385.179.623 0 .177-.014.31-.041.398-.34 1.354-.866 2.717-1.577 4.088-.711 1.371-1.438 2.744-2.18 4.119-.258.483-.595.955-1.01 1.414-.415.459-.866.903-1.353 1.332-.486.429-.997.835-1.531 1.22-.534.385-1.033.73-1.496 1.036-.809.524-1.692.885-2.649 1.082-.956.197-1.883.296-2.781.296-1.382 0-2.61-.254-3.686-.76-1.075-.507-1.978-1.198-2.71-2.072-.731-.875-1.29-1.894-1.674-3.057-.385-1.164-.577-2.416-.577-3.757"/><path fill="#e0e0e0" d="m228.06 124.23h26.01c6.075 0 11 4.925 11 11v26.01c0 6.075-4.925 11-11 11h-26.01c-6.076 0-11-4.925-11-11v-26.01c0-6.075 4.924-11 11-11"/><path d="m247.24 155.7h-5.03l-7.324-7.47 7.324-7.467h5.03l-7.134 7.467 7.134 7.47"/><path fill="#e0e0e0" d="m332.65 124.23h26.01c6.076 0 11 4.925 11 11v26.01c0 6.075-4.924 11-11 11h-26.01c-6.075 0-11-4.925-11-11v-26.01c0-6.075 4.925-11 11-11"/><path d="m346.61 148.23l-7.136-7.467h5.03l7.323 7.467-7.323 7.47h-5.03l7.136-7.47"/><path d="m24.806 87.77c.088-.395.213-.766.373-1.113.16-.347.335-.737.526-1.169.191-.432.391-.946.602-1.541.211-.595.425-1.339.643-2.23l1.245-5.196c.293-1.259.599-2.545.919-3.859.32-1.313.694-2.794 1.123-4.441.34-1.32.749-2.702 1.225-4.145.476-1.443.977-2.933 1.501-4.471.524-1.538 1.051-3.12 1.582-4.747.531-1.627 1.01-3.307 1.429-5.04.027-.055.041-.129.041-.225 0-.15-.054-.243-.163-.281-.109-.038-.248-.056-.418-.056-.531 0-.972-.071-1.322-.214-.35-.143-.626-.327-.827-.551-.201-.225-.344-.483-.429-.776-.085-.293-.128-.599-.128-.919 0-.83.111-1.495.332-1.996.221-.5.507-.888.858-1.164.35-.276.733-.475 1.148-.597.415-.122.82-.221 1.215-.296.395-.075.74-.155 1.036-.24.296-.085.509-.24.638-.464.211-.463.408-.953.592-1.47.184-.517.413-.997.689-1.439.276-.442.616-.806 1.021-1.092.405-.286.938-.429 1.598-.429.463 0 .876.133 1.24.398.364.266.679.597.944.995.265.398.493.825.684 1.281.191.456.361.871.51 1.245 2.294.061 4.282.182 5.967.362 1.684.18 2.949.342 3.792.485 1.674.286 3.353.711 5.04 1.276 1.684.565 3.2 1.298 4.548 2.2 1.347.902 2.45 1.963 3.307 3.185.858 1.221 1.286 2.622 1.286 4.201 0 .81-.099 1.65-.296 2.521l-.225 1.062c-.177.851-.544 1.64-1.103 2.368-.558.728-1.188 1.385-1.888 1.97-1.953 1.66-4.09 3.052-6.411 4.175-2.321 1.123-4.74 2.069-7.258 2.838-2.518.769-5.092 1.415-7.723 1.94-2.63.524-5.228 1.021-7.794 1.49l-.919.112c-.504.061-.8.235-.888.521-.436 1.579-.779 2.964-1.031 4.155-.252 1.191-.487 2.329-.704 3.415-.218 1.085-.437 2.173-.658 3.261-.221 1.089-.495 2.297-.822 3.624-.109.436-.301.949-.577 1.541-.276.592-.606 1.152-.99 1.679-.385.527-.827.98-1.327 1.358-.5.378-1.026.567-1.577.567-.381 0-.711-.109-.99-.327-.279-.218-.509-.493-.689-.827-.18-.334-.318-.696-.413-1.087-.095-.391-.143-.761-.143-1.108 0-.129 0-.253 0-.372 0-.119.02-.233.061-.342m12.689-23.622c-.048.156-.109.35-.184.582-.075.231-.145.475-.209.73-.065.255-.119.488-.163.699-.044.211-.066.361-.066.449 0 .109.017.203.051.281.034.078.106.117.214.117.061 0 .265-.027.612-.082.347-.054.766-.126 1.256-.214.49-.088 1.017-.189 1.582-.301.565-.112 1.106-.223 1.623-.332 1.416-.313 2.926-.706 4.533-1.179 1.606-.473 3.207-1.01 4.803-1.608 1.596-.599 3.122-1.242 4.578-1.929 1.456-.687 2.749-1.419 3.879-2.195 1.191-.817 2.145-1.635 2.863-2.455.718-.82 1.077-1.693 1.077-2.618 0-.558-.07-1.051-.209-1.48-.139-.429-.298-.82-.475-1.174-.653-1.089-1.468-1.943-2.445-2.562-.977-.619-2.04-1.084-3.19-1.393-1.15-.31-2.355-.509-3.614-.597-1.259-.089-2.498-.133-3.716-.133-.327 0-.822.022-1.485.066-.664.044-1.359.1-2.088.169-.728.068-1.4.151-2.02.25-.616.099-1.033.213-1.251.342-.109.068-.202.18-.281.337-.078.157-.138.289-.179.398-.177.442-.417 1.056-.72 1.842-.303.786-.628 1.666-.975 2.639-.347.973-.711 2-1.092 3.088-.381 1.086-.745 2.142-1.092 3.17-.347 1.028-.667 1.991-.96 2.889-.293.898-.514 1.633-.664 2.205Z"/><path d="m68.69 85.28c.293-1.45.633-3.042 1.021-4.777.388-1.736.786-3.493 1.194-5.273.408-1.78.806-3.527 1.194-5.242.388-1.715.718-3.287.99-4.716 0-.204 0-.385 0-.541 0-.157 0-.327 0-.51 0-.64.043-1.281.128-1.924.085-.643.203-1.233.352-1.771.231-.783.492-1.314.781-1.593.289-.279.754-.419 1.393-.419.613 0 1.106.109 1.48.327.374.218.667.529.878.934.211.405.349.868.413 1.388.065.521.097 1.056.097 1.608 0 .299-.012.63-.036.99-.024.361-.036.647-.036.858.592-.612 1.218-1.244 1.878-1.894.66-.65 1.363-1.235 2.108-1.756.745-.521 1.531-.951 2.358-1.291.827-.34 1.693-.51 2.598-.51.354 0 .704.032 1.051.097.347.065.698.151 1.051.26.422.102.858.245 1.307.429.449.184.885.436 1.307.755.687.538 1.268 1.206 1.741 2.01.473.8.709 1.618.709 2.455 0 .32-.065.667-.194 1.041-.129.374-.306.716-.531 1.026-.225.31-.485.567-.781.771-.296.204-.628.306-.995.306-.361 0-.803-.088-1.327-.265-.524-.177-.956-.408-1.296-.694-.15-.129-.305-.308-.465-.536-.16-.228-.31-.456-.449-.684-.139-.228-.269-.441-.388-.638-.119-.197-.209-.327-.27-.388-.109-.02-.226-.036-.352-.046-.126-.001-.243-.015-.352-.015-1.089 0-2.125.265-3.108.796-.983.531-1.902 1.181-2.756 1.95-.854.769-1.64 1.589-2.358 2.46-.718.871-1.342 1.654-1.873 2.348-.429 1.66-.905 3.428-1.429 5.303-.524 1.875-1.041 3.833-1.552 5.875v.776c0 .612-.022 1.235-.066 1.868-.044.633-.172 1.198-.383 1.695-.231.306-.567.566-1.01.781-.439.214-.944.322-1.516.322-.898 0-1.57-.284-2.02-.852-.446-.568-.669-1.237-.669-2.01 0-.347.058-.708.173-1.082"/><path d="m95.96 76.7c0-1.048.238-1.938.715-2.669.476-.731 1.109-1.22 1.899-1.465.231-.449.585-1.058 1.062-1.827.477-.769 1.069-1.604 1.776-2.506.708-.902 1.512-1.809 2.414-2.721.902-.912 1.899-1.742 2.991-2.491 1.092-.749 2.266-1.359 3.522-1.832 1.256-.473 2.588-.709 3.996-.709 1.205 0 2.255.151 3.15.454.895.303 1.633.725 2.215 1.266.582.541 1.017 1.184 1.307 1.929.289.745.433 1.55.433 2.414 0 .735-.091 1.436-.275 2.103-.286 1.211-.817 2.271-1.593 3.18-.775.909-1.689 1.703-2.741 2.384-1.051.681-2.193 1.249-3.424 1.705-1.232.456-2.466.835-3.701 1.138-1.235.303-2.424.534-3.568.694-1.143.16-2.133.284-2.97.373-.184.286-.342.645-.475 1.077-.133.432-.199.852-.199 1.261 0 .919.481 1.63 1.444 2.133.963.504 2.295.755 3.997.755.987 0 1.931-.082 2.833-.245.901-.163 1.756-.373 2.562-.628.806-.255 1.565-.533 2.276-.832.712-.299 1.363-.596 1.955-.888.756-.374 1.474-.689 2.154-.944.681-.255 1.283-.383 1.807-.383.524 0 .859.129 1.01.388.146.259.219.531.219.817 0 .17-.005.332-.015.485-.001.153-.026.284-.046.393-.109.538-.323 1.075-.643 1.613-.32.538-.722 1-1.205 1.388-2.212 1.695-4.481 2.904-6.809 3.629-2.327.725-4.808 1.087-7.442 1.087-.51 0-1.111-.031-1.801-.092-.691-.061-1.407-.182-2.149-.362-.742-.18-1.475-.441-2.2-.781-.725-.34-1.368-.791-1.93-1.353-.561-.561-1.017-1.254-1.368-2.077-.351-.823-.526-1.817-.526-2.981 0-.946.136-2 .408-3.165-.272-.048-.517-.213-.735-.495-.218-.282-.327-.689-.327-1.22m19.538-8.463c.041-.088.061-.168.061-.24 0-.071 0-.148 0-.23 0-.47-.2-.822-.602-1.057-.401-.235-.885-.352-1.449-.352-.878 0-1.744.199-2.598.597-.854.398-1.659.897-2.415 1.495-.755.599-1.424 1.24-2.01 1.924-.581.684-1.032 1.305-1.352 1.863 1.443-.102 2.768-.27 3.976-.505 1.208-.235 2.258-.531 3.149-.888.892-.357 1.613-.757 2.164-1.2.552-.442.909-.912 1.072-1.409Z"/><path d="m138.82 90.47c-.102.02-.19.036-.265.046-.075.001-.153.015-.235.015-.449 0-.842-.095-1.179-.286-.337-.191-.626-.431-.868-.72-.241-.289-.427-.599-.556-.929-.129-.33-.194-.645-.194-.944-.102-.449-.248-1.089-.439-1.919-.191-.83-.407-1.768-.648-2.812-.242-1.045-.495-2.168-.761-3.369-.265-1.201-.525-2.409-.781-3.624-.255-1.215-.488-2.399-.699-3.553-.211-1.153-.388-2.207-.531-3.159-.109-.687-.226-1.329-.352-1.924-.126-.596-.242-1.166-.347-1.71-.106-.544-.196-1.077-.271-1.598-.074-.521-.112-1.046-.112-1.577 0-.599.065-1.171.194-1.715.129-.544.315-1.024.556-1.439.242-.415.54-.75.894-1.01.354-.255.742-.383 1.163-.383.851 0 1.527.208 2.027.623.5.415.888.968 1.164 1.659.275.691.473 1.494.592 2.409.119.915.209 1.863.27 2.843.082 1.239.218 2.576.409 4.01.19 1.436.401 2.874.632 4.313.232 1.439.468 2.824.71 4.155.241 1.331.458 2.506.648 3.527.626-.66 1.729-2.134 3.308-4.42.775-1.109 1.495-2.135 2.159-3.078.663-.943 1.289-1.846 1.878-2.71.589-.864 1.145-1.724 1.669-2.578.524-.854 1.033-1.74 1.526-2.659.494-.919.977-1.897 1.45-2.935.473-1.038.951-2.186 1.434-3.445.15-.252.33-.522.541-.812.211-.289.461-.546.75-.771.29-.224.62-.412.991-.561.371-.15.791-.225 1.26-.225.98 0 1.646.245 1.996.735.351.49.526 1.109.526 1.858 0 1.01-.174 1.986-.521 2.935-.347.949-.902 1.968-1.664 3.057l-14.863 21.21c-.3.64-.607 1.172-.924 1.598-.316.425-.628.767-.934 1.026-.306.259-.597.451-.873.577-.275.126-.519.213-.73.26"/><path d="m160.26 82.997c.313-1.198.692-2.593 1.138-4.185.446-1.593.919-3.279 1.419-5.058.5-1.78 1.01-3.6 1.516-5.461.51-1.861.99-3.67 1.439-5.426.021-.082.096-.221.225-.419.129-.197.31-.393.541-.587.231-.194.529-.364.893-.51.364-.146.788-.219 1.271-.219.368 0 .721.036 1.062.107.34.072.643.18.908.327.266.146.478.339.638.577.16.238.24.511.24.817 0 .061 0 .129 0 .204 0 .075-.013.143-.041.204l-.888 3.287c-1 3.682-2.02 7.372-3.047 11.07-1.031 3.699-2.037 7.409-3.02 11.132-.041.123-.104.277-.189.464-.085.187-.201.374-.347.561-.147.187-.325.342-.536.465-.211.123-.463.184-.756.184-.544 0-1.026-.109-1.444-.327-.419-.218-.776-.492-1.072-.822-.296-.33-.517-.691-.664-1.082-.146-.391-.219-.764-.219-1.118 0-.102 0-.196 0-.281 0-.085 0-.179 0-.281l.929-3.624m8.381-32.12c.109-.442.306-.985.592-1.628.286-.643.789-1.22 1.511-1.73.347-.191.772-.366 1.276-.526.503-.16.864-.24 1.082-.24.218 0 .442.075.674.225.231.15.432.31.602.48.225.211.432.446.623.704.551.041.908.233 1.072.577.163.344.244.747.244 1.21 0 .347-.032.658-.096.934-.065.276-.121.499-.169.669-.129.449-.379.861-.75 1.235-.371.374-.798.694-1.281.96-.484.265-.987.473-1.511.623-.524.15-.984.225-1.378.225-.504 0-.892-.085-1.164-.255-.272-.17-.616-.534-1.031-1.092-.238-.32-.374-.57-.408-.75-.034-.18-.051-.335-.051-.465 0-.231.017-.439.051-.623.034-.184.071-.361.112-.531Z"/><path d="m176.89 76.81c.32-1.32.815-2.722 1.485-4.206.671-1.484 1.549-2.983 2.634-4.497 1.086-1.514 2.389-2.994 3.91-4.441 1.521-1.446 3.282-2.799 5.283-4.058.32-.191.81-.4 1.47-.628.66-.228 1.341-.366 2.042-.413.83-.905 1.949-1.358 3.358-1.358 1.654 0 3.051.427 4.191 1.281 1.139.854 2.084 2.02 2.832 3.486.232.476.448.943.649 1.399.2.456.371.937.51 1.444.14.507.252 1.053.337 1.638.085.585.127 1.245.127 1.98 0 1.708-.265 3.449-.796 5.222-.531 1.773-1.286 3.503-2.266 5.191-.98 1.688-2.168 3.304-3.563 4.849-1.395 1.545-2.943 2.933-4.645 4.165-1.15.844-2.421 1.499-3.812 1.965-1.392.466-2.952.699-4.681.699-1.633 0-3.052-.221-4.257-.663-1.204-.442-2.205-1.075-3-1.899-.796-.823-1.392-1.809-1.786-2.955-.395-1.147-.593-2.421-.593-3.823 0-1.368.191-2.828.572-4.379m5.656.286c-.13.483-.22.944-.271 1.383-.051.439-.077.859-.077 1.261 0 .701.089 1.354.266 1.96.177.606.463 1.126.857 1.562.395.436.887.776 1.476 1.021.588.245 1.308.368 2.159.368 1.578 0 3.047-.41 4.404-1.23 1.358-.82 2.566-1.846 3.624-3.078 1.059-1.232 1.945-2.555 2.66-3.971.714-1.416 1.218-2.715 1.511-3.9.183-.749.343-1.453.479-2.113.136-.66.205-1.266.205-1.817 0-.551-.099-1.067-.297-1.547-.197-.48-.452-1.016-.765-1.608-.184-.361-.369-.738-.557-1.133-.187-.395-.352-.783-.495-1.164-.17.299-.347.56-.53.781-.184.221-.463.422-.838.602-.374.18-.883.345-1.526.495-.643.15-1.485.279-2.526.388-.681.231-1.373.592-2.078 1.082-.704.49-1.393 1.065-2.067 1.725-.674.66-1.317 1.373-1.929 2.139-.613.766-1.162 1.547-1.649 2.343-.486.796-.912 1.577-1.276 2.343-.364.766-.618 1.468-.76 2.108Z"/><path d="m216.94 61.03c.082-.34.203-.63.363-.868.16-.238.332-.432.515-.582.184-.15.351-.255.501-.316.149-.061.265-.092.347-.092.231 0 .507.026.827.077.319.051.629.097.929.138.34.068.67.133.99.194.551.02.949.24 1.194.658.245.419.368.917.368 1.495 0 .463-.065.892-.194 1.286-.722 2.607-1.38 4.876-1.976 6.809-.595 1.933-1.1 3.576-1.516 4.931-.415 1.354-.735 2.46-.959 3.318-.225.858-.337 1.504-.337 1.94 0 .442.059.934.179 1.475.119.541.296 1.046.53 1.516.235.47.533.861.894 1.174.36.313.799.47 1.316.47.892 0 1.797-.27 2.716-.812.919-.541 1.795-1.203 2.629-1.986.833-.783 1.587-1.618 2.261-2.506.673-.888 1.225-1.676 1.653-2.363l.827-1.409c.518-.878.994-1.885 1.429-3.02.436-1.137.821-2.278 1.154-3.425.334-1.147.618-2.225.852-3.236.235-1.01.417-1.819.547-2.425l.826-4.165c.171-.789.433-1.336.786-1.638.354-.303.946-.454 1.777-.454.537 0 1.019.058 1.444.174.426.116.788.318 1.087.607.3.289.523.679.669 1.169.146.49.22 1.119.22 1.889 0 .898-.143 1.997-.429 3.297-.286 1.3-.599 2.606-.939 3.92-.191.769-.388 1.586-.592 2.45-.205.864-.385 1.729-.542 2.593-.156.864-.284 1.688-.382 2.47-.099.783-.148 1.484-.148 2.103 0 1.062.037 2.125.112 3.19.075 1.065.112 2.19.112 3.374 0 .538-.015 1.016-.046 1.434-.03.419-.076.73-.138.934-.251.817-.573 1.422-.964 1.817-.392.395-1.06.592-2.01.592-.653 0-1.171-.066-1.552-.199-.381-.133-.679-.311-.893-.536-.214-.224-.354-.475-.419-.75-.064-.276-.11-.556-.137-.842l-.368-5.798.051.092c-.708.885-1.477 1.871-2.307 2.96-.83 1.089-1.749 2.105-2.756 3.047-1.01.943-2.103 1.734-3.287 2.373-1.184.64-2.471.96-3.859.96-.279 0-.638-.068-1.077-.204-.439-.136-.893-.31-1.363-.521-.469-.211-.917-.447-1.342-.709-.426-.262-.768-.509-1.026-.74-1.177-1.068-2.01-2.273-2.501-3.614-.49-1.341-.735-2.705-.735-4.094 0-.776.063-1.552.189-2.328.126-.776.274-1.524.444-2.246.17-.721.357-1.402.561-2.042.204-.64.368-1.211.49-1.715.409-1.572.771-2.955 1.087-4.15.317-1.194.598-2.243.843-3.144.245-.902.452-1.672.622-2.312.17-.64.32-1.201.449-1.684"/><path d="m248.11 82.935c.163 0 .313.02.449.061.136.041.289.088.459.143.17.054.359.102.567.143.207.041.481.061.822.061.98 0 2.072-.1 3.276-.301 1.205-.201 2.343-.459 3.415-.776 1.072-.317 1.989-.679 2.751-1.087.763-.408 1.198-.834 1.307-1.276.061-.238.092-.446.092-.623 0-.367-.175-.721-.526-1.062-.35-.34-.791-.662-1.322-.965-.531-.303-1.104-.585-1.72-.847-.616-.262-1.189-.502-1.72-.72l-1.082-.459c-.558-.218-1.103-.485-1.634-.801-.53-.317-1.024-.682-1.48-1.097-.456-.415-.859-.9-1.209-1.455-.351-.555-.611-1.193-.781-1.914-.082-.306-.15-.611-.205-.914-.054-.303-.081-.631-.081-.985 0-.565.184-1.211.551-1.94.368-.728.861-1.453 1.48-2.174.62-.721 1.324-1.409 2.113-2.062.79-.653 1.617-1.198 2.481-1.633.633-.456 1.244-.869 1.832-1.24.589-.371 1.183-.687 1.782-.949.599-.262 1.208-.47 1.827-.623.619-.153 1.276-.23 1.97-.23.633 0 1.317.038 2.052.112.735.075 1.407.247 2.02.516.609.269 1.12.669 1.532 1.2.411.531.617 1.242.617 2.134 0 .265-.03.621-.092 1.067-.061.446-.166.864-.316 1.256-.15.391-.329.725-.536 1-.208.276-.458.413-.75.413-.484 0-.882-.095-1.195-.286-.313-.191-.595-.398-.847-.623-.252-.225-.514-.432-.786-.623-.272-.191-.609-.286-1.01-.286-.476 0-1.034.082-1.674.245-.64.163-1.295.385-1.965.664-.67.279-1.325.602-1.965.97-.64.368-1.217.744-1.73 1.128-.514.385-.928.766-1.241 1.143-.313.378-.469.72-.469 1.026 0 .367.117.672.352.914.235.242.532.451.893.628.463.259.997.519 1.603.781.605.262 1.218.524 1.837.786.62.262 1.22.524 1.802.786.582.262 1.087.502 1.516.72.572.299 1.085.597 1.541.893.456.296.844.618 1.164.965.32.347.565.74.735 1.179.17.439.255.951.255 1.536 0 .286-.02.57-.061.852-.041.282-.105.607-.194.975-.061.327-.17.71-.326 1.148-.157.439-.325.869-.506 1.291-.18.422-.366.803-.556 1.143-.191.34-.347.565-.47.674-.823.783-1.791 1.518-2.904 2.205-1.113.687-2.275 1.286-3.486 1.797-1.212.51-2.423.919-3.634 1.225-1.212.306-2.321.459-3.328.459-.504 0-1.06-.111-1.669-.332-.609-.221-1.173-.512-1.69-.873-.517-.361-.949-.776-1.296-1.245-.347-.47-.521-.936-.521-1.399 0-.231.063-.493.189-.786.126-.293.282-.562.47-.806.187-.245.391-.448.612-.607.221-.16.427-.24.618-.24"/></g></svg>